<svg xmlns="http://www.w3.org/2000/svg" width="695" height="800" viewBox="0 0 695 800">
  <g fill="none" fill-rule="evenodd" transform="translate(-53)">
    <rect width="800" height="800"/>
    <g fill="#070A14" transform="translate(53)">
      <path d="M347.244094,0 L694.488189,200 L694.488189,600 L347.244094,800 L-5.68434189e-14,600 L-2.84217094e-13,200 L347.244094,0 Z M346.465567,101.718213 L86.9890595,251.167268 L86.9890595,550.065376 L346.465567,699.514431 L605.942075,550.065376 L605.942075,251.167268 L346.465567,101.718213 Z"/>
      <path d="M398.231558,213.888889 L445.084903,240.288119 L445.084903,388.888889 L296.256071,388.888889 L296.256071,413.888889 L445.084903,413.888889 L445.084903,562.24948 L398.231558,588.64871 L398.231071,461.110889 L296.256071,461.110889 L296.256631,588.888889 L249.403286,562.489659 L249.403286,240.288119 L296.256631,213.888889 L296.256071,341.665889 L398.231071,341.665889 L398.231558,213.888889 Z M219.086416,257.388035 L219.086416,545.069504 L172.233071,518.670274 L172.233071,283.787265 L219.086416,257.388035 Z M475.401773,257.388035 L522.255118,283.787265 L522.255118,518.670274 L475.401773,545.069504 L475.401773,257.388035 Z"/>
    </g>
  </g>
</svg>
