<?xml version="1.0" encoding="UTF-8"?>
<svg width="694px" height="800px" viewBox="0 0 694 800" version="1.1" xmlns="http://www.w3.org/2000/svg" xmlns:xlink="http://www.w3.org/1999/xlink">
    <!-- Generator: Sketch 52.5 (67469) - http://www.bohemiancoding.com/sketch -->
    <title>Safari Pinned Tab Logo</title>
    <desc>Created with Sketch.</desc>
    <g id="Safari-Pinned-Tab" stroke="none" stroke-width="1" fill="none" fill-rule="evenodd">
        <g id="Desktop-HD" transform="translate(-401.000000, -139.000000)">
            <g id="Safari-Pinned-Tab-Logo" transform="translate(348.000000, 139.000000)">
                <rect id="Rectangle" fill-opacity="0" fill="#FFFFFF" x="0" y="0" width="800" height="800"></rect>
                <g id="Logo" transform="translate(53.000000, 0.000000)" fill="#252832">
                    <g id="Group">
                        <g>
                            <path d="M347,0 L694,200 L694,600 L347,800 L-8.52651283e-14,600 L-3.12638804e-13,200 L347,0 Z M346.22202,101.718213 L86.9279107,251.167268 L86.9279107,550.065376 L346.22202,699.514431 L605.51613,550.065376 L605.51613,251.167268 L346.22202,101.718213 Z" id="Hexagon"></path>
                            <path d="M521.888,306.704858 L521.888,495.752681 L521.888,518.670274 L475.067591,545.069504 L475.067591,495.752681 L475.067591,306.704858 L475.067591,257.388035 L521.888,283.787265 L521.888,306.704858 Z M218.932409,306.704858 L218.932409,495.752681 L218.932409,545.069504 L172.112,518.670274 L172.112,495.752681 L172.112,306.704858 L172.112,283.787265 L218.932409,257.388035 L218.932409,306.704858 Z M249.227969,262.885473 L249.227969,240.288119 L296.048378,213.888889 L296.048378,262.885473 L296.048378,341.666667 L397.951622,341.666667 L397.951622,261.111111 L397.951622,213.888889 L444.772031,240.288119 L444.772031,261.111111 L444.772031,388.888889 L397.951622,388.888889 L296.048378,388.888889 L296.048378,413.888889 L398.275603,413.888889 L444.772031,413.888889 L444.772031,551.643894 L444.772031,562.24948 L397.951622,588.64871 L397.951622,551.643894 L397.951622,461.111111 L296.048378,461.111111 L296.048378,540.532783 L296.048378,588.888889 L249.227969,562.489659 L249.227969,540.532783 L249.227969,262.885473 Z" id="KC-Logo"></path>
                        </g>
                    </g>
                </g>
            </g>
        </g>
    </g>
</svg>