<?xml version="1.0" encoding="UTF-8"?>
<svg width="506px" height="471px" viewBox="0 0 506 471" version="1.1" xmlns="http://www.w3.org/2000/svg" xmlns:xlink="http://www.w3.org/1999/xlink">
    <!-- Generator: Sketch 52.6 (67491) - http://www.bohemiancoding.com/sketch -->
    <title>Fill 3</title>
    <desc>Created with Sketch.</desc>
    <g id="Page-1" stroke="none" stroke-width="1" fill="none" fill-rule="evenodd">
        <g id="Desktop-HD-Copy-9" transform="translate(-887.000000, -192.000000)" fill="#E1E8EF">
            <g id="Virtual-communication-concept" transform="translate(433.000000, 192.000000)">
                <g id="Group-4">
                    <path d="M712.218,470.979 C704.388,470.979 696.558,467.991 690.583,462.017 C678.635,450.068 678.635,430.695 690.583,418.747 L885.274,224.055 C893.969,215.361 893.969,201.265 885.274,192.571 C880.927,188.224 875.23,186.05 869.532,186.05 C863.835,186.05 858.137,188.224 853.79,192.571 L639.222,407.14 C631.737,414.625 621.927,418.367 612.117,418.367 C602.307,418.367 592.497,414.625 585.012,407.14 L563.19,385.317 C548.221,370.348 548.221,346.077 563.19,331.107 C571.885,322.414 571.885,308.318 563.19,299.623 L560.065,296.499 C555.718,292.152 550.021,289.978 544.323,289.978 C538.626,289.978 532.928,292.152 528.581,296.499 L507.103,317.977 C501.129,323.951 493.298,326.938 485.468,326.938 C477.638,326.938 469.807,323.951 463.833,317.977 C451.884,306.027 451.884,286.655 463.833,274.706 L510.519,228.019 C519.214,219.325 519.214,205.229 510.519,196.535 C495.686,181.701 495.686,157.649 510.519,142.815 L618.679,34.656 C626.096,27.239 635.817,23.531 645.539,23.531 C655.26,23.531 664.981,27.239 672.398,34.656 C676.745,39.003 682.443,41.177 688.141,41.177 C693.838,41.177 699.536,39.003 703.883,34.656 L738.539,0 L960,0 L960,235.87 L733.854,462.017 C727.879,467.991 720.049,470.979 712.218,470.979" id="Fill-3"></path>
                </g>
            </g>
        </g>
    </g>
</svg>