<?xml version="1.0" encoding="UTF-8"?>
<svg width="294px" height="60px" viewBox="0 0 294 60" version="1.1" xmlns="http://www.w3.org/2000/svg" xmlns:xlink="http://www.w3.org/1999/xlink">
    <!-- Generator: Sketch 52.5 (67469) - http://www.bohemiancoding.com/sketch -->
    <title>alleywatch</title>
    <desc>Created with Sketch.</desc>
    <g id="Page-1" stroke="none" stroke-width="1" fill="none" fill-rule="evenodd">
        <g id="Desktop-HD-Copy-7" transform="translate(-485.000000, -183.000000)">
            <g id="alleywatch" transform="translate(485.000000, 183.000000)">
                <g id="Group" transform="translate(71.000000, 12.000000)" fill="#6D6E70">
                    <g>
                        <path d="M14.79375,0.58125 L20.41875,0.58125 L34.29375,34.65 L26.9625,34.65 L24.225,27.95625 L11.25,27.95625 L8.5875,34.65 L1.14375,34.65 L14.79375,0.58125 Z M17.64375,11.7375 L13.65,21.76875 L21.75,21.76875 L17.64375,11.7375 Z" id="Shape" fill-rule="nonzero"></path>
                        <polygon id="Path" points="36.8625 0 43.5 0 43.5 34.65 36.8625 34.65"></polygon>
                        <polygon id="Path" points="48 0 54.6375 0 54.6375 34.65 48 34.65"></polygon>
                        <path d="M79.6125,25.06875 L63.75,25.06875 C63.7779262,26.3693852 64.2777125,27.6155191 65.15625,28.575 C65.9173355,29.4330972 67.0092619,29.9244641 68.15625,29.925 C70.1463206,29.9588666 71.9925665,28.8915057 72.95625,27.15 L79.05,29.15625 C76.9895124,33.0246831 72.8699042,35.3442493 68.49375,35.1 C65.3350188,35.2668879 62.2519653,34.0962804 60,31.875 C57.8492805,29.5479056 56.7272538,26.4521933 56.8875,23.2875 C56.8150442,20.2390749 58.001967,17.2955062 60.16875,15.15 C62.2899476,12.9793521 65.2157101,11.7846092 68.25,11.85 C71.31358,11.7812203 74.2558563,13.0470833 76.3125,15.31875 C78.4786348,17.6660818 79.6367005,20.7699671 79.5375,23.9625 L79.6125,25.06875 Z M63.75,20.625 L72.7125,20.625 C72.0875,17.8375 70.6625,16.45 68.4375,16.4625 C65.9957807,16.3236933 63.9008464,18.183995 63.75,20.625 Z" id="Shape" fill-rule="nonzero"></path>
                    </g>
                    <g transform="translate(78.750000, 0.000000)" id="Path">
                        <polygon points="0 12.39375 7.0875 12.39375 13.5 25.35 19.125 12.39375 25.9125 12.39375 12.0375 44.475 5.19375 44.475 10.18125 33.05625"></polygon>
                        <polygon points="25.05 0.58125 31.59375 0.58125 37.0875 23.79375 42.80625 0.58125 47.475 0.58125 53.1 23.90625 58.725 0.58125 65.26875 0.58125 57.01875 34.65 50.11875 34.65 45.1125 13.7625 40.10625 34.65 33.225 34.65"></polygon>
                    </g>
                    <path d="M159.28125,34.65 L159.28125,30.9 L159.1875,30.9 C158.364262,32.1690817 157.300501,33.2646924 156.05625,34.125 C154.871312,34.8227308 153.511738,35.1675033 152.1375,35.11875 C149.509808,35.1099436 147.041251,33.8582809 145.48125,31.74375 C143.619174,29.4261725 142.64219,26.5218067 142.725,23.55 C142.659829,20.5577481 143.701388,17.6467242 145.65,15.375 C147.326552,13.2356266 149.888259,11.9789404 152.60625,11.9625 C153.811455,11.9470851 155.000088,12.2442432 156.05625,12.825 C157.272456,13.5568374 158.366896,14.4741422 159.3,15.54375 L159.3,12.39375 L165.9375,12.39375 L165.9375,34.65 L159.28125,34.65 Z M154.40625,18.54375 C153.126853,18.5288688 151.913636,19.1112131 151.125,20.11875 C150.212958,21.2306523 149.739422,22.6379209 149.79375,24.075 C149.729325,25.3925746 150.179825,26.6835618 151.05,27.675 C151.903286,28.5940058 153.115698,29.0940401 154.36875,29.04375 C155.672394,29.0486033 156.910092,28.471011 157.74375,27.46875 C158.667664,26.4402298 159.169813,25.1011678 159.15,23.71875 C159.168787,22.3868211 158.663796,21.1007772 157.74375,20.1375 C156.92124,19.1290172 155.688869,18.5438129 154.3875,18.54375 L154.40625,18.54375 Z" id="Shape" fill-rule="nonzero"></path>
                    <g transform="translate(166.875000, 0.000000)" id="Path">
                        <polygon points="4.05 4.6875 10.6875 4.6875 10.6875 12.3375 13.875 12.3375 13.875 18.43125 10.6875 18.43125 10.6875 34.65 4.05 34.65 4.05 18.43125 1.5 18.43125 1.5 12.3375 4.05 12.3375"></polygon>
                        <path d="M31.3875,26.925 L31.3875,33.5625 C29.6374221,34.4572993 27.723628,34.9867824 25.7625,35.11875 C22.6121719,35.2456666 19.5480257,34.072885 17.2875,31.875 C15.0649724,29.6980013 13.8431828,26.6978292 13.9125,23.5875 C13.8102153,20.51253 14.937015,17.5234744 17.04375,15.28125 C19.0945951,13.0986094 21.9811926,11.8975665 24.975,11.98125 C27.229343,11.986389 29.4511583,12.5193679 31.4625,13.5375 L31.4625,19.8 C29.8118524,18.9496514 27.9932277,18.4757844 26.1375,18.4125 C24.2997475,18.2992332 22.5509909,19.2153566 21.5978492,20.790693 C20.6447074,22.3660293 20.6447074,24.3402207 21.5978492,25.915557 C22.5509909,27.4908934 24.2997475,28.4070168 26.1375,28.29375 C27.9550667,28.1539024 29.7330148,27.6903659 31.3875,26.925 Z"></path>
                        <path d="M34.5,0 L41.25,0 L41.25,15 C42.2628947,14.0941158 43.3992243,13.3365628 44.625,12.75 C45.766293,12.2560463 47.0003905,12.0130634 48.24375,12.0375 C50.3701178,11.9491817 52.4085957,12.8916287 53.71875,14.56875 C55.1516905,16.6159023 55.8519622,19.0866721 55.70625,21.58125 L55.70625,34.70625 L49.0125,34.70625 L49.0125,22.6875 C49.0534152,21.3921937 48.6644364,20.1197713 47.90625,19.06875 C47.2979561,18.1612723 46.2799661,17.6136639 45.1875,17.60625 C43.9436342,17.5340717 42.7717409,18.1932617 42.1875,19.29375 C41.4458457,20.9397262 41.1175777,22.7419822 41.23125,24.54375 L41.23125,34.63125 L34.48125,34.63125 L34.5,0 Z"></path>
                    </g>
                </g>
                <g id="Group">
                    <path d="M24.4090909,38.9318182 L21.9272727,24.4090909 L19.0909091,38.9318182 L24.4090909,38.9318182 Z M44.0863636,59.5772727 L28.4318182,59.5772727 L25.9772727,46.5409091 L17.3181818,46.5409091 L15.8318182,54.7227273 C15.7090909,55.35 15.8318182,55.7454545 16.35,55.8954545 C17.4737638,56.1518549 18.6122967,56.3385743 19.7590909,56.4545455 L19.7590909,59.5227273 L0,59.5227273 L0,56.5090909 C1.30289223,56.5770845 2.60703212,56.4013493 3.84545455,55.9909091 C4.30772926,55.6359345 4.61932626,55.119852 4.71818182,54.5454545 L16.4454545,0.613636364 L26.8636364,0.613636364 L39.3681818,54.4090909 C39.5150754,55.0684524 39.8861753,55.6564288 40.4181818,56.0727273 C41.6139019,56.4157324 42.8572277,56.5630895 44.1,56.5090909 L44.0863636,59.5772727 Z" id="Shape" fill="#231F20" fill-rule="nonzero"></path>
                    <polygon id="Path" fill="#00ADEE" points="28.7590909 58.1590909 28.9909091 59.4954545 29.0181818 59.4954545"></polygon>
                    <path d="M52.4181818,0 L52.4181818,2.97272727 C55.3909091,3.14545455 56.8227273,3.75909091 56.7136364,4.81363636 L53.1818182,33.7772727 L53.0045455,33.7772727 L48.4909091,0 L38.8636364,0 L34.6227273,31.4590909 L39.9681818,54.4090909 C39.9651598,54.4499442 39.9651598,54.4909649 39.9681818,54.5318182 L43.6363636,27.1363636 L43.7318182,27.1363636 L48.0136364,59.5090909 L58.3772727,59.5090909 L68.7,0 L52.4181818,0 Z" id="Path" fill="#00ADEE"></path>
                </g>
            </g>
        </g>
    </g>
</svg>