<?xml version="1.0" encoding="UTF-8"?>
<svg width="314px" height="156px" viewBox="0 0 314 156" version="1.1" xmlns="http://www.w3.org/2000/svg" xmlns:xlink="http://www.w3.org/1999/xlink">
    <!-- Generator: Sketch 53.2 (72643) - https://sketchapp.com -->
    <style>
      @keyframes development {
        0%, 32% {
          opacity: 1;
        }

        33%, 100% {
          opacity: 0;
        }
      }

      @keyframes staging {
        0%, 33% {
          opacity: 0;
        }

        34%, 66% {
          opacity: 1;
        }

        67%, 100% {
          opacity: 0;
        }
      }

      @keyframes production {
        0%, 66% {
          opacity: 0;
        }

        67%, 100% {
          opacity: 1;
        }
      }

      #DEVELOPMENT {
        -webkit-animation: development 120s linear infinite 0s;
        animation: development 120s linear infinite 0s;
      }

      #STAGING {
        -webkit-animation: staging 120s linear infinite 0s;
        animation: staging 120s linear infinite 0s;
      }

      #PRODUCTION {
        -webkit-animation: production 120s linear infinite 0s;
        animation: production 120s linear infinite 0s;
      }
    </style>
    <title>Blimp + Environment</title>
    <desc>Created with Sketch.</desc>
    <g id="Page-1" stroke="none" stroke-width="1" fill="none" fill-rule="evenodd">
        <g id="Desktop-HD-Copy-8" transform="translate(-48.000000, -599.000000)">
            <g id="Blimp-+-Environment" transform="translate(48.000000, 599.000000)">
                <g id="Blimp">
                    <path d="M159,152.559342 L159,115.435958 C159,113.546416 160.541304,112 162.4246,112 L245.5754,112 C247.458696,112 249,113.546416 249,115.435958 L249,152.559342 C249,154.448884 247.458696,156 245.5754,156 L162.4246,156 C160.541304,156 159,154.448884 159,152.559342" id="Fill-77-Copy" fill="#455862"></path>
                    <polygon id="Fill-78-Copy" fill="#86909F" points="56.2054176 4 63 69.2040411 56.2054176 134 28 134 41.5984597 68.172109 28 4"></polygon>
                    <polyline id="Fill-79-Copy" fill="#455862" points="62.9628203 70 63 70.206379 56.2054176 135 28 135 41.4265038 70 62.9628203 70"></polyline>
                    <path d="M208.269502,0 C294.981874,0 314,32.012404 314,71.4953075 C314,110.987596 294.981874,143 208.269502,143 C121.561802,143 0,110.987596 0,71.4953075 C0,32.012404 121.561802,0 208.269502,0" id="Fill-80-Copy" fill="#E4F0F4"></path>
                    <path d="M208.269502,33 C294.981874,33 314,50.2367747 314,71.4953072 C314,92.7632253 294.981874,110 208.269502,110 C121.561802,110 0,92.7632253 0,71.4953072 C0,50.2367747 121.561802,33 208.269502,33" id="Fill-81-Copy" fill="#C6DAE5"></path>
                    <path d="M0,70 L314,70 C314,109.213545 294.981874,141 208.269502,141 C121.561802,141 0,109.213545 0,70" id="Fill-82-Copy" fill="#8AAEC7"></path>
                    <path d="M0,70 L314,70 C314,90.989153 294.981874,108 208.269502,108 C121.561802,108 0,90.989153 0,70" id="Fill-83-Copy" fill="#A8C4D6"></path>
                    <polygon id="Fill-287-Copy" fill="#86909F" points="23 71 55 71 55 65 23 65"></polygon>
                    <polygon id="Fill-288-Copy" fill="#455862" points="23 76 55 76 55 70 23 70"></polygon>
                </g>
                <rect id="LED-Display" stroke="#373A44" fill="#272A34" x="91" y="46" width="190" height="49" rx="2"></rect>
                <path d="M98.872,79 L98.872,61.96 L104.512,61.96 C107.184013,61.96 109.327992,62.7479921 110.944,64.324 C112.560008,65.9000079 113.368,67.9599873 113.368,70.504 C113.368,73.0480127 112.580008,75.0999922 111.004,76.66 C109.427992,78.2200078 107.288014,79 104.584,79 L98.872,79 Z M102.208,76 L104.368,76 C106.000008,76 107.323995,75.4800052 108.34,74.44 C109.356005,73.3999948 109.864,72.0880079 109.864,70.504 C109.864,68.903992 109.368005,67.5840052 108.376,66.544 C107.383995,65.5039948 106.120008,64.984 104.584,64.984 L102.208,64.984 L102.208,76 Z M116.392,79 L116.392,61.96 L127.288,61.96 L127.288,64.984 L119.704,64.984 L119.704,69.064 L125.776,69.064 L125.776,72.04 L119.704,72.04 L119.704,76 L127.792,76 L127.792,79 L116.392,79 Z M141.448,61.96 L145.072,61.96 L138.76,79 L135.784,79 L129.448,61.96 L133.12,61.96 L137.248,74.2 L137.296,74.2 L141.448,61.96 Z M147.4,79 L147.4,61.96 L158.296,61.96 L158.296,64.984 L150.712,64.984 L150.712,69.064 L156.784,69.064 L156.784,72.04 L150.712,72.04 L150.712,76 L158.8,76 L158.8,79 L147.4,79 Z M161.8,79 L161.8,61.96 L165.184,61.96 L165.184,76 L172.768,76 L172.768,79 L161.8,79 Z M182.8,79.192 C180.239987,79.192 178.152008,78.3720082 176.536,76.732 C174.919992,75.0919918 174.112,73.0080126 174.112,70.48 C174.112,67.9359873 174.919992,65.8440082 176.536,64.204 C178.152008,62.5639918 180.239987,61.744 182.8,61.744 C185.328013,61.744 187.403992,62.5519919 189.028,64.168 C190.652008,65.7840081 191.464,67.887987 191.464,70.48 C191.464,73.072013 190.652008,75.171992 189.028,76.78 C187.403992,78.388008 185.328013,79.192 182.8,79.192 Z M182.824,76.048 C184.296007,76.048 185.519995,75.5200053 186.496,74.464 C187.472005,73.4079947 187.96,72.080008 187.96,70.48 C187.96,68.879992 187.472005,67.5520053 186.496,66.496 C185.519995,65.4399947 184.296007,64.912 182.824,64.912 C181.303992,64.912 180.056005,65.4479946 179.08,66.52 C178.103995,67.5920054 177.616,68.9119922 177.616,70.48 C177.616,72.0480078 178.103995,73.3679946 179.08,74.44 C180.056005,75.5120054 181.303992,76.048 182.824,76.048 Z M194.512,79 L194.512,61.96 L200.824,61.96 C202.80801,61.96 204.291995,62.4759948 205.276,63.508 C206.260005,64.5400052 206.752,65.9119914 206.752,67.624 C206.752,69.4480091 206.196006,70.8279953 205.084,71.764 C203.971994,72.7000047 202.44801,73.168 200.512,73.168 L197.848,73.168 L197.848,79 L194.512,79 Z M197.848,70.168 L200.08,70.168 C201.120005,70.168 201.907997,69.9360023 202.444,69.472 C202.980003,69.0079977 203.248,68.3680041 203.248,67.552 C203.248,66.751996 202.984003,66.1200023 202.456,65.656 C201.927997,65.1919977 201.184005,64.96 200.224,64.96 L197.848,64.96 L197.848,70.168 Z M223.384,61.96 L226.768,61.96 L226.768,79 L223.432,79 L223.432,68.416 L223.384,68.416 L219.232,75.76 L217.048,75.76 L212.896,68.416 L212.848,68.416 L212.848,79 L209.488,79 L209.488,61.96 L212.896,61.96 L218.128,71.656 L218.176,71.656 L223.384,61.96 Z M230.512,79 L230.512,61.96 L241.408,61.96 L241.408,64.984 L233.824,64.984 L233.824,69.064 L239.896,69.064 L239.896,72.04 L233.824,72.04 L233.824,76 L241.912,76 L241.912,79 L230.512,79 Z M255.904,61.96 L259.288,61.96 L259.288,79 L255.832,79 L248.32,67.696 L248.272,67.696 L248.272,79 L244.912,79 L244.912,61.96 L248.272,61.96 L255.88,73.48 L255.904,73.48 L255.904,61.96 Z M266.56,79 L266.56,64.984 L261.856,64.984 L261.856,61.96 L274.648,61.96 L274.648,64.984 L269.92,64.984 L269.92,79 L266.56,79 Z" id="DEVELOPMENT" fill="#FFFFFF" fill-rule="nonzero"></path>
                <path d="M141.008,79.192 C138.591988,79.192 136.520009,78.296009 134.792,76.504 L136.808,74.008 C137.416003,74.7120035 138.095996,75.2439982 138.848,75.604 C139.600004,75.9640018 140.335996,76.144 141.056,76.144 C141.856004,76.144 142.463998,75.9800016 142.88,75.652 C143.296002,75.3239984 143.504,74.8880027 143.504,74.344 C143.504,73.751997 143.288002,73.3000016 142.856,72.988 C142.423998,72.6759984 141.648006,72.3280019 140.528,71.944 C139.759996,71.6719986 139.120003,71.4120012 138.608,71.164 C138.095997,70.9159988 137.568003,70.5840021 137.024,70.168 C136.479997,69.7519979 136.072001,69.248003 135.8,68.656 C135.527999,68.063997 135.392,67.3840038 135.392,66.616 C135.392,65.2559932 135.919995,64.1120046 136.976,63.184 C138.032005,62.2559954 139.327992,61.7760002 140.864,61.744 C142.94401,61.7279999 144.855991,62.4479927 146.6,63.904 L144.656,66.448 C143.311993,65.3279944 142.072006,64.768 140.936,64.768 C140.327997,64.768 139.836002,64.9199985 139.46,65.224 C139.083998,65.5280015 138.896,65.9439974 138.896,66.472 C138.88,66.9680025 139.079998,67.3639985 139.496,67.66 C139.912002,67.9560015 140.663995,68.3199978 141.752,68.752 C143.512009,69.4400034 144.663997,69.9679982 145.208,70.336 C146.424006,71.1680042 147.032,72.3759921 147.032,73.96 C147.032,75.6720086 146.424006,76.9719956 145.208,77.86 C143.991994,78.7480044 142.592008,79.192 141.008,79.192 Z M153.2,79 L153.2,64.984 L148.496,64.984 L148.496,61.96 L161.288,61.96 L161.288,64.984 L156.56,64.984 L156.56,79 L153.2,79 Z M173.408,79 L172.256,75.592 L165.704,75.592 L164.552,79 L161.024,79 L167.336,61.96 L170.576,61.96 L176.936,79 L173.408,79 Z M166.688,72.712 L171.272,72.712 L168.992,66.016 L168.944,66.016 L166.688,72.712 Z M186.296,79.168 C183.767987,79.168 181.684008,78.3920078 180.044,76.84 C178.403992,75.2879922 177.584,73.1760134 177.584,70.504 C177.584,67.9599873 178.359992,65.8640082 179.912,64.216 C181.464008,62.5679918 183.543987,61.744 186.152,61.744 C187.416006,61.744 188.647994,61.9919975 189.848,62.488 C191.048006,62.9840025 192.071996,63.7119952 192.92,64.672 L190.52,66.688 C189.303994,65.5199942 187.848008,64.936 186.152,64.936 C184.711993,64.936 183.512005,65.439995 182.552,66.448 C181.591995,67.456005 181.112,68.8079915 181.112,70.504 C181.112,72.104008 181.583995,73.4319947 182.528,74.488 C183.472005,75.5440053 184.727992,76.072 186.296,76.072 C187.544006,76.072 188.695995,75.7520032 189.752,75.112 L189.752,72.592 L185.912,72.592 L185.912,69.712 L192.992,69.712 L192.992,77.056 C192.207996,77.6960032 191.216006,78.2079981 190.016,78.592 C188.815994,78.9760019 187.576006,79.168 186.296,79.168 Z M196.472,79 L196.472,61.96 L199.856,61.96 L199.856,79 L196.472,79 Z M214.712,61.96 L218.096,61.96 L218.096,79 L214.64,79 L207.128,67.696 L207.08,67.696 L207.08,79 L203.72,79 L203.72,61.96 L207.08,61.96 L214.688,73.48 L214.712,73.48 L214.712,61.96 Z M229.856,79.168 C227.327987,79.168 225.244008,78.3920078 223.604,76.84 C221.963992,75.2879922 221.144,73.1760134 221.144,70.504 C221.144,67.9599873 221.919992,65.8640082 223.472,64.216 C225.024008,62.5679918 227.103987,61.744 229.712,61.744 C230.976006,61.744 232.207994,61.9919975 233.408,62.488 C234.608006,62.9840025 235.631996,63.7119952 236.48,64.672 L234.08,66.688 C232.863994,65.5199942 231.408008,64.936 229.712,64.936 C228.271993,64.936 227.072005,65.439995 226.112,66.448 C225.151995,67.456005 224.672,68.8079915 224.672,70.504 C224.672,72.104008 225.143995,73.4319947 226.088,74.488 C227.032005,75.5440053 228.287992,76.072 229.856,76.072 C231.104006,76.072 232.255995,75.7520032 233.312,75.112 L233.312,72.592 L229.472,72.592 L229.472,69.712 L236.552,69.712 L236.552,77.056 C235.767996,77.6960032 234.776006,78.2079981 233.576,78.592 C232.375994,78.9760019 231.136006,79.168 229.856,79.168 Z" id="STAGING" fill="#FFFFFF" fill-rule="nonzero"></path>
                <path d="M106.872,79 L106.872,61.96 L113.184,61.96 C115.16801,61.96 116.651995,62.4759948 117.636,63.508 C118.620005,64.5400052 119.112,65.9119914 119.112,67.624 C119.112,69.4480091 118.556006,70.8279953 117.444,71.764 C116.331994,72.7000047 114.80801,73.168 112.872,73.168 L110.208,73.168 L110.208,79 L106.872,79 Z M110.208,70.168 L112.44,70.168 C113.480005,70.168 114.267997,69.9360023 114.804,69.472 C115.340003,69.0079977 115.608,68.3680041 115.608,67.552 C115.608,66.751996 115.344003,66.1200023 114.816,65.656 C114.287997,65.1919977 113.544005,64.96 112.584,64.96 L110.208,64.96 L110.208,70.168 Z M134.952,79 L130.968,79 L127.152,73.168 L125.184,73.168 L125.184,79 L121.848,79 L121.848,61.96 L128.304,61.96 C130.27201,61.96 131.751995,62.4759948 132.744,63.508 C133.736005,64.5400052 134.232,65.9119914 134.232,67.624 C134.232,70.2800133 133.064012,71.9919962 130.728,72.76 L134.952,79 Z M125.184,64.96 L125.184,70.192 L127.536,70.192 C128.560005,70.192 129.351997,69.9560024 129.912,69.484 C130.472003,69.0119976 130.752,68.3680041 130.752,67.552 C130.752,66.751996 130.484003,66.1200023 129.948,65.656 C129.411997,65.1919977 128.656005,64.96 127.68,64.96 L125.184,64.96 Z M145.032,79.192 C142.471987,79.192 140.384008,78.3720082 138.768,76.732 C137.151992,75.0919918 136.344,73.0080126 136.344,70.48 C136.344,67.9359873 137.151992,65.8440082 138.768,64.204 C140.384008,62.5639918 142.471987,61.744 145.032,61.744 C147.560013,61.744 149.635992,62.5519919 151.26,64.168 C152.884008,65.7840081 153.696,67.887987 153.696,70.48 C153.696,73.072013 152.884008,75.171992 151.26,76.78 C149.635992,78.388008 147.560013,79.192 145.032,79.192 Z M145.056,76.048 C146.528007,76.048 147.751995,75.5200053 148.728,74.464 C149.704005,73.4079947 150.192,72.080008 150.192,70.48 C150.192,68.879992 149.704005,67.5520053 148.728,66.496 C147.751995,65.4399947 146.528007,64.912 145.056,64.912 C143.535992,64.912 142.288005,65.4479946 141.312,66.52 C140.335995,67.5920054 139.848,68.9119922 139.848,70.48 C139.848,72.0480078 140.335995,73.3679946 141.312,74.44 C142.288005,75.5120054 143.535992,76.048 145.056,76.048 Z M156.744,79 L156.744,61.96 L162.384,61.96 C165.056013,61.96 167.199992,62.7479921 168.816,64.324 C170.432008,65.9000079 171.24,67.9599873 171.24,70.504 C171.24,73.0480127 170.452008,75.0999922 168.876,76.66 C167.299992,78.2200078 165.160014,79 162.456,79 L156.744,79 Z M160.08,76 L162.24,76 C163.872008,76 165.195995,75.4800052 166.212,74.44 C167.228005,73.3999948 167.736,72.0880079 167.736,70.504 C167.736,68.903992 167.240005,67.5840052 166.248,66.544 C165.255995,65.5039948 163.992008,64.984 162.456,64.984 L160.08,64.984 L160.08,76 Z M180.912,79.192 C178.83199,79.192 177.168006,78.5560064 175.92,77.284 C174.671994,76.0119936 174.048,74.2320114 174.048,71.944 L174.048,61.96 L177.432,61.96 L177.432,71.728 C177.432,72.9920063 177.739997,74.023996 178.356,74.824 C178.972003,75.624004 179.823995,76.024 180.912,76.024 C181.968005,76.024 182.823997,75.6400038 183.48,74.872 C184.136003,74.1039962 184.464,73.0560066 184.464,71.728 L184.464,61.96 L187.848,61.96 L187.848,71.944 C187.848,74.1840112 187.236006,75.9519935 186.012,77.248 C184.787994,78.5440065 183.088011,79.192 180.912,79.192 Z M199.368,79.168 C196.919988,79.168 194.860008,78.4000077 193.188,76.864 C191.515992,75.3279923 190.68,73.2160134 190.68,70.528 C190.68,67.9999874 191.451992,65.9040083 192.996,64.24 C194.540008,62.5759917 196.663986,61.744 199.368,61.744 C200.616006,61.744 201.835994,62.0159973 203.028,62.56 C204.220006,63.1040027 205.263996,63.9199946 206.16,65.008 L203.688,67.12 C202.455994,65.6799928 201.016008,64.96 199.368,64.96 C197.863992,64.96 196.628005,65.4679949 195.66,66.484 C194.691995,67.5000051 194.208,68.8479916 194.208,70.528 C194.208,72.1120079 194.687995,73.4159949 195.648,74.44 C196.608005,75.4640051 197.847992,75.976 199.368,75.976 C201.080009,75.976 202.519994,75.2560072 203.688,73.816 L206.16,75.952 C204.431991,78.0960107 202.168014,79.168 199.368,79.168 Z M212.328,79 L212.328,64.984 L207.624,64.984 L207.624,61.96 L220.416,61.96 L220.416,64.984 L215.688,64.984 L215.688,79 L212.328,79 Z M223.104,79 L223.104,61.96 L226.488,61.96 L226.488,79 L223.104,79 Z M238.344,79.192 C235.783987,79.192 233.696008,78.3720082 232.08,76.732 C230.463992,75.0919918 229.656,73.0080126 229.656,70.48 C229.656,67.9359873 230.463992,65.8440082 232.08,64.204 C233.696008,62.5639918 235.783987,61.744 238.344,61.744 C240.872013,61.744 242.947992,62.5519919 244.572,64.168 C246.196008,65.7840081 247.008,67.887987 247.008,70.48 C247.008,73.072013 246.196008,75.171992 244.572,76.78 C242.947992,78.388008 240.872013,79.192 238.344,79.192 Z M238.368,76.048 C239.840007,76.048 241.063995,75.5200053 242.04,74.464 C243.016005,73.4079947 243.504,72.080008 243.504,70.48 C243.504,68.879992 243.016005,67.5520053 242.04,66.496 C241.063995,65.4399947 239.840007,64.912 238.368,64.912 C236.847992,64.912 235.600005,65.4479946 234.624,66.52 C233.647995,67.5920054 233.16,68.9119922 233.16,70.48 C233.16,72.0480078 233.647995,73.3679946 234.624,74.44 C235.600005,75.5120054 236.847992,76.048 238.368,76.048 Z M261.048,61.96 L264.432,61.96 L264.432,79 L260.976,79 L253.464,67.696 L253.416,67.696 L253.416,79 L250.056,79 L250.056,61.96 L253.416,61.96 L261.024,73.48 L261.048,73.48 L261.048,61.96 Z" id="PRODUCTION" fill="#FFFFFF" fill-rule="nonzero"></path>
            </g>
        </g>
    </g>
</svg>