<?xml version="1.0" encoding="UTF-8"?>
<svg width="264px" height="60px" viewBox="0 0 264 60" version="1.1" xmlns="http://www.w3.org/2000/svg" xmlns:xlink="http://www.w3.org/1999/xlink">
    <!-- Generator: Sketch 52.5 (67469) - http://www.bohemiancoding.com/sketch -->
    <title>builtin_nyc</title>
    <desc>Created with Sketch.</desc>
    <g id="Page-1" stroke="none" stroke-width="1" fill="none" fill-rule="evenodd">
        <g id="Desktop-HD-Copy-7" transform="translate(-1097.000000, -196.000000)">
            <g id="builtin_nyc" transform="translate(1097.000000, 196.000000)">
                <g id="nyc" transform="translate(167.142857, 12.857143)" fill="#00B9FE">
                    <path d="M8.57142857,1.37142857 L8.57142857,5.89285714 L8.74285714,5.89285714 C9.76468045,4.09388211 11.3125584,2.65069158 13.1785714,1.75714286 C14.9138402,0.932302566 16.8073673,0.493647644 18.7285714,0.471428571 C20.7390829,0.401515051 22.7431163,0.736735195 24.6214286,1.45714286 C26.0476638,2.02895826 27.302345,2.95889844 28.2642857,4.15714286 C29.1941031,5.42834836 29.8241295,6.89352589 30.1071429,8.44285714 C30.4845247,10.2682477 30.6641326,12.1289861 30.6428571,13.9928571 L30.6428571,34.0285714 L21.7285714,34.0285714 L21.7285714,15.5571429 C21.8820522,13.4666173 21.4517693,11.3745521 20.4857143,9.51428571 C19.4651083,8.09849022 17.7642171,7.33799559 16.0285714,7.52142857 C14.0082172,7.3314792 12.0206299,8.12970702 10.6928571,9.66428571 C9.42904582,11.8266044 8.86051038,14.325168 9.06428571,16.8214286 L9.06428571,33.9642857 L0.107142857,33.9642857 L0.107142857,1.37142857 L8.57142857,1.37142857 Z" id="Path"></path>
                    <path d="M47.1428571,43.6928571 C44.9604758,44.9501881 42.4568626,45.5388353 39.9428571,45.3857143 C39.0214286,45.3857143 38.1,45.3857143 37.2,45.3857143 C36.3,45.3857143 35.2928571,45.15 34.2857143,45 L34.2857143,37.7142857 L36.8571429,37.9714286 C37.7416925,38.0356651 38.6297361,38.0356651 39.5142857,37.9714286 C40.5463677,37.9260578 41.5046193,37.4233684 42.1285714,36.6 C42.6952328,35.8320457 42.9893457,34.8969173 42.9642857,33.9428571 C42.9646397,33.2460897 42.8337885,32.5554863 42.5785714,31.9071429 L31.2214286,1.37142857 L40.7142857,1.37142857 L48.0642857,23.7 L48.1928571,23.7 L55.3285714,1.37142857 L64.6071429,1.37142857 L51,38.0142857 C50.3561849,40.2716446 49.0039995,42.2623621 47.1428571,43.6928571 Z" id="Path"></path>
                    <path d="M80.7857143,7.26428571 C79.5157753,7.21394171 78.2604582,7.55018737 77.1857143,8.22857143 C76.2270614,8.86734221 75.4279436,9.71777951 74.85,10.7142857 C74.2301465,11.7683125 73.7952952,12.9206682 73.5642857,14.1214286 C73.2936756,15.3313278 73.1571383,16.5673502 73.1571429,17.8071429 C73.1548767,19.0187566 73.2914823,20.2266382 73.5642857,21.4071429 C73.7996654,22.5732318 74.2192025,23.6944084 74.8071429,24.7285714 C75.3733236,25.7337768 76.1747907,26.5867143 77.1428571,27.2142857 C78.2136661,27.8609793 79.4498901,28.181206 80.7,28.1357143 C82.5314357,28.2429228 84.3248582,27.5830054 85.65,26.3142857 C86.8891971,24.9636089 87.6627632,23.2512491 87.8571429,21.4285714 L96.4285714,21.4285714 C96.1187606,25.2615419 94.2997949,28.814691 91.3714286,31.3071429 C88.3168069,33.6770376 84.5195409,34.8845682 80.6571429,34.7142857 C78.3467023,34.7551541 76.0515035,34.3325461 73.9071429,33.4714286 C71.9707255,32.7068443 70.2286479,31.5210604 68.8071429,30 C67.3581873,28.4829918 66.2287054,26.6903947 65.4857143,24.7285714 C64.6694685,22.5727637 64.2625087,20.2836149 64.2857143,17.9785714 C64.2628003,15.589984 64.6394212,13.2143752 65.4,10.95 C66.0790888,8.908195 67.1571032,7.0216698 68.5714286,5.4 C70.0178425,3.79713802 71.8042548,2.53786377 73.8,1.71428571 C76.0357024,0.798307355 78.4342542,0.346300632 80.85,0.385714286 C82.7396587,0.381114997 84.6211719,0.633425198 86.4428571,1.13571429 C88.1606577,1.61685415 89.7788598,2.40055744 91.2214286,3.45 C92.644429,4.46262806 93.8231526,5.78045565 94.6714286,7.30714286 C95.5993392,8.9766214 96.1205816,10.8413479 96.1928571,12.75 L87.4071429,12.75 C87.090587,9.40825808 84.1280295,6.95384157 80.7857143,7.26428571 Z" id="Path"></path>
                </g>
                <g id="builtin">
                    <rect id="Rectangle" fill="#00B9FE" x="66.2357143" y="13.1142857" width="8.55" height="33.7714286"></rect>
                    <rect id="Rectangle" fill="#00B9FE" x="66.1285714" y="51.0214286" width="8.59285714" height="8.16428571"></rect>
                    <path d="M32.85,38.7857143 L32.85,13.0714286 L41.4214286,13.0714286 L41.4214286,35.8071429 C41.4214286,37.5857143 42.2142857,38.25 43.6928571,38.25 L51.8357143,38.25 C53.5285714,38.25 54.15,37.5428571 54.15,35.8071429 L54.15,13.0714286 L62.7214286,13.0714286 L62.7214286,38.7857143 C62.7203662,39.3026307 62.677368,39.818609 62.5928571,40.3285714 C61.8857143,44.6142857 59.4,46.7571429 54.6642857,46.7571429 L40.95,46.7571429 C36.2142857,46.7571429 33.6857143,44.6142857 33.0214286,40.3285714 C33.0214286,39.8357143 32.8928571,39.2571429 32.8928571,38.7857143" id="Path" fill="#00B9FE"></path>
                    <path d="M21.4285714,35.8071429 C21.5219603,36.4524399 21.3164678,37.1051517 20.8702473,37.5805642 C20.4240268,38.0559767 19.785628,38.3023641 19.1357143,38.25 L8.57142857,38.25 L8.57142857,24.0214286 C8.57142857,22.3714286 9.36428571,21.6214286 11.0142857,21.6214286 L19.1571429,21.6214286 C20.4428571,21.6214286 21.4071429,22.2428571 21.4071429,24.0642857 L21.4285714,35.8071429 Z M29.85,20.0785714 C29.6177749,16.7310378 27.196168,13.9422558 23.9142857,13.2428571 C23.3734622,13.1178742 22.8192513,13.0602938 22.2642857,13.0714286 L8.57142857,13.0714286 L8.57142857,0.835714286 L0,0.835714286 L0,46.8857143 L22.1142857,46.8857143 C24.9703765,47.0689375 27.6415023,45.4645552 28.8214286,42.8571429 C29.6177706,41.5007024 30.025511,39.951289 30,38.3785714 L30,21.4285714 C30.0644795,20.9737023 30.0644795,20.512012 30,20.0571429 L29.85,20.0785714 Z" id="Shape" fill="#234160" fill-rule="nonzero"></path>
                    <path d="M157.757143,21.1285714 L157.757143,46.8428571 L149.185714,46.8428571 L149.185714,24.0642857 C149.185714,22.2857143 148.392857,21.6214286 146.914286,21.6214286 L138.771429,21.6214286 C137.078571,21.6214286 136.457143,22.3285714 136.457143,24.0642857 L136.457143,46.8 L127.885714,46.8 L127.885714,21.0857143 C127.885911,20.5687613 127.928916,20.0527124 128.014286,19.5428571 C128.721429,15.2571429 131.207143,13.1142857 135.964286,13.1142857 L149.657143,13.1142857 C154.392857,13.1142857 156.921429,15.2571429 157.585714,19.5428571 C157.671041,20.0671236 157.714037,20.5974068 157.714286,21.1285714" id="Path" fill="#234160"></path>
                    <rect id="Rectangle" fill="#234160" x="78.5571429" y="0.835714286" width="8.55" height="46.0071429"></rect>
                    <polygon id="Path" fill="#234160" points="91.0071429 46.8428571 91.0071429 0.835714286 99.6 0.835714286 99.6 13.0714286 107.807143 13.0714286 107.807143 21.6214286 99.6 21.6214286 99.6 46.8428571"></polygon>
                    <rect id="Rectangle" fill="#234160" x="116.014286" y="13.0714286" width="8.55" height="33.7714286"></rect>
                    <rect id="Rectangle" fill="#234160" x="116.014286" y="0.835714286" width="8.59285714" height="8.16428571"></rect>
                </g>
            </g>
        </g>
    </g>
</svg>