<?xml version="1.0" encoding="UTF-8"?>
<svg width="252px" height="80px" viewBox="0 0 252 80" version="1.1" xmlns="http://www.w3.org/2000/svg" xmlns:xlink="http://www.w3.org/1999/xlink">
    <!-- Generator: Sketch 52.5 (67469) - http://www.bohemiancoding.com/sketch -->
    <title>businessinsider</title>
    <desc>Created with Sketch.</desc>
    <g id="Page-1" stroke="none" stroke-width="1" fill="none" fill-rule="evenodd">
        <g id="Desktop-HD-Copy-7" transform="translate(-1097.000000, -346.000000)" fill="#185F7D">
            <g id="businessinsider" transform="translate(1097.000000, 346.000000)">
                <path d="M0,16.6129032 C0,11.9354839 0,7.25806452 0,2.58064516 C0,2.4516129 0,2.32258065 0,2.19354839 C0,0.903225806 0.0967741935,0.838709677 1.38709677,0.806451613 C4.74193548,0.806451613 8.06451613,0.774193548 11.4193548,0.806451613 C13.1290323,0.838709677 14.8064516,1.09677419 16.4193548,1.64516129 C19.9354839,2.90322581 21.8709677,5.93548387 21.7741935,9.16129032 C21.7419355,10.1612903 21.7419355,11.1290323 21.4516129,12.0967742 C21,13.5483871 20.1935484,14.7741935 18.9032258,15.6451613 C18.7741935,15.7419355 18.6129032,15.8064516 18.5483871,15.9354839 C18.483871,16.0322581 18.516129,16.2580645 18.5806452,16.3225806 C18.7419355,16.483871 19,16.6129032 19.1935484,16.7419355 C22.0967742,18.6774194 23.1612903,21.3870968 22.7741935,24.8064516 C22.4516129,27.5806452 21.0322581,29.5806452 18.6774194,30.9677419 C17.4193548,31.7096774 16.0322581,32.0645161 14.6129032,32.2258065 C13.483871,32.3548387 12.3225806,32.4193548 11.1935484,32.4193548 C8.03225806,32.4516129 4.87096774,32.4193548 1.70967742,32.4193548 C1.41935484,32.4193548 1.16129032,32.4193548 0.870967742,32.4193548 C0.225806452,32.3548387 0.064516129,32.2258065 0.0322580645,31.5483871 C0,31.2903226 0,31 0,30.7096774 C0,26 0,21.3225806 0,16.6129032 Z M5.58064516,23.0645161 C5.58064516,23.0645161 5.58064516,23.0645161 5.58064516,23.0645161 C5.58064516,24.1612903 5.58064516,25.2258065 5.58064516,26.3225806 C5.58064516,27.5483871 5.61290323,27.5806452 6.80645161,27.5806452 C8.38709677,27.5806452 9.96774194,27.6129032 11.5483871,27.5806452 C12.3870968,27.5483871 13.2258065,27.4516129 14.0322581,27.2903226 C17.6129032,26.5806452 18.1612903,22.5806452 16.5806452,20.4193548 C15.6774194,19.1935484 14.2903226,18.7419355 12.8387097,18.7096774 C10.7419355,18.6451613 8.64516129,18.6774194 6.51612903,18.6774194 C5.74193548,18.6774194 5.61290323,18.8064516 5.61290323,19.6129032 C5.5483871,20.7741935 5.58064516,21.9032258 5.58064516,23.0645161 Z M5.58064516,9.87096774 C5.58064516,10.9354839 5.58064516,11.9677419 5.58064516,13.0322581 C5.58064516,13.8709677 5.70967742,14 6.5483871,14 C8.03225806,14 9.51612903,14.0322581 11,14 C11.7741935,13.9677419 12.5483871,13.9032258 13.2903226,13.7419355 C16.2258065,13.2258065 17.1290323,10.2903226 16.0645161,7.90322581 C15.4193548,6.48387097 14.1612903,5.96774194 12.7741935,5.87096774 C10.7096774,5.74193548 8.64516129,5.70967742 6.58064516,5.67741935 C5.67741935,5.67741935 5.58064516,5.77419355 5.58064516,6.70967742 C5.5483871,7.77419355 5.58064516,8.83870968 5.58064516,9.87096774 Z" id="Shape" fill-rule="nonzero"></path>
                <path d="M136.193548,63.9032258 C136.193548,59.2903226 136.193548,54.6774194 136.193548,50.0645161 C136.193548,49.8064516 136.193548,49.5806452 136.193548,49.3225806 C136.225806,48.516129 136.322581,48.3870968 137.096774,48.3870968 C141.322581,48.3870968 145.516129,48.2580645 149.709677,48.4193548 C153.387097,48.5483871 156.645161,49.9354839 159.258065,52.6129032 C161.387097,54.8064516 162.548387,57.516129 163.032258,60.516129 C163.548387,63.6451613 163.419355,66.7419355 162.387097,69.7741935 C160.580645,74.9677419 156.870968,78.0322581 151.516129,79 C150,79.2903226 148.451613,79.3548387 146.903226,79.3870968 C143.83871,79.4516129 140.774194,79.4193548 137.709677,79.3870968 C137.419355,79.3870968 137.16129,79.3870968 136.870968,79.3548387 C136.419355,79.3225806 136.193548,79.0645161 136.193548,78.6451613 C136.193548,78.3225806 136.193548,78.0322581 136.193548,77.7096774 C136.193548,73.1290323 136.193548,68.516129 136.193548,63.9032258 Z M141.774194,63.8064516 C141.774194,66.9354839 141.774194,70.0645161 141.774194,73.1935484 C141.774194,73.2258065 141.774194,73.2580645 141.774194,73.2903226 C141.806452,74.3225806 141.870968,74.4193548 142.870968,74.4193548 C144.645161,74.4193548 146.387097,74.4516129 148.16129,74.4193548 C149.129032,74.3870968 150.129032,74.2580645 151.096774,74.0322581 C154.129032,73.3225806 156.064516,71.3548387 157.096774,68.483871 C157.935484,66.0645161 157.935484,63.5483871 157.548387,61.0645161 C156.967742,57.2258065 154.483871,54.1612903 150.258065,53.4516129 C147.677419,53.0322581 145.064516,53.3225806 142.483871,53.2580645 C142.032258,53.2580645 141.806452,53.516129 141.806452,53.9677419 C141.806452,54.2258065 141.806452,54.4516129 141.806452,54.7096774 C141.774194,57.7419355 141.774194,60.7741935 141.774194,63.8064516 Z" id="Shape" fill-rule="nonzero"></path>
                <path d="M153.096774,17 C153.096774,21.8709677 153.096774,26.7096774 153.096774,31.5806452 C153.096774,31.9354839 152.967742,32.2580645 152.870968,32.6129032 C152.612903,32.4193548 152.290323,32.2580645 152.064516,32.0322581 C149.322581,29.3870968 146.612903,26.7096774 143.870968,24.0645161 C141.709677,21.9354839 139.516129,19.8387097 137.354839,17.7419355 C135.741935,16.1612903 134.096774,14.6129032 132.483871,13.0322581 C132.387097,12.9354839 132.322581,12.8387097 132.225806,12.7741935 C132.129032,12.7096774 132,12.6774194 131.903226,12.6129032 C131.83871,12.7419355 131.741935,12.8709677 131.741935,13 C131.709677,13.2580645 131.741935,13.483871 131.741935,13.7419355 C131.741935,19.4516129 131.741935,25.1290323 131.741935,30.8387097 C131.741935,32.3870968 131.709677,32.4193548 130.193548,32.4193548 C129.193548,32.4193548 128.225806,32.4193548 127.225806,32.4193548 C126.483871,32.3870968 126.387097,32.2580645 126.354839,31.5483871 C126.354839,31.3225806 126.354839,31.1290323 126.354839,30.9032258 C126.354839,21.2580645 126.354839,11.5806452 126.354839,1.93548387 C126.354839,1.51612903 126.483871,1.09677419 126.548387,0.709677419 C127.064516,0.677419355 127.258065,1.12903226 127.548387,1.41935484 C129.548387,3.32258065 131.516129,5.25806452 133.483871,7.16129032 C136.129032,9.67741935 138.774194,12.1935484 141.419355,14.7096774 C143.290323,16.483871 145.193548,18.2580645 147.096774,20.0322581 C147.225806,20.1612903 147.387097,20.2258065 147.548387,20.2903226 C147.612903,20.1290323 147.677419,19.9677419 147.709677,19.8064516 C147.741935,19.5483871 147.709677,19.3225806 147.709677,19.0645161 C147.709677,13.483871 147.709677,7.93548387 147.709677,2.35483871 C147.709677,0.935483871 147.774194,0.903225806 149.16129,0.870967742 C150.129032,0.870967742 151.096774,0.870967742 152.032258,0.870967742 C152.935484,0.903225806 153.064516,1.03225806 153.096774,1.90322581 C153.129032,2.67741935 153.096774,3.4516129 153.096774,4.22580645 C153.096774,8.4516129 153.096774,12.7419355 153.096774,17 Z" id="Path"></path>
                <path d="M208.645161,63.8387097 C208.645161,59.3225806 208.645161,54.8064516 208.645161,50.2903226 C208.645161,50.0645161 208.645161,49.8709677 208.645161,49.6451613 C208.645161,48.4516129 208.709677,48.3870968 209.903226,48.3870968 C213.580645,48.3870968 217.258065,48.3870968 220.967742,48.3870968 C222.580645,48.3870968 224.16129,48.7419355 225.645161,49.4516129 C228.806452,50.9354839 230.354839,53.516129 230.612903,56.9354839 C230.709677,58.4193548 230.548387,59.9032258 230.129032,61.3548387 C229.419355,63.7419355 227.83871,65.2903226 225.548387,66.0967742 C225.129032,66.2580645 224.645161,66.3548387 224.225806,66.483871 C223.741935,66.6451613 223.709677,66.7419355 224.032258,67.0967742 C224.870968,68.0645161 225.677419,69 226.516129,69.9677419 C228.193548,71.8709677 229.870968,73.7741935 231.548387,75.6774194 C232.322581,76.5483871 233.129032,77.4193548 233.870968,78.3225806 C234.064516,78.5483871 234.16129,78.9032258 234.290323,79.1935484 C233.967742,79.2580645 233.645161,79.3870968 233.322581,79.3870968 C231.967742,79.4193548 230.612903,79.3870968 229.225806,79.3870968 C228.645161,79.3870968 228.258065,79.1612903 227.870968,78.7419355 C226.064516,76.6129032 224.225806,74.516129 222.419355,72.4193548 C221.064516,70.8387097 219.709677,69.2903226 218.387097,67.6774194 C217.870968,67.0645161 217.322581,66.6774194 216.483871,66.7741935 C215.935484,66.8387097 215.354839,66.7741935 214.806452,66.8064516 C214.225806,66.8387097 214.129032,66.9677419 214.096774,67.5483871 C214.064516,67.8064516 214.096774,68.0322581 214.096774,68.2903226 C214.096774,71.4516129 214.096774,74.6129032 214.096774,77.7741935 C214.096774,78.0645161 214.096774,78.3225806 214.096774,78.6129032 C214.096774,79.0967742 213.870968,79.3870968 213.387097,79.3870968 C212.064516,79.3870968 210.709677,79.3870968 209.387097,79.3870968 C208.935484,79.3870968 208.709677,79.1290323 208.709677,78.6774194 C208.709677,78.3870968 208.709677,78.1290323 208.709677,77.8387097 C208.645161,73.1935484 208.645161,68.516129 208.645161,63.8387097 Z M214.064516,57.7096774 C214.064516,57.7096774 214.064516,57.7096774 214.064516,57.7096774 C214.064516,58.9677419 214.064516,60.2580645 214.064516,61.516129 C214.064516,62.1612903 214.193548,62.3225806 214.806452,62.3225806 C216.935484,62.2903226 219.096774,62.3548387 221.193548,62.1290323 C224,61.8064516 225.193548,60 225.096774,57.483871 C225,55 223.419355,53.4516129 220.903226,53.2903226 C218.935484,53.1612903 216.967742,53.1612903 214.967742,53.1290323 C214.16129,53.1290323 214.064516,53.2580645 214.032258,54.0322581 C214.064516,55.2258065 214.064516,56.4516129 214.064516,57.7096774 Z" id="Shape" fill-rule="nonzero"></path>
                <path d="M41.2580645,63.5806452 C41.2580645,58.9032258 41.2580645,54.2258065 41.2580645,49.5483871 C41.2580645,49.2580645 41.2258065,49 41.2580645,48.7096774 C41.2903226,48.483871 41.4193548,48.2580645 41.483871,48.0645161 C41.6774194,48.1612903 41.8387097,48.2580645 42.0322581,48.3548387 C42.0645161,48.3548387 42.0645161,48.3870968 42.0967742,48.4193548 C43.7419355,50 45.3870968,51.5806452 47.0645161,53.1612903 C49.516129,55.483871 51.9677419,57.8064516 54.3870968,60.1290323 C56.6129032,62.2258065 58.8387097,64.3225806 61.0645161,66.4516129 C61.4193548,66.7741935 61.8064516,67.0967742 62.1935484,67.4193548 C62.3870968,67.5806452 62.5483871,67.483871 62.5483871,67.2258065 C62.5806452,66.9354839 62.5806452,66.6774194 62.5806452,66.3870968 C62.5806452,60.8709677 62.5806452,55.3548387 62.5806452,49.8709677 C62.5806452,48.4193548 62.5806452,48.4193548 64,48.4193548 C64.9677419,48.4193548 65.9032258,48.4193548 66.8709677,48.4193548 C67.6451613,48.4193548 67.7741935,48.5483871 67.8064516,49.3548387 C67.8064516,49.5483871 67.8064516,49.7419355 67.8064516,49.9032258 C67.8064516,59.4516129 67.8064516,68.9677419 67.8064516,78.516129 C67.8064516,78.8709677 67.7096774,79.2258065 67.6451613,79.5806452 C67.3548387,79.3870968 67.0322581,79.2258065 66.7419355,79 C66.5806452,78.9032258 66.4516129,78.7741935 66.3225806,78.6451613 C64,76.4193548 61.7096774,74.1612903 59.3870968,71.9354839 C57.0322581,69.6451613 54.6774194,67.3548387 52.3225806,65.0967742 C50.7741935,63.5806452 49.1935484,62.0967742 47.6451613,60.6129032 C47.3870968,60.3870968 47.0645161,60.2258065 46.7741935,60.0322581 C46.7096774,60.3548387 46.6129032,60.6774194 46.6129032,61 C46.6129032,66.0322581 46.6129032,71.0967742 46.6129032,76.1290323 C46.6129032,76.9354839 46.6129032,77.7419355 46.6129032,78.5483871 C46.5806452,79.2903226 46.4193548,79.483871 45.6774194,79.483871 C44.516129,79.516129 43.3225806,79.516129 42.1612903,79.483871 C41.4516129,79.483871 41.3225806,79.2903226 41.2580645,78.5806452 C41.2258065,78.2903226 41.2580645,78.0322581 41.2580645,77.7419355 C41.2580645,72.9677419 41.2580645,68.2903226 41.2580645,63.5806452 Z" id="Path"></path>
                <path d="M59.0967742,11.7419355 C59.0967742,14.8709677 59.1290323,18 59.0967742,21.1290323 C59.0645161,23.1290323 58.6129032,25.0645161 57.6774194,26.8387097 C56,30.0322581 53.2903226,31.9032258 49.7741935,32.5806452 C47.6451613,33 45.4516129,33 43.3225806,32.5806452 C38.3225806,31.5806452 35.1612903,28.3548387 34.2258065,23.2580645 C33.9354839,21.7419355 33.8387097,20.1935484 33.8387097,18.6451613 C33.8064516,13.1935484 33.8064516,7.74193548 33.8064516,2.29032258 C33.8064516,0.870967742 33.8709677,0.806451613 35.2580645,0.806451613 C36.3548387,0.806451613 37.4193548,0.806451613 38.516129,0.806451613 C39.2580645,0.806451613 39.3548387,0.967741935 39.3870968,1.67741935 C39.3870968,1.96774194 39.3870968,2.22580645 39.3870968,2.51612903 C39.3870968,8 39.3548387,13.483871 39.3870968,18.9677419 C39.3870968,20.5483871 39.5483871,22.1290323 40.0645161,23.6451613 C40.9032258,26.0645161 42.6129032,27.4193548 45.1612903,27.7741935 C46.1290323,27.9032258 47.0645161,27.9032258 48.0322581,27.7419355 C50.4193548,27.3870968 52.0322581,26.0645161 52.8387097,23.7741935 C53.2580645,22.5806452 53.483871,21.3225806 53.483871,20.0322581 C53.4516129,14.2258065 53.483871,8.38709677 53.483871,2.58064516 C53.483871,0.806451613 53.483871,0.806451613 55.2903226,0.806451613 C56.1612903,0.806451613 57.0322581,0.806451613 57.9032258,0.806451613 C59,0.806451613 59.0645161,0.903225806 59.0645161,1.96774194 C59.0645161,2.19354839 59.0645161,2.38709677 59.0645161,2.61290323 C59.0967742,5.67741935 59.0967742,8.70967742 59.0967742,11.7419355 C59.0967742,11.7419355 59.0967742,11.7419355 59.0967742,11.7419355 Z" id="Path"></path>
                <path d="M166.83871,16.5483871 C166.83871,11.8387097 166.83871,7.12903226 166.83871,2.41935484 C166.83871,0.870967742 166.870968,0.838709677 168.387097,0.838709677 C173.806452,0.838709677 179.225806,0.838709677 184.645161,0.838709677 C185.967742,0.838709677 186,0.870967742 186,2.16129032 C186,3.03225806 186,3.90322581 186,4.77419355 C186,5.74193548 185.903226,5.83870968 184.935484,5.87096774 C182.903226,5.87096774 180.83871,5.87096774 178.806452,5.87096774 C177.032258,5.87096774 175.290323,5.87096774 173.516129,5.87096774 C172.516129,5.87096774 172.419355,5.96774194 172.419355,6.90322581 C172.419355,8.61290323 172.419355,10.3225806 172.419355,12 C172.419355,12.9677419 172.516129,13.0645161 173.483871,13.0645161 C176.612903,13.0645161 179.741935,13.0645161 182.870968,13.0645161 C183.129032,13.0645161 183.354839,13.0645161 183.612903,13.0645161 C184.548387,13.0967742 184.677419,13.1935484 184.677419,14.1612903 C184.677419,15.0645161 184.677419,15.9677419 184.677419,16.8709677 C184.677419,17.8387097 184.580645,17.9354839 183.612903,17.9354839 C180.451613,17.9354839 177.290323,17.9354839 174.129032,17.9354839 C173.774194,17.9354839 173.451613,17.9354839 173.096774,17.9354839 C172.645161,17.9354839 172.419355,18.1935484 172.419355,18.6129032 C172.419355,19.2580645 172.419355,19.9032258 172.419355,20.5483871 C172.419355,22.4193548 172.419355,24.2580645 172.419355,26.1290323 C172.419355,27.2903226 172.483871,27.3548387 173.612903,27.3548387 C177.193548,27.3548387 180.806452,27.3548387 184.387097,27.3548387 C184.645161,27.3548387 184.870968,27.3548387 185.129032,27.3548387 C185.83871,27.3870968 185.967742,27.516129 186,28.2580645 C186.032258,29.3548387 186.032258,30.4193548 186,31.516129 C186,32.2258065 185.83871,32.3548387 185.096774,32.3870968 C184.096774,32.4193548 183.129032,32.3870968 182.129032,32.3870968 C177.645161,32.3870968 173.16129,32.3870968 168.645161,32.3870968 C168.483871,32.3870968 168.322581,32.3870968 168.193548,32.3870968 C166.935484,32.3870968 166.83871,32.2903226 166.83871,31 C166.83871,27.8064516 166.83871,24.6129032 166.83871,21.4193548 C166.83871,19.8064516 166.83871,18.1612903 166.83871,16.5483871 Z" id="Path"></path>
                <path d="M174.096774,63.8064516 C174.096774,59.2580645 174.096774,54.7096774 174.096774,50.1612903 C174.096774,49.9354839 174.096774,49.7419355 174.096774,49.516129 C174.129032,48.483871 174.193548,48.3870968 175.193548,48.3870968 C177.16129,48.3870968 179.16129,48.3870968 181.129032,48.3870968 C184.645161,48.3870968 188.193548,48.3870968 191.709677,48.3870968 C192,48.3870968 192.258065,48.3870968 192.548387,48.3870968 C192.967742,48.3870968 193.193548,48.6129032 193.193548,49.0322581 C193.193548,50.1612903 193.193548,51.3225806 193.193548,52.4516129 C193.193548,52.9354839 192.935484,53.1935484 192.451613,53.1935484 C192.16129,53.1935484 191.903226,53.1935484 191.612903,53.1935484 C188.096774,53.1935484 184.548387,53.1935484 181.032258,53.1935484 C180.741935,53.1935484 180.483871,53.1935484 180.193548,53.1935484 C179.741935,53.1935484 179.516129,53.4193548 179.516129,53.8709677 C179.516129,54.3225806 179.516129,54.8064516 179.516129,55.2580645 C179.516129,56.5483871 179.516129,57.8709677 179.516129,59.1612903 C179.516129,60.1290323 179.612903,60.2258065 180.580645,60.2258065 C183.806452,60.2258065 187.032258,60.2258065 190.225806,60.2258065 C191.709677,60.2258065 191.741935,60.2580645 191.741935,61.7419355 C191.741935,62.5483871 191.741935,63.3548387 191.741935,64.1612903 C191.709677,64.9354839 191.612903,65.0645161 190.806452,65.0967742 C188.806452,65.0967742 186.774194,65.0967742 184.774194,65.0967742 C183.387097,65.0967742 182,65.0967742 180.580645,65.0967742 C179.548387,65.0967742 179.483871,65.1612903 179.483871,66.2258065 C179.483871,68.5483871 179.483871,70.8709677 179.483871,73.1935484 C179.483871,74.2903226 179.548387,74.3548387 180.612903,74.3548387 C183.645161,74.3548387 186.677419,74.3548387 189.709677,74.3548387 C190.548387,74.3548387 191.387097,74.3548387 192.225806,74.3548387 C193,74.3870968 193.16129,74.5483871 193.193548,75.2903226 C193.225806,76.3548387 193.225806,77.3870968 193.193548,78.4516129 C193.16129,79.1612903 193,79.3225806 192.322581,79.3548387 C192.064516,79.3870968 191.83871,79.3548387 191.580645,79.3548387 C186.290323,79.3548387 181,79.3548387 175.709677,79.3548387 C174.096774,79.3548387 174.096774,79.3548387 174.096774,77.7741935 C174.096774,73.1612903 174.096774,68.483871 174.096774,63.8064516 Z" id="Path"></path>
                <path d="M249.709677,5.64516129 C249.709677,6.35483871 249.741935,7.06451613 249.709677,7.77419355 C249.677419,8.38709677 249.483871,8.48387097 248.935484,8.16129032 C248.387097,7.83870968 247.83871,7.4516129 247.290323,7.12903226 C244.83871,5.64516129 242.129032,5.06451613 239.290323,5.32258065 C238.548387,5.38709677 237.774194,5.67741935 237.064516,5.93548387 C235.774194,6.4516129 235.16129,7.48387097 235.129032,8.83870968 C235.096774,10.1935484 235.709677,11.2580645 236.935484,11.8709677 C238,12.3870968 239.064516,12.8387097 240.16129,13.2580645 C241.677419,13.8387097 243.193548,14.3548387 244.709677,14.9032258 C246.709677,15.6774194 248.483871,16.7741935 249.774194,18.516129 C250.419355,19.3870968 250.83871,20.3870968 251.064516,21.4516129 C251.354839,22.8709677 251.419355,24.2580645 251.096774,25.6774194 C250.451613,28.7419355 248.483871,30.6451613 245.677419,31.8064516 C244,32.483871 242.225806,32.7741935 240.419355,32.7741935 C237.967742,32.8064516 235.580645,32.5806452 233.290323,31.7096774 C232.387097,31.3548387 231.548387,30.9032258 230.677419,30.483871 C230.225806,30.2580645 229.935484,29.9354839 229.935484,29.3870968 C229.935484,27.9677419 229.935484,26.5483871 229.935484,25.1290323 C229.935484,24.4516129 230.129032,24.3870968 230.741935,24.7741935 C231.967742,25.5806452 233.193548,26.3548387 234.548387,26.8387097 C236.967742,27.7096774 239.451613,28.1612903 242.032258,27.6451613 C242.741935,27.516129 243.451613,27.2258065 244.129032,26.9032258 C246.483871,25.7741935 246.258065,21.9677419 244.322581,20.9354839 C243.258065,20.3548387 242.16129,19.8387097 241.064516,19.3870968 C239.935484,18.9032258 238.741935,18.5483871 237.580645,18.1290323 C236.096774,17.5806452 234.645161,16.9677419 233.322581,16.0645161 C231.258065,14.6774194 230.096774,12.7419355 229.774194,10.2580645 C229.516129,8.19354839 229.83871,6.29032258 230.935484,4.58064516 C232.193548,2.64516129 234,1.4516129 236.193548,0.870967742 C240.612903,-0.322580645 244.83871,0.322580645 248.870968,2.41935484 C249.451613,2.70967742 249.741935,3.16129032 249.709677,3.83870968 C249.709677,4.4516129 249.741935,5.06451613 249.709677,5.64516129 C249.709677,5.64516129 249.709677,5.64516129 249.709677,5.64516129 Z" id="Path"></path>
                <path d="M71.3225806,27.3548387 C71.3225806,26.6451613 71.2903226,25.9354839 71.3225806,25.2258065 C71.3548387,24.516129 71.483871,24.4516129 72.0645161,24.8064516 C72.4193548,25.0322581 72.7741935,25.2903226 73.1612903,25.516129 C75.8387097,27.2258065 78.8064516,28.0322581 81.9677419,27.9354839 C83.1612903,27.9032258 84.3225806,27.6129032 85.4516129,27.0645161 C87.5806452,26 87.8387097,22.5483871 85.8709677,21.1935484 C85.0322581,20.6129032 84.0322581,20.1612903 83.0645161,19.7741935 C80.9677419,18.9354839 78.8064516,18.2258065 76.7419355,17.3870968 C74.8064516,16.5806452 73.1290323,15.3548387 72.0967742,13.4516129 C71.7419355,12.7741935 71.483871,12.0322581 71.2903226,11.2903226 C70.8387097,9.4516129 70.9354839,7.61290323 71.6774194,5.83870968 C72.483871,3.90322581 73.9677419,2.5483871 75.8709677,1.67741935 C77.9354839,0.709677419 80.0967742,0.419354839 82.3870968,0.483870968 C84.3870968,0.548387097 86.3225806,0.903225806 88.1935484,1.61290323 C88.9354839,1.90322581 89.6451613,2.29032258 90.3870968,2.64516129 C90.8387097,2.87096774 91.0967742,3.22580645 91.0645161,3.74193548 C91.0645161,5.12903226 91.0645161,6.51612903 91.0645161,7.93548387 C91.0645161,8.64516129 90.9354839,8.70967742 90.3225806,8.32258065 C89.5806452,7.87096774 88.8709677,7.38709677 88.0967742,6.96774194 C85.483871,5.5483871 82.6774194,5.06451613 79.7419355,5.61290323 C79.3548387,5.67741935 78.9677419,5.83870968 78.6129032,5.96774194 C77.516129,6.41935484 76.7419355,7.12903226 76.5806452,8.41935484 C76.4193548,9.83870968 76.7419355,11.1290323 78.0645161,11.8709677 C79.0967742,12.4516129 80.1935484,12.8709677 81.2903226,13.2903226 C83.0645161,13.9677419 84.8387097,14.5806452 86.6129032,15.2580645 C88.5806452,16.0322581 90.2580645,17.2258065 91.4193548,19.0322581 C92.0967742,20.0645161 92.4193548,21.1935484 92.6129032,22.4193548 C92.8387097,24 92.7096774,25.5483871 92.1612903,27.0645161 C91.4516129,29.0322581 90.0645161,30.3870968 88.2903226,31.3870968 C86.516129,32.3870968 84.5483871,32.8064516 82.516129,32.9032258 C79.4193548,33.0645161 76.483871,32.6129032 73.6451613,31.4193548 C73.0645161,31.1612903 72.483871,30.8064516 71.9354839,30.516129 C71.5483871,30.3225806 71.4193548,30 71.4193548,29.5806452 C71.3548387,28.8064516 71.3548387,28.0645161 71.3225806,27.3548387 C71.3548387,27.3548387 71.3548387,27.3548387 71.3225806,27.3548387 Z" id="Path"></path>
                <path d="M217.774194,5.77419355 C217.774194,6.4516129 217.774194,7.12903226 217.774194,7.80645161 C217.741935,8.48387097 217.645161,8.5483871 217.096774,8.19354839 C216.290323,7.70967742 215.548387,7.19354839 214.709677,6.74193548 C212.419355,5.48387097 209.935484,5.09677419 207.354839,5.32258065 C206.419355,5.38709677 205.548387,5.70967742 204.741935,6.16129032 C202.903226,7.16129032 202.709677,10.4193548 204.645161,11.5806452 C205.419355,12.0645161 206.290323,12.4516129 207.129032,12.8064516 C208.806452,13.4516129 210.516129,13.9677419 212.193548,14.6774194 C213.516129,15.2258065 214.83871,15.9032258 216.064516,16.6774194 C217.677419,17.6451613 218.580645,19.1935484 219.096774,20.9677419 C219.677419,23 219.645161,25.0645161 218.870968,27.0645161 C218.16129,28.9032258 216.83871,30.2258065 215.16129,31.1935484 C213.258065,32.2580645 211.193548,32.7096774 209.032258,32.8064516 C206.258065,32.9032258 203.580645,32.5806452 201.032258,31.5483871 C200.225806,31.2258065 199.483871,30.8064516 198.709677,30.3870968 C198.290323,30.1612903 198.096774,29.7741935 198.096774,29.3225806 C198.096774,27.9677419 198.096774,26.6129032 198.096774,25.2258065 C198.096774,25 198.225806,24.7741935 198.290323,24.5483871 C198.516129,24.6129032 198.774194,24.6451613 198.935484,24.7741935 C200.258065,25.7096774 201.677419,26.483871 203.193548,27.0322581 C205.580645,27.8709677 208,28.1612903 210.483871,27.6451613 C211.032258,27.516129 211.548387,27.3548387 212.064516,27.0967742 C214.258065,26 214.741935,23.0645161 212.935484,21.3870968 C212.290323,20.8064516 211.483871,20.3225806 210.677419,20 C208.516129,19.1290323 206.322581,18.4193548 204.16129,17.516129 C203.064516,17.0645161 202,16.4516129 201.032258,15.7419355 C199.032258,14.3225806 198.064516,12.2903226 197.903226,9.90322581 C197.806452,8.48387097 197.903226,7.06451613 198.483871,5.70967742 C199.516129,3.35483871 201.354839,1.96774194 203.677419,1.09677419 C206.612903,3.27515792e-15 209.612903,0.0967741935 212.645161,0.741935484 C214.225806,1.06451613 215.709677,1.64516129 217.129032,2.4516129 C217.612903,2.74193548 217.83871,3.09677419 217.806452,3.64516129 C217.774194,4.38709677 217.774194,5.09677419 217.774194,5.77419355 Z" id="Path"></path>
                <path d="M81.0322581,74.3225806 C81.0322581,73.6774194 81,73.0322581 81.0322581,72.3870968 C81.0322581,72.1290323 81.1935484,71.9032258 81.2903226,71.6451613 C81.516129,71.7419355 81.7419355,71.7741935 81.9354839,71.9354839 C83.0645161,72.7419355 84.2580645,73.4516129 85.5806452,73.9354839 C88,74.8064516 90.483871,75.2903226 93.0322581,74.7741935 C93.5483871,74.6774194 94.0645161,74.5806452 94.5483871,74.3870968 C95.9032258,73.8387097 96.7419355,72.9032258 96.8709677,71.4193548 C96.9677419,70.0967742 96.516129,68.9677419 95.3870968,68.2258065 C94.8064516,67.8387097 94.1612903,67.483871 93.516129,67.2258065 C91.3870968,66.3870968 89.1935484,65.6774194 87.0967742,64.8064516 C86.0322581,64.3870968 85.0322581,63.8064516 84.0967742,63.1612903 C81.8387097,61.6129032 80.9354839,59.3548387 80.8387097,56.7096774 C80.7419355,54.5806452 81.3870968,52.6774194 82.8387097,51.0645161 C83.6451613,50.1612903 84.6451613,49.483871 85.7741935,49 C89.3870968,47.483871 93.0967742,47.5806452 96.7741935,48.6774194 C97.9354839,49.0322581 99,49.6129032 100.096774,50.0967742 C100.548387,50.2903226 100.741935,50.6774194 100.741935,51.1290323 C100.741935,52.4516129 100.774194,53.8064516 100.741935,55.1290323 C100.741935,55.8709677 100.516129,55.9354839 99.9032258,55.516129 C98.516129,54.5806452 97.0645161,53.7419355 95.4516129,53.2580645 C93.4193548,52.6451613 91.3870968,52.483871 89.3225806,52.9354839 C88.3225806,53.1612903 87.3548387,53.5806452 86.7741935,54.516129 C85.7096774,56.2258065 86.2903226,58.3225806 88.1290323,59.2580645 C89.3548387,59.8709677 90.7096774,60.3225806 92,60.8064516 C93.4193548,61.3548387 94.8709677,61.8064516 96.2580645,62.3870968 C97.6774194,62.9677419 98.9677419,63.7419355 100.032258,64.8709677 C101.451613,66.3548387 102.193548,68.0967742 102.258065,70.1290323 C102.290323,71.5483871 102.258065,72.9677419 101.677419,74.3225806 C100.645161,76.6774194 98.8064516,78.0645161 96.483871,78.9354839 C93.2258065,80.1290323 89.9354839,80.0645161 86.6129032,79.3548387 C84.9354839,79 83.3548387,78.4193548 81.8709677,77.5483871 C81.3225806,77.2258065 81.0645161,76.8387097 81.0967742,76.1935484 C81.0322581,75.5483871 81,74.9354839 81.0322581,74.3225806 Z" id="Path"></path>
                <path d="M111.483871,16.6129032 C111.483871,21.4193548 111.483871,26.1935484 111.483871,31 C111.483871,32.3870968 111.451613,32.4193548 110.096774,32.4193548 C109,32.4193548 107.935484,32.4193548 106.83871,32.4193548 C106.064516,32.3870968 105.935484,32.2258065 105.870968,31.483871 C105.870968,31.2580645 105.870968,31.0645161 105.870968,30.8387097 C105.870968,21.3870968 105.870968,11.9032258 105.870968,2.4516129 C105.870968,0.870967742 105.870968,0.838709677 107.483871,0.838709677 C108.483871,0.838709677 109.451613,0.838709677 110.451613,0.838709677 C111.354839,0.838709677 111.451613,0.967741935 111.451613,1.87096774 C111.451613,5.5483871 111.451613,9.22580645 111.451613,12.9032258 C111.483871,14.1612903 111.483871,15.3870968 111.483871,16.6129032 Z" id="Path"></path>
                <path d="M26.5806452,63.8709677 C26.5806452,68.483871 26.5806452,73.0967742 26.5806452,77.7096774 C26.5806452,77.8387097 26.5806452,77.9677419 26.5806452,78.0967742 C26.5806452,79.3870968 26.483871,79.4516129 25.1935484,79.4516129 C24.0967742,79.4516129 23.0322581,79.4516129 21.9354839,79.4516129 C21.1612903,79.4193548 21.0322581,79.2580645 20.9677419,78.516129 C20.9677419,78.2903226 20.9677419,78.0967742 20.9677419,77.8709677 C20.9677419,68.5483871 20.9677419,59.2580645 20.9677419,49.9354839 C20.9677419,48.4193548 20.9677419,48.4193548 22.516129,48.4193548 C23.516129,48.4193548 24.483871,48.4193548 25.483871,48.4193548 C26.4193548,48.4193548 26.5483871,48.5483871 26.5483871,49.516129 C26.5483871,51.3548387 26.5483871,53.1612903 26.5483871,55 C26.5806452,57.9032258 26.5806452,60.9032258 26.5806452,63.8709677 Z" id="Path"></path>
                <path d="M121.16129,63.8709677 C121.16129,68.483871 121.16129,73.0967742 121.16129,77.7096774 C121.16129,77.8387097 121.16129,77.9677419 121.16129,78.0967742 C121.16129,79.3870968 121.064516,79.4516129 119.774194,79.4516129 C118.677419,79.4516129 117.612903,79.4516129 116.516129,79.4516129 C115.741935,79.4193548 115.612903,79.2580645 115.548387,78.516129 C115.548387,78.2903226 115.548387,78.0967742 115.548387,77.8709677 C115.548387,68.5483871 115.548387,59.2580645 115.548387,49.9354839 C115.548387,48.4193548 115.548387,48.4193548 117.096774,48.4193548 C118.064516,48.4193548 119,48.4193548 119.967742,48.4193548 C121.032258,48.4193548 121.096774,48.516129 121.129032,49.6129032 C121.16129,54.3225806 121.16129,59.0967742 121.16129,63.8709677 Z" id="Path"></path>
            </g>
        </g>
    </g>
</svg>