<?xml version="1.0" encoding="UTF-8"?>
<svg width="325px" height="58px" viewBox="0 0 325 58" version="1.1" xmlns="http://www.w3.org/2000/svg" xmlns:xlink="http://www.w3.org/1999/xlink">
    <!-- Generator: Sketch 52.5 (67469) - http://www.bohemiancoding.com/sketch -->
    <title>cheddar</title>
    <desc>Created with Sketch.</desc>
    <g id="Page-1" stroke="none" stroke-width="1" fill="none" fill-rule="evenodd">
        <g id="Desktop-HD-Copy-7" transform="translate(-107.000000, -184.000000)">
            <g id="cheddar" transform="translate(107.000000, 183.000000)">
                <g id="Group-15" transform="translate(59.884450, 5.386625)" fill="#F92586">
                    <g id="Group-16">
                        <path d="M0.127061958,29.0482821 L0.127061958,28.9218305 C0.127061958,19.2720508 7.65946891,10.8837764 18.8327836,10.8837764 C26.3651906,10.8837764 31.7004681,14.7937936 34.3364872,20.4071045 L24.1054528,26.2096176 C22.9127389,24.0025772 21.4061943,22.740438 19.0840059,22.740438 C16.0709169,22.740438 13.811179,25.3899005 13.811179,28.7953789 L13.811179,28.9218305 C13.811179,32.5166694 16.0709169,35.1030645 18.895392,35.1030645 C21.4061943,35.1030645 22.8501305,33.8410836 24.2306695,31.6340434 L34.5883403,37.5623742 C31.512012,43.3019783 26.3019514,46.9598844 18.1421987,46.9598844 C7.72207732,46.9598844 0.127061958,38.6979034 0.127061958,29.0482821" id="Fill-1"></path>
                        <path d="M36.9060185,0.0348930407 L51.154242,0.0348930407 L51.154242,16.2446278 C53.3513715,13.4065971 56.8038232,10.820202 61.6369717,10.820202 C68.8557058,10.820202 73.3751815,15.6136374 73.3751815,23.3715551 L73.3751815,46.0772269 L59.1261696,46.0772269 L59.1261696,27.97563 C59.1261696,25.0117816 57.3687183,23.3086463 55.2341972,23.3086463 C53.100307,23.3086463 51.154242,25.0117816 51.154242,27.97563 L51.154242,46.0772269 L36.9060185,46.0772269 L36.9060185,0.0348930407 Z" id="Fill-3"></path>
                        <path d="M99.049866,25.8943917 C98.7354047,22.6147312 96.7901282,20.7222352 94.2793258,20.7222352 C91.8937404,20.7222352 90.1987399,22.7405489 89.7598502,25.8943917 L99.049866,25.8943917 Z M76.577862,29.0482346 L76.577862,28.921783 C76.577862,18.6410128 83.9224438,10.8201861 94.2160866,10.8201861 C106.393659,10.8201861 112.043398,19.3349121 112.043398,29.8044089 C112.043398,30.5620093 112.043398,31.4446352 111.980159,32.2014435 L89.9484639,32.2014435 C90.9527218,35.2289932 93.3376764,36.8055185 96.4132161,36.8055185 C98.9872576,36.8055185 101.121148,35.6077142 103.380728,33.2735885 L111.038983,39.3912798 C107.649139,43.8066279 102.815991,46.8969281 95.4088005,46.8969281 C84.1728774,46.8969281 76.577862,39.7700008 76.577862,29.0482346 Z" id="Fill-5" fill-rule="nonzero"></path>
                        <path d="M139.255174,28.921783 L139.255174,28.7953314 C139.255174,25.389853 136.80698,22.6147312 133.542354,22.6147312 C130.278989,22.6147312 127.830795,25.3269439 127.830795,28.7953314 L127.830795,28.921783 C127.830795,32.3909625 130.278989,35.1031755 133.542354,35.1031755 C136.80698,35.1031755 139.255174,32.3909625 139.255174,28.921783 M114.022092,29.1111435 L114.022092,28.9846918 C114.022092,18.073565 120.550083,10.8201861 128.647228,10.8201861 C133.856658,10.8201861 136.744372,13.0907691 138.940871,15.5507127 L138.940871,0.0348771945 L153.190356,0.0348771945 L153.190356,46.077211 L138.940871,46.077211 L138.940871,41.8512232 C136.619155,44.3740756 133.981874,46.8969281 128.772444,46.8969281 C120.486844,46.8969281 114.022092,39.6443415 114.022092,29.1111435" id="Fill-7" fill-rule="nonzero"></path>
                        <path d="M181.997369,28.921783 L181.997369,28.7953314 C181.997369,25.389853 179.549175,22.6147312 176.28581,22.6147312 C173.021184,22.6147312 170.574251,25.3269439 170.574251,28.7953314 L170.574251,28.921783 C170.574251,32.3909625 173.021184,35.1031755 176.28581,35.1031755 C179.549175,35.1031755 181.997369,32.3909625 181.997369,28.921783 M156.764287,29.1111435 L156.764287,28.9846918 C156.764287,18.073565 163.292278,10.8201861 171.389423,10.8201861 C176.600115,10.8201861 179.486567,13.0907691 181.684326,15.5507127 L181.684326,0.0348771945 L195.932708,0.0348771945 L195.932708,46.077211 L181.684326,46.077211 L181.684326,41.8512232 C179.36135,44.3740756 176.725331,46.8969281 171.514639,46.8969281 C163.229669,46.8969281 156.764287,39.6443415 156.764287,29.1111435" id="Fill-9" fill-rule="nonzero"></path>
                        <path d="M220.414568,33.3364815 L220.414568,31.8864078 C219.599397,31.5710711 218.343287,31.3181679 217.151204,31.3181679 C214.326097,31.3181679 212.756945,33.0213032 212.756945,35.1660684 L212.756945,35.2918862 C212.756945,37.3101999 214.200881,38.6350896 216.02173,38.6350896 C218.532373,38.6350896 220.414568,36.6167758 220.414568,33.3364815 M199.136068,36.3009637 L199.136068,36.175146 C199.136068,29.2998542 204.220279,25.4527459 212.192207,25.4527459 C215.079921,25.4527459 218.782806,26.0837364 220.289351,26.7140929 L220.289351,26.1466453 C220.289351,22.9934363 218.343287,21.1638493 213.949028,21.1638493 C210.433967,21.1638493 207.484907,21.9206575 204.471975,23.119254 L201.961172,13.5952921 C205.914491,12.0816757 210.433967,11.0725981 216.397221,11.0725981 C223.364891,11.0725981 227.884367,12.5233056 230.897298,15.5506968 C233.470709,18.1364582 234.474966,21.4798198 234.474966,26.4618235 L234.474966,46.0771951 L220.226744,46.0771951 L220.226744,42.6080155 C217.841158,45.1945691 214.640402,46.8969122 210.371359,46.8969122 C203.780601,46.8969122 199.136068,43.1127128 199.136068,36.3009637" id="Fill-11" fill-rule="nonzero"></path>
                        <path d="M239.141723,11.6399666 L253.390103,11.6399666 L253.390103,18.5781673 C255.336011,13.9111835 258.474316,10.8837923 264.123268,11.1354278 L264.123268,26.3360849 L262.616723,26.3360849 C256.590859,26.3360849 253.390103,29.6786544 253.390103,37.3101206 L253.390103,46.0771159 L239.141723,46.0771159 L239.141723,11.6399666 Z" id="Fill-13"></path>
                    </g>
                </g>
                <g id="Group-17" transform="translate(0.000000, 0.799268)" fill="#FFFF63" fill-rule="nonzero">
                    <path d="M34.1317434,53.1009002 C32.519232,53.1009002 31.211461,52.3258583 31.211461,51.3698969 C31.211461,50.4141269 32.519232,49.6392769 34.1317434,49.6392769 C35.7446416,49.6392769 37.0522192,50.4141269 37.0522192,51.3698969 C37.0522192,52.3258583 35.7446416,53.1009002 34.1317434,53.1009002 M29.6993689,45.7381949 C28.8635098,45.7381949 28.1865028,45.2086597 28.1865028,44.5553171 C28.1865028,43.9017829 28.8635098,43.3718645 29.6993689,43.3718645 C30.5346474,43.3718645 31.211461,43.9017829 31.211461,44.5553171 C31.211461,45.2086597 30.5346474,45.7381949 29.6993689,45.7381949 M24.9788938,40.2381582 C24.9788938,39.2580485 26.1148495,38.4638415 27.5151068,38.4638415 C28.9153641,38.4638415 30.0511262,39.2580485 30.0511262,40.2381582 C30.0511262,41.2178846 28.9153641,42.0117083 27.5151068,42.0117083 C26.1148495,42.0117083 24.9788938,41.2178846 24.9788938,40.2381582 M21.6666091,50.4603152 C16.6282369,50.8633599 13.2557781,40.8449293 19.3171101,40.8985918 C22.0508721,40.9231234 25.4902771,43.0951185 25.6392611,45.9691359 C25.7224601,47.5688574 23.272542,50.3311416 21.6666091,50.4603152 M27.8200404,31.5394451 C28.5935971,31.5394451 29.2212652,32.0693635 29.2212652,32.7223229 C29.2212652,33.3760487 28.5935971,33.9057756 27.8200404,33.9057756 C27.0464839,33.9057756 26.4197831,33.3760487 26.4197831,32.7223229 C26.4197831,32.0693635 27.0464839,31.5394451 27.8200404,31.5394451 M31.5369042,12.4527957 C33.5156843,12.4708111 36.006815,14.0433178 36.1143931,16.1246616 C36.1739867,17.2826246 34.4001083,19.2827076 33.2374516,19.3762339 C29.5896623,19.6673536 27.147677,12.4146569 31.5369042,12.4527957 M36.7917871,9.4833355 C38.1887552,9.4833355 39.321228,10.2305877 39.321228,11.1526267 C39.321228,12.0748575 38.1887552,12.8228763 36.7917871,12.8228763 C35.3950125,12.8228763 34.2629267,12.0748575 34.2629267,11.1526267 C34.2629267,10.2305877 35.3950125,9.4833355 36.7917871,9.4833355 M39.4473808,7.92136952 C39.9138752,7.92136952 40.2913662,8.20827297 40.2913662,8.56244635 C40.2913662,8.91623645 39.9138752,9.20371484 39.4473808,9.20371484 C38.9801124,9.20371484 38.6022345,8.91623645 38.6022345,8.56244635 C38.6022345,8.20827297 38.9801124,7.92136952 39.4473808,7.92136952 M43.595718,48.9727103 C43.2907842,47.9096152 42.6482176,47.0358725 41.993268,46.1697958 C39.7588931,44.8071482 38.9062009,43.1091091 38.9062009,43.1091091 C37.6547342,39.5146709 39.4121664,37.7323048 41.6192598,36.8512794 C41.8259027,36.4162286 42.0271279,35.9823279 42.2045546,35.5467023 C43.3457343,32.7441712 42.7101332,29.9809288 42.2308686,27.0957955 C41.6531199,23.6123239 41.2938165,20.1278942 40.8836265,16.6187411 C40.5355455,13.6395066 41.5325781,7.74044977 39.1410928,5.47550329 C37.2685364,3.7019532 33.3160069,4.22784702 30.9144602,4.00744691 C27.5046585,3.69486206 25.1122056,6.10220619 21.5853451,6.10201455 C18.5766397,6.10201455 16.8608069,4.75546571 14.6219818,3.08981585 C13.256939,2.07405884 10.0512649,0.00210617838 8.12240424,0.902296865 C8.22920844,1.98494053 9.46829201,3.65480674 9.78309352,4.69049559 C9.79644405,4.73668378 9.80727926,4.7832553 9.81463172,4.8309767 C9.94271937,5.63994092 11.7589713,16.0782817 11.7761916,16.1836904 C11.7858658,16.2335201 11.7905095,16.2835412 11.7920574,16.3335624 C11.7926378,16.3569441 11.7937988,16.3923997 11.7945727,16.4201893 C11.9391066,16.4320717 12.0838341,16.4437625 12.2376554,16.4690606 C15.1788342,16.952791 18.5151112,19.8687803 18.1857983,22.9907956 C18.0019866,24.7292734 14.8909271,27.2958806 13.1383322,27.1659404 C12.7751591,27.139109 12.4288194,27.0614898 12.0983455,26.9457318 C12.2132761,30.9602719 12.3162106,34.601665 12.3162106,34.7854596 C12.3162106,35.0223417 12.0996999,38.2380751 11.886285,41.3499329 C11.9696774,41.3579823 12.0544242,41.3679483 12.1438147,41.3859636 C13.6918952,41.6952903 15.4228198,43.4324265 15.2169509,45.2559978 C15.1018268,46.2715633 13.4333981,47.7453691 12.5093095,47.6533761 C12.1703223,47.6194536 11.8599709,47.4958378 11.5794164,47.3095519 C11.6916382,51.2809701 10.8275303,58.3989354 15.782897,57.4389491 C17.6457791,57.0782596 20.2702216,56.9450612 21.9340067,55.9674431 C24.0884719,54.7006216 25.7938563,52.9255383 28.4887276,53.0644862 C30.2718936,53.1562876 32.5277454,55.6226606 33.7552198,55.5712978 C38.4787905,55.3760042 45.4315121,55.3796455 43.595718,48.9727103 M11.0150181,41.4656909 C11.2208871,38.4598168 11.4344955,35.2935297 11.4344955,35.0892284 C11.4344955,34.9046672 11.318404,30.8113581 11.19496,26.5049316 C7.62475855,24.2380686 6.71440751,16.9757893 10.9043442,16.4370546 C10.9039572,16.4263223 10.9037637,16.4196144 10.9037637,16.4196144 C10.9037637,16.4196144 9.04552536,5.73576705 8.91240707,4.8984383 L7.6295957,1.02993728 C6.83262738,1.70646979 5.76903551,3.05436018 4.91363444,4.40397545 C5.43043523,4.91817848 5.80889359,5.58359517 5.9021538,5.75474064 C5.96078001,5.86110764 5.99251169,5.98031536 5.99502701,6.10201455 C6.03875483,7.92999388 5.65526582,9.26906826 4.85384731,10.0818655 C4.29312524,10.6506895 3.53543454,10.9519668 2.66378066,10.9519668 C2.36155571,10.9519668 2.08158165,10.9165112 1.84146568,10.8693647 L0.916216216,13.2843749 C1.03192077,14.5975763 1.39567422,16.5970844 1.9262125,19.0337514 C2.9892239,19.7833033 4.44268982,21.4184805 3.16084588,24.3141546 C5.56432745,34.0773044 9.26687321,46.9845097 11.2450728,53.7594174 L10.6383011,46.9218394 C10.6383011,46.9218394 10.6531995,46.7075721 10.6783527,46.344966 C9.65964954,44.7120887 9.59908845,42.0726537 11.0150181,41.4656909" id="Fill-17"></path>
                </g>
            </g>
        </g>
    </g>
</svg>