<?xml version="1.0" encoding="UTF-8"?>
<svg width="94px" height="26px" viewBox="0 0 94 26" version="1.1" xmlns="http://www.w3.org/2000/svg" xmlns:xlink="http://www.w3.org/1999/xlink">
    <!-- Generator: Sketch 52.6 (67491) - http://www.bohemiancoding.com/sketch -->
    <title>Shape</title>
    <desc>Created with Sketch.</desc>
    <g id="Page-1" stroke="none" stroke-width="1" fill="none" fill-rule="evenodd">
        <g id="Desktop-HD-Copy-8" transform="translate(-286.000000, -438.000000)" fill="#EAECF1" fill-rule="nonzero">
            <g id="cloud-3-0a3b2d1c7620190121" transform="translate(286.000000, 438.000000)">
                <path d="M11.2,24.9 L11.5,25.5 L93.4,25.5 C91.9,22.4 88.7,20.3 85,20.2 C84,16 80.3,12.9 75.9,12.9 C73,12.9 70.3,14.3 68.6,16.4 C67.9,15.9 67.2,15.4 66.4,15.1 C66.5,14.7 66.5,14.3 66.5,13.9 C66.5,10.9 64.1,8.4 61,8.4 C59.4,8.4 58,9.1 57,10.1 C56,4.6 51,0.4 45,0.4 C42.3,0.4 39.8,1.3 37.7,2.8 C36.4,1.1 34.3,0 32,0 C28,0 24.7,3.3 24.7,7.3 C24.7,7.9 24.8,8.5 24.9,9.1 C23.8,8.7 22.5,8.5 21.3,8.5 C15,8.5 10,13.5 10,19.7 C10,20.1 10,20.6 10.1,21 C9.1,19.7 7.5,18.8 5.7,18.8 C2.6,18.8 0.1,21.3 0.1,24.4 C0.1,24.7 0.1,25.1 0.2,25.4 L11.3,25.4 C11.2,25.3 11.2,25.1 11.2,24.9 Z M31.4,14.9 C31.4,14.8 31.3,14.7 31.3,14.7 L31.7,14.7 C31.6,14.7 31.5,14.8 31.4,14.9 Z" id="Shape"></path>
            </g>
        </g>
    </g>
</svg>