<?xml version="1.0" encoding="UTF-8"?>
<svg width="63px" height="18px" viewBox="0 0 63 18" version="1.1" xmlns="http://www.w3.org/2000/svg" xmlns:xlink="http://www.w3.org/1999/xlink">
    <!-- Generator: Sketch 52.6 (67491) - http://www.bohemiancoding.com/sketch -->
    <title>Shape</title>
    <desc>Created with Sketch.</desc>
    <g id="Page-1" stroke="none" stroke-width="1" fill="none" fill-rule="evenodd">
        <g id="Desktop-HD-Copy-8" transform="translate(-419.000000, -477.000000)" fill="#E7EAF4" fill-rule="nonzero">
            <g id="cloud-2-f618a142b320190121" transform="translate(419.000000, 477.000000)">
                <path d="M62.5,17.2 C62.2,17 61.8,16.8 61.4,16.6 C61.5,16.2 61.5,15.8 61.5,15.3 C61.5,12 58.8,9.3 55.5,9.3 C53.8,9.3 52.2,10 51.1,11.2 C49.8,5.1 44.3,0.5 37.7,0.5 C34.7,0.5 31.9,1.5 29.7,3.1 C28.2,1.2 25.9,0 23.4,0 C18.9,0 15.3,3.6 15.3,8.1 C15.3,8.8 15.4,9.4 15.5,10 C14.2,9.6 12.9,9.3 11.5,9.3 C6.3,9.3 1.8,12.6 -1.77635684e-15,17.2 L62.5,17.2 Z M22.7,16.4 C22.7,16.3 22.6,16.2 22.6,16.1 L23,16.1 L22.7,16.4 Z" id="Shape"></path>
            </g>
        </g>
    </g>
</svg>