<?xml version="1.0" encoding="UTF-8"?>
<svg width="94px" height="27px" viewBox="0 0 94 27" version="1.1" xmlns="http://www.w3.org/2000/svg" xmlns:xlink="http://www.w3.org/1999/xlink">
    <!-- Generator: Sketch 52.6 (67491) - http://www.bohemiancoding.com/sketch -->
    <title>Shape</title>
    <desc>Created with Sketch.</desc>
    <g id="Page-1" stroke="none" stroke-width="1" fill="none" fill-rule="evenodd">
        <g id="Desktop-HD-Copy-8" transform="translate(-345.000000, -512.000000)" fill="#EAECF1" fill-rule="nonzero">
            <g id="cloud-1-ca349a475d20190121" transform="translate(345.000000, 512.000000)">
                <path d="M94,26.5 C93.4,20.1 88.1,15 81.5,15 C79.4,15 77.3,15.5 75.6,16.5 C75.7,16 75.8,15.4 75.8,14.9 C75.8,11.6 73.1,8.9 69.8,8.9 C68.1,8.9 66.5,9.6 65.4,10.8 C64,4.6 58.5,0 51.9,0 C45.2,0 39.6,4.8 38.4,11.2 C36.4,9.8 33.9,8.9 31.2,8.9 C24.4,8.9 18.8,14.5 18.8,21.3 L18.8,21.9 C16.9,19.7 14.1,18.3 11,18.3 C6,18.3 1.9,21.8 0.9,26.5 L94,26.5 Z M70.5,20.9 C70.6,20.9 70.8,20.9 70.9,20.8 C70.8,20.9 70.7,21.1 70.6,21.2 C70.6,21.1 70.6,21 70.5,20.9 Z" id="Shape"></path>
            </g>
        </g>
    </g>
</svg>