<?xml version="1.0" encoding="UTF-8"?>
<svg width="283px" height="100px" viewBox="0 0 283 100" version="1.1" xmlns="http://www.w3.org/2000/svg" xmlns:xlink="http://www.w3.org/1999/xlink">
    <!-- Generator: Sketch 52.5 (67469) - http://www.bohemiancoding.com/sketch -->
    <title>govtech</title>
    <desc>Created with Sketch.</desc>
    <g id="Page-1" stroke="none" stroke-width="1" fill="none" fill-rule="evenodd">
        <g id="Desktop-HD-Copy-7" transform="translate(-133.000000, -775.000000)">
            <g id="govtech" transform="translate(133.642857, 775.000000)">
                <g id="g7" transform="translate(87.142857, 7.142857)" fill="#939598" opacity="0.51000001">
                    <g id="g9">
                        <g id="g11">
                            <path d="M33.5714286,67.8571429 C33.5714286,74 36.2857143,75.2857143 39.2857143,75.2857143 C40.7142857,75.2857143 42.4285714,74.8571429 43.7142857,73.4285714 L43.7142857,70.5714286 C43,71 42.2857143,71.2857143 41.2857143,71.2857143 C40,71.2857143 39,70.8571429 39,68.2857143 L39,50.1428571 L43.5714286,50.1428571 L43.5714286,46.4285714 L39,46.4285714 L39,34.1428571 L38.2857143,34.1428571 L34.1428571,36.8571429 L34.1428571,46.2857143 L31.4285714,46.2857143 L31.4285714,50 L33.7142857,50 L33.7142857,67.8571429 L33.5714286,67.8571429 Z M51.8571429,75.2857143 C56.7142857,75.2857143 59.4285714,72.8571429 59.4285714,67.4285714 L59.4285714,66.2857143 L55,66.2857143 L55,67.1428571 C55,70.1428571 53.8571429,71.1428571 52.5714286,71.1428571 C50.1428571,71.1428571 49.5714286,69.4285714 49.5714286,64.4285714 L49.5714286,61.5714286 L59,61.5714286 C59.4285714,59.7142857 59.7142857,57.1428571 59.7142857,54.8571429 C59.7142857,48 56.2857143,45.8571429 52.5714286,45.8571429 C49.5714286,45.8571429 44.2857143,46.7142857 44.2857143,57.7142857 L44.2857143,63.1428571 C44.1428571,71.8571429 46.8571429,75.2857143 51.8571429,75.2857143 Z M49.4285714,58.1428571 L49.4285714,56.4285714 C49.4285714,51.5714286 50.2857143,49.8571429 52.1428571,49.8571429 C53.8571429,49.8571429 54.7142857,51.4285714 54.7142857,55.1428571 C54.7142857,55.8571429 54.7142857,57.4285714 54.5714286,58.1428571 L49.4285714,58.1428571 Z M68.5714286,75.2857143 C73.2857143,75.2857143 75.7142857,72.8571429 75.7142857,67.4285714 L75.7142857,66.2857143 L71.1428571,66.2857143 L71.1428571,67.1428571 C71.1428571,70.1428571 70.1428571,71.1428571 69.1428571,71.1428571 C67.1428571,71.1428571 66.4285714,69.2857143 66.4285714,64.2857143 L66.4285714,56.1428571 C66.4285714,51.2857143 67.2857143,49.7142857 69,49.7142857 C70.5714286,49.7142857 71.1428571,51.4285714 71.1428571,54.2857143 L71.1428571,55.2857143 L75.2857143,55.2857143 C75.5714286,54.4285714 75.5714286,53.4285714 75.5714286,52.1428571 C75.5714286,47.8571429 72.8571429,45.8571429 69,45.8571429 C66.1428571,45.8571429 61,46.7142857 61,57.7142857 L61,63.1428571 C61.1428571,71.4285714 63.8571429,75.2857143 68.5714286,75.2857143 Z M77.8571429,75 L83.1428571,75 L83.1428571,51.8571429 C84,50.5714286 85.1428571,49.8571429 86.1428571,49.8571429 C87.5714286,49.8571429 88.4285714,50.7142857 88.4285714,53.2857143 L88.4285714,75 L93.7142857,75 L93.7142857,53.1428571 C93.7142857,48.4285714 91.8571429,46.1428571 88.4285714,46.1428571 C86.4285714,46.1428571 84.4285714,46.8571429 82.8571429,48.8571429 L82.7142857,44 L82.7142857,34.1428571 L82.1428571,34.1428571 L78,36.7142857 L78,37 L78,75 L77.8571429,75 Z M97,75 L102.285714,75 L102.285714,51.8571429 C103.142857,50.7142857 104.142857,49.8571429 105.285714,49.8571429 C106.714286,49.8571429 107.571429,50.7142857 107.571429,53.2857143 L107.571429,75 L112.857143,75 L112.857143,53.1428571 C112.857143,48.4285714 111,46.1428571 107.571429,46.1428571 C105.428571,46.1428571 103.285714,47 101.571429,49.5714286 L101.142857,46.5714286 L97.1428571,46.5714286 L97.1428571,75 L97,75 Z M123.285714,75.2857143 C126.571429,75.2857143 131.142857,73.8571429 131.142857,62.7142857 L131.142857,58.2857143 C131.142857,47 126.714286,46.1428571 123.285714,46.1428571 C119.714286,46.1428571 115.285714,47.1428571 115.285714,58.2857143 L115.285714,62.7142857 C115.285714,74 119.714286,75.2857143 123.285714,75.2857143 Z M123.285714,71.2857143 C121.285714,71.2857143 120.571429,69.5714286 120.571429,64.1428571 L120.571429,57.1428571 C120.571429,51.7142857 121.285714,50 123.285714,50 C125.142857,50 125.857143,51.8571429 125.857143,57.1428571 L125.857143,64.1428571 C125.857143,69.5714286 125.285714,71.2857143 123.285714,71.2857143 Z M133.857143,75 L139.142857,75 L139.142857,34 L138.285714,34 L134,36.8571429 L133.857143,37 L133.857143,75 Z M149.571429,75.2857143 C152.857143,75.2857143 157.428571,73.8571429 157.428571,62.7142857 L157.428571,58.2857143 C157.428571,47 153,46.1428571 149.571429,46.1428571 C146,46.1428571 141.571429,47.1428571 141.571429,58.2857143 L141.571429,62.7142857 C141.714286,74 146,75.2857143 149.571429,75.2857143 Z M149.714286,71.2857143 C147.714286,71.2857143 147,69.5714286 147,64.1428571 L147,57.1428571 C147,51.7142857 147.714286,50 149.714286,50 C151.571429,50 152.285714,51.8571429 152.285714,57.1428571 L152.285714,64.1428571 C152.142857,69.5714286 151.571429,71.2857143 149.714286,71.2857143 Z M160.571429,77 C160.428571,77.7142857 160.285714,78.2857143 160.285714,78.7142857 C160.285714,83.2857143 163.428571,84.2857143 167.142857,84.2857143 C172.714286,84.2857143 175.142857,80.2857143 175.142857,73.8571429 L175.142857,46.4285714 L171,46.4285714 L170.571429,49.2857143 C169.857143,47.7142857 168.428571,46.1428571 165.571429,46.1428571 C163.428571,46.1428571 159.285714,46.7142857 159.285714,56 L159.285714,63.5714286 C159.285714,73.2857143 163.571429,73.8571429 165.428571,73.8571429 C167.571429,73.8571429 169,72.8571429 170,71.5714286 L170,76.1428571 C170,79.5714286 168.571429,80.4285714 167,80.4285714 C165.142857,80.4285714 164.142857,79.4285714 164.142857,77 L160.571429,77 Z M167.285714,69.7142857 C165.714286,69.7142857 164.571429,68.7142857 164.571429,64.4285714 L164.571429,55 C164.571429,50.7142857 165.714286,49.8571429 167.142857,49.8571429 C168.428571,49.8571429 169.285714,50.8571429 169.714286,52 L169.714286,67.7142857 C169.428571,68.7142857 168.714286,69.7142857 167.285714,69.7142857 Z M178.142857,80.5714286 L178.142857,83.8571429 C179.142857,84.1428571 180,84.4285714 180.857143,84.4285714 C185.285714,84.4285714 187.428571,81.7142857 188.428571,76.2857143 L194.428571,46.5714286 L189.285714,46.5714286 L186.857143,62.4285714 L186.285714,67.8571429 L186.142857,67.8571429 L185.285714,62.4285714 L182.285714,46.5714286 L177,46.5714286 L183.714286,75.2857143 C183.428571,79.2857143 181.285714,81 178.142857,80.5714286 Z" id="path13" fill-rule="nonzero"></path>
                            <path d="M173.428571,42.4285714 L173.428571,18.4285714 C173.428571,13.2857143 171.285714,10.7142857 167.714286,10.7142857 C165.428571,10.7142857 163,11.5714286 161.142857,14.4285714 L160.571429,11.1428571 L156.142857,11.1428571 L156.142857,42.4285714 L161.857143,42.4285714 L161.857143,17.1428571 C162.714286,15.8571429 163.857143,15 165.142857,15 C166.714286,15 167.571429,16 167.571429,18.7142857 L167.571429,42.4285714 L173.428571,42.4285714 Z M153.857143,27.8571429 C154.285714,25.8571429 154.571429,23 154.571429,20.5714286 C154.571429,13 150.857143,10.8571429 146.714286,10.8571429 C143.428571,10.8571429 137.714286,11.8571429 137.714286,23.7142857 L137.714286,29.5714286 C137.714286,30.5714286 137.714286,31.4285714 137.857143,32.1428571 L140.571429,32.1428571 L140.571429,40.4285714 C142,42 143.857143,42.5714286 146,42.5714286 C151.428571,42.5714286 154.285714,40 154.285714,34 L154.285714,32.8571429 L149.428571,32.8571429 L149.428571,33.8571429 C149.428571,37.1428571 148.142857,38.1428571 146.714286,38.1428571 C144.142857,38.1428571 143.428571,36.2857143 143.428571,30.8571429 L143.428571,27.7142857 L153.857143,27.7142857 L153.857143,27.8571429 Z M149.428571,20.7142857 C149.428571,21.5714286 149.428571,23.2857143 149.285714,23.8571429 L143.571429,23.8571429 L143.571429,22 C143.571429,16.5714286 144.571429,14.8571429 146.571429,14.8571429 C148.428571,15 149.428571,16.5714286 149.428571,20.7142857 Z M135.857143,33.2857143 L135.857143,18.4285714 C135.857143,13.2857143 133.714286,10.7142857 130.142857,10.7142857 C127.857143,10.7142857 125.571429,11.5714286 123.714286,14.2857143 C122.857143,11.8571429 121.142857,10.7142857 118.714286,10.7142857 C116.428571,10.7142857 114,11.5714286 112.285714,14.4285714 L111.857143,11.1428571 L107.428571,11.1428571 L107.428571,42.4285714 L113.142857,42.4285714 L113.142857,17.1428571 C114,15.8571429 115.142857,15 116.142857,15 C118,15 118.857143,16 118.857143,18.7142857 L118.857143,42.4285714 L124.571429,42.4285714 L124.571429,18 C124.571429,17.7142857 124.571429,17.4285714 124.571429,17.1428571 C125.428571,15.8571429 126.571429,15 127.571429,15 C129.428571,15 130.285714,16 130.285714,18.7142857 L130.285714,42.4285714 L132.428571,42.4285714 L132.428571,35.7142857 L135.857143,33.2857143 Z M99.2857143,42.4285714 L105,42.4285714 L105,18.4285714 C105,13.2857143 102.857143,10.7142857 99.2857143,10.7142857 C97,10.7142857 94.5714286,11.5714286 92.7142857,14.4285714 L92.1428571,11.1428571 L87.7142857,11.1428571 L87.7142857,42.4285714 L93.4285714,42.4285714 L93.4285714,17.1428571 C94.2857143,15.8571429 95.4285714,15 96.7142857,15 C98.2857143,15 99.1428571,16 99.1428571,18.7142857 L99.1428571,42.4285714 L99.2857143,42.4285714 Z M85.7142857,21.1428571 C86.1428571,19.8571429 86.4285714,18 86.4285714,16.8571429 C86.4285714,12.8571429 84.8571429,10.7142857 81.5714286,10.7142857 C79.8571429,10.7142857 78.1428571,11.8571429 76.8571429,14.2857143 L76.4285714,11.1428571 L72.2857143,11.1428571 L72.2857143,42.4285714 L76.4285714,42.4285714 L76.4285714,35.7142857 L78,34.5714286 L78,16.5714286 C78.5714286,15.5714286 79.2857143,14.8571429 80.2857143,14.8571429 C81.1428571,14.8571429 81.8571429,15.5714286 81.8571429,18.1428571 L81.8571429,21 L85.7142857,21 L85.7142857,21.1428571 Z M70,27.8571429 C70.4285714,25.8571429 70.7142857,23 70.7142857,20.5714286 C70.7142857,13 67,10.8571429 62.8571429,10.8571429 C59.5714286,10.8571429 53.8571429,11.8571429 53.8571429,23.7142857 L53.8571429,29.5714286 C53.8571429,38.8571429 56.8571429,42.7142857 62.1428571,42.7142857 C67.5714286,42.7142857 70.4285714,40.1428571 70.4285714,34.1428571 L70.4285714,33 L65.5714286,33 L65.5714286,34 C65.5714286,37.2857143 64.2857143,38.2857143 62.8571429,38.2857143 C60.2857143,38.2857143 59.5714286,36.4285714 59.5714286,31 L59.5714286,27.8571429 L70,27.8571429 Z M65.4285714,20.7142857 C65.4285714,21.5714286 65.4285714,23.2857143 65.2857143,23.8571429 L59.5714286,23.8571429 L59.5714286,22 C59.5714286,16.5714286 60.5714286,14.8571429 62.5714286,14.8571429 C64.4285714,15 65.4285714,16.5714286 65.4285714,20.7142857 Z M47.4285714,42.4285714 L54.5714286,11.1428571 L49,11.1428571 L46,27.7142857 L45.1428571,34.4285714 L45,34.4285714 L44.2857143,27.7142857 L41.2857143,11.1428571 L35.5714286,11.1428571 L42.5714286,42.4285714 L47.4285714,42.4285714 Z M36.1428571,24 C36.1428571,11.7142857 31.2857143,10.7142857 27.5714286,10.7142857 C23.7142857,10.7142857 18.8571429,11.8571429 18.8571429,24 L18.8571429,28.8571429 C18.8571429,41.1428571 23.5714286,42.5714286 27.5714286,42.5714286 C29.1428571,42.5714286 30.8571429,42.2857143 32.4285714,41 L32.4285714,35.7142857 L35.8571429,33.4285714 C36,32.1428571 36.1428571,30.7142857 36.1428571,29 L36.1428571,24 Z M30.4285714,30.5714286 C30.4285714,36.4285714 29.7142857,38.4285714 27.5714286,38.4285714 C25.4285714,38.4285714 24.5714286,36.4285714 24.5714286,30.5714286 L24.5714286,22.8571429 C24.5714286,17 25.4285714,15 27.5714286,15 C29.5714286,15 30.4285714,17 30.4285714,22.8571429 L30.4285714,30.5714286 Z M17.4285714,41.1428571 L17.4285714,11.1428571 L12.8571429,11.1428571 L12.2857143,14.2857143 C11.4285714,12.5714286 9.85714286,10.8571429 6.85714286,10.8571429 C4.57142857,10.8571429 -2.84217094e-14,11.4285714 -2.84217094e-14,21.5714286 L-2.84217094e-14,29.8571429 C-2.84217094e-14,40.4285714 4.57142857,41.1428571 6.71428571,41.1428571 C9.14285714,41.1428571 10.7142857,40 11.7142857,38.7142857 L11.7142857,43.5714286 C11.7142857,47.4285714 10.1428571,48.2857143 8.42857143,48.2857143 C6.42857143,48.2857143 5.42857143,47.2857143 5.42857143,44.5714286 L1.42857143,44.5714286 C1.28571429,45.2857143 1.14285714,46 1.14285714,46.4285714 C1.14285714,51.4285714 4.57142857,52.5714286 8.57142857,52.5714286 C14.8571429,52.4285714 17.4285714,48.1428571 17.4285714,41.1428571 Z M11.7142857,34.2857143 C11.1428571,35.4285714 10.2857143,36.5714286 8.85714286,36.5714286 C7.14285714,36.5714286 6,35.5714286 6,30.8571429 L6,20.5714286 C6,15.8571429 7.14285714,14.8571429 8.85714286,14.8571429 C10.2857143,14.8571429 11.1428571,15.8571429 11.7142857,17.1428571 L11.7142857,34.2857143 Z" id="path15" fill-rule="nonzero"></path>
                            <path d="M177.142857,35 C177.142857,41.1428571 179.857143,42.4285714 182.857143,42.4285714 C184.285714,42.4285714 186,42 187.285714,40.5714286 L187.285714,37.7142857 C186.571429,38.1428571 185.857143,38.4285714 184.857143,38.4285714 C183.571429,38.4285714 182.571429,38 182.571429,35.4285714 L182.571429,17.2857143 L187.142857,17.2857143 L187.142857,13.5714286 L182.571429,13.5714286 L182.571429,1.28571429 L181.857143,1.28571429 L177.714286,4 L177.714286,13.4285714 L175,13.4285714 L175,17.1428571 L177.285714,17.1428571 L177.285714,35 L177.142857,35 Z" id="path17"></path>
                        </g>
                    </g>
                </g>
                <g id="Group-4">
                    <rect id="rect19" fill="#FFFFFF" x="7.1653622" y="7.95274803" width="60.9448835" height="88.3464567"></rect>
                    <polygon id="polygon21" fill="#BCBEC0" points="-4.4408921e-16 0.866141732 0.157480315 95.2755906 4.72440945 99.2125984 4.72440945 0.787401575"></polygon>
                    <g id="g23" transform="translate(4.724409, 0.629921)" fill="#F47421" fill-rule="nonzero">
                        <path d="M24.3307087,61.2598425 L24.3307087,33.9370079 C23.3858268,31.9685039 21.8897638,30.2362205 19.6850394,30.2362205 C17.007874,30.2362205 15.0393701,31.8110236 15.0393701,39.2913386 L15.0393701,55.7480315 C15.0393701,63.2283465 17.007874,64.8818898 19.6850394,64.8818898 C22.1259843,64.8818898 23.5433071,63.0708661 24.3307087,61.2598425 Z M59.8425197,84.7244094 C57.5590551,87.480315 54.4094488,88.2677165 51.5748031,88.2677165 C46.0629921,88.2677165 40.8661417,85.9055118 40.8661417,74.2519685 L40.8661417,40.7874016 L32.4409449,40.7874016 L32.4409449,33.7795276 L41.7322835,33.7795276 L41.8110236,15.9055118 L49.5275591,10.7086614 L50.7874016,10.7086614 L50.7874016,33.7007874 L59.4488189,33.7007874 L59.4488189,40.7086614 L50.7874016,40.7086614 L50.7874016,75.0393701 C50.7874016,79.7637795 52.7559055,80.5511811 55.0393701,80.5511811 C56.9291339,80.5511811 58.4251969,80.0787402 59.7637795,79.2125984 L59.7637795,84.7244094 L59.8425197,84.7244094 Z M33.5433071,31.6535433 L30.5511811,31.6535433 L30.5511811,42.5984252 L33.5433071,42.5984252 L33.5433071,72.0472441 C33.5433071,83.2283465 29.3700787,90.2362205 19.5275591,90.2362205 C12.9133858,90.2362205 7.48031496,88.2677165 7.48031496,80.3937008 C7.48031496,79.6850394 7.63779528,78.6614173 7.95275591,77.480315 L14.488189,77.480315 C14.488189,81.7322835 16.0629921,83.3858268 19.4488189,83.3858268 C22.2047244,83.3858268 24.6456693,82.0472441 24.6456693,75.9055118 L24.6456693,68.0314961 C22.992126,70.1574803 20.4724409,71.8897638 16.6141732,71.8897638 C13.2283465,71.8897638 5.82677165,70.7874016 5.82677165,53.7795276 L5.82677165,40.6299213 C5.82677165,24.3307087 13.2283465,23.3858268 16.8503937,23.3858268 C21.7322835,23.3858268 24.1732283,26.2204724 25.511811,28.8188976 L26.3779528,23.8582677 L33.5433071,23.8582677 L33.5433071,31.6535433 Z M67.007874,0.157480315 L0,0.157480315 L0,98.6614173 L67.007874,98.6614173 L67.007874,0.157480315 Z" id="path25"></path>
                    </g>
                </g>
            </g>
        </g>
    </g>
</svg>