<?xml version="1.0" encoding="UTF-8"?>
<svg width="311px" height="120px" viewBox="0 0 311 120" version="1.1" xmlns="http://www.w3.org/2000/svg" xmlns:xlink="http://www.w3.org/1999/xlink">
    <!-- Generator: Sketch 52.5 (67469) - http://www.bohemiancoding.com/sketch -->
    <title>The_Huffington_Post_logo</title>
    <desc>Created with Sketch.</desc>
    <g id="Page-1" stroke="none" stroke-width="1" fill="none" fill-rule="evenodd">
        <g id="Desktop-HD-Copy-7" transform="translate(-464.000000, -321.000000)" fill="#357160">
            <g id="The_Huffington_Post_logo" transform="translate(464.000000, 321.000000)">
                <path d="M122.733765,22.9941313 C122.733765,27.4402504 122.817443,28.0777158 125.287899,28.2875145 L126.650103,28.4166214 C126.904165,28.5861818 126.820271,29.347267 126.563614,29.4736842 C124.139214,29.3901951 122.69052,29.3471594 120.987765,29.3471594 C119.285009,29.3471594 117.795773,29.3901951 115.071364,29.4736842 C114.817302,29.3471594 114.730813,28.6264201 115.071364,28.4166214 L116.603844,28.2875145 C119.030947,28.0777158 119.244467,27.4402504 119.244467,22.9941313 L119.244467,4.06114148 C119.244467,2.7485546 119.244467,2.70551897 117.966049,2.70551897 L115.625435,2.70551897 C113.795649,2.70551897 111.455035,2.78879292 110.390137,3.76527149 C109.368483,4.69591711 108.944146,5.62656272 108.476564,6.68631525 C108.136013,6.94183933 107.538697,6.72935088 107.368421,6.39044525 C108.049523,4.48611838 108.687381,1.77487335 108.98739,0.0803452061 C109.114421,-0.00572606475 109.66579,-0.0459643839 109.795524,0.0803452061 C110.049586,1.43596772 111.455035,1.39293209 113.411853,1.39293209 L130.650228,1.39293209 C132.947597,1.39293209 133.331393,1.30686082 133.969251,0.206762385 C134.182663,0.120691114 134.650353,0.16372675 134.736842,0.333287153 C134.266557,2.07085093 133.969251,5.50025313 134.096282,6.77249411 C133.928709,7.11139973 133.204362,7.11139973 132.990842,6.85576806 C132.863703,5.79870526 132.566504,4.2305943 131.925944,3.76527149 C130.947535,3.0444246 129.331268,2.70551897 126.990655,2.70551897 L123.968939,2.70551897 C122.69052,2.70551897 122.733765,2.7485546 122.733765,4.14452303 L122.733765,22.9941313 Z" id="path3321"></path>
                <path d="M150.645885,15.5612452 C148.55841,15.5612452 148.470051,15.6479615 148.470051,16.927027 L148.470051,22.9429708 C148.470051,27.4251199 148.688076,28.0212945 151.123575,28.2787335 L152.385448,28.4059897 C152.645002,28.5768208 152.559294,29.3436098 152.297089,29.4736842 C149.95006,29.3869679 148.470051,29.3436098 146.774668,29.3436098 C144.905328,29.3436098 143.42808,29.4303261 141.732697,29.4736842 C141.470382,29.3436098 141.384784,28.6634287 141.644338,28.4059897 L142.384343,28.2787335 C144.819731,27.8505717 144.905328,27.4251199 144.905328,22.9429708 L144.905328,7.58063512 C144.905328,3.10119592 144.601595,2.37494686 142.340163,2.20422413 L141.210828,2.1203261 C140.948513,1.94971177 141.036982,1.17999615 141.296536,1.05263158 C143.428191,1.09598973 144.905439,1.18010455 146.774778,1.18010455 C148.470162,1.18010455 149.95017,1.1367464 151.81951,1.05263158 C152.081825,1.18010455 152.167423,1.94960337 151.907869,2.1203261 L151.079506,2.20422413 C148.55852,2.46166316 148.470162,3.10119592 148.470162,7.58063512 L148.470162,12.4882361 C148.470162,13.8106598 148.55852,13.8540179 150.645996,13.8540179 L163.082489,13.8540179 C165.167203,13.8540179 165.255561,13.8106598 165.255561,12.4882361 L165.255561,7.58063512 C165.255561,3.10119592 165.167203,2.46166316 162.602038,2.20422413 L161.776436,2.1203261 C161.516882,1.94971177 161.60259,1.17999615 161.864795,1.05263158 C163.863911,1.1367464 165.34392,1.18010455 167.124901,1.18010455 C168.820284,1.18010455 170.300293,1.1367464 172.25523,1.05263158 C172.517545,1.18010455 172.603143,1.94960337 172.343589,2.1203261 L171.429628,2.20422413 C168.908643,2.46166316 168.820284,3.10119592 168.820284,7.58063512 L168.820284,22.9429708 C168.820284,27.4251199 168.908643,27.9779363 171.429628,28.2787335 L172.473366,28.4059897 C172.735681,28.5768208 172.647212,29.3436098 172.387879,29.4736842 C170.300404,29.3869679 168.820395,29.3436098 167.125011,29.3436098 C165.344031,29.3436098 163.778424,29.3869679 161.864905,29.4736842 C161.60259,29.3436098 161.516993,28.6634287 161.776546,28.4059897 L162.602148,28.2787335 C165.255672,27.8505717 165.255672,27.4251199 165.255672,22.9429708 L165.255672,16.927027 C165.255672,15.6479615 165.167313,15.5612452 163.082599,15.5612452 L150.646106,15.5612452 L150.645885,15.5612452 Z" id="path3325"></path>
                <path d="M183.140986,7.58134112 C183.140986,3.14214385 183.054588,2.50255254 180.546357,2.20443795 L179.865976,2.11771371 C179.612183,1.94686695 179.698581,1.18000781 179.952374,1.05263158 C181.780223,1.13653729 183.224683,1.18011622 184.968835,1.18011622 L192.963315,1.18011622 C195.68214,1.18011622 198.193071,1.18011622 198.703357,1.05263158 C198.95715,1.77623699 199.213643,4.84952741 199.381038,6.72764934 C199.213643,6.98511194 198.533262,7.06912605 198.319967,6.81437358 C197.682785,4.80616529 197.299396,3.3128822 195.088157,2.75730501 C194.194481,2.54591467 192.833719,2.50255254 190.96537,2.50255254 L187.903654,2.50255254 C186.62659,2.50255254 186.62659,2.58645825 186.62659,4.20993611 L186.62659,12.7441438 C186.62659,13.9393123 186.756186,13.9393123 188.030551,13.9393123 L190.495583,13.9393123 C192.282934,13.9393123 193.600497,13.8554066 194.110783,13.6845598 C194.621069,13.5137131 194.918061,13.2563589 195.131355,12.1912767 L195.471546,10.4405311 C195.68214,10.1857786 196.40572,10.1857786 196.575816,10.4838932 C196.575816,11.5083233 196.405612,13.1723448 196.405612,14.7930041 C196.405612,16.3296493 196.575816,17.9530187 196.575816,18.8907246 C196.405612,19.1888392 195.68214,19.1888392 195.471546,18.9340868 L195.088157,17.2700653 C194.917953,16.5003876 194.621069,15.8607963 193.770593,15.6466959 C193.173909,15.4758491 192.153337,15.432487 190.495583,15.432487 L188.030551,15.432487 C186.756186,15.432487 186.62659,15.4758491 186.62659,16.5870035 L186.62659,22.603498 C186.62659,24.8664587 186.756186,26.3163797 187.436567,27.0426952 C187.944153,27.5549103 188.837829,28.0237632 192.579926,28.0237632 C195.852235,28.0237632 197.086101,27.8531333 198.022976,27.3841719 C198.787055,26.955971 199.934523,25.4626879 201.041492,23.2430893 C201.338484,23.0316989 201.935168,23.1591836 202.105263,23.5412039 C201.805571,25.0371971 200.741801,28.3218778 200.188316,29.4736842 C196.362521,29.3895617 192.579926,29.3461996 188.79463,29.3461996 L184.968835,29.3461996 C183.140986,29.3461996 181.696525,29.3895617 179.188295,29.4736842 C178.931802,29.3461996 178.845404,28.6633545 179.101897,28.4086021 L180.505858,28.2785157 C182.927692,28.0671254 183.140986,27.4248239 183.140986,22.9449747 L183.140986,7.58123271 L183.140986,7.58134112 Z" id="path3329"></path>
                <path d="M9.59330849,60.8242924 C7.50583037,60.8242924 7.42023272,60.9081898 7.42023272,62.1900638 L7.42023272,68.2059617 C7.42023272,72.6880766 7.63560745,73.2842467 10.0709986,73.5416837 L11.3328736,73.6691557 C11.5924277,73.8397688 11.5068301,74.6067686 11.2445147,74.7368421 C8.89748245,74.6501265 7.42023272,74.6067686 5.72208584,74.6067686 C3.85274367,74.6067686 2.37549394,74.6934843 0.680108279,74.7368421 C0.417792908,74.6067686 0.33219526,73.9265928 0.591749417,73.6691557 L1.33175489,73.5416837 C3.76714602,73.1135252 3.85274367,72.6880766 3.85274367,68.2059617 L3.85274367,52.8437432 C3.85274367,48.3643382 3.54901008,47.6380947 1.28757546,47.4673732 L0.15823875,47.3834759 C-0.104076621,47.212646 -0.0157177592,46.4431531 0.243836398,46.3157895 C2.37549394,46.3591473 3.85274367,46.4430447 5.72208584,46.4430447 C7.42023272,46.4430447 8.89748245,46.3996869 10.7668246,46.3157895 C11.02914,46.4430447 11.1147376,47.2127544 10.8551835,47.3834759 L10.0268192,47.4673732 C7.50583037,47.7248103 7.42023272,48.3643382 7.42023272,52.8437432 L7.42023272,57.7513068 C7.42023272,59.0737203 7.50583037,59.1170782 9.59330849,59.1170782 L22.0298183,59.1170782 C24.1145352,59.1170782 24.2028941,59.0737203 24.2028941,57.7513068 L24.2028941,52.8437432 C24.2028941,48.3643382 24.1145352,47.7248103 21.5521282,47.4673732 L20.7237639,47.3834759 C20.4642097,47.212646 20.5498074,46.4431531 20.8121227,46.3157895 C22.811242,46.3996869 24.2912529,46.4430447 26.0722363,46.4430447 C27.7676219,46.4430447 29.2476329,46.3996869 31.2025727,46.3157895 C31.464888,46.4430447 31.5504857,47.2127544 31.2909315,47.3834759 L30.3769696,47.4673732 C27.8559808,47.7248103 27.7676219,48.3643382 27.7676219,52.8437432 L27.7676219,68.2059617 C27.7676219,72.6880766 27.8559808,73.2408888 30.3769696,73.5416837 L31.4207086,73.6691557 C31.683024,73.8397688 31.5946651,74.6067686 31.335111,74.7368421 C29.2476329,74.6501265 27.7676219,74.6067686 26.0722363,74.6067686 C24.2912529,74.6067686 22.7256444,74.6501265 20.8121227,74.7368421 C20.5498074,74.6067686 20.4642097,73.9265928 20.7237639,73.6691557 L21.5521282,73.5416837 C24.2028941,73.1135252 24.2028941,72.6880766 24.2028941,68.2059617 L24.2028941,62.1900638 C24.2028941,60.9082982 24.1145352,60.8242924 22.0298183,60.8242924 L9.59330849,60.8242924 Z" id="path3333"></path>
                <path d="M61.6271569,57.3412021 C61.6271569,54.6510014 61.5393565,49.6592458 60.8067718,48.3554908 C60.5049579,47.8345401 59.7257293,47.5313412 58.6474306,47.4458943 L57.5663881,47.357691 C57.3057306,47.0544921 57.393531,46.4894397 57.6514447,46.3157895 C59.2949586,46.4039928 60.8918285,46.4480944 62.5764988,46.4480944 C64.3928697,46.4480944 65.5589689,46.4039928 67.1146823,46.3157895 C67.4603964,46.5334311 67.4164962,47.0985938 67.199739,47.357691 L66.1625966,47.4458943 C65.0842979,47.5314515 64.2639129,47.9227434 64.0032554,48.4877958 C63.3996276,49.918343 63.3996276,54.9100986 63.3996276,57.3412021 L63.3996276,62.2475107 C63.3996276,66.0237145 62.793256,70.0149138 60.3732573,72.6196676 C58.51573,74.6593689 55.3192464,75.7894737 52.1227629,75.7894737 C49.1402928,75.7894737 46.1605665,75.2244213 44.0423817,73.4024719 C41.7513398,71.4923191 40.6730411,68.322513 40.6730411,63.1571072 L40.6730411,52.9144989 C40.6730411,48.3995925 40.5852407,47.6636462 38.0801853,47.4458943 L36.9991428,47.357691 C36.7384853,47.1839305 36.8262858,46.4480944 37.0869432,46.3157895 C39.2462845,46.4039928 40.7141975,46.4480944 42.442768,46.4480944 C44.2152387,46.4480944 45.6419953,46.4039928 47.7574364,46.3157895 C48.0180938,46.4480944 48.1031505,47.1840407 47.8452368,47.357691 L46.8080945,47.4458943 C44.3002954,47.6637564 44.2152387,48.3995925 44.2152387,52.9144989 L44.2152387,62.288856 C44.2152387,69.2789675 46.37458,73.879321 52.9870481,73.879321 C59.2510584,73.879321 61.6271569,68.9316671 61.6271569,62.3329576 L61.6271569,57.3412021 Z" id="path3337"></path>
                <path d="M80.8263729,58.4774419 C80.8263729,59.629134 80.9513098,59.629134 82.2086533,59.629134 L85.0556192,59.629134 C86.7701785,59.629134 88.1099272,59.5452367 88.6123329,59.3744068 C89.072207,59.203577 89.4071442,58.9896062 89.6596761,57.878562 L90.037145,56.1713477 C90.2444871,55.9166205 90.9568931,55.9166205 91.1243617,56.1713477 C91.1243617,57.1956763 90.9568931,58.9028905 90.9568931,60.4827412 C90.9568931,62.019234 91.1243617,63.6397326 91.1243617,64.6234132 C90.9568931,64.8781404 90.3295505,64.8781404 90.037145,64.6234132 L89.6171444,62.9568469 C89.4071442,62.1899554 89.072207,61.5910755 88.2773958,61.3363483 C87.6925849,61.1655185 86.6452416,61.1223775 85.0556192,61.1223775 L82.2086533,61.1223775 C80.9513098,61.1223775 80.8263729,61.1657353 80.8263729,62.2767795 L80.8263729,68.2059617 C80.8263729,72.6880766 80.9114363,73.3276045 83.3809334,73.5416837 L84.8030872,73.6691557 C85.0556192,73.8397688 84.9705558,74.6067686 84.7206821,74.7368421 C82.2485268,74.6501265 80.8263729,74.6067686 79.1516871,74.6067686 C77.3095327,74.6067686 75.8873788,74.6501265 73.9202875,74.7368421 C73.6677555,74.6067686 73.5853504,73.9265928 73.8352241,73.6691557 L74.8825673,73.5416837 C77.3095327,73.2408888 77.3945961,72.6880766 77.3945961,68.2059617 L77.3945961,52.8437432 C77.3945961,48.3643382 77.3095327,47.7654583 74.8825673,47.4673732 L74.212693,47.3834759 C73.9628192,47.212646 74.0452244,46.4431531 74.2950982,46.3157895 C76.0548474,46.3996869 77.4770013,46.4430447 79.1516871,46.4430447 L86.8552419,46.4430447 C89.5347393,46.4430447 91.9617046,46.4430447 92.5066421,46.3157895 C92.5066421,48.2777309 92.5465155,50.3263881 92.6315789,51.9495965 C92.5066421,52.2043237 91.9191729,52.3316873 91.6267674,52.0768517 C91.2918303,50.1555582 90.7894245,48.5784174 88.6973964,48.0228953 C87.77499,47.7653499 86.3927097,47.7653499 84.6356186,47.7653499 L82.0837164,47.7653499 C80.8263729,47.7653499 80.8263729,47.8520655 80.8263729,49.4725641 L80.8263729,58.4774419 Z" id="path3341"></path>
                <path d="M106.089531,58.4774419 C106.089531,59.629134 106.214468,59.629134 107.471811,59.629134 L110.318777,59.629134 C112.033336,59.629134 113.373085,59.5452367 113.875491,59.3744068 C114.335365,59.203577 114.670302,58.9896062 114.922834,57.878562 L115.300303,56.1713477 C115.507645,55.9166205 116.220051,55.9166205 116.38752,56.1713477 C116.38752,57.1956763 116.220051,58.9028905 116.220051,60.4827412 C116.220051,62.019234 116.38752,63.6397326 116.38752,64.6234132 C116.220051,64.8781404 115.592708,64.8781404 115.300303,64.6234132 L114.880302,62.9568469 C114.670302,62.1899554 114.335365,61.5910755 113.540554,61.3363483 C112.955743,61.1655185 111.9084,61.1223775 110.318777,61.1223775 L107.471811,61.1223775 C106.214468,61.1223775 106.089531,61.1657353 106.089531,62.2767795 L106.089531,68.2059617 C106.089531,72.6880766 106.174594,73.3276045 108.644091,73.5416837 L110.066245,73.6691557 C110.318777,73.8397688 110.233714,74.6067686 109.98384,74.7368421 C107.511685,74.6501265 106.089531,74.6067686 104.414845,74.6067686 C102.572691,74.6067686 101.150537,74.6501265 99.1834454,74.7368421 C98.9309134,74.6067686 98.8485083,73.9265928 99.098382,73.6691557 L100.145725,73.5416837 C102.572691,73.2408888 102.657754,72.6880766 102.657754,68.2059617 L102.657754,52.8437432 C102.657754,48.3643382 102.572691,47.7654583 100.145725,47.4673732 L99.4758509,47.3834759 C99.2259771,47.212646 99.3083823,46.4431531 99.5582561,46.3157895 C101.318005,46.3996869 102.740159,46.4430447 104.414845,46.4430447 L112.1184,46.4430447 C114.797897,46.4430447 117.224863,46.4430447 117.7698,46.3157895 C117.7698,48.2777309 117.809673,50.3263881 117.894737,51.9495965 C117.7698,52.2043237 117.182331,52.3316873 116.889925,52.0768517 C116.554988,50.1555582 116.052582,48.5784174 113.960554,48.0228953 C113.038148,47.7654583 111.655868,47.7654583 109.898777,47.7654583 L107.344216,47.7654583 C106.089531,47.7654583 106.089531,47.8521739 106.089531,49.4726725 L106.089531,58.4775503 L106.089531,58.4774419 Z" id="path3345"></path>
                <path d="M128.182822,52.9304589 C128.182822,48.407696 128.092756,47.6814525 125.478033,47.4673732 L124.371912,47.3834759 C124.10453,47.212646 124.194708,46.4431531 124.459051,46.3157895 C126.676922,46.4025051 128.182709,46.4430447 130.043131,46.4430447 C131.816301,46.4430447 133.324904,46.4025051 135.539959,46.3157895 C135.807342,46.4430447 135.894594,47.2127544 135.627323,47.3834759 L134.521203,47.4673732 C131.90648,47.6813441 131.816414,48.407696 131.816414,52.9304589 L131.816414,68.1219559 C131.816414,72.6447188 131.90648,73.2408888 134.521203,73.5416837 L135.627323,73.6691557 C135.894706,73.8399855 135.807455,74.6094785 135.539959,74.7368421 C133.324904,74.6501265 131.816301,74.6093701 130.043131,74.6093701 C128.182709,74.6093701 126.676922,74.6501265 124.459051,74.7368421 C124.194483,74.6093701 124.104417,73.9265928 124.371912,73.6691557 L125.478033,73.5416837 C128.092756,73.2408888 128.182822,72.6447188 128.182822,68.1219559 L128.182822,52.9304589 Z" id="path3349"></path>
                <path d="M169.846016,67.7153602 C169.846016,69.0192372 169.846016,74.1823695 169.974213,75.31258 C169.889695,75.5717014 169.630244,75.7894737 169.157969,75.7894737 C168.642016,75.050702 167.394447,73.5318093 163.654469,69.2342529 L153.682105,57.7750212 C152.521893,56.429795 149.598159,52.8682537 148.694558,51.9144663 L148.609822,51.9144663 C148.437946,52.4354658 148.394268,53.4333589 148.394268,54.7372359 L148.394268,64.2006813 C148.394268,66.2405734 148.437946,71.883356 149.166833,73.1844763 C149.426174,73.6641266 150.286096,73.9232481 151.361681,74.008703 L152.693877,74.1410203 C152.950489,74.4883533 152.909431,75.0093528 152.60652,75.2243684 C150.673743,75.1390238 149.166833,75.094918 147.578025,75.094918 C145.770824,75.094918 144.610611,75.1390238 143.106431,75.2243684 C142.80614,75.0093528 142.762462,74.4001418 143.021913,74.1410203 L144.182125,74.008703 C145.170352,73.879032 145.85829,73.6200209 146.073953,73.1403706 C146.674533,71.5801288 146.630855,66.2846792 146.630855,64.2006813 L146.630855,51.6525883 C146.630855,50.4396794 146.587176,49.5272412 145.686306,48.5293481 C145.082995,47.920137 144.053819,47.6169098 143.021913,47.4873491 L142.290297,47.3991376 C142.030955,47.1400161 142.030955,46.489456 142.375033,46.3157895 C144.182234,46.4452399 146.45898,46.4452399 147.234274,46.4452399 C147.922212,46.4452399 148.653828,46.4011341 149.21073,46.3157895 C150.070652,48.5293481 155.142826,54.2603422 156.562379,55.8646898 L160.730953,60.5977908 C163.698366,63.9388032 165.805857,66.3701341 167.825991,68.454132 L167.910728,68.454132 C168.082603,68.23647 168.082603,67.5416937 168.082603,66.6292555 L168.082603,57.3394766 C168.082603,55.2995845 168.038924,49.6568019 167.222681,48.3556816 C166.96607,47.9642428 166.278132,47.7051214 164.558288,47.4873491 L163.826672,47.3991376 C163.526382,47.1400161 163.57006,46.4453502 163.914029,46.3157895 C165.890485,46.4011341 167.353717,46.4452399 168.986204,46.4452399 C170.834353,46.4452399 171.953617,46.4011341 173.414119,46.3157895 C173.758088,46.5308051 173.758088,47.1400161 173.501476,47.3991376 L172.898166,47.4873491 C171.522291,47.7050111 170.662369,48.0496978 170.490384,48.3997873 C169.758768,49.9600291 169.846125,55.3436903 169.846125,57.3394766 L169.846125,67.7153602 L169.846016,67.7153602 Z" id="path3353"></path>
                <path d="M204.64599,70.7640442 C204.64599,72.468038 204.903518,73.4904344 205.670682,73.7879571 C205.798199,73.9151886 205.798199,74.1720319 205.627308,74.2991552 C205.114963,74.2991552 204.347799,74.4696628 203.534552,74.6805253 C201.273723,75.2782755 198.199648,75.7894737 195.892736,75.7894737 C190.81536,75.7894737 186.160874,74.3857073 182.872643,71.0615669 C180.313624,68.5055761 178.947368,65.1408645 178.947368,61.392078 C178.947368,57.7731196 180.142842,54.1108852 182.788608,51.2979429 C185.648528,48.3173061 189.874704,46.3157895 196.321046,46.3157895 C198.755367,46.3157895 201.016195,46.7837116 201.742696,46.954111 C202.553233,47.1246186 203.876116,47.4220331 204.388461,47.3381858 C204.388461,48.7446569 204.64599,50.9598489 205.030927,53.513135 C204.903627,53.8539337 204.133644,53.8972098 203.876116,53.6429631 C202.683352,49.0421796 199.479157,47.5924325 195.125572,47.5924325 C186.844002,47.5924325 183.214207,53.4725637 183.214207,59.8611883 C183.214207,68.037654 187.440383,74.4695546 196.022855,74.4695546 C198.668621,74.4695546 200.249032,73.9150804 200.718004,73.1902069 C200.929449,72.8926841 201.146315,72.1272393 201.146315,70.7640442 L201.146315,69.0600503 C201.146315,65.4816632 201.016195,65.2274165 198.37043,64.927189 L196.491828,64.7162184 C196.150264,64.5457108 196.193637,63.7776694 196.491828,63.650546 C197.730675,63.7370981 200.07825,63.7777776 202.596606,63.7777776 C204.261053,63.7777776 205.714055,63.7370981 207.120973,63.650546 C207.421875,63.8210536 207.462537,64.4592669 207.164346,64.7162184 L206.481218,64.7999575 C204.686652,65.0135247 204.64599,66.2064286 204.64599,68.3783446 L204.64599,70.763936 L204.64599,70.7640442 Z" id="path3357"></path>
                <path d="M226.944291,68.2573085 C226.944291,72.7034144 227.030781,73.3408778 229.498425,73.5506759 L230.86063,73.6797824 C231.114692,73.8493423 231.030797,74.6104253 230.774141,74.7368421 C228.349741,74.6535684 226.90375,74.6105329 225.198291,74.6105329 C223.498238,74.6105329 222.009002,74.6535684 219.28189,74.7368421 C219.027828,74.6105329 218.944042,73.8895805 219.28189,73.6797824 L220.817073,73.5506759 C223.241473,73.3408778 223.454993,72.7034144 223.454993,68.2573085 L223.454993,49.3243747 C223.454993,48.0117917 223.454993,47.9687562 222.179278,47.9687562 L219.835962,47.9687562 C218.006175,47.9687562 215.665561,48.0520299 214.600663,49.0285056 C213.57901,49.9591485 213.154672,50.8924811 212.68709,51.9495407 C212.346539,52.205064 211.749223,51.9925762 211.578947,51.6536716 C212.262752,49.7493504 212.90061,47.0381134 213.197917,45.3435903 C213.32484,45.2575192 213.879019,45.2170659 214.00605,45.3435903 C214.260112,46.6992088 215.665561,46.6561733 217.625082,46.6561733 L234.860754,46.6561733 C237.158123,46.6561733 237.541919,46.5701022 238.179777,45.4700071 C238.393189,45.3839361 238.860879,45.4269716 238.947368,45.5965315 C238.477083,47.3340901 238.179777,50.7634821 238.306808,52.0357193 C238.139235,52.3746239 237.414888,52.3746239 237.201368,52.118993 C237.074229,51.0619334 236.77703,49.493827 236.13647,49.0285056 C235.158061,48.3076609 233.541794,47.9687562 231.201181,47.9687562 L228.179465,47.9687562 C226.90375,47.9687562 226.944291,48.0117917 226.944291,49.407756 L226.944291,68.2573085 Z" id="path3361"></path>
                <path d="M243.157895,61.3515067 C243.157895,52.8342422 249.671278,46.3157895 258.61684,46.3157895 C268.648885,46.3157895 273.684211,53.4292876 273.684211,60.9268606 C273.684211,69.5279725 266.999857,75.7894737 258.61684,75.7894737 C248.97637,75.7894737 243.157895,69.019479 243.157895,61.3515067 M269.343793,62.2467797 C269.343793,55.2171288 266.172586,47.6357085 257.877811,47.6357085 C253.363667,47.6357085 247.50107,50.6596214 247.50107,59.9883116 C247.50107,66.2930889 250.628156,74.4695546 259.182142,74.4695546 C264.391195,74.4695546 269.343793,70.6369208 269.343793,62.2467797" id="path3365" fill-rule="nonzero"></path>
                <path d="M306.688207,67.7153602 C306.688207,69.0192372 306.688207,74.1823695 306.816404,75.31258 C306.731886,75.5717014 306.472433,75.7894737 306.000156,75.7894737 C305.484199,75.050702 304.236622,73.5318093 300.496621,69.2342529 L290.524304,57.7750212 C289.364085,56.429795 286.440332,52.8682537 285.536726,51.9144663 L285.451989,51.9144663 C285.280113,52.4354658 285.236434,53.4333589 285.236434,54.7372359 L285.236434,64.2006813 C285.236434,66.2405734 285.280113,71.883356 286.009004,73.1844763 C286.268347,73.6641266 287.128274,73.9232481 288.203866,74.008703 L289.53607,74.1410203 C289.792684,74.4883533 289.749005,75.0093528 289.448713,75.2243684 C287.515924,75.1390238 286.009004,75.094918 284.420186,75.094918 C282.612974,75.094918 281.452754,75.1390238 279.948564,75.2243684 C279.648272,75.0093528 279.604593,74.4001418 279.864045,74.1410203 L281.024265,74.008703 C282.012499,73.879032 282.70044,73.6200209 282.916105,73.1403706 C283.516689,71.5801288 283.47301,66.2846792 283.47301,64.2006813 L283.47301,51.6525883 C283.47301,50.4396794 283.43217,49.5272412 282.528455,48.5293481 C281.925141,47.920137 280.895958,47.6169098 279.864045,47.4873491 L279.132425,47.3991376 C278.873082,47.1400161 278.873082,46.489456 279.216943,46.3157895 C281.024156,46.4452399 283.300915,46.4452399 284.076215,46.4452399 C284.764157,46.4452399 285.495777,46.4011341 286.052683,46.3157895 C286.91261,48.5293481 291.984816,54.2603422 293.404378,55.8646898 L297.575708,60.5977908 C300.540409,63.9388032 302.647914,66.3701341 304.66806,68.454132 L304.752579,68.454132 C304.924673,68.23647 304.924673,67.5416937 304.924673,66.6292555 L304.924673,57.3394766 C304.924673,55.2995845 304.883615,49.6568019 304.064746,48.3556816 C303.808133,47.9642428 303.120191,47.7051214 301.400337,47.4873491 L300.668716,47.3991376 C300.368424,47.1400161 300.412103,46.4453502 300.756074,46.3157895 C302.732541,46.4011341 304.195783,46.4452399 305.82828,46.4452399 C307.676441,46.4452399 308.792981,46.4011341 310.256222,46.3157895 C310.600193,46.5308051 310.600193,47.1400161 310.34358,47.3991376 L309.740266,47.4873491 C308.364382,47.7050111 307.504455,48.0496978 307.33247,48.3997873 C306.600849,49.9600291 306.688207,55.3436903 306.688207,57.3394766 L306.688207,67.7153602 Z" id="path3369"></path>
                <path d="M106.066481,113.471315 C106.066481,117.951148 106.151732,118.506723 108.834473,118.804836 L109.969377,118.934922 C110.219801,119.148913 110.137214,119.872624 109.884126,120 C107.491771,119.915878 106.109107,119.872516 104.430728,119.872516 C102.669763,119.872516 101.159223,119.915878 99.3130065,120 C99.0599177,119.872516 98.9773308,119.189673 99.2277555,118.934922 L100.10957,118.804836 C102.541887,118.466071 102.627138,117.951148 102.627138,113.471315 L102.627138,97.7227946 C102.627138,94.096651 102.541887,93.3703382 100.655709,93.1562386 L99.1451686,92.988211 C98.8494544,92.7307493 98.8920798,92.0911605 99.2277555,91.9204228 C101.452273,91.6195992 104.052427,91.5789474 107.534396,91.5789474 C111.016365,91.5789474 113.619183,92.0477985 115.590612,93.2836143 C117.519415,94.5221402 118.947368,96.7417304 118.947368,99.6876333 C118.947368,103.61189 116.555013,105.576729 114.751423,106.47378 C112.905207,107.36812 110.680689,107.752957 108.96235,107.752957 C108.666635,107.622871 108.666635,106.983283 108.919724,106.899269 C113.451346,106.04558 115.087098,103.441153 115.087098,99.7282851 C115.087098,95.5899284 112.694743,92.9014871 108.33096,92.9014871 C106.109107,92.9014871 106.066481,93.0723332 106.066481,94.4381264 L106.066481,113.471315 Z" id="path3373"></path>
                <path d="M125.263158,105.562033 C125.263158,97.0447685 131.776542,90.5263158 140.722103,90.5263158 C150.754148,90.5263158 155.789474,97.639814 155.789474,105.137387 C155.789474,113.738499 149.102363,120 140.722103,120 C131.081634,120 125.263158,113.230005 125.263158,105.562033 M151.449056,106.457306 C151.449056,99.4276551 148.277849,91.8462348 139.983074,91.8462348 C135.46893,91.8462348 129.606333,94.8728525 129.606333,104.198838 C129.606333,110.503615 132.733419,118.680081 141.287406,118.680081 C146.496458,118.680081 151.449056,114.847447 151.449056,106.457306" id="path3377" fill-rule="nonzero"></path>
                <path d="M169.88893,119.999892 C166.315789,119.999892 164.063333,118.890943 163.253097,118.423021 C162.742649,117.487177 162.191688,114.463264 162.105263,112.461748 C162.318517,112.164225 162.956011,112.077673 163.12616,112.334732 C163.763546,114.506648 165.508254,118.680081 170.442591,118.680081 C174.015732,118.680081 175.757739,116.337766 175.757739,113.781775 C175.757739,111.907382 175.374228,109.819313 172.271024,107.817796 L168.230647,105.177958 C166.102427,103.771487 163.636609,101.345324 163.636609,97.8534894 C163.636609,93.8044754 166.783026,90.5263158 172.314237,90.5263158 C173.63222,90.5263158 175.163566,90.7805625 176.268188,91.08079 C176.821849,91.2512976 177.416022,91.3350367 177.756322,91.3350367 C178.139833,92.357433 178.523345,94.7430244 178.523345,96.5308656 C178.353303,96.787817 177.672597,96.9149404 177.459235,96.6606937 C176.905574,94.615901 175.757739,91.8462348 171.67415,91.8462348 C167.506836,91.8462348 166.612876,94.615901 166.612876,96.5741416 C166.612876,99.0435803 168.654671,100.834126 170.229229,101.813247 L173.63222,103.941886 C176.311401,105.602604 178.947368,108.074748 178.947368,112.121057 C178.947368,116.805688 175.41744,120 169.88893,120" id="path3381"></path>
                <path d="M199.575762,113.520447 C199.575762,117.966566 199.662251,118.604032 202.129896,118.81383 L203.492101,118.942937 C203.746163,119.112498 203.662484,119.873583 203.408422,120 C200.98132,119.916511 199.532626,119.873475 197.82987,119.873475 C196.129817,119.873475 194.637879,119.916511 191.916172,120 C191.659407,119.873475 191.575621,119.155426 191.916172,118.942937 L193.445949,118.81383 C195.873052,118.604032 196.086572,117.966566 196.086572,113.520447 L196.086572,94.5874573 C196.086572,93.2748704 196.086572,93.2318348 194.808154,93.2318348 L192.467541,93.2318348 C190.637754,93.2318348 188.29714,93.3151087 187.232242,94.2915873 C186.210589,95.2222329 185.786251,96.1555682 185.318669,97.212631 C184.978118,97.4681551 184.380802,97.2556667 184.210526,96.916761 C184.891629,95.0124342 185.529486,92.3011891 185.829496,90.606661 C185.956635,90.5205897 186.510598,90.4803514 186.637629,90.606661 C186.891691,91.9622835 188.29714,91.9192479 190.253958,91.9192479 L207.492333,91.9192479 C209.792405,91.9192479 210.173498,91.8331766 210.814059,90.7330782 C211.024876,90.6470069 211.495161,90.6900425 211.578947,90.8596029 C211.111365,92.5971667 210.814059,96.0265689 210.94109,97.2988099 C210.770922,97.6377155 210.046467,97.6377155 209.832947,97.3820838 C209.705808,96.3250211 209.408609,94.7569101 208.770752,94.2915873 C207.78964,93.5707404 206.173373,93.2318348 203.83276,93.2318348 L200.811044,93.2318348 C199.532626,93.2318348 199.57587,93.2748704 199.57587,94.6735285 L199.57587,113.520447 L199.575762,113.520447 Z" id="path3385"></path>
            </g>
        </g>
    </g>
</svg>