<?xml version="1.0" encoding="UTF-8"?>
<svg width="352px" height="100px" viewBox="0 0 352 100" version="1.1" xmlns="http://www.w3.org/2000/svg" xmlns:xlink="http://www.w3.org/1999/xlink">
    <!-- Generator: Sketch 52.5 (67469) - http://www.bohemiancoding.com/sketch -->
    <title>kf-brand</title>
    <desc>Created with Sketch.</desc>
    <g id="Page-1" stroke="none" stroke-width="1" fill="none" fill-rule="evenodd">
        <g id="Desktop-HD-Copy-7" transform="translate(-705.000000, -775.000000)">
            <g id="kf-brand" transform="translate(705.000000, 775.000000)">
                <g id="Vector" fill="#010101">
                    <g id="path0_fill-link">
                        <polygon id="path0_fill" points="99.5093168 0 0 0 0 99.5093168 99.5093168 99.5093168"></polygon>
                    </g>
                </g>
                <g id="Vector" transform="translate(23.602484, 21.118012)" fill="#FFFFFF" fill-rule="nonzero">
                    <g id="path1_fill-link" transform="translate(0.565217, 0.204969)">
                        <path d="M31.2732919,11.3726708 L31.2732919,22.7453416 L55.4409938,22.7453416 L55.4409938,34.1180124 L31.2732919,34.1180124 L31.2732919,56.863354 L12.8819876,28.4347826 L31.2732919,-2.08504969e-06 L58.2857143,-2.08504969e-06 L58.2857143,11.3726708 L31.2732919,11.3726708 Z M3.79100621e-07,34.9068323 L3.79100621e-07,56.863354 L14.2049689,56.863354 L3.79100621e-07,34.9068323 Z M14.2049689,-2.08504969e-06 L3.79100621e-07,-2.08504969e-06 L3.79100621e-07,21.9565217 L14.2049689,-2.08504969e-06 Z" id="path1_fill"></path>
                    </g>
                </g>
                <g id="Vector" transform="translate(125.465839, 17.391304)" fill="#010101">
                    <g id="path2_fill-link" transform="translate(0.068323, 0.298137)">
                        <polygon id="path2_fill" points="5.58384472 10.5838509 14.2795031 0.0248441615 20.4906832 0.0248441615 11.7018634 10.4347826 21.2484472 25.4161491 14.7515528 25.4161491 7.97515528 14.9068323 5.59006211 17.7453416 5.59006211 25.3913043 -1.51640373e-06 25.3913043 -1.51640373e-06 -1.13729814e-06 5.59006211 -1.13729814e-06"></polygon>
                    </g>
                </g>
                <g id="Vector" transform="translate(150.310559, 17.391304)" fill="#010101">
                    <g id="path3_fill-link" transform="translate(0.217391, 0.298137)">
                        <polygon id="path3_fill" points="13.9751553 25.3913043 5.19254658 8.40372671 5.19254658 25.3913043 -7.58198758e-06 25.3913043 -7.58198758e-06 -1.13729814e-06 6.57142857 -1.13729814e-06 15.0310559 17.2298137 15.0310559 -1.13729814e-06 20.2173913 -1.13729814e-06 20.2173913 25.3913043"></polygon>
                    </g>
                </g>
                <g id="Vector" transform="translate(175.776398, 17.391304)" fill="#010101">
                    <g id="path4_fill-link" transform="translate(0.434770, 0.298137)">
                        <polygon id="path4_fill" points="8.13043478 21.7950311 10.689441 21.7950311 10.689441 25.3913043 -3.79100621e-06 25.3913043 -3.79100621e-06 21.7950311 2.559 21.7950311 2.559 3.59627329 -3.79100621e-06 3.59627329 -3.79100621e-06 -1.13729814e-06 10.689441 -1.13729814e-06 10.689441 3.59627329 8.13043478 3.59627329"></polygon>
                    </g>
                </g>
                <g id="Vector" transform="translate(190.683230, 16.770186)" fill="#010101">
                    <g id="path5_fill-link" transform="translate(0.049689, 0.465839)">
                        <path d="M11.310559,12.9440994 L20.5465839,12.9440994 L20.5465839,26.2608696 L17.0186335,26.2608696 L16.4658385,23.2857143 C15.705528,24.2385093 14.7353416,25.0027329 13.6309938,25.5187578 C12.526646,26.0348447 11.3180124,26.2888199 10.0993789,26.2608696 C3.73292547,26.2608696 -7.58198758e-07,21.9130435 -7.58198758e-07,13.7018634 C-7.58198758e-07,4.01242236 4.70807453,1.51640373e-06 11.1801242,1.51640373e-06 C16.7701863,1.51640373e-06 19.9689441,3.28571429 20,9.27329193 L14.4968944,9.68944099 C14.4285714,5.50310559 12.8012422,4.43478261 10.7701863,4.43478261 C8.07453416,4.43478261 5.89440373,6.54658385 5.89440373,13.4658385 C5.89440373,19.6770186 7.9378882,21.8757764 10.9813665,21.8757764 C13.3354037,21.8757764 15.4782609,20.3850932 15.6149068,17 L11.2670807,17 L11.310559,12.9440994 Z" id="path5_fill"></path>
                    </g>
                </g>
                <g id="Vector" transform="translate(216.770186, 17.391304)" fill="#010101">
                    <g id="path6_fill-link" transform="translate(0.341615, 0.298137)">
                        <polygon id="path6_fill" points="19.8757764 25.3913043 14.2360248 25.3913043 14.2360248 15.1118012 5.59006211 15.1118012 5.59006211 25.4223602 0 25.4223602 0 -1.13729814e-06 5.59006211 -1.13729814e-06 5.59006211 10.484472 14.2360248 10.484472 14.2360248 -1.13729814e-06 19.8757764 -1.13729814e-06"></polygon>
                    </g>
                </g>
                <g id="Vector" transform="translate(240.993789, 17.391304)" fill="#010101">
                    <g id="path7_fill-link" transform="translate(0.149068, 0.316770)">
                        <polygon id="path7_fill" points="6.70807453 4.53416149 1.51640373e-06 4.53416149 1.51640373e-06 -1.89550311e-06 19.0621118 -1.89550311e-06 19.0621118 4.53416149 12.3478261 4.53416149 12.3478261 25.3975155 6.70807453 25.3975155"></polygon>
                    </g>
                </g>
                <g id="Vector" transform="translate(125.465839, 59.006211)" fill="#010101">
                    <g id="path8_fill-link" transform="translate(0.062112, 0.198758)">
                        <polygon id="path8_fill" points="13.757764 15.2919255 5.5900559 15.2919255 5.5900559 25.3913043 -7.58198758e-06 25.3913043 -7.58198758e-06 -3.41190062e-06 14.9813665 -3.41190062e-06 14.9813665 4.53416149 5.5900559 4.53416149 5.5900559 10.9006211 13.757764 10.9006211"></polygon>
                    </g>
                </g>
                <g id="Vector" transform="translate(143.478261, 58.385093)" fill="#010101" fill-rule="nonzero">
                    <g id="path9_fill-link" transform="translate(0.565217, 0.372671)">
                        <path d="M-9.09838509e-06,13.2484472 C-9.09838509e-06,4.8074472 4.34781988,-4.17010559e-06 11.242236,-4.17010559e-06 C18.2981366,-4.17010559e-06 21.7204969,4.70186335 21.7204969,12.8322981 C21.7204969,21.378882 17.9937888,26.2546584 10.7204969,26.2546584 C3.44719876,26.2546584 -9.09838509e-06,21.515528 -9.09838509e-06,13.2484472 Z M15.8447205,12.9378882 C15.8447205,7.05590062 14.3229814,4.49689441 11.0745342,4.49689441 C7.92546584,4.49689441 5.88819876,7.02484472 5.88819876,13.0745342 C5.88819876,19.1242236 7.43478261,21.8695652 10.8944099,21.8695652 C14.2546584,21.8695652 15.8447205,19.2298137 15.8447205,12.9378882 Z" id="path9_fill"></path>
                    </g>
                </g>
                <g id="Vector" transform="translate(169.565217, 59.006211)" fill="#010101">
                    <g id="path10_fill-link" transform="translate(0.521739, 0.198758)">
                        <path d="M14.4285714,-3.41190062e-06 L19.9627329,-3.41190062e-06 L19.9627329,16.2919255 C19.9627329,22.3478261 16.7080745,25.8074534 9.82608696,25.8074534 C2.5279441,25.8074534 5.30740373e-06,22.1428571 5.30740373e-06,16.0869565 L5.30740373e-06,-3.41190062e-06 L5.50309938,-3.41190062e-06 L5.50309938,14.5900621 C5.50309938,19.0186335 6.36645963,21.3354037 10,21.3354037 C13.6335404,21.3354037 14.4285714,19.1925466 14.4285714,14.621118 L14.4285714,-3.41190062e-06 Z" id="path10_fill"></path>
                    </g>
                </g>
                <g id="Vector" transform="translate(195.652174, 59.006211)" fill="#010101">
                    <g id="path11_fill-link" transform="translate(0.428571, 0.198758)">
                        <polygon id="path11_fill" points="13.9689441 25.3913043 5.18632919 8.37888199 5.18632919 25.3664596 9.09838509e-06 25.3664596 9.09838509e-06 -3.41190062e-06 6.57142857 -3.41190062e-06 15.0124224 17.2298137 15.0124224 -3.41190062e-06 20.1987578 -3.41190062e-06 20.1987578 25.3913043"></polygon>
                    </g>
                </g>
                <g id="Vector" transform="translate(222.360248, 59.006211)" fill="#010101" fill-rule="nonzero">
                    <g id="path12_fill-link" transform="translate(0.074534, 0.198758)">
                        <path d="M4.54920497e-06,25.3913043 L4.54920497e-06,-3.41190062e-06 L6.21118012,-3.41190062e-06 C15.826087,-3.41190062e-06 19.5341615,4.22359627 19.5341615,12.1801242 C19.5341615,21 15.8074534,25.3975155 6.14906832,25.3975155 L4.54920497e-06,25.3913043 Z M6.95652174,20.8012422 C11.4161491,20.8012422 13.7888199,18.7267081 13.7888199,12.4968944 C13.7888199,6.50931677 11.6459627,4.50309938 6.95652174,4.50309938 L5.60870186,4.50309938 L5.60870186,20.8012422 L6.95652174,20.8012422 Z" id="path12_fill"></path>
                    </g>
                </g>
                <g id="Vector" transform="translate(243.478261, 59.006211)" fill="#010101" fill-rule="nonzero">
                    <g id="path13_fill-link" transform="translate(0.155280, 0.198758)">
                        <path d="M15.3726708,-3.41190062e-06 L23.9192547,25.3913043 L18.1987578,25.3913043 L16.2360248,19.5590062 L7.45341615,19.5590062 L5.59006832,25.4037267 L7.58198758e-06,25.4037267 L8.37267081,0.0124216149 L15.3726708,-3.41190062e-06 Z M11.8074534,5.1552795 L11.7391304,5.1552795 L8.63354037,15.2546584 L15.0310559,15.2546584 L11.8074534,5.1552795 Z" id="path13_fill"></path>
                    </g>
                </g>
                <g id="Vector" transform="translate(267.080745, 59.006211)" fill="#010101">
                    <g id="path14_fill-link" transform="translate(0.509317, 0.198758)">
                        <polygon id="path14_fill" points="6.70807453 4.53416149 -6.82378882e-06 4.53416149 -6.82378882e-06 -3.41190062e-06 19.0869565 -3.41190062e-06 19.0869565 4.53416149 12.3478261 4.53416149 12.3478261 25.3975155 6.70807453 25.3975155"></polygon>
                    </g>
                </g>
                <g id="Vector" transform="translate(290.683230, 59.006211)" fill="#010101">
                    <g id="path15_fill-link" transform="translate(0.254658, 0.198758)">
                        <polygon id="path15_fill" points="8.16149068 21.7950311 10.7204969 21.7950311 10.7204969 25.3913043 -9.09838509e-06 25.3913043 -9.09838509e-06 21.7950311 2.57142857 21.7950311 2.57142857 3.59627329 0.0124254037 3.59627329 0.0124254037 -3.41190062e-06 10.7018634 -3.41190062e-06 10.7018634 3.59627329 8.16149068 3.59627329"></polygon>
                    </g>
                </g>
                <g id="Vector" transform="translate(304.968944, 58.385093)" fill="#010101" fill-rule="nonzero">
                    <g id="path16_fill-link" transform="translate(0.571429, 0.372671)">
                        <path d="M-3.03280124e-06,13.2484472 C-3.03280124e-06,4.8074472 4.34780745,-4.17010559e-06 11.242236,-4.17010559e-06 C18.2981366,-4.17010559e-06 21.7204969,4.70186335 21.7204969,12.8322981 C21.7204969,21.378882 17.9937888,26.2546584 10.7204969,26.2546584 C3.44720497,26.2546584 -3.03280124e-06,21.515528 -3.03280124e-06,13.2484472 Z M15.8447205,12.9378882 C15.8447205,7.05590062 14.3229814,4.49689441 11.0745342,4.49689441 C7.92546584,4.49689441 5.88818634,7.02484472 5.88818634,13.0745342 C5.88818634,19.1242236 7.43478261,21.8695652 10.8944099,21.8695652 C14.2546584,21.8695652 15.8447205,19.2298137 15.8447205,12.9378882 Z" id="path16_fill"></path>
                    </g>
                </g>
                <g id="Vector" transform="translate(331.055901, 59.006211)" fill="#010101">
                    <g id="path17_fill-link" transform="translate(0.503106, 0.198758)">
                        <polygon id="path17_fill" points="13.9751553 25.3913043 5.18632919 8.37888199 5.18632919 25.3664596 6.06560248e-06 25.3664596 6.06560248e-06 -3.41190062e-06 6.57142857 -3.41190062e-06 15.0124224 17.2298137 15.0124224 -3.41190062e-06 20.1987578 -3.41190062e-06 20.1987578 25.3913043"></polygon>
                    </g>
                </g>
            </g>
        </g>
    </g>
</svg>