<?xml version="1.0" encoding="UTF-8"?>
<svg width="211px" height="60px" viewBox="0 0 211 60" version="1.1" xmlns="http://www.w3.org/2000/svg" xmlns:xlink="http://www.w3.org/1999/xlink">
    <!-- Generator: Sketch 52.5 (67469) - http://www.bohemiancoding.com/sketch -->
    <title>Metro_International_logo</title>
    <desc>Created with Sketch.</desc>
    <g id="Page-1" stroke="none" stroke-width="1" fill="none" fill-rule="evenodd">
        <g id="Desktop-HD-Copy-7" transform="translate(-833.000000, -183.000000)" fill="#0E0E0E">
            <g id="Metro_International_logo" transform="translate(833.000000, 183.000000)">
                <path d="M49.4608696,57.746087 L49.4608696,26.2852174 C49.4608696,21.8713043 46.5495652,19.1478261 41.2904348,19.1478261 C36.1252174,19.1478261 33.12,22.3408696 33.12,26.3791304 L33.12,57.746087 L24.8556522,57.746087 L24.8556522,26.2852174 C24.8556522,21.8713043 22.1321739,19.1478261 16.7791304,19.1478261 C11.613913,19.1478261 8.51478261,22.3408696 8.51478261,26.3791304 L8.51478261,57.746087 L0.43826087,57.746087 L0.43826087,12.8556522 L7.66956522,12.8556522 L7.95130435,17.0817391 C10.6747826,13.7947826 13.586087,11.9165217 19.5026087,11.9165217 C24.386087,11.9165217 28.3304348,14.546087 30.3026087,17.8330435 C32.9321739,14.4521739 37.0643478,11.9165217 43.92,11.9165217 C51.9026087,11.9165217 57.5373913,17.6452174 57.5373913,25.533913 L57.5373913,57.746087 L49.4608696,57.746087 Z" id="Path"></path>
                <path d="M100.831304,30.9808696 L94.8208696,37.2743478 L73.6904348,37.2743478 C73.8782609,43.6591304 78.0104348,51.5478261 86.9321739,51.5478261 C91.8156522,51.5478261 95.5721739,50.0452174 98.9530435,47.1326087 L97.1686957,55.9630435 C94.6330435,57.5582609 91.0643478,58.7778261 85.8052174,58.7778261 C74.6295652,58.7778261 65.2382609,49.3878261 65.2382609,35.3934783 C65.2382609,20.5565217 74.9113043,11.9152174 84.3026087,11.9152174 C94.9147826,11.9152174 100.925217,20.4613043 100.925217,28.8195652 C100.925217,29.3843478 100.925217,30.4173913 100.831304,30.9808696 Z M84.5843478,18.96 C79.7947826,18.96 75.0991304,24.1252174 74.066087,30.5113043 L92.5669565,30.5113043 C92.7547826,30.1356522 92.7547826,29.3843478 92.7547826,29.0086957 C92.7547826,24.3130435 89.5617391,18.96 84.5843478,18.96 Z" id="Shape"></path>
                <path d="M132.666522,19.5234783 L120.363913,19.5234783 L120.363913,45.6326087 C120.363913,49.1073913 122.805652,51.2647826 126.092609,51.2647826 C127.784348,51.2647826 129.191739,50.9843478 130.318696,50.4221739 L129.003913,57.746087 C128.064783,58.1204348 126.843913,58.3095652 125.059565,58.3095652 C117.922174,58.3095652 112.287391,53.8030435 112.287391,45.5386957 L112.287391,19.5234783 L104.774348,19.5234783 L104.774348,12.8556522 L112.287391,12.8556522 L112.287391,4.40347826 L120.363913,0.0834782609 L120.363913,12.8556522 L133.793478,12.8556522 L132.666522,19.5234783 Z" id="Path"></path>
                <path d="M161.685652,19.4295652 C155.299565,19.4295652 148.163478,23.7495652 148.163478,34.9252174 L148.163478,57.746087 L139.897826,57.746087 L139.897826,12.8556522 L147.693913,12.8556522 L147.975652,19.6173913 C150.041739,14.4521739 155.206957,12.2921739 161.217391,12.2921739 L162.532174,19.4295652 C162.250435,19.4295652 162.062609,19.4295652 161.685652,19.4295652 Z" id="Path"></path>
                <path d="M186.196957,59.343913 C172.485652,59.343913 161.685652,48.5426087 161.685652,34.9252174 C161.685652,21.213913 172.485652,10.413913 186.196957,10.413913 C199.814348,10.413913 210.615652,21.213913 210.615652,34.9252174 C210.615652,48.5413043 199.815652,59.343913 186.196957,59.343913 Z M192.96,15.0156522 C194.18087,16.8 195.307826,18.96 196.246957,21.12 C197.655652,20.5565217 198.970435,19.8052174 200.097391,19.053913 C198.031304,17.2695652 195.589565,15.8608696 192.96,15.0156522 Z M202.068261,21.026087 C200.659565,21.9652174 198.96913,22.8104348 197.092174,23.6556522 C198.406957,27.1304348 199.158261,30.6052174 199.44,33.5165217 L207.046957,33.5165217 C206.765217,28.7269565 204.98087,24.3130435 202.068261,21.026087 Z M189.109565,14.1704348 C188.546087,13.9826087 187.982609,13.8886957 187.513043,13.8886957 L187.513043,23.5617391 C189.57913,23.373913 191.737826,22.9043478 193.711304,22.2469565 C192.490435,19.2417391 190.893913,16.5182609 189.109565,14.1704348 Z M194.650435,24.5947826 C192.208696,25.6278261 189.766957,26.1913043 187.513043,26.3791304 L187.513043,33.5165217 L196.621304,33.5165217 C196.434783,30.5113043 195.777391,27.6 194.650435,24.5947826 Z M184.788261,13.8886957 C184.32,13.8886957 183.755217,13.9826087 183.191739,14.1704348 C181.407391,16.5182609 179.81087,19.2417391 178.59,22.2469565 C180.563478,22.9043478 182.816087,23.373913 184.788261,23.5617391 L184.788261,13.8886957 Z M199.44,36.24 C199.252174,39.0573913 198.50087,42.626087 197.092174,46.1021739 C198.96913,46.9473913 200.659565,47.8852174 202.068261,48.7317391 C204.979565,45.4447826 206.765217,41.1247826 207.045652,36.2413043 L199.44,36.2413043 L199.44,36.24 Z M172.205217,19.053913 C173.332174,19.8052174 174.646957,20.5565217 176.055652,21.12 C176.994783,18.96 178.121739,16.8 179.436522,15.0156522 C176.713043,15.8608696 174.271304,17.2695652 172.205217,19.053913 Z M187.513043,36.24 L187.513043,43.3786957 C189.766957,43.5678261 192.208696,44.223913 194.650435,45.1617391 C195.777391,42.1578261 196.434783,39.0573913 196.622609,36.24 L187.513043,36.24 Z M184.788261,26.3791304 C182.534348,26.1913043 180.092609,25.6278261 177.65087,24.5947826 C176.523913,27.6 175.866522,30.5113043 175.678696,33.5165217 L184.786957,33.5165217 L184.786957,26.3791304 L184.788261,26.3791304 Z M196.151739,48.5413043 C195.307826,50.7965217 194.274783,52.8626087 192.96,54.7395652 C195.589565,53.8969565 198.031304,52.5795652 200.097391,50.7013043 C198.96913,49.95 197.655652,49.1986957 196.151739,48.5413043 Z M170.325652,21.026087 C167.320435,24.3130435 165.536087,28.7269565 165.254348,33.5165217 L172.861304,33.5165217 C173.143043,30.6052174 173.894348,27.1304348 175.20913,23.6556522 C173.332174,22.8104348 171.641739,21.9652174 170.325652,21.026087 Z M187.513043,46.196087 L187.513043,55.8691304 C187.981304,55.8691304 188.546087,55.7752174 189.109565,55.68 C190.893913,53.2395652 192.490435,50.4221739 193.711304,47.5095652 C191.645217,46.8521739 189.57913,46.3813043 187.513043,46.196087 Z M184.788261,36.24 L175.68,36.24 C175.867826,39.0573913 176.523913,42.1578261 177.652174,45.1617391 C180.093913,44.223913 182.535652,43.5665217 184.789565,43.3786957 L184.789565,36.24 L184.788261,36.24 Z M184.788261,46.196087 C182.816087,46.3826087 180.75,46.8534783 178.59,47.5108696 C179.812174,50.4221739 181.407391,53.2408696 183.191739,55.6813043 C183.755217,55.7752174 184.318696,55.8704348 184.788261,55.8704348 L184.788261,46.196087 Z M176.148261,48.5413043 C174.74087,49.1986957 173.332174,49.95 172.205217,50.7013043 C174.271304,52.5782609 176.713043,53.8956522 179.436522,54.7395652 C178.121739,52.8626087 176.994783,50.7965217 176.148261,48.5413043 Z M172.862609,36.24 L165.255652,36.24 C165.537391,41.1234783 167.321739,45.4447826 170.326957,48.7304348 C171.643043,47.8852174 173.333478,46.9473913 175.210435,46.1008696 C173.801739,42.626087 173.04913,39.0573913 172.862609,36.24 Z" id="Shape"></path>
                <path d="M208.361739,6.28173913 C207.14087,6.28173913 206.107826,5.3426087 206.107826,4.12173913 C206.107826,2.80695652 207.14087,1.86782609 208.361739,1.86782609 C209.583913,1.86782609 210.616957,2.80695652 210.616957,4.12173913 C210.615652,5.3426087 209.582609,6.28173913 208.361739,6.28173913 Z M208.361739,2.24347826 C207.328696,2.24347826 206.484783,2.99478261 206.484783,4.12173913 C206.484783,5.15478261 207.328696,5.90608696 208.361739,5.90608696 C209.394783,5.90608696 210.24,5.15478261 210.24,4.12173913 C210.24,2.99478261 209.394783,2.24347826 208.361739,2.24347826 Z M208.361739,3.08869565 L207.986087,3.08869565 L207.986087,3.93391304 L208.361739,3.93391304 C208.643478,3.93391304 208.831304,3.74608696 208.831304,3.55826087 C208.831304,3.27652174 208.642174,3.08869565 208.361739,3.08869565 Z M209.113043,5.43652174 L208.361739,4.30956522 L207.986087,4.30956522 L207.986087,5.43652174 L207.610435,5.43652174 L207.610435,2.71304348 L208.361739,2.71304348 C208.831304,2.71304348 209.206957,3.08869565 209.206957,3.55826087 C209.206957,3.84 209.017826,4.12173913 208.831304,4.21565217 L209.488696,5.15478261 L209.113043,5.43652174 Z" id="Shape"></path>
            </g>
        </g>
    </g>
</svg>