<?xml version="1.0" encoding="UTF-8"?>
<svg width="216px" height="90px" viewBox="0 0 216 90" version="1.1" xmlns="http://www.w3.org/2000/svg" xmlns:xlink="http://www.w3.org/1999/xlink">
    <!-- Generator: Sketch 52.5 (67469) - http://www.bohemiancoding.com/sketch -->
    <title>nymetroparents</title>
    <desc>Created with Sketch.</desc>
    <g id="Page-1" stroke="none" stroke-width="1" fill="none" fill-rule="evenodd">
        <g id="Desktop-HD-Copy-7" transform="translate(-830.000000, -336.000000)" fill="#1B7C95">
            <g id="nymetroparents" transform="translate(830.783197, 336.000000)">
                <g id="Group-3">
                    <polygon id="Path-2" points="1.77635684e-13 -1.03028697e-13 1.77635684e-13 39.7700133 5.9942659 39.7700133 5.9942659 12.9808453 28.7169266 39.7700133 31.4911187 39.7700133 31.4911187 -1.03028697e-13 25.808393 -1.03028697e-13 25.808393 27.0660927 2.60111415 -1.03028697e-13"></polygon>
                    <polygon id="Path-3" points="35.4463616 4.90195696e-17 41.4299132 4.90195696e-17 49.932985 14.1289289 51.3209052 14.1289289 59.3171059 0 65.627033 0 53.4266867 20.3984712 53.4266867 39.4617697 47.3879151 39.4617697 47.3879151 20.3984712"></polygon>
                    <polygon id="Path-4" points="73.4905406 -1.0658141e-13 68.3608402 38.6557211 73.4905406 38.6557211 77.3394643 15.0701433 89.2373361 38.6557211 92.1747161 38.6557211 103.373683 15.0701433 107.319859 38.6557211 112.921816 38.6557211 107.319859 -1.0658141e-13 105.039352 -1.0658141e-13 90.6413276 29.1018189 76.0323138 -1.0658141e-13"></polygon>
                    <polygon id="Path-5" points="154.204201 0 154.204201 9.69566126 149.381095 9.69566126 149.381095 14.530305 154.204201 14.530305 154.204201 39.2046254 159.126207 39.2046254 159.126207 14.530305 164.822119 14.530305 164.822119 9.69566118 159.126207 9.69566118 159.126207 0"></polygon>
                    <path d="M121.642883,25.4498744 C121.642883,31.2232599 124.774289,34.2670964 131.0371,34.581384 C134.888634,34.581384 138.436526,32.2566451 141.680776,27.6071673 L145.882036,29.7623997 C143.081196,36.3566691 138.132884,39.6538039 131.0371,39.6538039 C118.155775,39.6538039 115.622656,29.1850612 115.622656,25.4498744 C115.622656,21.8651006 115.622656,9.92808019 131.187307,8.4396099 C141.363466,9.12587763 146.451545,14.7959658 146.451545,25.4498744 L121.642883,25.4498744 Z M128.442373,14.1342861 C125.015018,15.0301705 123.078675,17.1756501 122.633343,20.5707249 L139.78525,20.5707249 C138.935323,15.2862159 135.154364,13.1407364 128.442373,14.1342861 Z" id="Combined-Shape" fill-rule="nonzero"></path>
                    <path d="M199.596774,39.6661665 C190.973799,39.6661665 183.983496,32.6758638 183.983496,24.0528882 C183.983496,15.4299127 190.973799,8.4396099 199.596774,8.4396099 C208.21975,8.4396099 215.210053,15.4299127 215.210053,24.0528882 C215.210053,32.6758638 208.21975,39.6661665 199.596774,39.6661665 Z M199.596774,34.6024006 C205.190056,34.6024006 209.724306,30.0681501 209.724306,24.4748687 C209.724306,18.8815873 205.190056,14.3473368 199.596774,14.3473368 C194.003493,14.3473368 189.469242,18.8815873 189.469242,24.4748687 C189.469242,30.0681501 194.003493,34.6024006 199.596774,34.6024006 Z" id="Combined-Shape" fill-rule="nonzero"></path>
                    <path d="M167.948237,9.20319745 L167.948237,38.9231519 L173.672584,38.9231519 C173.672584,32.4744877 173.672584,26.5153182 173.672584,21.0456433 C174.312148,17.4248116 175.010641,15.3025464 178.171065,13.9280191 C178.853006,13.6254075 179.863692,13.9278131 181.203122,14.835236 L184.615642,10.6722995 C183.047396,9.1216379 181.472284,8.37870774 179.890305,8.443509 C177.824598,8.52812478 175.752024,9.42047208 173.672584,11.1205507 L173.672584,9.20319745 L167.948237,9.20319745 Z" id="Path-12"></path>
                </g>
                <g id="Group-2" transform="translate(18.904726, 50.165041)">
                    <path d="M0.168792198,0.84396099 L13.7319213,0.84396099 C19.9336058,1.36264535 23.3387082,4.67557685 23.9472285,10.7827555 C23.9472285,18.7855497 17.3274095,22.2633173 4.08777147,21.2160584 L4.08777147,38.8510519 L0.168792198,38.8510519 L0.168792198,0.84396099 Z M4.19862322,4.86884722 L4.19862322,17.3238653 L14.0207965,17.3238653 C17.571916,16.5172671 19.3474757,14.4414308 19.3474757,11.0963562 C19.3474757,7.35430135 17.1925184,5.278465 12.8826029,4.86884722 L4.19862322,4.86884722 Z" id="Combined-Shape" fill-rule="nonzero"></path>
                    <path d="M52.045091,9.99525087 L56.0431916,9.99525087 L56.0431916,38.0470637 L52.045091,38.0470637 L52.045091,33.7642088 C48.5478179,37.2496689 45.0848856,38.9923989 41.6562941,38.9923989 C31.7100821,38.0470637 27.2752967,31.6143868 27.1770883,24.1379849 C27.0801721,16.7599729 31.5423609,9.99525087 41.2660448,9.28357089 C45.4405198,9.28357089 49.0335352,11.0609164 52.045091,14.6156076 L52.045091,9.99525087 Z M41.3171433,35.3466357 C47.3765317,35.3466357 52.2886362,30.4345311 52.2886362,24.3751428 C52.2886362,18.3157547 47.3765317,13.40365 41.3171433,13.40365 C35.2577557,13.40365 30.3456504,18.3157547 30.3456504,24.3751428 C30.3456504,30.4345311 35.2577557,35.3466357 41.3171433,35.3466357 Z" id="Combined-Shape" fill-rule="nonzero"></path>
                    <path d="M61.7779445,10.0749092 L61.7779445,38.2054312 L66.201734,38.2054312 L66.201734,20.8514833 C66.5223404,17.8646526 67.7735843,15.5636776 69.9554648,13.9485583 C71.7087718,12.8757498 73.2499898,12.5846766 74.5791186,13.0753388 L76.5645698,10.0749092 C75.2409351,9.31226734 73.6912008,9.10086498 71.9153667,9.44070217 C69.9103551,10.0494798 68.0058111,11.2610253 66.201734,13.0753388 L66.201734,10.0749092 L61.7779445,10.0749092 Z" id="Path-19"></path>
                    <path d="M82.7158419,25.069103 C83.3043072,31.8812308 86.7148354,35.2872947 92.9474266,35.2872947 C97.3291834,35.2872947 100.804135,33.0342596 103.372282,28.5281892 L107.052249,30.7097954 C103.606074,36.3702681 98.904467,39.2005045 92.9474266,39.2005045 C84.0081572,39.2005045 78.6571643,32.3473517 78.6571643,25.069103 C78.6571643,17.3888849 83.1938665,9.28357089 92.9474266,9.28357089 C101.776187,9.28357089 106.477794,14.5454149 107.052249,25.069103 L82.7158419,25.069103 Z M83.2843205,21.118187 L102.603527,21.118187 C101.679208,16.0796959 98.4419646,13.5604504 92.8917944,13.5604504 C87.6368189,13.5604504 84.4343271,16.0796959 83.2843205,21.118187 Z" id="Combined-Shape" fill-rule="nonzero"></path>
                    <path d="M113.259565,10.2575464 L113.259565,38.1507044 L117.40643,38.1507044 C117.40643,31.7407767 117.40643,26.1440406 117.40643,21.3604961 C118.544829,18.1521668 120.269221,13.5709586 126.400919,13.5709586 C131.136661,13.5709586 133.595398,15.91589 133.77713,20.6057526 L133.77713,38.1507044 L137.850025,38.1507044 L137.850025,20.6057526 C138.05662,13.0576314 134.240251,9.28357089 126.400919,9.28357089 C123.593348,9.28357089 120.595185,11.0036359 117.40643,14.443766 L117.40643,10.2575464 L113.259565,10.2575464 Z" id="Path-24"></path>
                    <polygon id="Path-25" points="148.685322 8.17124146e-14 148.685322 10.278769 143.642161 10.278769 143.642161 13.6265909 148.685322 13.6265909 148.685322 38.1138223 152.216936 38.1138223 152.216936 13.6265909 157.962712 13.6265909 157.962712 10.278769 152.216936 10.278769 152.216936 8.17124146e-14"></polygon>
                    <path d="M177.702868,12.9449961 L175.374764,16.2985872 C173.135918,14.4822643 171.115989,13.6481935 169.314976,13.7963747 C167.190712,13.9711519 165.723196,15.1927834 165.723196,17.0926852 C165.723196,18.4631874 167.288728,20.0030316 170.41979,21.7122178 L174.291791,24.1044022 C176.836311,26.1461723 178.108571,28.2786024 178.108571,30.5016924 C177.554104,36.4217821 174.708826,37.9757747 170.836825,39.1551772 C167.922792,39.9010627 164.484311,38.5171261 160.52138,35.0033671 L163.32071,32.1043117 C165.411996,34.3152756 167.410084,35.2816274 169.314976,35.0033671 C171.943179,34.6194479 172.863419,34.1005004 173.711155,31.2512847 C174.098246,30.0032005 173.49989,28.7862977 171.91609,27.6005765 L165.723196,24.1044022 C162.902799,21.7131248 161.665292,19.3758858 162.010674,17.0926852 C162.603261,12.9532379 164.32746,10.2379474 168.500685,9.41503039 C171.290683,8.86487155 174.358078,10.0415268 177.702868,12.9449961 Z" id="Path-26"></path>
                </g>
            </g>
        </g>
    </g>
</svg>