<?xml version="1.0" encoding="UTF-8"?>
<svg width="341px" height="59px" viewBox="0 0 341 59" version="1.1" xmlns="http://www.w3.org/2000/svg" xmlns:xlink="http://www.w3.org/1999/xlink">
    <!-- Generator: Sketch 53.2 (72643) - https://sketchapp.com -->
    <title>omidyar-network</title>
    <desc>Created with Sketch.</desc>
    <g id="Page-1" stroke="none" stroke-width="1" fill="none" fill-rule="evenodd">
        <g id="Desktop-HD-Copy-6" transform="translate(-1798.000000, -521.000000)" fill-rule="nonzero">
            <g id="omidyar-network" transform="translate(1798.000000, 520.000000)">
                <g id="Group-5" transform="translate(0.000000, 2.000000)" fill="#0076C0">
                    <g id="g28" transform="translate(25.318182, 17.999998) scale(-1, 1) rotate(-180.000000) translate(-25.318182, -17.999998) translate(20.818182, -0.000002)">
                        <path d="M8.9090906,5.27272707 C8.9090906,2.78545441 6.96727248,0.84363629 4.58545436,0.84363629 C2.16727261,0.84363629 0.25454539,2.78545441 0.25454539,5.27272707 L0.25454539,31.1636354 C0.25454539,33.5418172 2.16727261,35.4727262 4.58545436,35.4727262 C6.96727248,35.4727262 8.9090906,33.5418172 8.9090906,31.1636354 L8.9090906,5.27272707 Z" id="path30"></path>
                    </g>
                    <g id="g32" transform="translate(26.500000, 33.181817) scale(-1, 1) rotate(-180.000000) translate(-26.500000, -33.181817) translate(0.000000, 10.181817)">
                        <path d="M26.0909083,0 C32.7381808,0 39.3927261,2.53454538 44.4654532,7.61090888 C54.665453,17.7381813 54.6690893,34.1963627 44.4654532,44.3599988 C42.7745442,46.0472715 40.0290897,46.0472715 38.3490898,44.3599988 C36.6618171,42.6545443 36.6618171,39.9127262 38.3490898,38.2181808 C45.0981805,31.458181 45.0981805,20.505454 38.3490898,13.7381814 C34.959999,10.3636361 30.5272718,8.66545431 26.0909083,8.66545431 C21.6618175,8.66545431 17.2290904,10.3636361 13.8363632,13.7381814 C7.072727,20.505454 7.072727,31.458181 13.8363632,38.2181808 C15.545454,39.9127262 15.545454,42.6545443 13.8363632,44.3599988 C12.1527269,46.0472715 9.3999997,46.0472715 7.712727,44.3599988 C-2.44000001,34.1963627 -2.44000001,17.7381813 7.712727,7.61090888 C12.774545,2.53454538 19.4254539,0 26.0909083,0" id="path34"></path>
                    </g>
                </g>
                <g id="g36" transform="translate(84.954545, 30.363635) scale(-1, 1) rotate(-180.000000) translate(-84.954545, -30.363635) translate(62.454545, 5.363635)" fill="#0076C0">
                    <path d="M39.9999989,49.9090895 C37.599999,49.9090895 35.6763627,47.9672714 35.6763627,45.5781805 L35.6763627,16.2290904 L8.4363634,48.3709077 C7.62545434,49.3090895 6.45090891,49.9090895 5.10909077,49.9090895 C2.71636356,49.9090895 0.785454524,47.9672714 0.785454524,45.5781805 L0.785454524,4.4545453 C0.785454524,2.04727264 2.71636356,0.11272724 5.10909077,0.11272724 C7.51272707,0.11272724 9.43636338,2.04727264 9.43636338,4.4545453 L9.43636338,33.7672718 L36.6836354,1.6327272 C37.4872717,0.67999995 38.6836353,0.11272724 39.9999989,0.11272724 C42.3854534,0.11272724 44.3272715,2.04727264 44.3272715,4.4545453 L44.3272715,45.5781805 C44.3272715,47.9672714 42.3854534,49.9090895 39.9999989,49.9090895" id="path38"></path>
                </g>
                <g id="g40" transform="translate(234.136364, 30.727272) scale(-1, 1) rotate(-180.000000) translate(-234.136364, -30.727272) translate(127.636364, 0.727272)" fill="#5F6062">
                    <path d="M0.363636,47.6601579 L0.363636,47.727272 C0.363636,54.2541177 5.82744094,59.727272 13.5590343,59.727272 C21.2906278,59.727272 26.6852706,54.3212318 26.6852706,47.7910304 L26.6852706,47.727272 C26.6852706,41.193715 21.2214657,35.727272 13.4898722,35.727272 C5.75463875,35.727272 0.363636,41.1266009 0.363636,47.6601579 Z M22.0441305,47.6601579 L22.0441305,47.727272 C22.0441305,52.2306277 18.4877431,55.9789499 13.4898722,55.9789499 C8.48836127,55.9789499 4.99749589,52.2977419 4.99749589,47.7910304 L4.99749589,47.727272 C4.99749589,43.2172049 8.55752336,39.4688827 13.5590343,39.4688827 C18.5569053,39.4688827 22.0441305,43.1500908 22.0441305,47.6601579 Z M35.4324546,36.1198894 L39.7823859,36.1198894 L39.7823859,52.6937149 L47.6632239,41.8245874 L47.8088282,41.8245874 L55.7515481,52.7641848 L55.7515481,36.1198894 L60.1779216,36.1198894 L60.1779216,59.3279432 L55.4639793,59.3279432 L47.8088282,48.3547888 L40.146397,59.3279432 L35.4324546,59.3279432 L35.4324546,36.1198894 Z M70.3156277,36.1198894 L74.7383612,36.1198894 L74.7383612,59.3312988 L70.3156277,59.3312988 L70.3156277,36.1198894 Z M84.8760672,59.3279432 L94.2675507,59.3279432 C102.17387,59.3279432 107.641315,54.3212318 107.641315,47.7910304 L107.641315,47.727272 C107.641315,41.193715 102.17387,36.1198894 94.2675507,36.1198894 L84.8760672,36.1198894 L84.8760672,59.3279432 Z M94.2675507,39.8380103 C99.5529903,39.8380103 103.003815,43.1198895 103.003815,47.6601579 L103.003815,47.727272 C103.003815,52.2675405 99.5529903,55.613178 94.2675507,55.613178 L89.3060809,55.613178 L89.3060809,39.8380103 L94.2675507,39.8380103 Z M121.670298,36.1198894 L126.129432,36.1198894 L126.129432,45.3715673 L136.125174,59.3279432 L131.054501,59.3279432 L123.938086,49.0527754 L116.883554,59.3279432 L111.674557,59.3279432 L121.670298,45.2708962 L121.670298,36.1198894 Z M147.868169,59.4923727 L151.970573,59.4923727 L163.047427,36.1198894 L158.369886,36.1198894 L155.818169,41.7239163 L143.911369,41.7239163 L141.323252,36.1198894 L136.791315,36.1198894 L147.868169,59.4923727 Z M154.19832,45.3380103 L149.848389,54.6198894 L145.527578,45.3380103 L154.19832,45.3380103 Z M170.469611,59.3279432 L181.684789,59.3279432 C184.855325,59.3279432 187.334241,58.465527 188.957729,57.0057955 C190.286369,55.7474063 191.043512,54.0259298 191.043512,52.0024398 L191.043512,51.9353257 C191.043512,48.1266009 188.560957,45.8380102 185.037331,44.9051244 L191.833416,36.1198894 L186.620778,36.1198894 L180.436232,44.2104935 L180.363429,44.2104935 L174.895984,44.2104935 L174.895984,36.1198894 L170.469611,36.1198894 L170.469611,59.3279432 Z M181.3681,47.8279431 C184.538635,47.8279431 186.547976,49.3480774 186.547976,51.7037821 L186.547976,51.7641847 C186.547976,54.2541177 184.604158,55.613178 181.331699,55.613178 L174.895984,55.613178 L174.895984,47.8279431 L181.3681,47.8279431 Z M0.363636,1.11988945 L4.71720764,1.11988945 L4.71720764,17.6299565 L18.5969465,1.11988945 L22.3025783,1.11988945 L22.3025783,24.3279432 L17.9490066,24.3279432 L17.9490066,8.28096328 L4.45875965,24.3279432 L0.363636,24.3279432 L0.363636,1.11988945 Z M31.6103397,1.11988945 L50.4515488,1.11988945 L50.4515488,4.76754046 L36.0294328,4.76754046 L36.0294328,10.9990841 L48.6533341,10.9990841 L48.6533341,14.6467351 L36.0294328,14.6467351 L36.0294328,20.6802922 L50.2731832,20.6802922 L50.2731832,24.3279432 L31.6103397,24.3279432 L31.6103397,1.11988945 Z M65.3468779,1.11988945 L69.8060121,1.11988945 L69.8060121,20.546064 L77.7924136,20.546064 L77.7924136,24.3279432 L57.3568366,24.3279432 L57.3568366,20.546064 L65.3468779,20.546064 L65.3468779,1.11988945 Z M92.3091721,0.952104218 L96.1167268,0.952104218 L102.304914,17.6299565 L108.4931,0.952104218 L112.300655,0.952104218 L121.076961,24.3279432 L116.43582,24.3279432 L110.436919,7.11988946 L104.248732,24.398413 L100.51034,24.398413 L94.3221528,7.11988946 L88.3159713,24.3279432 L83.5328666,24.3279432 L92.3091721,0.952104218 Z M125.816383,12.6601579 L125.816383,12.727272 C125.816383,19.2541177 131.283828,24.727272 139.011782,24.727272 C146.743375,24.727272 152.141658,19.3212318 152.141658,12.7910304 L152.141658,12.727272 C152.141658,6.19371496 146.674213,0.727272 138.94262,0.727272 C131.207387,0.727272 125.816383,6.12660086 125.816383,12.6601579 Z M147.496878,12.6601579 L147.496878,12.727272 C147.496878,17.2306277 143.936851,20.9789499 138.94262,20.9789499 C133.941109,20.9789499 130.457524,17.2977419 130.457524,12.7910304 L130.457524,12.727272 C130.457524,8.21720489 134.013911,4.46888274 139.011782,4.46888274 C144.009653,4.46888274 147.496878,8.1500908 147.496878,12.6601579 Z M160.168101,24.3279432 L171.383279,24.3279432 C174.550174,24.3279432 177.032729,23.465527 178.652579,22.0057955 C179.977578,20.7474063 180.734721,19.0259298 180.734721,17.0024398 L180.734721,16.9353257 C180.734721,13.1266009 178.255806,10.8380102 174.73218,9.90512437 L181.528265,1.11988945 L176.315627,1.11988945 L170.127441,9.21049346 L170.054639,9.21049346 L164.590834,9.21049346 L164.590834,1.11988945 L160.168101,1.11988945 L160.168101,24.3279432 Z M171.05931,12.8279431 C174.226205,12.8279431 176.235545,14.3480774 176.235545,16.7037821 L176.235545,16.7641847 C176.235545,19.2541177 174.302647,20.613178 171.026548,20.613178 L164.590834,20.613178 L164.590834,12.8279431 L171.05931,12.8279431 Z M190.319131,1.11988945 L194.741864,1.11988945 L194.741864,7.85143308 L198.662262,11.5661982 L207.256562,1.11988945 L212.614804,1.11988945 L201.683554,14.3480774 L212.14523,24.3279432 L206.717826,24.3279432 L194.741864,12.6601579 L194.741864,24.3279432 L190.319131,24.3279432 L190.319131,1.11988945 Z" id="path42"></path>
                </g>
            </g>
        </g>
    </g>
</svg>