<?xml version="1.0" encoding="UTF-8"?>
<svg width="248px" height="140px" viewBox="0 0 248 140" version="1.1" xmlns="http://www.w3.org/2000/svg" xmlns:xlink="http://www.w3.org/1999/xlink">
    <!-- Generator: Sketch 52.5 (67469) - http://www.bohemiancoding.com/sketch -->
    <title>Group</title>
    <desc>Created with Sketch.</desc>
    <g id="Page-1" stroke="none" stroke-width="1" fill="none" fill-rule="evenodd">
        <g id="Desktop-HD-Copy-7" transform="translate(-1089.000000, -745.000000)" fill-rule="nonzero">
            <g id="Group" transform="translate(1089.316770, 745.000000)">
                <path d="M1.00719424,27.3909702 C11.7505995,26.4677091 17.1223022,28.7941948 17.1223022,34.3704273 C17.1223022,39.9920414 12.8578859,42.4928407 4.32905331,41.8728252 L4.32905331,51.3669065 L1.00719424,51.3669065 L1.00719424,27.3909702 Z M4.34718032,30.2998111 L4.36403308,39.0608736 C10.6563018,39.5552631 13.7842932,38.095086 13.7480073,34.6803424 C13.7842932,31.0654386 10.6506842,29.6052615 4.34718032,30.2998111 Z" id="Combined-Shape" fill="#000002"></path>
                <polygon id="Path-4" fill="#000002" points="21.1510791 27.1942446 21.1510791 51.3669065 35.2517986 51.3669065 35.2517986 47.8857346 24.3899844 47.8857346 24.3899844 40.3150392 33.8429513 40.3150392 33.8429513 37.0595604 24.3899844 37.0595604 24.3899844 30.4594783 35.2517986 30.4594783 35.2517986 27.1942446"></polygon>
                <polygon id="Path-4-Copy" fill="#000002" points="22.1582734 61.4388489 22.1582734 85.6115108 36.2589928 85.6115108 36.2589928 82.1303389 25.3971786 82.1303389 25.3971786 74.5596435 34.8501456 74.5596435 34.8501456 71.3041647 25.3971786 71.3041647 25.3971786 64.7040827 36.2589928 64.7040827 36.2589928 61.4388489"></polygon>
                <path d="M40.2877698,27.543754 C50.8298825,26.3629886 56.1009389,28.1740032 56.1009389,32.9767981 C56.1009478,37.2210144 54.8167974,39.7085653 52.2484875,40.4394508 C53.0092191,41.3126319 53.8307023,42.4687607 54.7129371,43.9078373 C55.7590352,46.1225042 56.6580801,48.6088606 57.4100719,51.3669065 L53.3895849,51.3669065 C53.3895849,51.3669065 52.8352622,49.4079228 51.7266167,45.4899555 C50.8140556,42.1229523 49.4961594,40.6819347 47.772928,41.1669026 L44.0834721,41.1669026 L44.0834721,51.3669065 L40.2877698,51.3669065 L40.2877698,27.543754 Z M43.9698476,30.0253324 L43.9698476,37.9934219 C50.0018762,38.8127422 53.0178906,37.4949609 53.0178906,34.040078 C53.0178906,30.8318354 50.0018762,29.4935869 43.9698476,30.0253324 Z" id="Combined-Shape" fill="#000002"></path>
                <path d="M111.798561,61.7883583 C122.340674,60.6075929 127.61173,62.4186076 127.61173,67.2214024 C127.611739,71.4656187 126.327589,73.9531696 123.759279,74.6840551 C124.52001,75.5572362 125.341494,76.7133651 126.223728,78.1524416 C127.269827,80.3671085 128.168871,82.8534649 128.920863,85.6115108 L124.900376,85.6115108 C124.900376,85.6115108 124.346054,83.6525271 123.237408,79.7345598 C122.324847,76.3675567 121.006951,74.926539 119.283719,75.4115069 L115.594263,75.4115069 L115.594263,85.6115108 L111.798561,85.6115108 L111.798561,61.7883583 Z M115.480639,64.2699367 L115.480639,72.2380262 C121.512668,73.0573465 124.528682,71.7395652 124.528682,68.2846824 C124.528682,65.0764397 121.512668,63.7381912 115.480639,64.2699367 Z" id="Combined-Shape-Copy-3" fill="#000002"></path>
                <path d="M75.3180289,28.3376686 L74.0462931,30.6708018 C68.8182557,28.3145921 65.6757708,28.8703033 64.6188383,32.3379356 C64.1484847,33.5119945 65.5968952,34.8872244 68.9640699,36.4636252 C74.0191983,38.0858795 76.5467626,40.6497785 76.5467626,44.1553223 C76.5467626,47.0002612 74.1900059,51.3669065 68.9640699,51.3669065 C65.8335111,51.3669065 62.6536412,50.305683 59.4244604,48.1832362 L61.4929868,45.3068292 C63.3237797,46.9884233 65.8141407,47.8292203 68.9640699,47.8292203 C72.9005569,47.8292203 72.6281624,45.3068292 72.6281624,44.1553223 C72.6281624,40.9107388 70.3978194,40.8509495 67.2483863,39.8522876 C64.8768311,38.7850702 61.1262173,37.2512262 61.1262173,32.3379356 C61.1262173,28.6440329 64.6188383,26.1870504 68.9640699,26.1870504 C71.4067982,26.1870504 73.5247846,26.9039231 75.3180289,28.3376686 Z" id="Path-7" fill="#000002"></path>
                <path d="M80.5755396,38.4495711 C80.9200344,29.5735989 85.0599165,26.1870504 90.1893241,26.1870504 C95.3187318,26.1870504 99.7122302,30.0745003 99.7122302,38.4495711 C99.7122302,47.0832891 95.3187318,51.3669065 90.1893241,51.3669065 C85.0599165,51.3669065 80.5755396,46.8146238 80.5755396,38.4495711 Z M90.0186466,29.2015658 C87.0109626,29.2015658 83.719997,31.3331288 83.719997,38.823881 C83.3351225,46.0195568 87.0097476,48.4512052 90.0186466,48.4512052 C93.1293243,48.4512052 96.3442545,46.2590787 96.3442545,38.823881 C96.3442545,31.2129125 93.1305392,29.2015658 90.0186466,29.2015658 Z" id="Combined-Shape" fill="#000002"></path>
                <path d="M68.4892086,72.6941754 C68.8337035,63.8182032 72.9735855,60.4316547 78.1029932,60.4316547 C83.2324009,60.4316547 87.6258993,64.3191046 87.6258993,72.6941754 C87.6258993,81.3278934 83.2324009,85.6115108 78.1029932,85.6115108 C72.9735855,85.6115108 68.4892086,81.0592281 68.4892086,72.6941754 Z M77.9323157,63.4461701 C74.9246316,63.4461701 71.633666,65.5777331 71.633666,73.0684853 C71.2487915,80.2641611 74.9234167,82.6958095 77.9323157,82.6958095 C81.0429934,82.6958095 84.2579235,80.503683 84.2579235,73.0684853 C84.2579235,65.4575168 81.0442083,63.4461701 77.9323157,63.4461701 Z" id="Combined-Shape-Copy" fill="#000002"></path>
                <polygon id="Path-11" fill="#000002" points="104.748201 27.1942446 104.748201 51.3669065 107.578239 51.3669065 107.578239 32.2738488 118.161583 51.3669065 121.870504 51.3669065 121.870504 27.1942446 118.364197 27.1942446 118.364197 45.6959847 108.638743 27.1942446"></polygon>
                <path d="M134.189181,27.1942446 L137.490335,27.1942446 L146.043165,51.3669065 L142.251922,51.3669065 L139.619432,43.8152222 L131.529446,43.8152222 L129.092097,51.3669065 L125.899281,51.3669065 L134.189181,27.1942446 Z M135.660478,31.1816612 L132.489216,41.1967899 L138.831739,41.1967899 L135.660478,31.1816612 Z" id="Combined-Shape" fill="#000002"></path>
                <path d="M140.232346,61.4388489 L143.533501,61.4388489 L152.086331,85.6115108 L148.295087,85.6115108 L145.662597,78.0598265 L137.572612,78.0598265 L135.135263,85.6115108 L131.942446,85.6115108 L140.232346,61.4388489 Z M141.703643,65.4262655 L138.532382,75.4413942 L144.874905,75.4413942 L141.703643,65.4262655 Z" id="Combined-Shape-Copy-2" fill="#000002"></path>
                <polygon id="Path-15" fill="#000002" points="150.071942 27.1942446 150.071942 51.3669065 163.165468 51.3669065 163.165468 47.7958211 153.646037 47.7958211 153.646485 27.1942446"></polygon>
                <path d="M-8.8817842e-14,61.4388489 C3.21976668,61.4388489 5.96042891,61.4388489 8.22198669,61.4388489 C9.00289182,61.4388489 17.1223022,62.3917363 17.1223022,73.5251799 C17.1223022,84.2100484 9.36201738,85.6115108 8.22198669,85.6115108 C6.83515027,85.6115108 4.09448804,85.6115108 -8.8817842e-14,85.6115108 L-8.8817842e-14,61.4388489 Z M3.51952592,64.8062825 L3.40908877,82.3198801 C4.37322271,82.3198801 5.43839224,82.3198801 6.60459736,82.3198801 C10.0701023,82.3198801 13.8695854,81.9181246 13.8695854,72.978284 C13.8695854,64.8062825 8.63967095,64.8062825 6.60459736,64.8062825 C5.73639729,64.8062825 4.70804015,64.8062825 3.51952592,64.8062825 Z" id="Combined-Shape" fill="#000002"></path>
                <polygon id="Path-19" fill="#000002" points="41.294964 61.4388489 41.4165944 85.6115108 44.3928988 85.6115108 44.3928988 66.1447217 51.0340889 81.4985789 53.8153959 81.4985789 60.1719083 66.1447217 60.1719083 85.6115108 63.4532374 85.6115108 63.4532374 61.4388489 58.8610894 61.4388489 52.3741007 76.7502883 46.0677007 61.4388489"></polygon>
                <path d="M108.143086,63.0476079 L106.24324,65.2929029 C98.6693116,62.0520708 94.7924014,64.7027848 94.612509,73.245045 C95.1842331,82.4795563 99.1589407,84.6440639 106.536632,79.7385679 L108.776978,82.0981511 C106.150124,84.4403909 103.534747,85.6115108 100.930849,85.6115108 C94.612509,85.6115108 90.647482,79.628775 90.647482,73.245045 C90.647482,65.2929029 94.612509,60.4316547 100.930849,60.4316547 C103.721482,60.4316547 106.125561,61.3036391 108.143086,63.0476079 Z" id="Path-21" fill="#000002"></path>
                <path d="M171.596324,63.0476079 L169.696477,65.2929029 C162.122549,62.0520708 158.245639,64.7027848 158.065746,73.245045 C158.63747,82.4795563 162.612178,84.6440639 169.989869,79.7385679 L172.230216,82.0981511 C169.603361,84.4403909 166.987985,85.6115108 164.384086,85.6115108 C158.065746,85.6115108 154.100719,79.628775 154.100719,73.245045 C154.100719,65.2929029 158.065746,60.4316547 164.384086,60.4316547 C167.174719,60.4316547 169.578798,61.3036391 171.596324,63.0476079 Z" id="Path-21-Copy" fill="#000002"></path>
                <polygon id="Path-22" fill="#000002" points="172.230216 61.4388489 176.142519 61.4388489 181.824181 72.4787813 187.238103 61.4388489 191.366906 61.4388489 183.511245 75.8261919 183.511245 85.6115108 179.947969 85.6115108 179.947969 75.8261919"></polygon>
                <polygon id="Path-23" fill="#174896" points="65.4676259 96.6906475 65.4676259 118.848921 69.5889271 118.848921 69.5889271 102.361192 74.2416881 114.658557 78.215436 114.658557 83.2034155 102.361192 83.2034155 118.848921 87.6258993 118.848921 87.6258993 96.6906475 80.7231898 96.6906475 76.4810517 108.368566 72.4057392 96.6906475"></polygon>
                <polygon id="Path-24" fill="#174896" points="93.6690647 95.6834532 93.6690647 118.848921 107.769784 118.848921 107.769784 114.286067 98.3702987 114.286067 98.3702987 108.904816 105.80874 108.904816 105.80874 104.75781 98.3702987 104.75781 98.3702987 100.047782 107.769784 100.047782 107.769784 95.6834532"></polygon>
                <path d="M112.805755,95.6902799 C115.371345,95.6902799 117.343246,95.6902799 118.721458,95.6902799 C119.392087,95.6902799 129.928058,94.9910032 129.928058,107.747077 C129.928058,119.427513 119.881358,118.844109 118.721458,118.844109 C117.382664,118.844109 115.410763,118.844109 112.805755,118.844109 L112.805755,95.6902799 Z M117.879575,100.353921 L118.040543,114.497545 C118.630692,114.497545 119.244298,114.497545 119.881358,114.497545 C120.4862,114.497545 125.032744,115.140682 125.032744,107.425733 C124.716712,99.64162 120.4862,100.353921 119.881358,100.353921 C119.244298,100.353921 118.577037,100.353921 117.879575,100.353921 Z" id="Combined-Shape" fill="#174896"></path>
                <polygon id="Path-27" fill="#174896" points="134.964029 96.6906475 134.964029 118.848921 140 118.848921 140 96.6906475"></polygon>
                <path d="M148.57435,118.848921 L143.021583,118.848921 L150.737005,95.6834532 L156.224035,95.6834532 L163.165468,118.848921 L157.84659,118.848921 L156.224035,113.58693 L150.167539,113.58693 L148.57435,118.848921 Z M153.17877,100.824784 L150.737005,109.940145 L155.602078,109.940145 L153.17877,100.824784 Z" id="Combined-Shape" fill="#174896"></path>
                <path d="M171.223022,25.7331531 L172.632405,34.2446043 C174.19809,34.0967192 175.414792,34.0227766 176.282511,34.0227766 C177.20677,34.0227766 178.272617,34.0967192 179.480052,34.2446043 L180.28777,25.5333 C178.862188,25.2976707 177.355622,25.1798561 175.768072,25.1798561 C174.180522,25.1798561 172.665505,25.3642884 171.223022,25.7331531 Z" id="Path-30" fill="#214895"></path>
                <path d="M173.23741,36.6278574 L174.176999,42.3021583 C175.220789,42.2035682 176.031923,42.1542732 176.610403,42.1542732 C177.226576,42.1542732 177.937141,42.2035682 178.742097,42.3021583 L179.280576,36.4946221 C178.330188,36.3375359 177.32581,36.2589928 176.267444,36.2589928 C175.209077,36.2589928 174.199066,36.3819477 173.23741,36.6278574 Z" id="Path-30-Copy-25" fill="#214895"></path>
                <path d="M181.658207,26.7134587 L183.008216,34.9659431 C184.509619,34.8222831 185.67636,34.7503783 186.50844,34.7502286 C187.394737,34.7500691 188.416793,34.8215801 189.574609,34.9647615 L190.350673,26.5181164 C188.983685,26.2898956 187.539019,26.1759222 186.016674,26.1761961 C184.49433,26.1764701 183.041507,26.3555576 181.658207,26.7134587 Z" id="Path-30-Copy" fill="#214895" transform="translate(186.004440, 30.571069) rotate(13.000000) translate(-186.004440, -30.571069) "></path>
                <path d="M181.140881,36.7827465 L182.062526,42.4166736 C183.087525,42.3185977 183.884053,42.2695086 184.45211,42.2694064 C185.05718,42.2692975 185.754933,42.3181177 186.545367,42.4158669 L187.075182,36.6493873 C186.141946,36.4935822 185.15568,36.4157731 184.116384,36.4159602 C183.077088,36.4161472 182.085253,36.5384093 181.140881,36.7827465 Z" id="Path-30-Copy-24" fill="#214895" transform="translate(184.108032, 39.416317) rotate(13.000000) translate(-184.108032, -39.416317) "></path>
                <path d="M191.785464,30.3342357 L193.13388,38.5877434 C194.63508,38.4438092 195.801656,38.3716972 196.63361,38.3714076 C197.519773,38.371099 198.541662,38.442449 199.699278,38.5854575 L200.476646,30.1374022 C199.109904,29.9093767 197.665476,29.7956289 196.143362,29.7961588 C194.621248,29.7966888 193.168615,29.9760477 191.785464,30.3342357 Z" id="Path-30-Copy-2" fill="#214895" transform="translate(196.131055, 34.191950) rotate(29.000000) translate(-196.131055, -34.191950) "></path>
                <path d="M188.980728,39.5508669 L189.901285,45.1854927 C190.926146,45.0872296 191.722562,45.0379991 192.290532,45.0378014 C192.895511,45.0375907 193.593149,45.086301 194.383447,45.1839321 L194.914152,39.4164898 C193.981085,39.260818 192.994981,39.183163 191.955842,39.1835248 C190.916703,39.1838866 189.924999,39.306334 188.980728,39.5508669 Z" id="Path-30-Copy-23" fill="#214895" transform="translate(191.947440, 42.184508) rotate(29.000000) translate(-191.947440, -42.184508) "></path>
                <path d="M200.510704,36.4324493 L201.858332,44.6875512 C203.359236,44.5434946 204.52558,44.4712956 205.357364,44.4709542 C206.243347,44.4705906 207.265024,44.5418917 208.422396,44.6848574 L209.200132,36.2350364 C207.833682,36.0070493 206.389554,35.893368 204.86775,35.8939926 C203.345945,35.8946171 201.893596,36.0741027 200.510704,36.4324493 Z" id="Path-30-Copy-3" fill="#214895" transform="translate(204.855418, 40.290771) rotate(44.000000) translate(-204.855418, -40.290771) "></path>
                <path d="M195.815922,44.4149698 L196.735941,50.050684 C197.7606,49.9523373 198.556857,49.9030474 199.124711,49.9028143 C199.729567,49.9025661 200.427061,49.951243 201.217193,50.0488449 L201.748149,44.2801971 C200.81528,44.1245515 199.829382,44.046942 198.790454,44.0473683 C197.751526,44.0477947 196.760016,44.1703285 195.815922,44.4149698 Z" id="Path-30-Copy-22" fill="#214895" transform="translate(198.782035, 47.049025) rotate(44.000000) translate(-198.782035, -47.049025) "></path>
                <path d="M207.370964,44.7448592 L208.718748,53.0018486 C210.219314,52.8578426 211.385397,52.7856917 212.216999,52.7853959 C213.102788,52.7850809 214.124244,52.8564536 215.28137,52.9995142 L216.058473,44.5478796 C214.69231,44.3197675 213.248494,44.2059821 211.727023,44.2065233 C210.205553,44.2070645 208.753533,44.3865098 207.370964,44.7448592 Z" id="Path-30-Copy-4" fill="#214895" transform="translate(211.714718, 48.604185) rotate(60.000000) translate(-211.714718, -48.604185) "></path>
                <path d="M201.081219,50.8093926 L202.001344,56.4463953 C203.025773,56.3480832 203.821852,56.2988261 204.389582,56.2986242 C204.994305,56.2984091 205.691648,56.3471349 206.481611,56.4448016 L207.012135,50.6749157 C206.079463,50.5191848 205.093778,50.441504 204.055078,50.4418735 C203.016378,50.442243 202.025092,50.5647493 201.081219,50.8093926 Z" id="Path-30-Copy-21" fill="#214895" transform="translate(204.046677, 53.444134) rotate(60.000000) translate(-204.046677, -53.444134) "></path>
                <path d="M211.929559,54.454268 L213.278475,62.7127756 C214.778782,62.5689914 215.94467,62.4970192 216.776141,62.4968589 C217.66179,62.4966881 218.683098,62.5682385 219.840065,62.7115101 L220.61567,54.2586728 C219.249685,54.0303023 217.806077,53.9162637 216.284846,53.9165571 C214.763615,53.9168504 213.311853,54.0960874 211.929559,54.454268 Z" id="Path-30-Copy-5" fill="#214895" transform="translate(216.272615, 58.314666) rotate(76.000000) translate(-216.272615, -58.314666) "></path>
                <path d="M204.76591,58.3809669 L205.686808,64.019006 C206.711059,63.9208454 207.507005,63.8717103 208.074646,63.8716008 C208.679274,63.8714842 209.376515,63.9203313 210.166371,64.0181421 L210.695872,58.2474351 C209.763321,58.0915277 208.777778,58.0136742 207.739242,58.0138745 C206.700705,58.0140748 205.709595,58.1364389 204.76591,58.3809669 Z" id="Path-30-Copy-20" fill="#214895" transform="translate(207.730891, 61.016440) rotate(76.000000) translate(-207.730891, -61.016440) "></path>
                <path d="M213.780042,65.016654 L215.130366,73.2757974 C216.630576,73.1322743 217.796396,73.0605068 218.627827,73.0604948 C219.513434,73.0604821 220.534706,73.1322183 221.691643,73.2757034 L222.465703,64.8226002 C221.099742,64.5939749 219.656183,64.4796731 218.135025,64.4796949 C216.613867,64.4797167 215.162206,64.6587031 213.780042,65.016654 Z" id="Path-30-Copy-6" fill="#214895" transform="translate(218.122872, 68.877746) rotate(89.000000) translate(-218.122872, -68.877746) "></path>
                <path d="M206.027522,66.6358329 L206.949381,72.2743062 C207.973566,72.1763237 208.769465,72.1273284 209.337079,72.1273202 C209.941678,72.1273116 210.638894,72.1762855 211.428729,72.274242 L211.957176,66.5033535 C211.024642,66.3472722 210.039132,66.2692389 209.000645,66.2692538 C207.962159,66.2692687 206.971117,66.3914618 206.027522,66.6358329 Z" id="Path-30-Copy-19" fill="#214895" transform="translate(208.992349, 69.271780) rotate(89.000000) translate(-208.992349, -69.271780) "></path>
                <path d="M212.802246,75.5795743 L214.15423,83.8386393 C215.654474,83.6954137 216.820328,83.6238758 217.651794,83.6240256 C218.537437,83.624185 219.558765,83.6961168 220.715778,83.8398209 L221.488228,75.3872173 C220.122166,75.1583358 218.678525,75.043758 217.157304,75.0434841 C215.636083,75.0432102 214.184397,75.2219069 212.802246,75.5795743 Z" id="Path-30-Copy-7" fill="#214895" transform="translate(217.145237, 79.441652) rotate(103.000000) translate(-217.145237, -79.441652) "></path>
                <path d="M205.187474,74.874956 L206.110467,80.5133756 C207.134675,80.4155963 207.930598,80.3667578 208.498235,80.36686 C209.102859,80.3669689 209.800114,80.4160763 210.59,80.5141823 L211.117348,74.7436348 C210.184745,74.5873787 209.199179,74.5091571 208.160649,74.50897 C207.12212,74.508783 206.131061,74.6307783 205.187474,74.874956 Z" id="Path-30-Copy-18" fill="#214895" transform="translate(208.152411, 77.511576) rotate(103.000000) translate(-208.152411, -77.511576) "></path>
                <path d="M209.16032,85.5380332 L210.513898,93.7960749 C212.014345,93.6531235 213.180364,93.5817927 214.011955,93.5820824 C214.897733,93.5823909 215.919227,93.6544837 217.07644,93.7983608 L217.847586,85.3471673 C216.481279,85.1180905 215.0374,85.0032872 213.515948,85.0027572 C211.994496,85.0022273 210.54262,85.1806526 209.16032,85.5380332 Z" id="Path-30-Copy-8" fill="#214895" transform="translate(213.503953, 89.400558) rotate(119.000000) translate(-213.503953, -89.400558) "></path>
                <path d="M202.441002,82.7068997 L203.365083,88.3446208 C204.38943,88.2470287 205.185465,88.1983315 205.753188,88.1985292 C206.357903,88.1987399 207.055272,88.2479572 207.845295,88.3461813 L208.371752,82.5765966 C207.438982,82.4202071 206.453253,82.3418315 205.414566,82.3414697 C204.375879,82.3411079 203.384691,82.4629179 202.441002,82.7068997 Z" id="Path-30-Copy-17" fill="#214895" transform="translate(205.406377, 85.343825) rotate(119.000000) translate(-205.406377, -85.343825) "></path>
                <path d="M202.995034,94.3220602 L204.3494,102.578508 C205.850142,102.435679 207.016394,102.364435 207.848154,102.364776 C208.734112,102.36514 209.755819,102.437282 210.913276,102.581201 L211.684054,94.1317737 C210.317455,93.9026585 208.873275,93.7877886 207.351514,93.7871641 C205.829753,93.7865395 204.377593,93.9648382 202.995034,94.3220602 Z" id="Path-30-Copy-9" fill="#214895" transform="translate(207.339544, 98.184182) rotate(134.000000) translate(-207.339544, -98.184182) "></path>
                <path d="M197.540649,89.3065323 L198.465267,94.943165 C199.489816,94.8456565 200.28601,94.7970187 200.853849,94.7972518 C201.458687,94.7975 202.156201,94.8467508 202.94639,94.9450041 L203.472597,89.1766248 C202.539627,89.020209 201.553693,88.941788 200.514795,88.9413616 C199.475897,88.9409352 198.484515,89.0626588 197.540649,89.3065323 Z" id="Path-30-Copy-16" fill="#214895" transform="translate(200.506623, 91.943182) rotate(134.000000) translate(-200.506623, -91.943182) "></path>
                <path d="M194.776447,101.00793 L196.130698,109.262603 C197.631759,109.119732 198.798256,109.048448 199.630188,109.048749 C200.516329,109.04907 201.538245,109.121148 202.695934,109.264983 L203.467277,100.817269 C202.100406,100.588266 200.655932,100.473489 199.133856,100.472937 C197.61178,100.472385 196.15931,100.650716 194.776447,101.00793 Z" id="Path-30-Copy-10" fill="#214895" transform="translate(199.121862, 104.868959) rotate(149.000000) translate(-199.121862, -104.868959) "></path>
                <path d="M191.088364,94.4713837 L192.012904,100.106805 C193.037669,100.009268 193.834031,99.9606021 194.401987,99.9608079 C195.00695,99.9610273 195.704607,100.010235 196.494955,100.10843 L197.021546,94.34122 C196.088391,94.1848811 195.102256,94.1065234 194.063143,94.1061467 C193.02403,94.10577 192.032437,94.2275157 191.088364,94.4713837 Z" id="Path-30-Copy-15" fill="#214895" transform="translate(194.054955, 97.107288) rotate(149.000000) translate(-194.054955, -97.107288) "></path>
                <path d="M185.141678,105.555551 L186.494851,113.808668 C187.996178,113.665584 189.162876,113.594128 189.994944,113.594298 C190.88123,113.59448 191.9033,113.666386 193.061155,113.810015 L193.833953,105.363555 C192.466895,105.134804 191.022204,105.020273 189.499881,105.01996 C187.977557,105.019648 186.524823,105.198178 185.141678,105.555551 Z" id="Path-30-Copy-11" fill="#214895" transform="translate(189.487815, 109.414988) rotate(165.000000) translate(-189.487815, -109.414988) "></path>
                <path d="M183.745881,98.1733668 L184.669685,103.807725 C185.694633,103.710043 186.491131,103.66126 187.05918,103.661376 C187.664242,103.661501 188.362004,103.71059 189.152466,103.808645 L189.68005,98.0422917 C188.746767,97.886125 187.760485,97.807935 186.721202,97.8077217 C185.68192,97.8075084 184.690146,97.9293901 183.745881,98.1733668 Z" id="Path-30-Copy-14" fill="#214895" transform="translate(186.712966, 100.808183) rotate(165.000000) translate(-186.712966, -100.808183) "></path>
                <path d="M174.244604,107.315887 L175.653988,115.827338 C177.219672,115.679453 178.436374,115.60551 179.304094,115.60551 C180.228353,115.60551 181.2942,115.679453 182.501634,115.827338 L183.309353,107.116034 C181.883771,106.880405 180.377205,106.76259 178.789655,106.76259 C177.202105,106.76259 175.687088,106.947022 174.244604,107.315887 Z" id="Path-30-Copy-12" fill="#214895" transform="translate(178.776978, 111.294964) rotate(180.000000) translate(-178.776978, -111.294964) "></path>
                <path d="M175.251799,99.0739006 L176.191388,104.748201 C177.235177,104.649611 178.046312,104.600316 178.624791,104.600316 C179.240964,104.600316 179.951529,104.649611 180.756485,104.748201 L181.294964,98.9406652 C180.344576,98.7835791 179.340199,98.705036 178.281832,98.705036 C177.223465,98.705036 176.213454,98.8279908 175.251799,99.0739006 Z" id="Path-30-Copy-13" fill="#214895" transform="translate(178.273381, 101.726619) rotate(180.000000) translate(-178.273381, -101.726619) "></path>
                <path d="M169.208633,14.8385531 L170.545394,23.1654676 C172.139809,22.9565424 173.802805,22.83878 175.534382,22.8121805 C177.19434,22.7866811 178.922879,22.8523446 180.719999,23.009171 L181.294964,14.4707161 C179.335809,14.2240517 177.415615,14.1007194 175.534382,14.1007194 C173.332573,14.1007194 171.22399,14.346664 169.208633,14.8385531 Z" id="Path-31" fill="#214895"></path>
                <path d="M182.682483,15.7199495 L183.997714,23.9345735 C185.568378,23.7281566 187.206582,23.6116629 188.912328,23.5850926 C190.547522,23.5596212 192.250257,23.6240731 194.020532,23.7784482 L194.588542,15.3547672 C192.658667,15.1117935 190.767148,14.9904852 188.913985,14.9908424 C186.745029,14.9912604 184.667862,15.2342961 182.682483,15.7199495 Z" id="Path-31-Copy" fill="#214895" transform="translate(188.635513, 19.462708) rotate(14.000000) translate(-188.635513, -19.462708) "></path>
                <path d="M195.517187,20.4440986 L196.830949,28.6597093 C198.401418,28.4530184 200.039403,28.3362534 201.744905,28.3094141 C203.379866,28.283685 205.082344,28.3478817 206.852339,28.5020041 L207.421577,20.0770135 C205.492019,19.8343044 203.600793,19.7132725 201.747899,19.7139176 C199.579258,19.7146726 197.502354,19.9580663 195.517187,20.4440986 Z" id="Path-31-Copy-2" fill="#214895" transform="translate(201.469382, 24.186812) rotate(29.000000) translate(-201.469382, -24.186812) "></path>
                <path d="M215.430049,38.7174078 L216.743154,46.9363722 C218.312981,46.7295742 219.950296,46.612738 221.655098,46.5858635 C223.289389,46.5601006 224.991168,46.6242995 226.760434,46.7784601 L227.329561,38.3500031 C225.400798,38.1072218 223.510349,37.986167 221.658216,37.9868386 C219.490464,37.9876248 217.414409,38.2311478 215.430049,38.7174078 Z" id="Path-31-Copy-3" fill="#214895" transform="translate(221.379805, 42.461604) rotate(59.000000) translate(-221.379805, -42.461604) "></path>
                <path d="M221.25789,51.0430634 L222.572166,59.2636466 C224.141692,59.0570801 225.778709,58.9405022 227.483218,58.9139129 C229.117226,58.8884232 230.818727,58.9529221 232.587719,59.1074095 L233.155319,50.6776179 C231.226842,50.4344676 229.336694,50.3130711 227.484875,50.3134282 C225.317492,50.3138462 223.24183,50.5570579 221.25789,51.0430634 Z" id="Path-31-Copy-4" fill="#214895" transform="translate(227.206604, 54.788537) rotate(76.000000) translate(-227.206604, -54.788537) "></path>
                <path d="M223.597122,64.191071 L224.933884,72.5179856 C226.528298,72.3090604 228.191294,72.191298 229.922871,72.1646985 C231.582829,72.1391991 233.311368,72.2048626 235.108489,72.361689 L235.683453,63.8232341 C233.724298,63.5765696 231.804104,63.4532374 229.922871,63.4532374 C227.721062,63.4532374 225.612479,63.699182 223.597122,64.191071 Z" id="Path-31-Copy-5" fill="#214895" transform="translate(229.640288, 67.985612) rotate(90.000000) translate(-229.640288, -67.985612) "></path>
                <path d="M222.376786,78.1814052 L223.694231,86.402496 C225.263677,86.1965349 226.900649,86.0805884 228.605148,86.0546565 C230.239147,86.0297971 231.940672,86.0949523 233.709724,86.250122 L234.274075,77.8205487 C232.345504,77.5766546 230.455309,77.454529 228.60349,77.4541718 C226.436107,77.4537539 224.360539,77.696165 222.376786,78.1814052 Z" id="Path-31-Copy-6" fill="#214895" transform="translate(228.325430, 81.928334) rotate(104.000000) translate(-228.325430, -81.928334) "></path>
                <path d="M209.68897,102.173449 L211.008683,110.391846 C212.578653,110.186302 214.216194,110.070755 215.921305,110.045204 C217.555892,110.02071 219.258048,110.086212 221.027776,110.241711 L221.590496,101.815317 C219.661173,101.57109 217.770266,101.448597 215.917775,101.447836 C213.749605,101.446946 211.673337,101.688817 209.68897,102.173449 Z" id="Path-31-Copy-7" fill="#214895" transform="translate(215.639733, 105.919840) rotate(135.000000) translate(-215.639733, -105.919840) "></path>
                <path d="M199.328613,110.876963 L200.648185,119.093713 C202.218467,118.888133 203.856329,118.772529 205.561771,118.746901 C207.196673,118.722334 208.899155,118.787742 210.669216,118.943126 L211.23245,110.518329 C209.302767,110.274242 207.411501,110.151863 205.558653,110.151191 C203.390066,110.150405 201.313386,110.392329 199.328613,110.876963 Z" id="Path-31-Copy-8" fill="#214895" transform="translate(205.280532, 114.622451) rotate(149.000000) translate(-205.280532, -114.622451) "></path>
                <path d="M186.937304,116.542929 L188.255703,124.75806 C189.826288,124.552249 191.464448,124.436387 193.170183,124.410474 C194.805367,124.385633 196.508127,124.450741 198.278462,124.605798 L198.843223,116.182336 C196.913254,115.938618 195.021688,115.816581 193.168525,115.816224 C190.99957,115.815806 188.922496,116.058041 186.937304,116.542929 Z" id="Path-31-Copy-9" fill="#214895" transform="translate(192.890264, 120.287142) rotate(166.000000) translate(-192.890264, -120.287142) "></path>
                <path d="M173.646772,119.000969 L174.963533,127.215435 C176.534235,127.009308 178.172497,126.893112 179.878319,126.866847 C181.513587,126.841669 183.216415,126.906421 184.986803,127.061105 L185.553336,118.637928 C183.623325,118.394621 181.731694,118.272981 179.878442,118.273008 C177.709383,118.273039 175.63216,118.515693 173.646772,119.000969 Z" id="Path-31-Copy-10" fill="#214895" transform="translate(179.600054, 122.744221) rotate(181.000000) translate(-179.600054, -122.744221) "></path>
                <path d="M173.207576,129.928058 C175.518583,130.062195 177.665791,130.129264 179.6492,130.129264 C181.870776,130.129264 184.013392,130.062195 186.077048,129.928058 L187.338129,139.375496 C184.885091,139.791832 182.322115,140 179.6492,140 C177.440549,140 174.967554,139.903075 172.230216,139.709225 L173.207576,129.928058 Z" id="Path-32" fill="#214895"></path>
                <path d="M205.169409,120.067986 C207.515476,120.208604 209.695238,120.279285 211.708694,120.280028 C213.963925,120.280861 216.138973,120.211787 218.23384,120.072807 L219.517659,129.916221 C217.027619,130.349067 214.425897,130.564989 211.712491,130.563988 C209.470381,130.563161 206.959886,130.461252 204.181005,130.258261 L205.169409,120.067986 Z" id="Path-32-Copy" fill="#214895" transform="translate(211.849332, 125.315989) rotate(-32.000000) translate(-211.849332, -125.315989) "></path>
                <path d="M218.257577,109.197385 C220.603195,109.338128 222.782536,109.408912 224.795601,109.409738 C227.050393,109.410664 229.225016,109.341666 231.31947,109.202745 L232.603446,119.048126 C230.113909,119.480953 227.512701,119.696811 224.799822,119.695697 C222.558148,119.694777 220.048136,119.592745 217.269787,119.3896 L218.257577,109.197385 Z" id="Path-32-Copy-2" fill="#214895" transform="translate(224.936617, 114.446543) rotate(-46.000000) translate(-224.936617, -114.446543) "></path>
                <path d="M235.476367,62.5867132 C237.820997,62.7265151 239.999445,62.7964017 242.011712,62.7963728 C244.265612,62.7963405 246.439403,62.7263916 248.533087,62.586526 L249.812375,72.4352616 C247.323639,72.8693187 244.723369,73.0863667 242.011565,73.0864056 C239.770779,73.0864377 237.261804,72.9854314 234.484641,72.7833868 L235.476367,62.5867132 Z" id="Path-32-Copy-3" fill="#214895" transform="translate(242.148508, 67.836466) rotate(-91.000000) translate(-242.148508, -67.836466) "></path>
                <path d="M232.573665,45.9472267 C234.918412,46.0865431 237.096981,46.1559823 239.109374,46.1555443 C241.363413,46.1550536 243.537354,46.0846669 245.631196,45.9443843 L246.908563,55.7922479 C244.419584,56.2267841 241.819108,56.4443474 239.107135,56.4449378 C236.86621,56.4454256 234.3571,56.3449358 231.579805,56.1434685 L232.573665,45.9472267 Z" id="Path-32-Copy-4" fill="#214895" transform="translate(239.244184, 51.194662) rotate(-106.000000) translate(-239.244184, -51.194662) "></path>
                <path d="M214.625889,17.5242583 C216.971493,17.6630716 219.15087,17.7320659 221.164022,17.7312413 C223.418911,17.7303176 225.593684,17.6595397 227.688343,17.5189075 L228.964301,27.3628149 C226.474301,27.7976657 223.872803,28.0156468 221.159808,28.0167582 C218.918038,28.0176765 216.408001,27.9177068 213.629698,27.7168492 L214.625889,17.5242583 Z" id="Path-32-Copy-5" fill="#214895" transform="translate(221.297000, 22.767836) rotate(-137.000000) translate(-221.297000, -22.767836) "></path>
                <path d="M184.826614,1.92288355 C187.173049,2.0621879 189.353185,2.13165888 191.367021,2.13129649 C193.622678,2.13089059 195.798176,2.06063582 197.893515,1.92053219 L199.17217,11.761382 C196.681422,12.1955134 194.079088,12.4128233 191.365169,12.4133117 C189.122636,12.4137152 186.611722,12.3132035 183.832426,12.1117767 L184.826614,1.92288355 Z" id="Path-32-Copy-6" fill="#214895" transform="translate(191.502298, 7.166923) rotate(-167.000000) translate(-191.502298, -7.166923) "></path>
            </g>
        </g>
    </g>
</svg>