<?xml version="1.0" encoding="UTF-8"?>
<svg width="245px" height="44px" viewBox="0 0 245 44" version="1.1" xmlns="http://www.w3.org/2000/svg" xmlns:xlink="http://www.w3.org/1999/xlink">
    <!-- Generator: Sketch 52.5 (67469) - http://www.bohemiancoding.com/sketch -->
    <title>Group</title>
    <desc>Created with Sketch.</desc>
    <g id="Page-1" stroke="none" stroke-width="1" fill="none" fill-rule="evenodd">
        <g id="Desktop-HD-Copy-7" transform="translate(-285.000000, -678.000000)" fill="#CF1C23">
            <g id="Group" transform="translate(285.000000, 678.000000)">
                <path d="M6.84348279,18.5370593 L8.58494407,18.5370593 C12.3540206,18.5370593 14.8681015,18.1282709 16.1230981,17.3106837 C17.3780937,16.4890047 18.0076364,15.0418779 18.0076364,12.969293 C18.0076364,10.741364 17.3372149,9.16751512 15.9922842,8.25589884 C14.6514412,7.34020116 12.1823278,6.88644419 8.58494407,6.88644419 L6.84348279,6.88644419 L6.84348279,18.5370593 Z M6.41424977,24.1048256 L6.41424977,42.8684547 L0.0452448837,42.8684547 L0.0452448837,1.05705 L10.3264043,1.05705 C13.3719164,1.05705 15.6121053,1.22464884 17.0510588,1.55986744 C18.4900123,1.89098372 19.7409213,2.43876977 20.8078723,3.19912326 C22.1200995,4.17205465 23.1461717,5.48019419 23.8901766,7.12763372 C24.6341805,8.77507326 25.0020952,10.5901116 25.0020952,12.5686779 C25.0020952,14.5472337 24.6341805,16.3786291 23.8901766,18.0505988 C23.1461717,19.72665 22.1200995,21.0388814 20.8078723,21.991364 C19.7409213,22.7558093 18.4900123,23.2954221 17.0510588,23.6183651 C15.6121053,23.9454 13.3719164,24.1048256 10.3264043,24.1048256 L6.41424977,24.1048256 Z" id="path3690" fill-rule="nonzero"></path>
                <path d="M65.1987701,22.0485977 C65.1987701,19.935136 64.8145036,17.9279581 64.0459716,16.0229826 C63.273352,14.118007 62.165521,12.4255988 60.7183922,10.9416767 C59.3080545,9.47411163 57.6769678,8.34583605 55.8210443,7.55686047 C53.9651219,6.76789535 52.0070002,6.37136163 49.9507681,6.37136163 C47.8945371,6.37136163 45.9405031,6.76380349 44.080492,7.54051395 C42.2286572,8.32130581 40.5730434,9.45366279 39.1259135,10.9416767 C37.6787847,12.4051605 36.5750414,14.0934767 35.8146858,15.9943605 C35.0543292,17.8993465 34.6741514,19.9187791 34.6741514,22.0485977 C34.6741514,24.1620593 35.0543292,26.161064 35.8146858,28.0456012 C36.5750414,29.9301384 37.6787847,31.6184547 39.1259135,33.1023767 C40.5730434,34.5862988 42.2204819,35.7186558 44.068229,36.4994477 C45.915976,37.28025 47.8740966,37.6686 49.9507681,37.6686 C51.9865608,37.6686 53.924242,37.28025 55.7638137,36.4994477 C57.5992967,35.7186558 59.2508229,34.5862988 60.7183922,33.1023767 C62.165521,31.6184547 63.273352,29.9260465 64.0459716,28.033336 C64.8145036,26.1365337 65.1987701,24.1457128 65.1987701,22.0485977 M72.283163,22.0485977 C72.283163,25.0205233 71.7272037,27.8289419 70.6111974,30.4738326 C69.4992788,33.1187337 67.8763685,35.4815581 65.7424653,37.5582244 C63.5922115,39.6308093 61.163977,41.2210151 58.4618515,42.3247605 C55.759726,43.4285058 52.9226979,43.9803733 49.9507681,43.9803733 C46.9420472,43.9803733 44.0723166,43.424414 41.3415753,42.3124953 C38.6108341,41.1964953 36.1948636,39.6103709 34.1018403,37.5582244 C31.9679383,35.4815581 30.3491156,33.1309884 29.2453723,30.5024547 C28.1416301,27.8739105 27.5897585,25.0573186 27.5897585,22.0485977 C27.5897585,19.0603151 28.1416301,16.2437337 29.2453723,13.5947512 C30.3491156,10.94985 31.9679383,8.57885233 34.1018403,6.48582907 C36.2316548,4.40915233 38.6517129,2.83121163 41.3538394,1.74382326 C44.0600526,0.660516279 46.9216078,0.116822093 49.9507681,0.116822093 C52.9594891,0.116822093 55.8087813,0.660516279 58.5027303,1.74382326 C61.1966805,2.83121163 63.6126509,4.40915233 65.7424653,6.48582907 C67.8763685,8.5992907 69.4992788,10.9825535 70.6111974,13.6397093 C71.7272037,16.2927837 72.283163,19.0971105 72.283163,22.0485977" id="path3692" fill-rule="nonzero"></path>
                <polygon id="path3694" points="78.3251351 42.8684547 78.3251351 1.0611314 85.1192874 1.0611314 85.1192874 36.7856058 100.314144 36.7856058 100.314144 42.8684547"></polygon>
                <polygon id="path3696" points="104.185421 1.0611314 110.983655 1.0611314 110.983655 42.8684547 104.185421 42.8684547"></polygon>
                <polygon id="path3698" points="132.50255 6.82921047 132.50255 42.8684547 125.704306 42.8684547 125.704306 6.82921047 114.597385 6.82921047 114.597385 1.0611314 143.556329 1.0611314 143.556329 6.82921047"></polygon>
                <polygon id="path3700" points="147.112836 1.0611314 153.906978 1.0611314 153.906978 42.8684547 147.112836 42.8684547"></polygon>
                <path d="M195.477204,11.2278349 C193.55179,9.5885686 191.520082,8.36219302 189.377998,7.54051395 C187.235925,6.72292674 184.983476,6.31412791 182.624733,6.31412791 C178.054418,6.31412791 174.338485,7.78170349 171.472843,10.7127523 C168.607201,13.6438012 167.176421,17.4414977 167.176421,22.1058314 C167.176421,26.6189128 168.570406,30.3389372 171.358376,33.2740674 C174.146356,36.2051163 177.666068,37.6686 181.909348,37.6686 C184.386629,37.6686 186.74128,37.2311895 188.977383,36.3563791 C191.213485,35.4815581 193.363742,34.1570616 195.41997,32.3869919 L195.41997,40.0682198 C193.592667,41.3804512 191.601835,42.3656372 189.451589,43.0115337 C187.29724,43.6574302 184.967119,43.9803733 182.453042,43.9803733 C179.256273,43.9803733 176.296603,43.4571174 173.586305,42.4106058 C170.871915,41.3640942 168.488653,39.8229488 166.432414,37.7830674 C164.396625,35.7840628 162.826857,33.4294116 161.735377,30.719114 C160.639815,28.0047244 160.092029,25.1145523 160.092029,22.0485977 C160.092029,18.982643 160.639815,16.104736 161.735377,13.4107849 C162.826857,10.7168442 164.412982,8.34992791 166.489648,6.31412791 C168.566325,4.2579 170.945496,2.70039767 173.627182,1.64571279 C176.31296,0.586936047 179.215397,0.0595883721 182.338575,0.0595883721 C184.795428,0.0595883721 187.137814,0.415245349 189.365743,1.13063023 C191.593662,1.84601512 193.752092,2.92523023 195.849207,4.37236744 L195.477204,11.2278349 Z" id="path3702"></path>
                <path d="M237.930423,22.0485977 C237.930423,19.935136 237.542063,17.9279581 236.773536,16.0229826 C236.000918,14.118007 234.89308,12.4255988 233.445954,10.9416767 C232.035612,9.47411163 230.404529,8.34583605 228.548604,7.55686047 C226.692678,6.76789535 224.734561,6.37136163 222.678333,6.37136163 C220.622094,6.37136163 218.668069,6.76380349 216.808051,7.54051395 C214.956218,8.32130581 213.300605,9.45366279 211.853478,10.9416767 C210.410433,12.4051605 209.302606,14.0934767 208.542242,15.9943605 C207.781889,17.8993465 207.401712,19.9187791 207.401712,22.0485977 C207.401712,24.1620593 207.781889,26.161064 208.542242,28.0456012 C209.302606,29.9301384 210.410433,31.6184547 211.853478,33.1023767 C213.300605,34.5862988 214.948044,35.7186558 216.795786,36.4994477 C218.643539,37.28025 220.601656,37.6686 222.678333,37.6686 C224.714122,37.6686 226.651801,37.28025 228.49137,36.4994477 C230.326857,35.7186558 231.978389,34.5862988 233.445954,33.1023767 C234.89308,31.6184547 236.000918,29.9260465 236.773536,28.033336 C237.542063,26.1365337 237.930423,24.1457128 237.930423,22.0485977 M245.010723,22.0485977 C245.010723,25.0205233 244.454764,27.8289419 243.338754,30.4738326 C242.226835,33.1187337 240.603926,35.4815581 238.470026,37.5582244 C236.319769,39.6308093 233.891537,41.2210151 231.189413,42.3247605 C228.487289,43.4285058 225.650258,43.9803733 222.678333,43.9803733 C219.669612,43.9803733 216.799878,43.424414 214.069132,42.3124953 C211.334304,41.1964953 208.922429,39.6103709 206.829406,37.5582244 C204.695496,35.4815581 203.076678,33.1309884 201.972933,30.5024547 C200.869187,27.8739105 200.31732,25.0573186 200.31732,22.0485977 C200.31732,19.0603151 200.869187,16.2437337 201.972933,13.5947512 C203.076678,10.94985 204.695496,8.57885233 206.829406,6.48582907 C208.959214,4.40915233 211.379272,2.83121163 214.081397,1.74382326 C216.787613,0.660516279 219.653255,0.116822093 222.678333,0.116822093 C225.687054,0.116822093 228.536339,0.660516279 231.23029,1.74382326 C233.924241,2.83121163 236.340207,4.40915233 238.470026,6.48582907 C240.603926,8.5992907 242.226835,10.9825535 243.338754,13.6397093 C244.454764,16.2927837 245.010723,19.0971105 245.010723,22.0485977" id="path3704" fill-rule="nonzero"></path>
            </g>
        </g>
    </g>
</svg>