<?xml version="1.0" encoding="UTF-8"?>
<svg width="262px" height="90px" viewBox="0 0 262 90" version="1.1" xmlns="http://www.w3.org/2000/svg" xmlns:xlink="http://www.w3.org/1999/xlink">
    <!-- Generator: Sketch 52.5 (67469) - http://www.bohemiancoding.com/sketch -->
    <title>technically</title>
    <desc>Created with Sketch.</desc>
    <g id="Page-1" stroke="none" stroke-width="1" fill="none" fill-rule="evenodd">
        <g id="Desktop-HD-Copy-7" transform="translate(-146.000000, -326.000000)" fill="#7E7E7E">
            <g id="technically" transform="translate(146.000000, 326.000000)">
                <path d="M87.1680689,79.1632785 C85.5275878,79.1632785 84.031855,79.1632785 82.3672492,79.1632785 C82.3672492,78.7484782 82.3672492,78.3580778 82.3672492,77.9676775 C82.3672492,68.5736689 82.3672492,59.1796604 82.3431245,49.7856519 C82.3431245,48.9072511 82.2466256,48.0288503 82.0536278,47.1992495 C81.6676322,45.4424479 80.7991422,44.8080474 79.0380375,44.7104473 C78.5796678,44.6860472 78.1212981,44.6616472 77.6146789,44.6372472 C77.6146789,44.2956469 77.6146789,44.0028466 77.6146789,43.7832464 C79.954777,43.7832464 82.2707503,43.7100464 84.5625989,43.8320465 C85.6723361,43.8808465 86.4443272,44.7104473 86.7096992,45.8328483 C86.9509464,46.8820492 87.0956947,47.9556502 87.1439442,49.0048512 C87.2163183,51.2252532 87.1680689,53.4456552 87.1680689,55.8856574 C87.5540645,55.6172572 87.7953117,55.446457 88.0606836,55.2512568 C91.3416458,52.9088547 94.9121047,52.7136545 98.5066883,54.0800558 C101.715276,55.3000569 103.018011,58.1548595 103.090386,61.4000624 C103.259259,67.0852676 103.16276,72.7704727 103.211009,78.4800779 C103.211009,79.1144785 102.969762,79.2852787 102.366644,79.2608786 C101.37753,79.2364786 100.364292,79.2120786 99.3751783,79.2608786 C98.5790625,79.3096787 98.36194,79.0168784 98.36194,78.2360777 C98.3860647,73.3804733 98.4101895,68.5492689 98.36194,63.6936645 C98.3378153,62.4248633 98.2654411,61.1072622 97.927695,59.9116611 C96.7697083,55.9344575 92.6443808,54.5192562 89.2186703,56.8616583 C89.1462961,56.9104583 89.0497972,56.9836584 88.9774231,57.0324585 C87.6505633,57.8376592 87.07157,58.8868601 87.0956947,60.5704617 C87.2163183,66.402067 87.1439442,72.2092722 87.1439442,78.0408775 C87.1680689,78.3824778 87.1680689,78.7240781 87.1680689,79.1632785 Z" id="Path"></path>
                <path d="M107.34601,53.5442624 C109.425103,53.5442624 111.407494,53.4700269 113.414061,53.5690076 C114.840416,53.6432431 116.049191,54.2866175 116.605227,55.4496404 C118.297513,54.6825402 119.86892,53.7422237 121.53703,53.2225752 C123.616123,52.5792008 125.816094,52.8019073 127.846836,53.5442624 C131.038003,54.7072853 132.657762,57.3302733 132.802815,60.5966356 C133.020394,66.659202 132.899517,72.7465136 132.923692,78.8338252 C132.923692,78.9328059 132.851166,79.0317866 132.778639,79.2297479 C131.424811,79.2297479 130.022632,79.2297479 128.644628,79.2297479 C127.919363,79.2297479 128.136942,78.6358639 128.136942,78.2399412 C128.136942,73.092946 128.185293,67.9212057 128.088591,62.7742105 C128.064416,61.3389907 127.798485,59.8295353 127.218273,58.5180414 C125.912796,55.5733663 122.455699,54.5588143 119.651341,56.0930148 C119.554639,56.1425051 119.482112,56.1919955 119.38541,56.2414858 C117.644774,57.2065474 116.774456,58.4438059 116.846982,60.6956163 C117.040386,66.4859858 116.895333,72.3011006 116.943684,78.1162153 C116.943684,79.0317866 116.677754,79.3287286 115.807436,79.2544931 C114.937118,79.1802576 114.0668,79.1802576 113.196481,79.2544931 C112.326163,79.3287286 112.060233,79.0565318 112.060233,78.1162153 C112.108584,72.1773747 112.084408,66.2385342 112.084408,60.2749484 C112.084408,59.483103 112.060233,58.6912576 111.939355,57.9241573 C111.480021,55.2764242 110.778931,54.6825402 108.143801,54.5340692 C107.321834,54.5340692 107.321834,54.5340692 107.34601,53.5442624 Z" id="Path"></path>
                <path d="M179.069579,59.583693 C178.47148,56.4224852 179.667678,54.3798586 182.732936,53.5773981 C185.823114,52.7506207 188.988055,52.5804018 192.128075,53.2855943 C195.41762,54.0394208 196.98763,56.3981682 197.685412,59.3648401 C198.009383,60.7022742 198.133987,62.0883422 198.133987,63.4500933 C198.183828,68.143271 198.158907,72.8364488 198.158907,77.5539435 C198.158907,77.9186983 198.158907,78.259136 198.158907,78.8670606 C197.087313,78.7211587 196.04064,78.8427436 195.293016,78.4293549 C194.520471,77.9916492 194.071897,77.0432869 193.423957,76.2651434 C193.000303,76.6055812 192.676333,76.873068 192.352362,77.1405548 C189.46155,79.4506682 184.601995,79.9613248 181.362292,78.259136 C178.621005,76.824434 177.474648,74.4900036 177.52449,71.5233317 C177.574331,68.7025617 179.194183,66.9274219 181.661342,65.7845237 C184.302946,64.5686745 187.143916,64.3255047 190.009808,64.2039198 C191.03156,64.1796028 192.053313,64.2039198 193.199669,64.2039198 C193.274432,61.5533686 193.075065,59.0973533 191.679501,56.9088248 C191.405372,56.4954361 191.006639,56.1306814 190.582986,55.8388776 C187.542649,53.796251 182.807698,55.3525379 181.661342,58.7325986 C181.586579,58.9757684 181.486896,59.2432552 181.412134,59.559376 C180.614668,59.583693 179.842124,59.583693 179.069579,59.583693 Z M193.22459,66.3438143 C190.483303,66.2465464 187.916461,66.3438143 185.573906,67.5839804 C184.228183,68.2891729 183.131668,69.2861692 182.907381,70.8424562 C182.608332,72.7634978 183.007064,74.5629546 184.701678,75.8031207 C186.371372,77.0189699 188.290273,77.1648718 190.184253,76.4110453 C191.604739,75.8517547 192.975382,74.8061244 193.149828,73.2984715 C193.423957,71.036992 193.22459,68.7268786 193.22459,66.3438143 Z" id="Shape" fill-rule="nonzero"></path>
                <path d="M218.807339,29.7247706 C219.837406,30.3895891 220.72032,30.931293 221.603234,31.4976198 C223.687892,32.8272566 225.77255,34.1568935 227.881733,35.4372845 C228.519393,35.831251 228.715596,36.2744633 228.715596,36.9885276 C228.666546,49.5708319 228.64202,62.1531362 228.617495,74.7354406 C228.617495,75.8927171 228.617495,77.0499936 228.617495,78.2072701 C228.617495,78.5273679 228.592969,78.8720886 228.568444,79.266055 C226.876192,79.266055 225.232991,79.266055 223.467163,79.266055 C223.467163,78.7982199 223.467163,78.3796305 223.467163,77.9364182 C223.467163,65.3294909 223.467163,52.6979408 223.491689,40.0910136 C223.491689,39.3277035 223.295486,38.8352454 222.6333,38.4412789 C221.529658,37.8010834 220.475066,37.0623963 219.395949,36.3237091 C219.17522,36.1759717 218.880916,35.9051197 218.85639,35.6588907 C218.807339,33.762927 218.807339,31.8423405 218.807339,29.7247706 Z" id="Path"></path>
                <path d="M211.680213,79.2599062 C210.033956,79.2599062 208.510554,79.2845016 207.011722,79.2353108 C206.839725,79.2353108 206.643157,78.940166 206.544873,78.7434028 C206.47116,78.6204258 206.520302,78.4236626 206.520302,78.2514948 C206.520302,77.6858006 206.520302,77.095511 206.520302,76.5298168 C206.495731,63.3712778 206.47116,50.1881434 206.422018,37.0296044 C206.422018,36.267147 206.618586,35.7998344 207.282003,35.406308 C210.255095,33.5862484 213.179044,31.6924026 216.324132,29.7247706 C216.324132,31.839975 216.348703,33.7830116 216.299561,35.7260482 C216.299561,35.9474068 215.980138,36.1933608 215.734428,36.3655286 C214.677875,37.1033906 213.621322,37.8412526 212.491056,38.480733 C211.85221,38.849664 211.655642,39.2923812 211.655642,40.0302432 C211.680213,51.0981732 211.680213,62.1661032 211.680213,73.2340332 C211.680213,75.127879 211.680213,77.095511 211.680213,79.2599062 Z" id="Path"></path>
                <path d="M49.497922,66.8729236 C44.0586525,66.8729236 38.7169483,66.8729236 33.3752441,66.8729236 C32.9118086,71.111289 35.0582468,76.0560488 38.8145137,76.8598767 C42.1317363,77.566271 44.9123495,76.5675756 47.1075704,73.9612245 C47.2539184,73.7907155 47.4002665,73.5958481 47.5466146,73.4253392 C47.6929626,73.2548302 47.8393107,73.0599628 48.0588328,72.8163786 C48.4003116,73.0599628 48.717399,73.2791886 49.1076605,73.5714897 C47.4978319,76.3727083 45.302611,78.3213821 42.0829537,78.9790595 C35.0582468,80.4162064 29.3262811,76.3483498 28.326236,69.1869737 C27.7408438,65.0216835 28.0579313,60.9781854 30.4970656,57.3731389 C32.7410692,54.0603934 35.9119438,52.5501712 39.9365154,52.8911891 C40.4975163,52.939906 41.0829086,52.9642644 41.6439095,53.0616981 C46.302656,53.9629597 49.1076605,57.1051962 49.497922,62.0012391 C49.5954874,63.5601781 49.497922,65.1434756 49.497922,66.8729236 Z M44.4733053,64.6319487 C44.4733053,61.9768807 44.3025659,59.4192463 42.8634766,57.1539131 C41.399996,54.8642214 38.3754695,54.2309024 36.3753793,55.9603504 C33.7411142,58.2256836 33.3508528,61.3922785 33.1801134,64.6563071 C37.0339456,64.6319487 40.7170384,64.6319487 44.4733053,64.6319487 Z" id="Shape" fill-rule="nonzero"></path>
                <path d="M12.579278,45.1918151 C10.4067895,45.1918151 8.38076087,45.022006 6.37914226,45.240332 C2.88851467,45.6042087 1.52155561,47.0839738 1.08217592,50.5771898 C1.05776594,50.7712573 1.00894597,50.9653249 0.984535986,51.2321678 C0.691616189,51.2564262 0.398696391,51.2806847 0.15459656,51.3049431 C0.0813666104,51.2079093 0.0325466442,51.135134 0.0325466442,51.0866171 C0.0325466442,49.5825936 -0.0406833052,48.07857 0.0325466442,46.5745465 C0.105776594,44.6581294 1.2530458,43.4209487 3.18143447,43.0813305 C3.74286408,42.9842967 4.32870367,42.9357798 4.89013329,42.9357798 C12.579278,42.9357798 20.2440127,42.9357798 27.9331574,42.9357798 C29.885956,42.9357798 29.885956,42.9357798 29.5686262,45.0947814 C25.6386189,45.0947814 21.6842017,45.0947814 17.6077345,45.0947814 C17.5833245,45.5799502 17.5589145,45.9680854 17.5589145,46.3562205 C17.5589145,56.6418009 17.5345045,66.9031228 17.5833245,77.1887032 C17.5833245,78.1347825 17.3636347,78.5229177 16.3628254,78.4258839 C15.459656,78.3531085 14.5320766,78.3531085 13.6289072,78.4258839 C12.8477878,78.4744008 12.6525079,78.1832994 12.6769179,77.4555461 C12.7013279,73.5984535 12.6769179,69.7656192 12.6769179,65.9085266 C12.6769179,59.3830051 12.6769179,52.8574835 12.6769179,46.331962 C12.6280979,45.9195685 12.603688,45.5556918 12.579278,45.1918151 Z" id="Path"></path>
                <path d="M241.442686,89.935464 C241.442686,89.4153058 241.442686,88.9446864 241.442686,88.4492976 C241.587862,88.3997587 241.708842,88.3502198 241.829822,88.3502198 C244.951104,88.300681 246.935175,86.616359 248.120778,83.7926428 C248.628894,82.5789402 249.088618,81.3156987 249.49995,80.0524572 C249.596734,79.7304545 249.548342,79.309374 249.427362,78.9873713 C246.644823,72.002389 243.838089,65.0174068 241.05555,58.0324246 C240.184494,55.8774832 238.587559,54.5894723 236.40992,54.0693141 C236.046981,53.9950057 235.708237,53.895928 235.321101,53.7968502 C235.321101,53.4748475 235.321101,53.1776142 235.321101,52.9299198 C237.474544,52.9299198 239.579595,52.7069948 241.636254,52.9794587 C243.983264,53.276692 245.386632,55.0600917 246.281883,57.215033 C248.16917,61.8964573 250.032261,66.5531121 251.919548,71.2345364 C252.016332,71.4574614 252.113116,71.6556169 252.306684,72.1262363 C252.500252,71.6308474 252.645428,71.3088447 252.766408,70.986842 C254.702087,65.4880262 256.686158,60.0139798 258.573445,54.515164 C258.912189,53.5243864 259.371912,53.053767 260.41234,53.2271531 C260.799476,53.3014614 261.210808,53.2271531 261.743119,53.2271531 C261.041436,55.2087083 260.388144,57.0911858 259.710656,58.9488939 C256.782942,67.1475787 253.855227,75.371033 250.903317,83.5697178 C250.782337,83.91649 250.637161,84.2632621 250.467789,84.6100343 C248.556306,88.9446864 246.209295,90.3317751 241.442686,89.935464 Z" id="Path"></path>
                <path d="M75.9175891,61.480443 C74.996393,61.8719036 74.8470099,61.3581116 74.7723183,60.7219881 C74.1249913,55.1926069 68.2492542,53.92036 64.713853,55.5106687 C62.3237226,56.5871854 61.0539658,58.6178873 60.4066389,61.0400498 C59.4854428,64.6121279 59.4605456,68.2086722 60.6556108,71.7073514 C62.5975917,77.359064 69.4194222,78.973839 73.826225,74.8635026 C74.4984492,74.2518454 75.0710846,73.5178568 75.7433088,72.8083344 C76.0669723,73.028531 76.3906358,73.2487276 76.7889908,73.542323 C75.2204678,76.258081 73.1042065,78.1909178 69.9920576,78.8515076 C65.36118,79.8056928 61.078863,79.2674345 57.692845,75.5974912 C55.7010697,73.4444579 54.8794624,70.7531662 54.6055933,67.9150768 C54.2819298,64.6610605 54.6304905,61.5049093 56.1990135,58.5689547 C58.0165085,55.1436744 60.9543771,53.1374387 64.8881333,52.8927759 C67.2533665,52.7459781 69.6932913,52.9417084 72.0336273,53.333169 C74.5731408,53.7490959 75.768206,55.363871 75.8926919,57.8838986 C75.9673835,59.0827468 75.9175891,60.3060612 75.9175891,61.480443 Z" id="Path"></path>
                <path d="M173.274176,61.6342529 C172.726487,61.8051411 172.278378,61.8051411 172.203693,61.0483506 C171.830269,57.1667475 169.091825,55.31139 165.880377,55.0184388 C162.395085,54.6766625 159.457482,56.5076073 158.18784,60.0230215 C156.719038,64.0999254 156.694143,68.250067 158.287419,72.2781457 C160.378595,77.5512669 166.876175,78.8451346 171.207895,74.9391189 C171.880059,74.328804 172.452642,73.6208386 173.174596,72.8396355 C173.49823,73.0593489 173.846759,73.3034749 174.220183,73.5720134 C172.452642,76.6480008 169.913358,78.6010087 166.378276,79.0892606 C162.121241,79.6507504 158.212734,78.9671976 155.175551,75.6959095 C153.781434,74.1823284 152.935006,72.4002087 152.462002,70.4472009 C151.740049,67.4932765 151.740049,64.4905269 152.511792,61.5366025 C153.955699,56.0193554 157.963785,52.9189554 163.988361,52.8457176 C165.780797,52.821305 167.623023,53.065431 169.390564,53.4072074 C171.805374,53.8710467 173.025226,55.2381522 173.274176,57.6061742 C173.373755,58.9244545 173.274176,60.29156 173.274176,61.6342529 Z" id="Path"></path>
                <path d="M136.238532,54.6835585 C136.263427,54.315635 136.288322,54.0458244 136.288322,53.8250703 C136.412798,53.7760138 136.462588,53.7024291 136.512378,53.7024291 C138.329722,53.7024291 140.147066,53.6288444 141.964409,53.7024291 C144.702872,53.800542 145.848048,54.9043127 146.047209,57.6514751 C146.096999,58.3873222 146.121894,59.1476976 146.121894,59.8835447 C146.121894,65.9665473 146.121894,72.0740782 146.146789,78.1570808 C146.146789,78.9910408 145.947628,79.3099079 145.051404,79.2608514 C144.105389,79.1872667 143.13448,79.1872667 142.16357,79.2608514 C141.342031,79.3099079 141.117975,79.0155691 141.14287,78.2306655 C141.167765,72.1721911 141.167765,66.1137167 141.14287,60.0552423 C141.14287,59.1231693 141.04329,58.1665681 140.844129,57.2344951 C140.470702,55.6401598 139.723849,55.0514821 138.055876,54.8552562 C137.508183,54.7816715 136.935595,54.732615 136.238532,54.6835585 Z" id="Path"></path>
                <path d="M218.807339,20.6422018 C219.824177,21.2848105 220.699131,21.8322179 221.574084,22.4034256 C222.945633,23.2840375 224.340829,24.1408491 225.68873,25.0690616 C225.925204,25.2356639 226.185325,25.616469 226.208973,25.8782725 C226.256268,27.6394963 226.23262,29.4245204 226.23262,31.3761468 C225.68873,31.0429423 225.263077,30.7811388 224.837424,30.4955349 C223.06387,29.3769198 221.313963,28.2345044 219.540409,27.1634899 C219.043813,26.8540857 218.807339,26.5446815 218.830987,25.9258732 C218.830987,24.21225 218.807339,22.5224272 218.807339,20.6422018 Z" id="Path"></path>
                <path d="M208.079232,31.3761468 C208.079232,29.3813429 208.055883,27.6240156 208.10258,25.8429407 C208.10258,25.605464 208.266022,25.2729967 208.47616,25.1305107 C210.717638,23.6581554 212.982465,22.2095478 215.434081,20.6422018 C215.434081,21.9958188 215.317338,23.1832021 215.45743,24.3468377 C215.690917,26.104165 215.060502,27.1490623 213.496137,27.9564829 C211.651587,28.9063895 209.993827,30.1412682 208.079232,31.3761468 Z" id="Path"></path>
                <path d="M214.678899,79.266055 C214.678899,77.2956631 214.678899,75.4303586 214.678899,73.4862385 C216.314006,73.4862385 217.949112,73.4862385 219.633028,73.4862385 C219.633028,75.4040867 219.633028,77.2956631 219.633028,79.266055 C217.973517,79.266055 216.387219,79.266055 214.678899,79.266055 Z" id="Path"></path>
                <path d="M218.807339,11.559633 C220.183486,12.455448 221.36649,13.2268443 222.549493,14.048008 C222.742636,14.1724268 222.911637,14.4710318 222.911637,14.6949855 C222.93578,16.5861506 222.93578,18.5021993 222.93578,20.6422018 C221.511347,19.7215031 220.255915,18.9003393 219.048769,18.0542918 C218.903911,17.9547568 218.831482,17.6561518 218.831482,17.4321981 C218.807339,15.5659168 218.807339,13.6996355 218.807339,11.559633 Z" id="Path"></path>
                <path d="M146.146789,47.9589192 C146.146789,49.4519122 145.149446,50.3669725 143.563927,50.3669725 C141.748252,50.3669725 140.341743,48.8258184 140.367316,46.9475369 C140.392889,45.4304633 141.364658,44.5635641 143.001323,44.5876447 C144.714707,44.6117252 146.146789,46.1287988 146.146789,47.9589192 Z" id="Path"></path>
                <path d="M212.208006,20.6422018 C212.208006,18.5154295 212.183322,16.5638032 212.23269,14.6121768 C212.23269,14.3869892 212.454848,14.1117598 212.627638,13.9616347 C213.787798,13.1859883 214.972642,12.4353628 216.330275,11.559633 C216.330275,13.736447 216.330275,15.7631359 216.305591,17.764804 C216.305591,17.8899083 216.157485,18.0650542 216.034064,18.1651376 C214.799852,18.9658048 213.56564,19.7664721 212.208006,20.6422018 Z" id="Path"></path>
                <path d="M216.330275,0 C216.896461,0 217.368283,0 217.981651,0 C217.981651,1.66398207 217.981651,3.32796414 217.981651,4.96673437 C217.981651,6.58029274 217.981651,8.21906296 217.981651,9.90825688 C217.391874,9.90825688 216.896461,9.90825688 216.330275,9.90825688 C216.330275,6.65592829 216.330275,3.37838784 216.330275,0 Z" id="Path"></path>
            </g>
        </g>
    </g>
</svg>