<?xml version="1.0" encoding="UTF-8"?>
<svg width="915px" height="1103px" viewBox="0 0 915 1103" version="1.1" xmlns="http://www.w3.org/2000/svg" xmlns:xlink="http://www.w3.org/1999/xlink">
    <!-- Generator: Sketch 53.2 (72643) - https://sketchapp.com -->
    <title>Group</title>
    <desc>Created with Sketch.</desc>
    <defs>
        <polygon id="path-1" points="0.725537037 0.324111675 202.8985 0.324111675 202.8985 369 0.725537037 369"></polygon>
        <polygon id="path-3" points="0.0982686567 0.766060606 250.764925 0.766060606 250.764925 371 0.0982686567 371"></polygon>
        <polygon id="path-5" points="0.727416667 0.324111675 202.90038 0.324111675 202.90038 369 0.727416667 369"></polygon>
        <polygon id="path-7" points="0.86319403 0.766060606 251.531731 0.766060606 251.531731 371 0.86319403 371"></polygon>
    </defs>
    <g id="Page-1" stroke="none" stroke-width="1" fill="none" fill-rule="evenodd">
        <g id="Desktop-HD-Copy-10" transform="translate(-274.000000, -162.000000)">
            <g id="Group" transform="translate(274.000000, 162.000000)">
                <g id="Loop" transform="translate(32.000000, 0.000000)" fill="#C6CBCF">
                    <g id="Group-6" transform="translate(0.000000, 27.000000)">
                        <path d="M3.88404157,13.2862881 L0.702352691,13.2862881 L0.708064879,0.606615955 L3.8878497,0.67306131 L3.88404157,1.08692095 L3.88404157,13.2862881 Z M3.88404157,37.8106722 L0.702352691,37.8106722 L0.708064879,25.131 L3.8878497,25.1974454 L3.88404157,25.611305 L3.88404157,37.8106722 Z M3.88404157,62.8106722 L0.702352691,62.8106722 L0.708064879,50.131 L3.8878497,50.1974454 L3.88404157,50.611305 L3.88404157,62.8106722 Z M3.88404157,87.8106722 L0.702352691,87.8106722 L0.708064879,75.131 L3.8878497,75.1974454 L3.88404157,75.611305 L3.88404157,87.8106722 Z M0.702352691,112.778399 L3.88404157,112.778399 L3.88404157,100.131 L0.702352691,100.131 L0.702352691,112.778399 Z M0.702352691,136.778399 L3.88404157,136.778399 L3.88404157,124.131 L0.702352691,124.131 L0.702352691,136.778399 Z M0.702352691,161.778399 L3.88404157,161.778399 L3.88404157,149.131 L0.702352691,149.131 L0.702352691,161.778399 Z M0.702352691,186.778399 L3.88404157,186.778399 L3.88404157,174.131 L0.702352691,174.131 L0.702352691,186.778399 Z M0.702352691,211.780297 L3.88404157,211.780297 L3.88404157,199.131 L0.702352691,199.131 L0.702352691,211.780297 Z M0.702352691,235.778399 L3.88404157,235.778399 L3.88404157,223.131 L0.702352691,223.131 L0.702352691,235.778399 Z M0.702352691,260.778399 L3.88404157,260.778399 L3.88404157,248.131 L0.702352691,248.131 L0.702352691,260.778399 Z M0.702352691,285.7765 L3.88404157,285.7765 L3.88404157,273.131 L0.702352691,273.131 L0.702352691,285.7765 Z M0.702352691,310.780297 L3.88404157,310.780297 L3.88404157,298.131 L0.702352691,298.131 L0.702352691,310.780297 Z M0.702352691,335.778399 L3.88404157,335.778399 L3.88404157,323.131 L0.702352691,323.131 L0.702352691,335.778399 Z M0.702352691,359.778399 L3.88404157,359.778399 L3.88404157,347.131 L0.702352691,347.131 L0.702352691,359.778399 Z M0.702352691,384.780297 L3.88404157,384.780297 L3.88404157,372.131 L0.702352691,372.131 L0.702352691,384.780297 Z M10.8986088,408.241099 C7.08477108,405.683902 4.15061036,402.09965 2.41220105,397.869928 L5.35588209,396.668217 C6.85437949,400.313219 9.3848789,403.403877 12.6731953,405.606066 L10.8986088,408.241099 Z M23.7415122,412.131 L36.4244742,412.131 L36.4244742,408.958709 L23.7415122,408.958709 L23.7415122,412.131 Z M49.1093404,412.131 L61.7961106,412.131 L61.7961106,408.958709 L49.1093404,408.958709 L49.1093404,412.131 Z M73.1093404,412.131 L85.7961106,412.131 L85.7961106,408.958709 L73.1093404,408.958709 L73.1093404,412.131 Z M97.1093404,412.131 L109.796111,412.131 L109.796111,408.958709 L97.1093404,408.958709 L97.1093404,412.131 Z" id="Fill-186-Copy"></path>
                    </g>
                    <g id="Group-5" transform="translate(0.702353, 0.000000)">
                        <path d="M39.0397939,3.29335976 L51.5751939,3.29335976 L51.5751939,0.131 L39.0397939,0.131 L39.0397939,3.29335976 Z M64.1105938,3.29335976 L76.6459938,3.29335976 L76.6459938,0.131 L64.1105938,0.131 L64.1105938,3.29335976 Z M89.1813938,3.29335976 L101.716794,3.29335976 L101.716794,0.131 L89.1813938,0.131 L89.1813938,3.29335976 Z M114.254088,3.29335976 L126.789488,3.29335976 L126.789488,0.131 L114.254088,0.131 L114.254088,3.29335976 Z M139.322994,3.29335976 L151.860288,3.29335976 L151.860288,0.131 L139.322994,0.131 L139.322994,3.29335976 Z M164.395688,3.29335976 L176.931088,3.29335976 L176.931088,0.131 L164.395688,0.131 L164.395688,3.29335976 Z M189.466488,3.29335976 L202.001887,3.29335976 L202.001887,0.131 L189.466488,0.131 L189.466488,3.29335976 Z M214.537287,3.29335976 L227.074582,3.29335976 L227.074582,0.131 L214.537287,0.131 L214.537287,3.29335976 Z M239.609981,3.29335976 L252.145381,3.29335976 L252.145381,0.131 L239.609981,0.131 L239.609981,3.29335976 Z M264.680781,3.29335976 L277.216181,3.29335976 L277.216181,0.131 L264.680781,0.131 L264.680781,3.29335976 Z M289.751581,3.29335976 L302.288875,3.29335976 L302.288875,0.131 L289.751581,0.131 L289.751581,3.29335976 Z M314.824275,3.29335976 L327.359675,3.29335976 L327.359675,0.131 L314.824275,0.131 L314.824275,3.29335976 Z M339.895075,3.29335976 L352.430475,3.29335976 L352.430475,0.131 L339.895075,0.131 L339.895075,3.29335976 Z M377.239884,3.55830912 C376.126131,3.38230705 374.983967,3.29335976 373.847484,3.29335976 L364.965875,3.29335976 L364.965875,0.131 L373.847484,0.131 C375.148757,0.131 376.455711,0.23319475 377.730466,0.433799259 L377.239884,3.55830912 Z M15.0240285,5.4848694 L13.6337318,2.64234136 C17.0450728,0.976945431 20.7121225,0.131 24.5363854,0.131 L26.5024999,0.131 L26.5024999,3.29335976 L24.5363854,3.29335976 C21.1989157,3.29335976 17.9978239,4.03143296 15.0240285,5.4848694 Z M394.323107,17.7974443 C393.031306,14.1165408 390.756447,10.8406313 387.742875,8.32550496 L389.77339,5.8974334 C393.222614,8.77970384 395.828947,12.5306297 397.310162,16.7508943 L394.323107,17.7974443 Z M3.86366767,20.0994539 L0.702352691,19.9764417 C0.876613313,15.4893351 2.26880415,11.1365958 4.72171182,7.38756247 L7.37160975,9.11919573 C5.23123472,12.3894277 4.01709278,16.1876659 3.86366767,20.0994539 Z M395.537249,42.1746772 L398.702353,42.1746772 L398.702353,29.6501428 L395.537249,29.6501428 L395.537249,42.1746772 Z M395.537249,67.2256384 L398.702353,67.2256384 L398.702353,54.6992115 L395.537249,54.6992115 L395.537249,67.2256384 Z M398.63227,92.3560844 L395.469061,92.1857598 C395.51452,91.3587394 395.537249,90.5260414 395.537249,89.6895584 L395.537249,79.7501727 L398.702353,79.7501727 L398.702353,89.6895584 C398.702353,90.5828163 398.677729,91.4741816 398.63227,92.3560844 Z M390.686364,116.670865 L388.03836,114.941124 C390.250713,111.553557 392.008472,107.891579 393.260497,104.055491 L396.272175,105.035803 C394.931126,109.136841 393.052141,113.050521 390.686364,116.670865 Z M371.652179,133.769561 L370.214529,130.949743 C373.811496,129.119699 377.162225,126.820318 380.173903,124.115942 L382.291548,126.466421 C379.075303,129.356261 375.49349,131.814613 371.652179,133.769561 Z M321.62044,139.131 L334.15584,139.131 L334.15584,135.96864 L321.62044,135.96864 L321.62044,139.131 Z M349.216124,139.131 L346.691239,139.131 L346.691239,135.96864 L349.216124,135.96864 C352.453205,135.96864 355.686497,135.633669 358.826976,134.971295 L359.47856,138.067418 C356.125937,138.773318 352.672925,139.131 349.216124,139.131 L349.216124,139.131 Z" id="Fill-191-Copy"></path>
                        <path d="M309.702353,139.131 L303.303119,139.131 C302.418485,139.131 301.702353,138.414868 301.702353,137.532149 L301.702353,131.131 L304.90197,131.131 L304.90197,135.931383 L309.702353,135.931383 L309.702353,139.131" id="Fill-192-Copy"></path>
                        <path d="M376.292929,48.2691078 L388.864054,48.2691078 L388.864054,45.131 L376.292929,45.131 L376.292929,48.2691078 Z M401.433279,48.2691078 L414.004404,48.2691078 L414.004404,45.131 L401.433279,45.131 L401.433279,48.2691078 Z M426.573629,48.2691078 L439.142854,48.2691078 L439.142854,45.131 L426.573629,45.131 L426.573629,48.2691078 Z M451.712078,48.2691078 L464.285104,48.2691078 L464.285104,45.131 L451.712078,45.131 L451.712078,48.2691078 Z M476.852428,48.2691078 L489.421653,48.2691078 L489.421653,45.131 L476.852428,45.131 L476.852428,48.2691078 Z M501.992778,48.2691078 L514.563903,48.2691078 L514.563903,45.131 L501.992778,45.131 L501.992778,48.2691078 Z M527.133128,48.2691078 L539.702353,48.2691078 L539.702353,45.131 L527.133128,45.131 L527.133128,48.2691078 Z M351.154479,48.2709858 L351.154479,45.131 L363.723704,45.131 L363.723704,48.2691078 L351.154479,48.2709858 Z M327.97724,54.4927399 L326.377105,51.782812 C330.122788,49.6231328 334.140226,47.9611188 338.319199,46.8399636 L339.149673,49.8672704 C335.242457,50.9170623 331.483472,52.4739093 327.97724,54.4927399 Z M311.035202,71.3363599 L308.281527,69.7720009 C310.438477,66.0648646 313.083829,62.6450595 316.141568,59.6046067 L318.393538,61.8168695 C315.52964,64.6638901 313.053423,67.8658493 311.035202,71.3363599 Z M301.702353,94.289055 L301.702353,94.1932779 C301.702353,89.926503 302.257269,85.6935317 303.353798,81.607043 L306.422938,82.4089413 C305.398625,86.2343905 304.877916,90.1988104 304.877916,94.1932779 L301.702353,94.289055 Z M301.702353,119.131 L304.877916,119.131 L304.877916,106.710028 L301.702353,106.710028 L301.702353,119.131 Z" id="Fill-193-Copy"></path>
                    </g>
                    <g id="Group-4" transform="translate(551.000000, 45.000000)">
                        <path d="M0.702352691,3.29855379 L13.3235474,3.29855379 L13.3235474,0.131 L0.702352691,0.131 L0.702352691,3.29855379 Z M25.9485442,3.29855379 L38.57164,3.29855379 L38.57164,0.131 L25.9485442,0.131 L25.9485442,3.29855379 Z M51.1947358,3.29855379 L63.8197326,3.29855379 L63.8197326,0.131 L51.1947358,0.131 L51.1947358,3.29855379 Z M76.4409273,3.29855379 L89.0640231,3.29855379 L89.0640231,0.131 L76.4409273,0.131 L76.4409273,3.29855379 Z M101.687119,3.29855379 L114.310215,3.29855379 L114.310215,0.131 L101.687119,0.131 L101.687119,3.29855379 Z M126.935211,3.29855379 L139.558307,3.29855379 L139.558307,0.131 L126.935211,0.131 L126.935211,3.29855379 Z M152.181403,3.29855379 L164.804499,3.29855379 L164.804499,0.131 L152.181403,0.131 L152.181403,3.29855379 Z M177.429496,3.29855379 L190.052591,3.29855379 L190.052591,0.131 L177.429496,0.131 L177.429496,3.29855379 Z M202.675687,3.29855379 L215.300684,3.29855379 L215.300684,0.131 L202.675687,0.131 L202.675687,3.29855379 Z M227.919978,3.29855379 L240.544975,3.29855379 L240.544975,0.131 L227.919978,0.131 L227.919978,3.29855379 Z M253.16807,3.29855379 L265.791166,3.29855379 L265.791166,0.131 L253.16807,0.131 L253.16807,3.29855379 Z M289.018423,7.92003563 C285.843638,5.56569582 282.098533,4.04352605 278.191837,3.51275701 L278.617676,0.375532878 C283.056671,0.976439253 287.309362,2.70712544 290.913788,5.37803106 L289.018423,7.92003563 Z M301.702353,28.5764292 L298.525667,28.5764292 L298.525667,26.7661277 C298.525667,23.3521454 297.807063,20.0594818 296.386965,16.9810213 L299.274688,15.6597856 C300.884893,19.1552788 301.702353,22.8934093 301.702353,26.7661277 L301.702353,28.5764292 Z M298.525667,53.7500464 L301.702353,53.7500464 L301.702353,41.1632378 L298.525667,41.1632378 L298.525667,53.7500464 Z M298.525667,78.9255592 L301.702353,78.9255592 L301.702353,66.3387506 L298.525667,66.3387506 L298.525667,78.9255592 Z M298.525667,104.097281 L301.702353,104.097281 L301.702353,91.5104722 L298.525667,91.5104722 L298.525667,104.097281 Z M298.525667,129.272794 L301.702353,129.272794 L301.702353,116.685985 L298.525667,116.685985 L298.525667,129.272794 Z M298.525667,154.446411 L301.702353,154.446411 L301.702353,141.859602 L298.525667,141.859602 L298.525667,154.446411 Z M298.525667,179.620028 L301.702353,179.620028 L301.702353,167.033219 L298.525667,167.033219 L298.525667,179.620028 Z M298.525667,204.795541 L301.702353,204.795541 L301.702353,192.206837 L298.525667,192.206837 L298.525667,204.795541 Z M298.525667,229.969158 L301.702353,229.969158 L301.702353,217.38235 L298.525667,217.38235 L298.525667,229.969158 Z M298.525667,255.144671 L301.702353,255.144671 L301.702353,242.555967 L298.525667,242.555967 L298.525667,255.144671 Z M197.128369,255.468819 L200.305055,255.468819 L200.305055,242.882011 L197.128369,242.882011 L197.128369,255.468819 Z M202.337297,280.557134 C200.211902,276.722328 198.71386,272.603181 197.883093,268.307743 L201.004648,267.710628 C201.768877,271.676231 203.152855,275.482603 205.116659,279.023591 L202.337297,280.557134 Z M301.213778,280.587464 L298.094124,279.986558 C298.381186,278.515569 298.525667,277.002877 298.525667,275.495872 L298.525667,267.729584 L301.702353,267.729584 L301.702353,275.495872 C301.702353,277.203811 301.53696,278.919333 301.213778,280.587464 Z M221.161679,298.15971 C217.201753,296.298227 213.565008,293.832047 210.357906,290.833202 L212.532728,288.522461 C215.498395,291.295729 218.857583,293.574245 222.51524,295.295453 L221.161679,298.15971 Z M284.748623,300.296056 L283.58707,297.346496 C287.254231,295.911524 290.535475,293.549602 293.073402,290.516636 L295.510572,292.546828 C292.632354,295.987348 288.911963,298.667732 284.748623,300.296056 Z M246.516231,302.131 L239.003208,302.131 C237.235214,302.131 235.452012,302.017264 233.710633,301.799269 L234.107956,298.656358 C235.720062,298.859188 237.366388,298.961551 239.003208,298.961551 L246.516231,298.961551 L246.516231,302.131 Z M259.139327,302.131 L271.764324,302.131 L271.764324,298.961551 L259.139327,298.961551 L259.139327,302.131 Z" id="Fill-195-Copy"></path>
                        <path d="M199.90197,230.131 L196.702353,230.131 L196.702353,223.730234 C196.702353,222.847304 197.418485,222.131 198.303119,222.131 L204.702353,222.131 L204.702353,225.331383 L199.90197,225.331383 L199.90197,230.131" id="Fill-196-Copy"></path>
                        <path d="M217.904786,224.317401 L230.994239,224.317401 L230.994239,221.131 L217.904786,221.131 L217.904786,224.317401 Z M255.34288,229.696716 C251.714898,227.561007 247.792082,226.037408 243.68356,225.165963 L244.349807,222.050117 C248.797196,222.992117 253.043562,224.643477 256.970207,226.954619 L255.34288,229.696716 Z M271.545313,248.275471 C269.939046,244.414034 267.722052,240.850071 264.955596,237.680832 L267.371698,235.590889 C270.362151,239.019464 272.762937,242.877087 274.49939,247.055066 L271.545313,248.275471 Z M277.702353,273.329999 L274.503219,273.329999 L274.503219,263.133899 C274.501305,262.220502 274.470673,261.309012 274.40558,260.407057 L277.59897,260.185859 C277.665977,261.160276 277.702353,262.14232 277.702353,263.130085 L277.702353,273.329999 Z M274.503219,299.404709 L277.702353,299.404709 L277.702353,286.367354 L274.503219,286.367354 L274.503219,299.404709 Z M274.503219,325.477512 L277.702353,325.477512 L277.702353,312.440157 L274.503219,312.440157 L274.503219,325.477512 Z M274.503219,351.550316 L277.702353,351.550316 L277.702353,338.512961 L274.503219,338.512961 L274.503219,351.550316 Z M275.500675,377.973985 L272.561914,376.705909 C273.850374,373.74452 274.503219,370.59435 274.503219,367.339302 L274.503219,364.587671 L277.702353,364.587671 L277.702353,367.339302 C277.702353,371.031026 276.96144,374.608338 275.500675,377.973985 Z M254.249699,393.915522 L253.84191,390.755818 C257.906398,390.235239 261.787095,388.660154 265.062808,386.196462 L266.990712,388.738337 C263.270834,391.53764 258.865564,393.326296 254.249699,393.915522 Z M201.702353,394.131 L214.791805,394.131 L214.791805,390.944599 L201.702353,390.944599 L201.702353,394.131 Z M227.879343,394.131 L240.966881,394.131 L240.966881,390.944599 L227.879343,390.944599 L227.879343,394.131 Z" id="Fill-197-Copy"></path>
                        <polygon id="Fill-198-Copy" points="181.702353 394.131 187.702353 394.131 187.702353 391.131 181.702353 391.131"></polygon>
                    </g>
                </g>
                <g id="Table-Copy" transform="translate(0.000000, 668.000000)">
                    <polygon id="Fill-13" fill="#31363B" points="656 320 828 320 828 294 656 294"></polygon>
                    <polyline id="Fill-14" fill="#21252B" points="778 377 755.613089 377 727 303 749.386911 303 778 377"></polyline>
                    <g id="Group-20" transform="translate(651.000000, 66.000000)">
                        <mask id="mask-2" fill="white">
                            <use xlink:href="#path-1"></use>
                        </mask>
                        <g id="Clip-17"></g>
                        <polyline id="Fill-16" fill="#21252B" mask="url(#mask-2)" points="202.8985 324.087259 194.42513 326.720457 93.6863796 2.95730964 102.163509 0.324111675 202.8985 324.087259"></polyline>
                        <polyline id="Fill-18" fill="#31363B" mask="url(#mask-2)" points="5.43025 397.890051 14.0521111 400.004873 107.480981 19.8007614 98.8628796 17.6878173 5.43025 397.890051"></polyline>
                        <polyline id="Fill-19" fill="#21252B" mask="url(#mask-2)" points="94.1600463 16.5327411 98.8628796 17.6878173 5.43025 397.890051 0.725537037 396.734975 94.1600463 16.5327411"></polyline>
                    </g>
                    <polyline id="Fill-15" fill="#31363B" points="850 393 681 393 681 363 842.722074 363 850 393"></polyline>
                    <g id="Group-25" transform="translate(622.000000, 64.000000)">
                        <mask id="mask-4" fill="white">
                            <use xlink:href="#path-3"></use>
                        </mask>
                        <g id="Clip-23"></g>
                        <polyline id="Fill-22" fill="#21252B" mask="url(#mask-4)" points="100.886985 0.766060606 105.513254 2.20333333 4.72453731 326.072545 0.0982686567 324.635273 100.886985 0.766060606"></polyline>
                        <polyline id="Fill-24" fill="#31363B" mask="url(#mask-4)" points="250.764925 399.899515 242.138627 402.01503 148.65791 21.6863636 157.284209 19.5727273 250.764925 399.899515"></polyline>
                    </g>
                    <polyline id="Fill-21" fill="#31363B" points="626 390.361932 634.462395 393 735 68.6380679 726.539481 66 626 390.361932"></polyline>
                    <polyline id="Fill-26" fill="#21252B" points="727 59 762.315858 111 780 111 780 65.5009463 727 59"></polyline>
                    <polygon id="Fill-27" fill="#31363B" points="755 92 794 92 794 80 755 80"></polygon>
                    <polygon id="Fill-28" fill="#31363B" points="73 320 245 320 245 294 73 294"></polygon>
                    <polyline id="Fill-29" fill="#21252B" points="123 377 145.387733 377 174 303 151.612267 303 123 377"></polyline>
                    <g id="Group-35" transform="translate(47.000000, 66.000000)">
                        <mask id="mask-6" fill="white">
                            <use xlink:href="#path-5"></use>
                        </mask>
                        <g id="Clip-32"></g>
                        <polyline id="Fill-31" fill="#21252B" mask="url(#mask-6)" points="0.727416667 324.087259 9.2045463 326.720457 109.939537 2.95730964 101.462407 0.324111675 0.727416667 324.087259"></polyline>
                        <polyline id="Fill-33" fill="#31363B" mask="url(#mask-6)" points="198.199426 397.890051 189.577565 400.004873 96.1430556 19.8007614 104.764917 17.6878173 198.199426 397.890051"></polyline>
                        <polyline id="Fill-34" fill="#21252B" mask="url(#mask-6)" points="109.46775 16.5327411 104.764917 17.6878173 198.199426 397.890051 202.90038 396.734975 109.46775 16.5327411"></polyline>
                    </g>
                    <polyline id="Fill-30" fill="#31363B" points="52 393 221 393 221 363 59.2742422 363 52 393"></polyline>
                    <g id="Group-40" transform="translate(28.000000, 64.000000)">
                        <mask id="mask-8" fill="white">
                            <use xlink:href="#path-7"></use>
                        </mask>
                        <g id="Clip-38"></g>
                        <polyline id="Fill-37" fill="#21252B" mask="url(#mask-8)" points="150.741134 0.766060606 146.114866 2.20333333 246.903582 326.072545 251.531731 324.635273 150.741134 0.766060606"></polyline>
                        <polyline id="Fill-39" fill="#31363B" mask="url(#mask-8)" points="0.86319403 399.899515 9.48949254 402.01503 102.970209 21.6863636 94.3439104 19.5727273 0.86319403 399.899515"></polyline>
                    </g>
                    <polyline id="Fill-36" fill="#31363B" points="275 390.361932 266.539481 393 166 68.6380679 174.460519 66 275 390.361932"></polyline>
                    <polyline id="Fill-41" fill="#21252B" points="174 59 138.684142 111 121 111 121 65.5009463 174 59"></polyline>
                    <polygon id="Fill-42" fill="#31363B" points="108 92 147 92 147 80 108 80"></polygon>
                    <polygon id="Fill-43" fill="#E5E5E0" points="0 79 914 79 914 52 0 52"></polygon>
                    <polyline id="Fill-44" fill="#FFFFFE" points="867.212808 0 46.7909495 0 0 52 914 52 867.212808 0"></polyline>
                </g>
                <path d="M454.000637,700 C325.870527,700 222,692.83737 222,684.000564 C222,675.163758 325.870527,668 454.000637,668 C582.130746,668 686,675.163758 686,684.000564 C686,692.83737 582.130746,700 454.000637,700 Z" id="Fill-30-Copy" fill="#E1E4E7"></path>
                <g id="Bricks" transform="translate(141.000000, 63.000000)">
                    <path d="M33.4952502,18 L6.50279111,18 C2.91058662,18 0,15.1267968 0,11.5854967 L0,6.41450333 C0,2.87320318 2.91058662,0 6.50279111,0 L33.4952502,0 C37.0874547,0 40,2.87320318 40,6.41450333 L40,11.5854967 C40,15.1267968 37.0874547,18 33.4952502,18" id="Fill-12-Copy" fill="#C6CDDB"></path>
                    <path d="M80.4952502,18 L53.5047498,18 C49.9125453,18 47,15.1267968 47,11.5854967 L47,6.41450333 C47,2.87320318 49.9125453,0 53.5047498,0 L80.4952502,0 C84.0894134,0 87,2.87320318 87,6.41450333 L87,11.5854967 C87,15.1267968 84.0894134,18 80.4952502,18" id="Fill-13-Copy" fill="#D7DADF"></path>
                    <path d="M56.4952502,40 L29.5047498,40 C25.9125453,40 23,37.1300429 23,33.5879828 L23,28.4139485 C23,24.8718884 25.9125453,22 29.5047498,22 L56.4952502,22 C60.0874547,22 63,24.8718884 63,28.4139485 L63,33.5879828 C63,37.1300429 60.0874547,40 56.4952502,40" id="Fill-14-Copy" fill="#C6CDDB"></path>
                    <path d="M105.49525,40 L78.5047498,40 C74.9125453,40 72,37.1300429 72,33.5879828 L72,28.4139485 C72,24.8718884 74.9125453,22 78.5047498,22 L105.49525,22 C109.089413,22 112,24.8718884 112,28.4139485 L112,33.5879828 C112,37.1300429 109.089413,40 105.49525,40" id="Fill-15-Copy" fill="#D7DADF"></path>
                    <path d="M127.49361,18 L100.504431,18 C96.9124027,18 94,15.1267968 94,11.5854967 L94,6.41450333 C94,2.87320318 96.9124027,0 100.504431,0 L127.49361,0 C131.085639,0 134,2.87320318 134,6.41450333 L134,11.5854967 C134,15.1267968 131.085639,18 127.49361,18" id="Fill-16-Copy" fill="#C6CDDB"></path>
                </g>
                <path d="M164.500347,700 C94.6363003,700 38,695.523356 38,690.000353 C38,684.477349 94.6363003,680 164.500347,680 C234.364394,680 291,684.477349 291,690.000353 C291,695.523356 234.364394,700 164.500347,700 Z" id="Fill-30-Copy-2" fill="#E1E4E7"></path>
                <g id="Bricks" transform="translate(69.000000, 585.000000)">
                    <path d="M55.4737812,17.7542857 L29.20375,17.7542857 C25.7076875,17.7542857 22.875,14.92 22.875,11.4266667 L22.875,6.32571429 C22.875,2.83238095 25.7076875,-4.26325641e-14 29.20375,-4.26325641e-14 L55.4737812,-4.26325641e-14 C58.9698437,-4.26325641e-14 61.8044375,2.83238095 61.8044375,6.32571429 L61.8044375,11.4266667 C61.8044375,14.92 58.9698437,17.7542857 55.4737812,17.7542857" id="Fill-17-Copy" fill="#C6CDDB"></path>
                    <path d="M32.6006875,38.7066667 L6.3325625,38.7066667 C2.83459375,38.7066667 -1.11910481e-13,35.8742857 -1.11910481e-13,32.3809524 L-1.11910481e-13,27.2780952 C-1.11910481e-13,23.7847619 2.83459375,20.952381 6.3325625,20.952381 L32.6006875,20.952381 C36.09675,20.952381 38.9313437,23.7847619 38.9313437,27.2780952 L38.9313437,32.3809524 C38.9313437,35.8742857 36.09675,38.7066667 32.6006875,38.7066667" id="Fill-18-Copy" fill="#D7DADF"></path>
                    <path d="M80.2550312,38.7066667 L53.9869062,38.7066667 C50.4908437,38.7066667 47.65625,35.8742857 47.65625,32.3809524 L47.65625,27.2780952 C47.65625,23.7847619 50.4908437,20.952381 53.9869062,20.952381 L80.2550312,20.952381 C83.7510937,20.952381 86.5856875,23.7847619 86.5856875,27.2780952 L86.5856875,32.3809524 C86.5856875,35.8742857 83.7510937,38.7066667 80.2550312,38.7066667" id="Fill-19-Copy" fill="#C6CDDB"></path>
                    <path d="M114.567531,17.7542857 L88.2994062,17.7542857 C84.8033437,17.7542857 81.96875,14.92 81.96875,11.4266667 L81.96875,6.32571429 C81.96875,2.83238095 84.8033437,-4.26325641e-14 88.2994062,-4.26325641e-14 L114.567531,-4.26325641e-14 C118.063594,-4.26325641e-14 120.898187,2.83238095 120.898187,6.32571429 L120.898187,11.4266667 C120.898187,14.92 118.063594,17.7542857 114.567531,17.7542857" id="Fill-20-Copy" fill="#C6CDDB"></path>
                </g>
                <g id="Lamp-Copy-2" transform="translate(29.000000, 36.000000)">
                    <path d="M40.1597352,651.865849 C40.1597352,650.608902 39.3019864,641.804623 41.5617884,640.66263 C51.3630223,635.723414 82.8238197,639.731698 117.552321,639.731698 C151.944854,639.731698 182.98147,635.463356 193.05861,640.329077 C195.504226,641.50876 194.944906,650.556137 194.944906,651.865849 C194.944906,658.567051 160.293359,664 117.552321,664 C74.8094059,664 40.1597352,658.567051 40.1597352,651.865849" id="Fill-120" fill="#21252B"></path>
                    <path d="M40,643.000932 C40,636.372467 74.6977616,631 117.5,631 C160.300359,631 195,636.372467 195,643.000932 C195,649.629397 160.300359,655 117.5,655 C74.6977616,655 40,649.629397 40,643.000932" id="Fill-121" fill="#51565B"></path>
                    <path d="M111.825763,598 L111.00127,635.68286 C110.938975,638.556029 113.176098,640.933567 115.999527,640.998781 C118.821123,641.06027 121.16085,638.787075 121.224977,635.915769 L122,600.478155 C118.549957,599.948985 115.175034,599.090015 111.825763,598" id="Fill-124" fill="#D3D6D9"></path>
                    <path d="M17.2073575,267 L202.166727,44.8107805 C204.704156,43.4119194 205.62207,40.2279166 204.216985,37.7002158 C202.813781,35.1706399 199.619892,34.2555673 197.082462,35.6563035 L11.4983731,262 C9.37454668,264.808 9.80081622,266.449707 10.977574,268 C12.2134139,269.259766 15.4004256,269.259766 17.2073575,267 Z" id="Fill-122" fill="#D3D6D9"></path>
                    <path d="M120.161446,593.079102 C122.920469,592.183393 118.925814,579.304601 118.03125,576.547852 L18.2564755,267.630301 C17.3600282,264.87167 14.3957256,263.362514 11.6348186,264.258223 C8.87579488,265.152049 7.36162761,268.113908 8.2580749,270.872539 L108.816867,581.041016 C109.713315,583.799646 113.7909,595.318631 116.551807,594.424805 L120.161446,593.079102 Z" id="Fill-123" fill="#D3D6D9"></path>
                    <path d="M25.3075014,259.960952 C28.9196646,266.48058 26.559644,274.696236 20.0399945,278.308387 C13.5184955,281.918689 5.30466187,279.560525 1.69249862,273.039048 C-1.91966463,266.517571 0.440356005,258.303764 6.9600055,254.691613 C13.4815045,251.081311 21.6953381,253.439475 25.3075014,259.960952" id="Fill-125" fill="#51565B"></path>
                    <path d="M20.0603828,262.867523 C22.0652957,266.489325 20.7571531,271.052484 17.1316185,273.059421 C13.5099655,275.066357 8.94699335,273.75622 6.94013958,270.132477 C4.93328581,266.510675 6.24531013,261.945575 9.86696307,259.940579 C13.4905569,257.933643 18.053529,259.24378 20.0603828,262.867523" id="Fill-126" fill="#21252B"></path>
                    <path d="M128.307409,590.959313 C131.919769,597.480932 129.55962,605.696767 123.039616,609.307147 C116.519612,612.919377 108.303483,610.561163 104.692973,604.037694 C101.080613,597.517924 103.438913,589.303939 109.960766,585.691709 C116.48077,582.081329 124.69505,584.439543 128.307409,590.959313" id="Fill-127" fill="#51565B"></path>
                    <path d="M123.059405,593.866189 C125.066242,597.489865 123.756169,602.05294 120.134547,604.059839 C116.509042,606.066738 111.948049,604.754684 109.939271,601.13295 C107.934374,597.509274 109.244447,592.944258 112.86607,590.9393 C116.489634,588.934341 121.052568,590.244454 123.059405,593.866189" id="Fill-128" fill="#21252B"></path>
                    <path d="M217.90118,30.6503933 C220.246431,35.0089698 218.714497,40.4982551 214.477076,42.910561 L204.017219,48.8697015 C199.781654,51.2820075 194.444955,49.7062732 192.099704,45.3496067 C189.752595,40.9910302 191.286386,35.5017449 195.52195,33.089439 L205.981808,27.1302985 C210.217372,24.7179925 215.554072,26.2937268 217.90118,30.6503933" id="Fill-134" fill="#21252B"></path>
                    <path d="M245.630046,24.5864102 C236.536357,6.54008324 222.639452,-5.16294853 209.189314,2.26921948 C195.739175,9.69950688 198.308557,27.6612064 208.81795,44.9251999 C219.327344,62.1891934 175.698752,66.9151647 225.893122,149 L325,94.2441792 C281.886039,8.24579588 254.721849,42.6327372 245.630046,24.5864102" id="Fill-129" fill="#51565B"></path>
                    <path d="M225.389239,148.822488 C221.973429,142.691895 241.41857,125.487767 268.818285,110.399375 C296.218,95.3091148 321.197166,88.0450249 324.611098,94.1774854 C328.02503,100.308078 308.583645,117.512207 281.18393,132.602467 C253.784215,147.690859 228.805049,154.954949 225.389239,148.822488" id="Fill-130" fill="#21252B"></path>
                    <path d="M221.638397,43.6882658 C222.410041,45.0909984 221.906381,46.8587474 220.51134,47.6346458 C219.114399,48.4143664 217.356343,47.9041081 216.584699,46.5032865 L204.361935,24.3118267 C203.590291,22.9090941 204.09205,21.1413452 205.490892,20.3635357 C206.884032,19.5876372 208.642088,20.0940734 209.415633,21.4987171 L221.638397,43.6882658" id="Fill-131" fill="#21252B"></path>
                    <path d="M231.637104,37.6873576 C232.410638,39.0900598 231.906986,40.8577704 230.511963,41.635563 C229.11314,42.4133557 227.357008,41.9050194 226.585375,40.5023172 L214.362774,18.3113388 C213.589239,16.9105476 214.092892,15.142837 215.491715,14.3631333 C216.884837,13.5872517 218.64287,14.0955879 219.416404,15.4982902 L231.637104,37.6873576" id="Fill-132" fill="#21252B"></path>
                    <path d="M242.637489,31.687264 C243.411041,33.0919078 242.905476,34.8596567 241.512324,35.6355551 C240.11347,36.4133646 238.3573,35.9050174 237.585649,34.5022847 L225.362782,12.3108249 C224.58923,10.9080922 225.092894,9.14225442 226.491748,8.3644449 C227.883,7.58663538 229.642971,8.09498263 230.416522,9.49771528 L242.637489,31.687264" id="Fill-133" fill="#21252B"></path>
                    <path d="M251,121.105349 C254.89385,124.160101 259.806581,126 265.163199,126 C277.775601,126 288,115.873136 288,103.383337 C288,102.578381 287.955049,101.782699 287.87264,101 C281.740623,103.657838 275.18532,106.864678 268.482055,110.540767 C262.166489,114.003561 256.283574,117.577639 251,121.105349" id="Fill-135" fill="#F4B848"></path>
                </g>
                <g id="Bricks-Copy" transform="translate(291.000000, 812.000000)">
                    <path d="M55.4737812,17.7542857 L29.20375,17.7542857 C25.7076875,17.7542857 22.875,14.92 22.875,11.4266667 L22.875,6.32571429 C22.875,2.83238095 25.7076875,-4.26325641e-14 29.20375,-4.26325641e-14 L55.4737812,-4.26325641e-14 C58.9698437,-4.26325641e-14 61.8044375,2.83238095 61.8044375,6.32571429 L61.8044375,11.4266667 C61.8044375,14.92 58.9698437,17.7542857 55.4737812,17.7542857" id="Fill-17-Copy" fill="#C6CDDB"></path>
                    <path d="M32.6006875,38.7066667 L6.3325625,38.7066667 C2.83459375,38.7066667 -1.11910481e-13,35.8742857 -1.11910481e-13,32.3809524 L-1.11910481e-13,27.2780952 C-1.11910481e-13,23.7847619 2.83459375,20.952381 6.3325625,20.952381 L32.6006875,20.952381 C36.09675,20.952381 38.9313437,23.7847619 38.9313437,27.2780952 L38.9313437,32.3809524 C38.9313437,35.8742857 36.09675,38.7066667 32.6006875,38.7066667" id="Fill-18-Copy" fill="#D7DADF"></path>
                    <path d="M80.2550312,38.7066667 L53.9869062,38.7066667 C50.4908437,38.7066667 47.65625,35.8742857 47.65625,32.3809524 L47.65625,27.2780952 C47.65625,23.7847619 50.4908437,20.952381 53.9869062,20.952381 L80.2550312,20.952381 C83.7510937,20.952381 86.5856875,23.7847619 86.5856875,27.2780952 L86.5856875,32.3809524 C86.5856875,35.8742857 83.7510937,38.7066667 80.2550312,38.7066667" id="Fill-19-Copy" fill="#C6CDDB"></path>
                    <path d="M114.567531,17.7542857 L88.2994062,17.7542857 C84.8033437,17.7542857 81.96875,14.92 81.96875,11.4266667 L81.96875,6.32571429 C81.96875,2.83238095 84.8033437,-4.26325641e-14 88.2994062,-4.26325641e-14 L114.567531,-4.26325641e-14 C118.063594,-4.26325641e-14 120.898187,2.83238095 120.898187,6.32571429 L120.898187,11.4266667 C120.898187,14.92 118.063594,17.7542857 114.567531,17.7542857" id="Fill-20-Copy" fill="#C6CDDB"></path>
                </g>
                <g id="Bricks" transform="translate(690.000000, 502.000000)">
                    <path d="M57.3800313,17.752381 L31.1119063,17.752381 C27.6158438,17.752381 24.78125,14.92 24.78125,11.4266667 L24.78125,6.32380952 C24.78125,2.83047619 27.6158438,-1.56319402e-13 31.1119063,-1.56319402e-13 L57.3800313,-1.56319402e-13 C60.8760938,-1.56319402e-13 63.7125938,2.83047619 63.7125938,6.32380952 L63.7125938,11.4266667 C63.7125938,14.92 60.8760938,17.752381 57.3800313,17.752381" id="Fill-21-Copy" fill="#C6CDDB"></path>
                    <path d="M32.6006875,38.7066667 L6.33065625,38.7066667 C2.8326875,38.7066667 2.25597319e-13,35.8742857 2.25597319e-13,32.3809524 L2.25597319e-13,27.28 C2.25597319e-13,23.7866667 2.8326875,20.952381 6.33065625,20.952381 L32.6006875,20.952381 C36.09675,20.952381 38.9294375,23.7866667 38.9294375,27.28 L38.9294375,32.3809524 C38.9294375,35.8742857 36.09675,38.7066667 32.6006875,38.7066667" id="Fill-22-Copy" fill="#D7DADF"></path>
                    <path d="M80.2550313,38.7066667 L53.9869063,38.7066667 C50.4908438,38.7066667 47.65625,35.8742857 47.65625,32.3809524 L47.65625,27.28 C47.65625,23.7866667 50.4908438,20.952381 53.9869063,20.952381 L80.2550313,20.952381 C83.7510938,20.952381 86.5875938,23.7866667 86.5875938,27.28 L86.5875938,32.3809524 C86.5875938,35.8742857 83.7510938,38.7066667 80.2550313,38.7066667" id="Fill-23-Copy" fill="#C6CDDB"></path>
                    <path d="M114.569438,17.752381 L88.3013125,17.752381 C84.8033438,17.752381 81.96875,14.92 81.96875,11.4266667 L81.96875,6.32380952 C81.96875,2.83047619 84.8033438,-1.56319402e-13 88.3013125,-1.56319402e-13 L114.569438,-1.56319402e-13 C118.0655,-1.56319402e-13 120.898188,2.83047619 120.898188,6.32380952 L120.898188,11.4266667 C120.898188,14.92 118.0655,17.752381 114.569438,17.752381" id="Fill-24-Copy" fill="#C6CDDB"></path>
                </g>
                <g id="Bricks" transform="translate(464.000000, 103.000000)">
                    <path d="M32.4671159,17.752381 L6.30508696,17.752381 C2.82314493,17.752381 -2.14939178e-13,14.9219048 -2.14939178e-13,11.4285714 L-2.14939178e-13,6.32571429 C-2.14939178e-13,2.83238095 2.82314493,-1.42108547e-13 6.30508696,-1.42108547e-13 L32.4671159,-1.42108547e-13 C35.9509565,-1.42108547e-13 38.7722029,2.83238095 38.7722029,6.32571429 L38.7722029,11.4285714 C38.7722029,14.9219048 35.9509565,17.752381 32.4671159,17.752381" id="Fill-25-Copy" fill="#C6CDDB"></path>
                    <path d="M78.0342319,17.752381 L51.8703043,17.752381 C48.3883623,17.752381 45.5652174,14.9219048 45.5652174,11.4285714 L45.5652174,6.32571429 C45.5652174,2.83238095 48.3883623,-1.42108547e-13 51.8703043,-1.42108547e-13 L78.0342319,-1.42108547e-13 C81.5161739,-1.42108547e-13 84.3374203,2.83238095 84.3374203,6.32571429 L84.3374203,11.4285714 C84.3374203,14.9219048 81.5161739,17.752381 78.0342319,17.752381" id="Fill-26-Copy" fill="#D7DADF"></path>
                    <path d="M55.2497246,38.7066667 L29.0876957,38.7066667 C25.6057536,38.7066667 22.7826087,35.8742857 22.7826087,32.3790476 L22.7826087,27.28 C22.7826087,23.7847619 25.6057536,20.952381 29.0876957,20.952381 L55.2497246,20.952381 C58.7335652,20.952381 61.5567101,23.7847619 61.5567101,27.28 L61.5567101,32.3790476 C61.5567101,35.8742857 58.7335652,38.7066667 55.2497246,38.7066667" id="Fill-27-Copy" fill="#D7DADF"></path>
                    <path d="M102.715391,38.7066667 L76.5514638,38.7066667 C73.0695217,38.7066667 70.2463768,35.8742857 70.2463768,32.3790476 L70.2463768,27.28 C70.2463768,23.7847619 73.0695217,20.952381 76.5514638,20.952381 L102.715391,20.952381 C106.197333,20.952381 109.01858,23.7847619 109.01858,27.28 L109.01858,32.3790476 C109.01858,35.8742857 106.197333,38.7066667 102.715391,38.7066667" id="Fill-28-Copy" fill="#C6CDDB"></path>
                    <path d="M123.599449,17.752381 L97.4355217,17.752381 C93.9535797,17.752381 91.1304348,14.9219048 91.1304348,11.4285714 L91.1304348,6.32571429 C91.1304348,2.83238095 93.9535797,-1.42108547e-13 97.4355217,-1.42108547e-13 L123.599449,-1.42108547e-13 C127.081391,-1.42108547e-13 129.904536,2.83238095 129.904536,6.32571429 L129.904536,11.4285714 C129.904536,14.9219048 127.081391,17.752381 123.599449,17.752381" id="Fill-29-Copy" fill="#C6CDDB"></path>
                </g>
                <g id="Group-3" transform="translate(690.000000, 225.000000)">
                    <path d="M183,462 C183,469.17953 150.765154,475 111,475 C71.2348464,475 39,469.17953 39,462 C39,454.82047 71.2348464,449 111,449 C150.765154,449 183,454.82047 183,462" id="Fill-68-Copy" fill="#E1E4E7"></path>
                    <path d="M134.534884,460.190922 C121.580998,464.070707 101.531436,463.799559 87.4632775,460.190922 C84.1296517,459.335623 81.0552874,457.783345 80.3823105,454.440398 L67,388 L155,388 L141.617689,454.440398 C140.942874,457.783345 137.831735,459.202778 134.534884,460.190922" id="Fill-69-Copy" fill="#D3D6D9"></path>
                    <path d="M155,388.50093 C155,384.91017 135.523014,382 111.498176,382 C87.4751624,382 68,384.91017 68,388.50093 C68,392.08797 87.4751624,395 111.498176,395 C135.523014,395 155,392.08797 155,388.50093" id="Fill-70-Copy" fill="#A0A5AA"></path>
                    <path d="M127.572411,54.8533999 C130.354992,43.2883987 129.763263,32.6497694 127.844679,20.9071832 C125.927911,9.16459694 120.796563,-1.90243358 109.197938,0.276187816 C98.0948408,2.36327049 94.0979436,15.9842311 93.460836,25.8099967 C92.5768719,39.4364497 96.9186422,52.5283165 98.3943358,65.9387381 C100.626935,86.2456864 96.0110815,108.443825 90.7345238,128.170417 C86.4998457,143.9938 81.2142124,156.790912 77.0993323,175.268917 C74.5726834,186.628871 73.8756768,202.42113 77.5621882,217.704434 C81.2850021,233.139692 105.613073,288.361336 110.341464,345 C112.58677,272.565416 126.848178,252.260298 131.592905,227.550338 C133.551421,217.351094 135.695079,207.241559 134.783888,196.894022 C132.460533,170.512565 125.210938,144.84694 120.852832,118.729114 C116.494726,92.6094578 120.990781,82.1978445 127.572411,54.8533999" id="Fill-72-Copy" fill="#C5CACF"></path>
                    <path d="M113.408086,389 L113.548296,388.994517 C114.421766,388.923235 115.069764,388.179342 114.993974,387.333095 C103.42286,257.506457 112.674825,34.8303132 112.769562,32.5968074 C112.805562,31.7505609 112.123459,31.0359122 111.246199,31.001185 C110.395466,30.9682855 109.6281,31.6244464 109.593995,32.4706929 C109.499258,34.7078542 100.23782,257.575911 111.825986,387.598119 C111.899881,388.396844 112.593352,389 113.408086,389" id="Fill-73-Copy" fill="#B4B7BA"></path>
                    <path d="M108.483065,255 L108.551698,254.998185 C109.387942,254.961879 110.036346,254.248478 109.998417,253.408008 C108.306063,215.494282 91.0790895,203.733149 90.3457962,203.248472 C89.6450134,202.787394 88.7058201,202.987073 88.2470602,203.689583 C87.7901066,204.392092 87.9851698,205.334217 88.6823402,205.797111 C88.8485052,205.907842 105.353022,217.338597 106.969519,253.544154 C107.007448,254.361025 107.677526,255 108.483065,255" id="Fill-74-Copy" fill="#B4B7BA"></path>
                    <path d="M107.540379,228 C108.349505,228 109.026529,227.367007 109.074233,226.546325 C111.376847,187.534478 125.810845,182.060196 125.957625,182.008674 C126.753908,181.730819 127.188744,180.856774 126.920871,180.056333 C126.651162,179.252212 125.803506,178.814269 124.996215,179.075563 C124.322861,179.294534 108.448582,184.899462 106.002857,226.365996 C105.951484,227.21612 106.599151,227.946637 107.448642,227.99632 L107.540379,228" id="Fill-75-Copy" fill="#B4B7BA"></path>
                    <path d="M209.278398,162.552212 C212.634674,154.229058 227.098931,122.745266 224.741699,112 C218.521375,114.482344 201.205833,141.346421 195.516024,153.37849 C188.60111,167.365405 175.119489,188.129485 165.874689,200.8515 C158.447491,211.030937 154.227079,213.706758 148.668531,225.151096 C144.564794,233.269822 138.180395,266.991374 137.72645,279.116531 C136.749283,301.756972 142.612284,306.243444 136,349 C150.114227,295.229866 180.183984,263.202149 185.049765,247.273164 C190.635659,229.104594 190.794266,221.72327 195.096717,202.300751 C199.64346,182.929339 198.655355,187.828318 209.278398,162.552212" id="Fill-77-Copy" fill="#B4B7BA"></path>
                    <path d="M205.696666,150.863686 L205.4669,150.697074 L205.696666,150.863686 Z M129.408831,390.996338 C128.568179,390.926764 127.939057,390.188908 128.004704,389.341198 C132.198849,335.995882 152.336211,273.988543 168.49096,231.36502 C184.73324,188.510803 203.253121,149.164604 205.831608,148.110002 C206.367729,147.893954 207.04244,148.001978 207.478266,148.382807 C208.112858,148.941233 208.178506,149.913445 207.620502,150.54877 L207.250323,150.858193 C201.411345,158.319141 138.65236,292.934772 131.057312,389.584709 C130.991665,390.388477 130.322425,391 129.532832,391 L129.408831,390.996338 L129.408831,390.996338 Z" id="Fill-78-Copy" fill="#A0A5AA"></path>
                    <path d="M149.614447,291 C150.306919,291 150.941685,290.536437 151.122249,289.840168 C158.370866,262.137185 149.811764,248.12871 148.395175,247.240368 C147.671058,246.782345 146.703087,246.998429 146.241439,247.7224 C145.872865,248.302316 145.938017,249.033675 146.356851,249.537869 C146.768239,250.10855 155.1263,262.207366 148.099199,289.060791 C147.883267,289.888187 148.384006,290.734051 149.219812,290.950135 L149.614447,291" id="Fill-79-Copy" fill="#A0A5AA"></path>
                    <path d="M156.538173,271 C157.152794,271 157.730721,270.637627 157.971066,270.04449 C168.373758,244.258331 179.291998,243.072056 180.502893,243.021576 C181.225761,242.99273 181.873406,242.469904 182,241.770398 L181.633062,240.174876 L180.389142,240 C178.06459,240.095551 165.996,241.939866 155.108949,268.930329 C154.795217,269.705554 155.182337,270.587147 155.971254,270.893632 C156.158392,270.965746 156.3492,271 156.538173,271" id="Fill-80-Copy" fill="#A0A5AA"></path>
                    <path d="M169.478386,237 C170.133687,237 170.732619,236.541855 170.908775,235.845401 C176.473553,213.736224 173.096636,203.682904 171.731425,203.110223 C170.972191,202.794324 170.112549,203.180422 169.811321,203.974786 C169.64045,204.421847 169.680966,204.900312 169.887069,205.291952 C170.096695,205.799975 173.316832,214.129711 168.049758,235.05658 C167.840132,235.884196 168.312231,236.732133 169.101411,236.950121 L169.478386,237" id="Fill-81-Copy" fill="#A0A5AA"></path>
                    <path d="M32.5626994,229.850485 C28.2193071,224.78211 8.69042525,207.174441 0,208.030141 C1.01394362,212.9559 15.8462823,230.300276 21.7333446,237.47499 C29.1604361,245.686417 37.266524,261.169463 40.4266787,271.452488 C43.0188793,279.702311 42.4472845,283.211046 45.9041587,290.809953 C48.5418684,296.008146 62.1727658,313.82974 67.2188192,320.342566 C76.6519536,332.181574 87.0134745,336.472872 97,366 C90.3356416,327.431344 84.9692039,289.877459 77.6622565,278.714966 C69.6635702,266.577925 65.0580453,263.131356 54.3306309,252.75691 C43.2555268,242.731693 46.5467477,244.889226 32.5626994,229.850485" id="Fill-82-Copy" fill="#C5CACF"></path>
                    <path d="M103.453954,391 L103.762851,390.9707 C104.597608,390.800391 105.138177,389.99097 104.969019,389.157741 C97.5132094,352.559792 81.2998112,310.537619 62.6556904,279.48842 C48.5530862,254.786407 32.9666747,237.046885 27.0976379,230.36824 C26.1985279,229.34456 25.3417073,228.372155 25.036488,227.978432 C24.7551714,227.251417 23.947995,226.844875 23.1867853,227.055471 C22.6756348,227.196479 22.2600953,227.60119 22.1093243,228.106621 C21.8298463,229.038738 21.8850064,229.101001 24.7772354,232.391795 C30.5892735,239.006345 46.024914,256.573727 59.9896179,281.037675 C78.4829677,311.83599 94.5529496,353.490078 101.942567,389.771217 C102.091499,390.498232 102.735034,391 103.453954,391" id="Fill-83-Copy" fill="#B4B7BA"></path>
                    <path d="M81.4406235,322 C81.6693579,322 81.9018115,321.952154 82.1193881,321.847261 C82.8948534,321.475533 83.2184289,320.551736 82.8446434,319.784358 C74.1006679,301.895441 62.050272,300.165621 59.7220165,300 L58.5039595,300 L58,301.588122 C58.0297541,302.377583 58.7029398,303.023505 59.498861,303.080552 C60.7410931,303.168883 71.8691131,304.425763 80.0366036,321.127729 C80.3043902,321.679799 80.8604193,322 81.4406235,322" id="Fill-84-Copy" fill="#B4B7BA"></path>
                    <path d="M75.3856797,308 C75.5915753,308 75.8013194,307.963927 76.0014423,307.886371 C76.8269491,307.567128 77.2175735,306.683348 76.8769798,305.90959 C68.9028537,287.810139 73.6403775,281.086198 74.009835,280.608236 C74.4832026,280.184382 74.6544615,279.511627 74.3792926,278.914625 C74.0271534,278.146277 73.0727213,277.796373 72.2587601,278.121027 C72.1644714,278.160706 63.9902225,284.590656 73.8963038,307.065718 C74.1503059,307.648292 74.7525987,308 75.3856797,308" id="Fill-85-Copy" fill="#B4B7BA"></path>
                    <path d="M62.4915447,285 C62.8065165,285 63.1286877,284.899179 63.4022632,284.693935 C64.0664038,284.188027 64.197792,283.241026 63.6920373,282.576685 C54.9232222,271.014628 47.7526641,269.261055 45.7656419,269 L44.5597499,269.336672 L44,270.776978 C44.1259887,271.414313 44.7271349,271.911219 45.3696774,271.995837 C46.5773693,272.15427 53.0171928,273.499156 61.2874525,284.402273 C61.5844259,284.792956 62.0343857,285 62.4915447,285" id="Fill-86-Copy" fill="#B4B7BA"></path>
                </g>
                <g id="iMac-+-VSCode-Copy" transform="translate(144.000000, 182.000000)">
                    <g id="iMac">
                        <g id="Stand" transform="translate(203.000000, 426.000000)">
                            <polyline id="Fill" fill="#757B80" points="184.638 67.769 27.847 67.769 36.817 0.307 176.948 0.307 184.638 67.769"></polyline>
                            <polyline id="Fill" fill="#C0C8CB" points="27.847 67.769 184.638 67.769 212.214 74.287 0.267 74.444 27.847 67.769"></polyline>
                            <polyline id="Fill" fill="#757B80" points="210.771 77.91 1.707 77.91 0.321 74.444 212.214 74.287 210.771 77.91"></polyline>
                        </g>
                        <g id="Monitor">
                            <path d="M0.046,369.808 L0.046,411.464 C0.046,419.92 6.966,426.841 15.427,426.841 L603.062,426.841 C611.513,426.841 618.433,419.92 618.433,411.464 L618.433,369.808 L0.046,369.808" id="Fill" fill="#C0C8CB"></path>
                            <path d="M618.433,16.077 C618.433,7.619 611.513,0.699 603.062,0.699 L15.427,0.699 C6.966,0.699 0.046,7.619 0.046,16.077 L0.046,369.808 L618.433,369.808 L618.433,16.077" id="Fill" fill="#343534"></path>
                            <polygon id="Fill" fill="#E4E4E3" points="21.833 349.303 596.649 349.303 596.649 21.204 21.833 21.204"></polygon>
                            <path d="M320.241,400.141 C320.241,406.215 315.316,411.139 309.242,411.139 C303.159,411.139 298.24,406.215 298.24,400.141 C298.24,394.063 303.159,389.137 309.242,389.137 C315.316,389.137 320.241,394.063 320.241,400.141" id="Fill" fill="#343534"></path>
                        </g>
                    </g>
                    <g id="Visual-Studio-Code-Copy" transform="translate(48.000000, 30.000000)">
                        <rect id="Background" fill="#21252B" x="0" y="0" width="524" height="308" rx="8"></rect>
                        <g id="Window-Buttons" transform="translate(11.000000, 10.000000)">
                            <circle id="Close-Button" fill="#FF6159" cx="4" cy="4" r="4"></circle>
                            <circle id="Minimize-Button" fill="#FFC02F" cx="16" cy="4" r="4"></circle>
                            <circle id="Expand-Button" fill="#35CB4B" cx="28" cy="4" r="4"></circle>
                        </g>
                        <g id="Tabs" transform="translate(11.000000, 27.000000)" fill="#91959B">
                            <rect id="Tab" x="0" y="0" width="20" height="20.1923077" rx="4"></rect>
                            <rect id="Tab" x="0" y="28.2692308" width="20" height="20.1923077" rx="4"></rect>
                            <rect id="Tab" x="0" y="56.5384615" width="20" height="20.1923077" rx="4"></rect>
                            <rect id="Tab" x="0" y="84.8076923" width="20" height="20.1923077" rx="4"></rect>
                        </g>
                        <g id="Panel" transform="translate(41.000000, 26.000000)">
                            <rect id="Column" fill="#282C34" x="0" y="0" width="338" height="270" rx="4"></rect>
                            <g id="Code-Block" transform="translate(17.918072, 10.572289)">
                                <rect id="Line" fill="#C678DD" x="0" y="0" width="153.118072" height="9.75903614" rx="2"></rect>
                                <rect id="Line" fill="#E06C75" x="0" y="17.0783133" width="67.6" height="9.75903614" rx="2"></rect>
                                <rect id="Line" fill="#E06C75" x="0" y="68.313253" width="67.6" height="9.75903614" rx="2"></rect>
                                <rect id="Line" fill="#E06C75" x="0" y="85.3915663" width="48.8674699" height="9.75903614" rx="2"></rect>
                                <rect id="Line" fill="#E06C75" x="0" y="102.46988" width="48.8674699" height="9.75903614" rx="2"></rect>
                                <rect id="Line" fill="#E06C75" x="34.2072289" y="170.783133" width="54.5686747" height="9.75903614" rx="2"></rect>
                                <rect id="Line" fill="#E06C75" x="0" y="239.096386" width="54.5686747" height="9.75903614" rx="2"></rect>
                                <rect id="Line" fill="#E06C75" x="264.698795" y="170.783133" width="37.4650602" height="9.75903614" rx="2"></rect>
                                <rect id="Line" fill="#BBBBBB" x="204.428916" y="136.626506" width="48.8674699" height="9.75903614" rx="2"></rect>
                                <rect id="Line" fill="#56B6C2" x="82.260241" y="34.1566265" width="62.713253" height="9.75903614" rx="2"></rect>
                                <rect id="Line" fill="#D1975C" x="0" y="34.1566265" width="76.5590361" height="9.75903614" rx="2"></rect>
                                <rect id="Line" fill="#D1975C" x="150.674699" y="34.1566265" width="76.5590361" height="9.75903614" rx="2"></rect>
                                <rect id="Line" fill="#56B6C2" x="82.260241" y="51.2349398" width="100.992771" height="9.75903614" rx="2"></rect>
                                <rect id="Line" fill="#56B6C2" x="73.3012048" y="68.313253" width="100.992771" height="9.75903614" rx="2"></rect>
                                <rect id="Line" fill="#56B6C2" x="34.2072289" y="136.626506" width="164.520482" height="9.75903614" rx="2"></rect>
                                <rect id="Line" fill="#56B6C2" x="94.4771084" y="170.783133" width="164.520482" height="9.75903614" rx="2"></rect>
                                <rect id="Line" fill="#56B6C2" x="34.2072289" y="187.861446" width="164.520482" height="9.75903614" rx="2"></rect>
                                <rect id="Line" fill="#56B6C2" x="34.2072289" y="204.939759" width="127.86988" height="9.75903614" rx="2"></rect>
                                <rect id="Line" fill="#56B6C2" x="204.428916" y="187.861446" width="79.0024096" height="9.75903614" rx="2"></rect>
                                <rect id="Line" fill="#D1975C" x="0" y="51.2349398" width="76.5590361" height="9.75903614" rx="2"></rect>
                                <rect id="Line" fill="#D1975C" x="18.7325301" y="119.548193" width="48.8674699" height="9.75903614" rx="2"></rect>
                                <rect id="Line" fill="#D1975C" x="18.7325301" y="153.704819" width="48.8674699" height="9.75903614" rx="2"></rect>
                                <rect id="Line" fill="#D1975C" x="0" y="222.018072" width="61.0843373" height="9.75903614" rx="2"></rect>
                                <rect id="Line" fill="#D1975C" x="188.954217" y="51.2349398" width="76.5590361" height="9.75903614" rx="2"></rect>
                                <rect id="Line" fill="#E06C75" x="179.995181" y="68.313253" width="67.6" height="9.75903614" rx="2"></rect>
                            </g>
                        </g>
                        <g id="Minimap" transform="translate(390.000000, 27.000000)">
                            <rect id="Column" fill="#282C34" x="0" y="0.405405405" width="125" height="269.189189" rx="4"></rect>
                            <g id="Code-Block" transform="translate(6.535948, 11.351351)">
                                <rect id="Line" fill="#C678DD" x="0" y="0.405405405" width="57.1895425" height="4.05405405" rx="2"></rect>
                                <rect id="Line" fill="#E06C75" x="0" y="6.89189189" width="25.3267974" height="4.05405405" rx="2"></rect>
                                <rect id="Line" fill="#E06C75" x="0" y="25.5405405" width="25.3267974" height="4.05405405" rx="2"></rect>
                                <rect id="Line" fill="#E06C75" x="66.1764706" y="25.5405405" width="25.3267974" height="4.05405405" rx="2"></rect>
                                <rect id="Line" fill="#E06C75" x="0" y="32.027027" width="17.9738562" height="4.05405405" rx="2"></rect>
                                <rect id="Line" fill="#E06C75" x="0" y="38.5135135" width="17.9738562" height="4.05405405" rx="2"></rect>
                                <rect id="Line" fill="#E06C75" x="13.0718954" y="63.6486486" width="20.4248366" height="4.05405405" rx="2"></rect>
                                <rect id="Line" fill="#E06C75" x="0" y="88.7837838" width="20.4248366" height="4.05405405" rx="2"></rect>
                                <rect id="Line" fill="#E06C75" x="98.8562092" y="63.6486486" width="13.8888889" height="4.05405405" rx="2"></rect>
                                <rect id="Line" fill="#BBBBBB" x="75.9803922" y="50.6756757" width="17.9738562" height="4.05405405" rx="2"></rect>
                                <rect id="Line" fill="#56B6C2" x="30.2287582" y="13.3783784" width="23.6928105" height="4.05405405" rx="2"></rect>
                                <rect id="Line" fill="#D1975C" x="0" y="13.3783784" width="28.5947712" height="4.05405405" rx="2"></rect>
                                <rect id="Line" fill="#D1975C" x="56.372549" y="13.3783784" width="28.5947712" height="4.05405405" rx="2"></rect>
                                <rect id="Line" fill="#56B6C2" x="31.0457516" y="19.8648649" width="37.5816993" height="4.05405405" rx="2"></rect>
                                <rect id="Line" fill="#56B6C2" x="26.9607843" y="25.5405405" width="37.5816993" height="4.05405405" rx="2"></rect>
                                <rect id="Line" fill="#56B6C2" x="13.0718954" y="50.6756757" width="62.0915033" height="4.05405405" rx="2"></rect>
                                <rect id="Line" fill="#56B6C2" x="35.130719" y="63.6486486" width="62.0915033" height="4.05405405" rx="2"></rect>
                                <rect id="Line" fill="#56B6C2" x="13.0718954" y="69.3243243" width="62.0915033" height="4.05405405" rx="2"></rect>
                                <rect id="Line" fill="#56B6C2" x="13.0718954" y="75.8108108" width="48.2026144" height="4.05405405" rx="2"></rect>
                                <rect id="Line" fill="#56B6C2" x="75.9803922" y="69.3243243" width="29.4117647" height="4.05405405" rx="2"></rect>
                                <rect id="Line" fill="#D1975C" x="0" y="19.8648649" width="28.5947712" height="4.05405405" rx="2"></rect>
                                <rect id="Line" fill="#D1975C" x="7.35294118" y="45" width="17.9738562" height="4.05405405" rx="2"></rect>
                                <rect id="Line" fill="#D1975C" x="7.35294118" y="57.1621622" width="17.9738562" height="4.05405405" rx="2"></rect>
                                <rect id="Line" fill="#D1975C" x="0" y="82.2972973" width="22.875817" height="4.05405405" rx="2"></rect>
                                <rect id="Line" fill="#D1975C" x="70.2614379" y="19.8648649" width="28.5947712" height="4.05405405" rx="2"></rect>
                            </g>
                            <g id="Code-Block" transform="translate(6.535948, 106.216216)">
                                <rect id="Line" fill="#C678DD" x="0" y="0.405405405" width="57.1895425" height="4.05405405" rx="2"></rect>
                                <rect id="Line" fill="#E06C75" x="0" y="6.89189189" width="25.3267974" height="4.05405405" rx="2"></rect>
                                <rect id="Line" fill="#E06C75" x="0" y="25.5405405" width="25.3267974" height="4.05405405" rx="2"></rect>
                                <rect id="Line" fill="#E06C75" x="66.1764706" y="25.5405405" width="25.3267974" height="4.05405405" rx="2"></rect>
                                <rect id="Line" fill="#E06C75" x="0" y="32.027027" width="17.9738562" height="4.05405405" rx="2"></rect>
                                <rect id="Line" fill="#E06C75" x="0" y="38.5135135" width="17.9738562" height="4.05405405" rx="2"></rect>
                                <rect id="Line" fill="#E06C75" x="13.0718954" y="63.6486486" width="20.4248366" height="4.05405405" rx="2"></rect>
                                <rect id="Line" fill="#E06C75" x="0" y="88.7837838" width="20.4248366" height="4.05405405" rx="2"></rect>
                                <rect id="Line" fill="#E06C75" x="98.8562092" y="63.6486486" width="13.8888889" height="4.05405405" rx="2"></rect>
                                <rect id="Line" fill="#BBBBBB" x="75.9803922" y="50.6756757" width="17.9738562" height="4.05405405" rx="2"></rect>
                                <rect id="Line" fill="#56B6C2" x="30.2287582" y="13.3783784" width="23.6928105" height="4.05405405" rx="2"></rect>
                                <rect id="Line" fill="#D1975C" x="0" y="13.3783784" width="28.5947712" height="4.05405405" rx="2"></rect>
                                <rect id="Line" fill="#D1975C" x="56.372549" y="13.3783784" width="28.5947712" height="4.05405405" rx="2"></rect>
                                <rect id="Line" fill="#56B6C2" x="31.0457516" y="19.8648649" width="37.5816993" height="4.05405405" rx="2"></rect>
                                <rect id="Line" fill="#56B6C2" x="26.9607843" y="25.5405405" width="37.5816993" height="4.05405405" rx="2"></rect>
                                <rect id="Line" fill="#56B6C2" x="13.0718954" y="50.6756757" width="62.0915033" height="4.05405405" rx="2"></rect>
                                <rect id="Line" fill="#56B6C2" x="35.130719" y="63.6486486" width="62.0915033" height="4.05405405" rx="2"></rect>
                                <rect id="Line" fill="#56B6C2" x="13.0718954" y="69.3243243" width="62.0915033" height="4.05405405" rx="2"></rect>
                                <rect id="Line" fill="#56B6C2" x="13.0718954" y="75.8108108" width="48.2026144" height="4.05405405" rx="2"></rect>
                                <rect id="Line" fill="#56B6C2" x="75.9803922" y="69.3243243" width="29.4117647" height="4.05405405" rx="2"></rect>
                                <rect id="Line" fill="#D1975C" x="0" y="19.8648649" width="28.5947712" height="4.05405405" rx="2"></rect>
                                <rect id="Line" fill="#D1975C" x="7.35294118" y="45" width="17.9738562" height="4.05405405" rx="2"></rect>
                                <rect id="Line" fill="#D1975C" x="7.35294118" y="57.1621622" width="17.9738562" height="4.05405405" rx="2"></rect>
                                <rect id="Line" fill="#D1975C" x="0" y="82.2972973" width="22.875817" height="4.05405405" rx="2"></rect>
                                <rect id="Line" fill="#D1975C" x="70.2614379" y="19.8648649" width="28.5947712" height="4.05405405" rx="2"></rect>
                            </g>
                            <g id="Code-Block" transform="translate(6.535948, 201.081081)">
                                <rect id="Line" fill="#C678DD" x="0" y="0.405405405" width="57.1895425" height="4.05405405" rx="2"></rect>
                                <rect id="Line" fill="#E06C75" x="0" y="6.89189189" width="25.3267974" height="4.05405405" rx="2"></rect>
                                <rect id="Line" fill="#E06C75" x="0" y="25.5405405" width="25.3267974" height="4.05405405" rx="2"></rect>
                                <rect id="Line" fill="#E06C75" x="66.1764706" y="25.5405405" width="25.3267974" height="4.05405405" rx="2"></rect>
                                <rect id="Line" fill="#E06C75" x="0" y="32.027027" width="17.9738562" height="4.05405405" rx="2"></rect>
                                <rect id="Line" fill="#E06C75" x="0" y="38.5135135" width="17.9738562" height="4.05405405" rx="2"></rect>
                                <rect id="Line" fill="#BBBBBB" x="75.9803922" y="50.6756757" width="17.9738562" height="4.05405405" rx="2"></rect>
                                <rect id="Line" fill="#56B6C2" x="30.2287582" y="13.3783784" width="23.6928105" height="4.05405405" rx="2"></rect>
                                <rect id="Line" fill="#D1975C" x="0" y="13.3783784" width="28.5947712" height="4.05405405" rx="2"></rect>
                                <rect id="Line" fill="#D1975C" x="56.372549" y="13.3783784" width="28.5947712" height="4.05405405" rx="2"></rect>
                                <rect id="Line" fill="#56B6C2" x="31.0457516" y="19.8648649" width="37.5816993" height="4.05405405" rx="2"></rect>
                                <rect id="Line" fill="#56B6C2" x="26.9607843" y="25.5405405" width="37.5816993" height="4.05405405" rx="2"></rect>
                                <rect id="Line" fill="#56B6C2" x="13.0718954" y="50.6756757" width="62.0915033" height="4.05405405" rx="2"></rect>
                                <rect id="Line" fill="#D1975C" x="0" y="19.8648649" width="28.5947712" height="4.05405405" rx="2"></rect>
                                <rect id="Line" fill="#D1975C" x="7.35294118" y="45" width="17.9738562" height="4.05405405" rx="2"></rect>
                                <rect id="Line" fill="#D1975C" x="7.35294118" y="57.1621622" width="17.9738562" height="4.05405405" rx="2"></rect>
                                <rect id="Line" fill="#D1975C" x="70.2614379" y="19.8648649" width="28.5947712" height="4.05405405" rx="2"></rect>
                            </g>
                        </g>
                        <rect id="Header" fill="#91959B" x="180" y="10" width="165" height="8" rx="4"></rect>
                    </g>
                </g>
                <g id="Bricks-Copy-2" transform="translate(461.000000, 916.000000)">
                    <path d="M33.4952502,18 L6.50279111,18 C2.91058662,18 0,15.1267968 0,11.5854967 L0,6.41450333 C0,2.87320318 2.91058662,0 6.50279111,0 L33.4952502,0 C37.0874547,0 40,2.87320318 40,6.41450333 L40,11.5854967 C40,15.1267968 37.0874547,18 33.4952502,18" id="Fill-12-Copy" fill="#C6CDDB"></path>
                    <path d="M80.4952502,18 L53.5047498,18 C49.9125453,18 47,15.1267968 47,11.5854967 L47,6.41450333 C47,2.87320318 49.9125453,0 53.5047498,0 L80.4952502,0 C84.0894134,0 87,2.87320318 87,6.41450333 L87,11.5854967 C87,15.1267968 84.0894134,18 80.4952502,18" id="Fill-13-Copy" fill="#D7DADF"></path>
                    <path d="M56.4952502,40 L29.5047498,40 C25.9125453,40 23,37.1300429 23,33.5879828 L23,28.4139485 C23,24.8718884 25.9125453,22 29.5047498,22 L56.4952502,22 C60.0874547,22 63,24.8718884 63,28.4139485 L63,33.5879828 C63,37.1300429 60.0874547,40 56.4952502,40" id="Fill-14-Copy" fill="#C6CDDB"></path>
                    <path d="M105.49525,40 L78.5047498,40 C74.9125453,40 72,37.1300429 72,33.5879828 L72,28.4139485 C72,24.8718884 74.9125453,22 78.5047498,22 L105.49525,22 C109.089413,22 112,24.8718884 112,28.4139485 L112,33.5879828 C112,37.1300429 109.089413,40 105.49525,40" id="Fill-15-Copy" fill="#D7DADF"></path>
                    <path d="M127.49361,18 L100.504431,18 C96.9124027,18 94,15.1267968 94,11.5854967 L94,6.41450333 C94,2.87320318 96.9124027,0 100.504431,0 L127.49361,0 C131.085639,0 134,2.87320318 134,6.41450333 L134,11.5854967 C134,15.1267968 131.085639,18 127.49361,18" id="Fill-16-Copy" fill="#C6CDDB"></path>
                </g>
            </g>
        </g>
    </g>
</svg>