<?xml version="1.0" encoding="UTF-8"?>
<svg width="103px" height="80px" viewBox="0 0 103 80" version="1.1" xmlns="http://www.w3.org/2000/svg" xmlns:xlink="http://www.w3.org/1999/xlink">
    <!-- Generator: Sketch 51.2 (57519) - http://www.bohemiancoding.com/sketch -->
    <title>aws</title>
    <desc>Created with Sketch.</desc>
    <defs></defs>
    <g id="Page-1" stroke="none" stroke-width="1" fill="none" fill-rule="evenodd">
        <g id="Desktop" transform="translate(-766.000000, -2706.000000)" fill="#F7A80D" fill-rule="nonzero">
            <g id="Group-21" transform="translate(766.000000, 2706.000000)">
                <g id="aws">
                    <path d="M30.3187857,50.9926531 L20.9997381,54.9893878 L29.6313016,58.6742857 L39.6378333,54.9893878 L30.3187857,50.9926531 Z M16.3091508,55.9885714 L15.996881,73.9755102 L29.6313016,79.9714286 L29.6313016,61.2971429 L16.3091508,55.9885714 Z M44.3284206,55.9885714 L32.0068413,60.6734694 L32.0068413,78.2857143 L44.3284206,73.2889796 L44.3284206,55.9885714 Z M59.0255397,0.0285714286 L49.6443651,4.02530612 L58.3380556,7.71102041 L68.3445873,4.02530612 L59.0255397,0.0285714286 Z M46.0164762,5.33714286 L46.0164762,23.3240816 L57.649754,26.6971429 L58.0249683,10.3330612 L46.0164762,5.33714286 Z M72.0346032,6.33632653 L61.0266825,11.0204082 L61.0266825,28.6955102 L72.0346032,23.6987755 L72.0346032,6.33632653 Z M14.9644286,25.3444898 L5.64619841,29.3420408 L14.2769444,33.0269388 L24.2834762,29.3420408 L14.9644286,25.3444898 Z M0.954793651,30.3412245 L0.64252381,48.3281633 L14.2769444,54.3240816 L14.2769444,35.6497959 L0.954793651,30.3412245 Z M28.973246,30.3412245 L16.6533016,35.0253061 L16.6533016,52.6367347 L28.973246,47.6408163 L28.973246,30.3412245 Z M44.9848413,24.6783673 L35.6657937,28.6759184 L44.2965397,32.3608163 L54.3030714,28.6759184 L44.9848413,24.6783673 Z M30.9760238,29.675102 L30.6629365,47.6628571 L44.2973571,53.6587755 L44.2973571,34.9836735 L30.9760238,29.675102 Z M58.9944762,29.675102 L46.6737143,34.3591837 L46.6737143,51.9722449 L58.9944762,46.9755102 L58.9944762,29.675102 Z M88.3478413,0.0285714286 L79.0296111,4.02530612 L87.6611746,7.71102041 L97.6677063,4.02530612 L88.3478413,0.0285714286 Z M74.3390238,5.02530612 L74.026754,23.0122449 L87.6611746,29.0073469 L87.6611746,10.3330612 L74.3390238,5.02530612 Z M102.357476,5.02530612 L90.0375317,9.70938776 L90.0375317,27.3216327 L102.357476,22.3257143 L102.357476,5.02530612 Z" id="Shape"></path>
                </g>
            </g>
        </g>
    </g>
</svg>