<?xml version="1.0" encoding="UTF-8"?>
<svg width="78px" height="80px" viewBox="0 0 78 80" version="1.1" xmlns="http://www.w3.org/2000/svg" xmlns:xlink="http://www.w3.org/1999/xlink">
    <!-- Generator: Sketch 51.2 (57519) - http://www.bohemiancoding.com/sketch -->
    <title>circleci</title>
    <desc>Created with Sketch.</desc>
    <defs></defs>
    <g id="Page-1" stroke="none" stroke-width="1" fill="none" fill-rule="evenodd">
        <g id="Desktop" transform="translate(-1088.000000, -2699.000000)" fill="#343434" fill-rule="nonzero">
            <g id="Group-23" transform="translate(1085.000000, 2699.000000)">
                <g id="circleci" transform="translate(3.000000, 0.000000)">
                    <ellipse id="Oval" cx="38.6953125" cy="40" rx="9.4453125" ry="9.46564885"></ellipse>
                    <path d="M0.113043475,29.9428572 C0.113043475,30.0571428 0,30.2857143 0,30.4 C0,31.4285716 0.791304345,32.3428571 1.92173913,32.3428571 L17.8608695,32.3428571 C18.6521739,32.3428571 19.2173913,31.8857145 19.5565217,31.2000001 C22.8347825,23.8857143 30.0695651,18.9714286 38.3217389,18.9714286 C49.7391303,18.9714286 59.0086956,28.3428571 59.0086956,39.8857143 C59.0086956,51.4285716 49.7391303,60.8000002 38.3217389,60.8000002 C29.9565217,60.8000002 22.8347825,55.7714283 19.5565217,48.6857145 C19.2173913,47.8857143 18.6521739,47.4285717 17.8608695,47.4285717 L1.92173913,47.4285717 C0.904347821,47.4285717 0,48.2285715 0,49.3714283 C0,49.4857143 0,49.7142855 0.113043475,49.8285715 C4.52173914,67.1999999 20.0086956,80 38.4347827,80 C60.2521738,80 78,62.057143 78,40 C78,17.9428572 60.2521738,0 38.4347827,0 C20.0086956,0 4.52173914,12.8 0.113043475,29.9428572 Z" id="Shape"></path>
                </g>
            </g>
        </g>
    </g>
</svg>