<?xml version="1.0" encoding="UTF-8"?>
<svg width="85px" height="80px" viewBox="0 0 85 80" version="1.1" xmlns="http://www.w3.org/2000/svg" xmlns:xlink="http://www.w3.org/1999/xlink">
    <!-- Generator: Sketch 51.2 (57519) - http://www.bohemiancoding.com/sketch -->
    <title>d3</title>
    <desc>Created with Sketch.</desc>
    <defs>
        <linearGradient x1="-82.6367258%" y1="-92.819878%" x2="103.767353%" y2="106.041826%" id="linearGradient-1">
            <stop stop-color="#F9A03C" offset="0%"></stop>
            <stop stop-color="#F7974E" offset="100%"></stop>
        </linearGradient>
        <linearGradient x1="-258.923825%" y1="-248.970263%" x2="97.6202479%" y2="98.7684937%" id="linearGradient-2">
            <stop stop-color="#F9A03C" offset="0%"></stop>
            <stop stop-color="#F7974E" offset="100%"></stop>
        </linearGradient>
        <linearGradient x1="-223.162629%" y1="-261.967947%" x2="94.0283377%" y2="101.690818%" id="linearGradient-3">
            <stop stop-color="#F9A03C" offset="0%"></stop>
            <stop stop-color="#F7974E" offset="100%"></stop>
        </linearGradient>
        <linearGradient x1="11.3387123%" y1="-1.82169774%" x2="82.496193%" y2="92.1067478%" id="linearGradient-4">
            <stop stop-color="#F26D58" offset="0%"></stop>
            <stop stop-color="#F9A03C" offset="100%"></stop>
        </linearGradient>
        <linearGradient x1="15.8436473%" y1="3.85803114%" x2="120.126091%" y2="72.3802579%" id="linearGradient-5">
            <stop stop-color="#B84E51" offset="0%"></stop>
            <stop stop-color="#F68E48" offset="100%"></stop>
        </linearGradient>
        <linearGradient x1="46.9841705%" y1="23.4664325%" x2="51.881003%" y2="147.391179%" id="linearGradient-6">
            <stop stop-color="#F9A03C" offset="0%"></stop>
            <stop stop-color="#F7974E" offset="100%"></stop>
        </linearGradient>
    </defs>
    <g id="Page-1" stroke="none" stroke-width="1" fill="none" fill-rule="evenodd">
        <g id="Desktop" transform="translate(-245.000000, -2531.000000)" fill-rule="nonzero">
            <g id="Group-12" transform="translate(245.000000, 2531.000000)">
                <g id="d3">
                    <path d="M84.1218107,57.8168451 C84.1595612,57.4498765 84.1867763,57.0793965 84.2078463,56.7071605 C84.233306,56.2664471 57.6851579,31.0773114 57.6851579,31.0773114 L57.0504253,31.0773114 C57.0504253,31.0773114 83.9593965,59.4611796 84.1218107,57.8168451 Z" id="Shape" fill="url(#linearGradient-1)"></path>
                    <path d="M27.4804938,49.0789574 C27.4453772,49.156214 27.4102606,49.2334706 27.3742661,49.3107269 C27.3365158,49.3914953 27.2978875,49.4722634 27.2592593,49.5521537 C26.4129492,51.3167628 39.1067216,63.7260905 40.1277366,62.2187105 C40.174266,62.1519891 40.2207957,62.0817557 40.2673251,62.0150344 C40.319122,61.9360221 40.3700412,61.8605212 40.4209603,61.7815088 C41.2374212,60.541893 27.8430727,48.2730314 27.4804938,49.0789574 Z" id="Shape" fill="url(#linearGradient-2)"></path>
                    <path d="M45.418052,66.5292731 C45.3820576,66.6082854 45.1265844,67.0402196 44.8930591,67.2684774 C44.8535529,67.3474897 57.2848286,79.6760494 57.2848286,79.6760494 L58.4041702,79.6760494 C58.4050479,79.6760494 46.7349244,67.0507546 45.418052,66.5292731 Z" id="Shape" fill="url(#linearGradient-3)"></path>
                    <path d="M84.2254048,56.4832922 C83.6442249,69.3710838 72.981948,79.6760494 59.9554459,79.6760494 L58.1943483,79.6760494 L45.1854048,66.8602469 C46.2555829,65.3511111 47.2502607,63.7875447 48.1360767,62.1572566 L59.9554459,62.1572566 C63.6936076,62.1572566 66.7355829,59.117037 66.7355829,55.3771193 C66.7355829,51.6389574 63.6936076,48.5969821 59.9554459,48.5969821 L52.9610973,48.5969821 C53.4939918,45.7797531 53.7854594,42.8747325 53.7854594,39.9029903 C53.7854594,36.8855967 53.4887243,33.9393142 52.9365159,31.0773114 L57.2813169,31.0773114 L84.1490262,57.5508369 C84.1806311,57.196159 84.2060905,56.8414815 84.2254048,56.4832922 Z M7.06721537,0 L0,0 L0,17.5187929 L7.06721537,17.5187929 C19.4106996,17.5187929 29.4540467,27.5595062 29.4540467,39.9029903 C29.4540467,43.261015 28.7051852,46.4487243 27.3742661,49.3107269 L40.2673251,62.0150344 C44.5006311,55.680878 46.9754733,48.0763786 46.9754733,39.9029903 C46.9754733,17.9006859 29.0721536,0 7.06721537,0 Z" id="Shape" fill="url(#linearGradient-4)"></path>
                    <path d="M59.9554459,0 L31.3371742,0 C38.3271332,4.26754459 44.1152263,10.3190123 48.0588204,17.5187929 L59.9554459,17.5187929 C63.6936076,17.5187929 66.7355829,20.5590123 66.7355829,24.29893 C66.7355829,28.0379698 63.6936076,31.0781893 59.9554459,31.0781893 L57.2821949,31.0781893 L84.1499039,57.5517146 C84.2131137,56.8335802 84.2526199,56.1110561 84.2526199,55.3771193 C84.2526199,49.4713853 82.1333333,44.0537722 78.6146502,39.8371467 C82.1333333,35.6222772 84.2526199,30.203786 84.2526199,24.29893 C84.2526199,10.90107 73.3541837,0 59.9554459,0 Z" id="Shape" fill="url(#linearGradient-5)"></path>
                    <path d="M58.1943483,79.6760494 L31.5417284,79.6760494 C36.9066667,76.3627984 41.5446914,71.9890262 45.1854048,66.8602469 L58.1943483,79.6760494 Z M40.2673251,62.0150344 L27.375144,49.3107269 C23.8134431,56.9652675 16.051797,62.2889439 7.06721537,62.2889439 L0,62.2889439 L0,79.8059809 L7.06721537,79.8059809 C20.8978875,79.8059809 33.1052948,72.7317422 40.2673251,62.0150344 Z" id="Shape" fill="url(#linearGradient-6)"></path>
                </g>
            </g>
        </g>
    </g>
</svg>