<?xml version="1.0" encoding="UTF-8"?>
<svg width="141px" height="80px" viewBox="0 0 141 80" version="1.1" xmlns="http://www.w3.org/2000/svg" xmlns:xlink="http://www.w3.org/1999/xlink">
    <!-- Generator: Sketch 52.5 (67469) - http://www.bohemiancoding.com/sketch -->
    <title>docker</title>
    <desc>Created with Sketch.</desc>
    <g id="Page-1" stroke="none" stroke-width="1" fill="none" fill-rule="evenodd">
        <g id="Desktop-HD-Copy-3" transform="translate(-1155.000000, -2513.000000)">
            <g id="docker" transform="translate(1155.000000, 2513.000000)">
                <path d="M81.3724679,25.2316791 L93.98816,25.2316791 L93.98816,38.1280808 L100.36707,38.1280808 C103.31275,38.1280808 106.342644,37.6033011 109.132309,36.6580476 C110.503059,36.1932512 112.041645,35.5464366 113.39378,34.732969 C111.612898,32.4078049 110.703693,29.4718754 110.435985,26.5779045 C110.072539,22.6417614 110.866505,17.5183633 113.530589,14.4376465 L114.856722,12.9037888 L116.43697,14.1740748 C120.415663,17.3706212 123.761725,21.8371583 124.351511,26.9289395 C129.142194,25.5197761 134.766733,25.8530821 138.989495,28.2902346 L140.721918,29.2898572 L139.810055,31.0695576 C136.238834,38.0394356 128.772839,40.1985376 121.473496,39.8164767 C110.550927,67.0211029 86.7712574,79.9006621 57.9385137,79.9006621 C43.0425716,79.9006621 29.375843,74.3322648 21.5933839,61.1161495 L21.4657348,60.9004463 L20.3319625,58.5936022 C17.7012679,52.7761119 16.8275215,46.4031118 17.4202626,40.0354304 L17.598144,38.1280808 L28.3859714,38.1280808 L28.3859714,25.2316791 L41.0013678,25.2316791 L41.0013678,12.6156918 L66.2333423,12.6156918 L66.2333423,0 L81.3724679,0 L81.3724679,25.2316791" id="Path" fill="#364548"></path>
                <path d="M122.245596,30.0025647 C123.091566,23.4286354 118.171757,18.264756 115.120589,15.8131248 C111.604624,19.878099 111.058274,30.5317767 116.57437,35.0172247 C113.496017,37.7516341 107.008961,40.2301544 100.36707,40.2301544 L19.5146536,40.2301544 C18.8687255,47.1636878 20.0861198,53.5485073 22.8660338,59.0137804 L23.7858756,60.6959713 C24.3682747,61.6843652 25.0044519,62.6381876 25.6920433,63.5565523 L25.6923388,63.5565523 C29.016239,63.7698919 32.0809996,63.8437628 34.8848478,63.7817109 L34.8860297,63.7817109 C40.3962164,63.6596761 44.8920063,63.0096116 48.2995285,61.8288568 C48.8068746,61.652453 49.3597253,61.9216392 49.5352428,62.4283939 C49.7104649,62.9351492 49.4421654,63.4882957 48.9354102,63.6641087 C48.4824331,63.8210108 48.0099541,63.9678659 47.52211,64.1073346 C47.521519,64.1076298 47.520928,64.1076298 47.520337,64.1079255 C44.8373418,64.8738201 41.960509,65.38944 38.2483428,65.6184403 C38.4684785,65.6219857 38.0187517,65.6515343 38.0175698,65.6518295 C37.8913981,65.6595123 37.7324276,65.6775371 37.605665,65.6846284 C36.1447918,65.7664778 34.5677934,65.7836154 32.9556324,65.7836154 C31.192479,65.7836154 29.4559192,65.7502262 27.514589,65.6518295 L27.4649476,65.6846284 C34.2016887,73.2564072 44.7351043,77.7977021 57.9385137,77.7977021 C85.8824414,77.7977021 109.584695,65.4104193 120.080289,37.6003463 C127.526782,38.364468 134.683111,36.4656875 137.938458,30.1110073 C132.753009,27.1186403 126.085116,28.0727583 122.245596,30.0025647" id="Path" fill="#22A0C8"></path>
                <path d="M122.245596,30.0025647 C123.091566,23.4286354 118.171757,18.264756 115.120589,15.8131248 C111.604624,19.878099 111.058274,30.5317767 116.57437,35.0172247 C113.496017,37.7516341 107.008961,40.2301544 100.36707,40.2301544 L24.3023817,40.2301544 C23.9723261,50.8486695 27.9129015,58.9088833 34.8848478,63.7817109 L34.8860297,63.7817109 C40.3962164,63.6596761 44.8920063,63.0096116 48.2995285,61.8288568 C48.8068746,61.652453 49.3597253,61.9216392 49.5352428,62.4283939 C49.7104649,62.9351492 49.4421654,63.4882957 48.9354102,63.6641087 C48.4824331,63.8210108 48.0099541,63.9678659 47.52211,64.1073346 C47.521519,64.1076298 47.520928,64.1076298 47.520337,64.1079255 C44.8373418,64.8738201 41.7131889,65.4556281 38.0010227,65.6846284 C38.0001362,65.6846284 37.9111955,65.5986428 37.9100136,65.5989379 C47.4198724,70.4770841 61.2095222,70.4596508 77.0191012,64.3865672 C94.7463719,57.5765462 111.241769,44.601841 122.75176,29.7620407 C122.578015,29.8403439 122.408999,29.9207156 122.245596,30.0025647" id="Path" fill="#37B1D9"></path>
                <path d="M19.6659414,48.6544049 C20.1685598,52.3683439 21.2547592,55.8458957 22.8660338,59.0137804 L23.7858756,60.6959713 C24.3682747,61.6843652 25.0044519,62.6381876 25.6923388,63.5565523 C29.0168299,63.7698919 32.081886,63.8437628 34.8860297,63.7817109 C40.3962164,63.6596761 44.8920063,63.0096116 48.2995285,61.8288568 C48.8068746,61.652453 49.3597253,61.9216392 49.5352428,62.4283939 C49.7104649,62.9351492 49.4421654,63.4882957 48.9354102,63.6641087 C48.4824331,63.8210108 48.0099541,63.9678659 47.52211,64.1073346 C47.521519,64.1076298 47.520928,64.1076298 47.520337,64.1079255 C44.8373418,64.8738201 41.7297359,65.4225341 38.0175698,65.6518295 C37.8902161,65.6595123 37.6680121,65.6609898 37.5394766,65.6680811 C36.0791943,65.7502262 34.5184476,65.8001628 32.9059911,65.8001628 C31.1431332,65.8001628 29.3403849,65.7664778 27.3993502,65.6680811 C34.1357957,73.2398604 44.7351043,77.7977021 57.9385137,77.7977021 C81.8611989,77.7977021 102.674505,68.717477 114.754484,48.6544049 L19.6659414,48.6544049" id="Path" fill="#1B81A5"></path>
                <path d="M25.030159,48.6544049 C26.4603018,55.1754428 29.8970769,60.2949992 34.8860297,63.7817109 C40.3962164,63.6596761 44.8920063,63.0096116 48.2995285,61.8288568 C48.8068746,61.652453 49.3597253,61.9216392 49.5352428,62.4283939 C49.7104649,62.9351492 49.4421654,63.4882957 48.9354102,63.6641087 C48.4824331,63.8210108 48.0099541,63.9678659 47.52211,64.1073346 C47.521519,64.1076298 47.520928,64.1076298 47.520337,64.1079255 C44.8373418,64.8738201 41.663843,65.4225341 37.9516768,65.6518295 C47.4609447,70.5290897 61.2107046,70.4590599 77.0191012,64.3865672 C86.5827382,60.7122229 95.787067,55.2422218 104.04496,48.6544049 L25.030159,48.6544049" id="Path" fill="#1D91B4"></path>
                <path d="M30.488636,27.3340482 L41.422137,27.3340482 L41.422137,38.2681402 L30.488636,38.2681402 L30.488636,27.3340482 Z M31.3993178,28.245321 L32.2621313,28.245321 L32.2621313,37.3574584 L31.3993178,37.3574584 L31.3993178,28.245321 Z M33.0215253,28.245321 L33.9189104,28.245321 L33.9189104,37.3574584 L33.0215253,37.3574584 L33.0215253,28.245321 Z M34.6777134,28.245321 L35.5750985,28.245321 L35.5750985,37.3574584 L34.6777134,37.3574584 L34.6777134,28.245321 Z M36.334788,28.245321 L37.2321731,28.245321 L37.2321731,37.3574584 L36.334788,37.3574584 L36.334788,28.245321 Z M37.9915672,28.245321 L38.8889522,28.245321 L38.8889522,37.3574584 L37.9915672,37.3574584 L37.9915672,28.245321 Z M39.6480508,28.245321 L40.5114552,28.245321 L40.5114552,37.3574584 L39.6480508,37.3574584 L39.6480508,28.245321 Z" id="Shape" fill="#23A3C2" fill-rule="nonzero"></path>
                <path d="M43.1037368,14.7183564 L54.0384199,14.7183564 L54.0384199,25.6518574 L43.1037368,25.6518574 L43.1037368,14.7183564 Z M44.0156007,15.6296292 L44.8778231,15.6296292 L44.8778231,24.7408801 L44.0156007,24.7408801 L44.0156007,15.6296292 Z M45.6378081,15.6296292 L46.5346022,15.6296292 L46.5346022,24.7408801 L45.6378081,24.7408801 L45.6378081,15.6296292 Z M47.2937007,15.6296292 L48.1910858,15.6296292 L48.1910858,24.7408801 L47.2937007,24.7408801 L47.2937007,15.6296292 Z M48.9504799,15.6296292 L49.8478649,15.6296292 L49.8478649,24.7408801 L48.9504799,24.7408801 L48.9504799,15.6296292 Z M50.6075545,15.6296292 L51.5049395,15.6296292 L51.5049395,24.7408801 L50.6075545,24.7408801 L50.6075545,15.6296292 Z M52.2637426,15.6296292 L53.127738,15.6296292 L53.127738,24.7408801 L52.2637426,24.7408801 L52.2637426,15.6296292 Z" id="Shape" fill="#23A3C2" fill-rule="nonzero"></path>
                <path d="M43.1037368,27.3340482 L54.0384199,27.3340482 L54.0384199,38.2681402 L43.1037368,38.2681402 L43.1037368,27.3340482 Z M44.0156007,28.245321 L44.8778231,28.245321 L44.8778231,37.3574584 L44.0156007,37.3574584 L44.0156007,28.245321 Z M45.6378081,28.245321 L46.5346022,28.245321 L46.5346022,37.3574584 L45.6378081,37.3574584 L45.6378081,28.245321 Z M47.2937007,28.245321 L48.1910858,28.245321 L48.1910858,37.3574584 L47.2937007,37.3574584 L47.2937007,28.245321 Z M48.9504799,28.245321 L49.8478649,28.245321 L49.8478649,37.3574584 L48.9504799,37.3574584 L48.9504799,28.245321 Z M50.6075545,28.245321 L51.5049395,28.245321 L51.5049395,37.3574584 L50.6075545,37.3574584 L50.6075545,28.245321 Z M52.2637426,28.245321 L53.127738,28.245321 L53.127738,37.3574584 L52.2637426,37.3574584 L52.2637426,28.245321 Z" id="Shape" fill="#34BBDE" fill-rule="nonzero"></path>
                <path d="M55.7200199,27.3340482 L66.6541114,27.3340482 L66.6541114,38.2681402 L55.7200199,38.2681402 L55.7200199,27.3340482 Z M56.6312927,28.245321 L57.493515,28.245321 L57.493515,37.3574584 L56.6312927,37.3574584 L56.6312927,28.245321 Z M58.2532044,28.245321 L59.1505898,28.245321 L59.1505898,37.3574584 L58.2532044,37.3574584 L58.2532044,28.245321 Z M59.9099834,28.245321 L60.8073688,28.245321 L60.8073688,37.3574584 L59.9099834,37.3574584 L59.9099834,28.245321 Z M61.5667625,28.245321 L62.4641479,28.245321 L62.4641479,37.3574584 L61.5667625,37.3574584 L61.5667625,28.245321 Z M63.2232463,28.245321 L64.1212221,28.245321 L64.1212221,37.3574584 L63.2232463,37.3574584 L63.2232463,28.245321 Z M64.8800254,28.245321 L65.7428386,28.245321 L65.7428386,37.3574584 L64.8800254,37.3574584 L64.8800254,28.245321 Z" id="Shape" fill="#23A3C2" fill-rule="nonzero"></path>
                <path d="M55.7200199,14.7183564 L66.6541114,14.7183564 L66.6541114,25.6518574 L55.7200199,25.6518574 L55.7200199,14.7183564 Z M56.6312927,15.6296292 L57.493515,15.6296292 L57.493515,24.7408801 L56.6312927,24.7408801 L56.6312927,15.6296292 Z M58.2532044,15.6296292 L59.1505898,15.6296292 L59.1505898,24.7408801 L58.2532044,24.7408801 L58.2532044,15.6296292 Z M59.9099834,15.6296292 L60.8073688,15.6296292 L60.8073688,24.7408801 L59.9099834,24.7408801 L59.9099834,15.6296292 Z M61.5667625,15.6296292 L62.4641479,15.6296292 L62.4641479,24.7408801 L61.5667625,24.7408801 L61.5667625,15.6296292 Z M63.2232463,15.6296292 L64.1212221,15.6296292 L64.1212221,24.7408801 L63.2232463,24.7408801 L63.2232463,15.6296292 Z M64.8800254,15.6296292 L65.7428386,15.6296292 L65.7428386,24.7408801 L64.8800254,24.7408801 L64.8800254,15.6296292 Z" id="Shape" fill="#34BBDE" fill-rule="nonzero"></path>
                <path d="M68.3360072,27.3340482 L79.2698036,27.3340482 L79.2698036,38.2681402 L68.3360072,38.2681402 L68.3360072,27.3340482 Z M69.24728,28.245321 L70.1097975,28.245321 L70.1097975,37.3574584 L69.24728,37.3574584 L69.24728,28.245321 Z M70.8694874,28.245321 L71.7668723,28.245321 L71.7668723,37.3574584 L70.8694874,37.3574584 L70.8694874,28.245321 Z M72.5256756,28.245321 L73.4230604,28.245321 L73.4230604,37.3574584 L72.5256756,37.3574584 L72.5256756,28.245321 Z M74.1827498,28.245321 L75.0801352,28.245321 L75.0801352,37.3574584 L74.1827498,37.3574584 L74.1827498,28.245321 Z M75.8395288,28.245321 L76.7369142,28.245321 L76.7369142,37.3574584 L75.8395288,37.3574584 L75.8395288,28.245321 Z M77.4960127,28.245321 L78.3591217,28.245321 L78.3591217,37.3574584 L77.4960127,37.3574584 L77.4960127,28.245321 Z" id="Shape" fill="#34BBDE" fill-rule="nonzero"></path>
                <path d="M68.3360072,14.7183564 L79.2698036,14.7183564 L79.2698036,25.6518574 L68.3360072,25.6518574 L68.3360072,14.7183564 Z M69.24728,15.6296292 L70.1097975,15.6296292 L70.1097975,24.7408801 L69.24728,24.7408801 L69.24728,15.6296292 Z M70.8694874,15.6296292 L71.7668723,15.6296292 L71.7668723,24.7408801 L70.8694874,24.7408801 L70.8694874,15.6296292 Z M72.5256756,15.6296292 L73.4230604,15.6296292 L73.4230604,24.7408801 L72.5256756,24.7408801 L72.5256756,15.6296292 Z M74.1827498,15.6296292 L75.0801352,15.6296292 L75.0801352,24.7408801 L74.1827498,24.7408801 L74.1827498,15.6296292 Z M75.8395288,15.6296292 L76.7369142,15.6296292 L76.7369142,24.7408801 L75.8395288,24.7408801 L75.8395288,15.6296292 Z M77.4960127,15.6296292 L78.3591217,15.6296292 L78.3591217,24.7408801 L77.4960127,24.7408801 L77.4960127,15.6296292 Z" id="Shape" fill="#23A3C2" fill-rule="nonzero"></path>
                <path d="M68.3360072,2.10236906 L79.2698036,2.10236906 L79.2698036,13.0364611 L68.3360072,13.0364611 L68.3360072,2.10236906 Z M69.24728,3.01305093 L70.1097975,3.01305093 L70.1097975,12.1251883 L69.24728,12.1251883 L69.24728,3.01305093 Z M70.8694874,3.01305093 L71.7668723,3.01305093 L71.7668723,12.1251883 L70.8694874,12.1251883 L70.8694874,3.01305093 Z M72.5256756,3.01305093 L73.4230604,3.01305093 L73.4230604,12.1251883 L72.5256756,12.1251883 L72.5256756,3.01305093 Z M74.1827498,3.01305093 L75.0801352,3.01305093 L75.0801352,12.1251883 L74.1827498,12.1251883 L74.1827498,3.01305093 Z M75.8395288,3.01305093 L76.7369142,3.01305093 L76.7369142,12.1251883 L75.8395288,12.1251883 L75.8395288,3.01305093 Z M77.4960127,3.01305093 L78.3591217,3.01305093 L78.3591217,12.1251883 L77.4960127,12.1251883 L77.4960127,3.01305093 Z" id="Shape" fill="#34BBDE" fill-rule="nonzero"></path>
                <path d="M80.9516988,27.3340482 L91.8857909,27.3340482 L91.8857909,38.2681402 L80.9516988,38.2681402 L80.9516988,27.3340482 Z M81.8623807,28.245321 L82.7257848,28.245321 L82.7257848,37.3574584 L81.8623807,37.3574584 L81.8623807,28.245321 Z M83.4845881,28.245321 L84.381973,28.245321 L84.381973,37.3574584 L83.4845881,37.3574584 L83.4845881,28.245321 Z M85.1416629,28.245321 L86.0390477,28.245321 L86.0390477,37.3574584 L85.1416629,37.3574584 L85.1416629,28.245321 Z M86.797851,28.245321 L87.6952359,28.245321 L87.6952359,37.3574584 L86.797851,37.3574584 L86.797851,28.245321 Z M88.455221,28.245321 L89.3523106,28.245321 L89.3523106,37.3574584 L88.455221,37.3574584 L88.455221,28.245321 Z M90.1117043,28.245321 L90.9745181,28.245321 L90.9745181,37.3574584 L90.1117043,37.3574584 L90.1117043,28.245321 Z" id="Shape" fill="#23A3C2" fill-rule="nonzero"></path>
                <path d="M53.3537833,55.9954108 C55.0194269,55.9954108 56.3697892,57.3463641 56.3697892,59.0120077 C56.3697892,60.6776513 55.0194269,62.0280132 53.3537833,62.0280132 C51.6878442,62.0280132 50.3371865,60.6776513 50.3371865,59.0120077 C50.3371865,57.3463641 51.6878442,55.9954108 53.3537833,55.9954108" id="Path" fill="#D3ECEC"></path>
                <path d="M53.3537833,56.8511327 C53.6297654,56.8511327 53.8930417,56.9031377 54.1359296,56.997397 C53.8726533,57.1495713 53.6944764,57.4347134 53.6944764,57.760928 C53.6944764,58.2478858 54.0892431,58.6420612 54.5762008,58.6420612 C54.9098023,58.6420612 55.1996723,58.4567928 55.3494825,58.1831746 C55.4552657,58.4381777 55.5140673,58.7182963 55.5140673,59.0120077 C55.5140673,60.2048767 54.5469479,61.1719961 53.3537833,61.1719961 C52.1609142,61.1719961 51.1932039,60.2048767 51.1932039,59.0120077 C51.1932039,57.8185473 52.1609142,56.8511327 53.3537833,56.8511327" id="Path" fill="#364548"></path>
                <path d="M0,49.744741 L140.318583,49.744741 C137.263277,48.9696863 130.651822,47.9227863 131.742158,43.9186819 C126.186762,50.347233 112.788924,48.428655 109.4077,45.2587021 C105.642346,50.7198384 83.722453,48.6440629 82.1936182,44.3896835 C77.4732607,49.9294185 62.8462086,49.9294185 58.1255553,44.3896835 C56.5961297,48.6440629 34.6765315,50.7198384 30.9108827,45.2587021 C27.5296586,48.428655 14.1330024,50.347233 8.57701572,43.9186819 C9.66735189,47.9227863 3.05589612,48.9696863 0,49.744741" id="Path" fill="#364548"></path>
                <path d="M61.3723343,77.7324 C53.9022017,74.1874775 49.8017694,69.3687239 47.520337,64.1079255 C44.7457417,64.9001181 41.4100222,65.4062825 37.5344534,65.6237589 C36.0744666,65.7056077 34.538836,65.7475663 32.9269704,65.7475663 C31.0689667,65.7475663 29.1110893,65.6926063 27.0557022,65.583573 C33.9062046,72.4299388 42.3340009,77.7013743 57.9385137,77.7977021 C59.0906063,77.7977021 60.2344248,77.7752452 61.3723343,77.7324" id="Path" fill="#BDD9D7"></path>
                <path d="M50.2952278,68.9621374 C49.2616246,67.5591796 48.2590472,65.7960259 47.52211,64.1073346 C44.7469237,64.8998229 41.4106132,65.4062825 37.5344534,65.6237589 C40.1967647,67.068971 44.0046678,68.4081048 50.2952278,68.9621374" id="Path" fill="#D3ECEC"></path>
            </g>
        </g>
    </g>
</svg>