<?xml version="1.0" encoding="UTF-8"?>
<svg width="80px" height="80px" viewBox="0 0 80 80" version="1.1" xmlns="http://www.w3.org/2000/svg" xmlns:xlink="http://www.w3.org/1999/xlink">
    <!-- Generator: Sketch 51.2 (57519) - http://www.bohemiancoding.com/sketch -->
    <title>git-icon</title>
    <desc>Created with Sketch.</desc>
    <defs></defs>
    <g id="Page-1" stroke="none" stroke-width="1" fill="none" fill-rule="evenodd">
        <g id="Desktop" transform="translate(-937.000000, -2707.000000)" fill="#DE4C36" fill-rule="nonzero">
            <g id="Group-22" transform="translate(937.000000, 2707.000000)">
                <g id="git-icon">
                    <path d="M78.491109,36.4361737 L43.5618927,1.50892054 C41.5517927,-0.502973514 38.2891111,-0.502973514 36.276378,1.50892054 L29.0233406,8.76209702 L38.2241558,17.9630889 C40.3624105,17.240668 42.8140302,17.7252079 44.5186652,19.4298756 C46.2311999,21.1450768 46.7122196,23.6178104 45.9722571,25.7631285 L54.8395187,34.6305603 C56.9847955,33.8914614 59.4601149,34.3698568 61.1735277,36.0859357 C63.5680921,38.4796682 63.5680921,42.359499 61.1735277,44.7549872 C58.7780855,47.1504753 54.8983293,47.1504753 52.5020093,44.7549872 C50.7008196,42.9520069 50.2557886,40.3063486 51.1677946,38.0872963 L42.8982965,29.8176393 L42.8974186,51.5798023 C43.4811377,51.8694728 44.032379,52.2548224 44.5186652,52.7393623 C46.9132296,55.1330949 46.9132296,59.0129256 44.5186652,61.4101691 C42.123223,63.8047798 38.2417114,63.8047798 35.8497802,61.4101691 C33.4552158,59.0129256 33.4552158,55.1330949 35.8497802,52.7393623 C36.4413993,52.1486098 37.1260621,51.7018149 37.8563689,51.4016107 L37.8563689,29.4366785 C37.1260621,29.13823 36.4422771,28.6940684 35.8497802,28.0989269 C34.0354236,26.2871689 33.5991705,23.6248327 34.5287321,21.3970023 L25.4595827,12.3259234 L1.5095499,36.2746606 C-0.5031833,38.2883102 -0.5031833,41.5510544 1.5095499,43.5629486 L36.4387658,78.4910793 C38.4497436,80.5029736 41.7115474,80.5029736 43.7251583,78.4910793 L78.491109,43.7253396 C80.5029637,41.7125678 80.5029637,38.4480679 78.491109,36.4361737" id="Shape"></path>
                </g>
            </g>
        </g>
    </g>
</svg>