<?xml version="1.0" encoding="UTF-8"?>
<svg width="71px" height="80px" viewBox="0 0 71 80" version="1.1" xmlns="http://www.w3.org/2000/svg" xmlns:xlink="http://www.w3.org/1999/xlink">
    <!-- Generator: Sketch 51.2 (57519) - http://www.bohemiancoding.com/sketch -->
    <title>html-5</title>
    <desc>Created with Sketch.</desc>
    <defs></defs>
    <g id="Page-1" stroke="none" stroke-width="1" fill="none" fill-rule="evenodd">
        <g id="Desktop" transform="translate(-769.000000, -2520.000000)" fill-rule="nonzero">
            <g id="Group-15" transform="translate(765.000000, 2520.000000)">
                <g id="html-5" transform="translate(4.000000, 0.000000)">
                    <polygon id="Shape" fill="#E44D26" points="70.0534027 0.451127823 63.6824753 71.8216697 35.04492 79.7609408 6.48621554 71.8328514 0.122035859 0.451127823"></polygon>
                    <polygon id="Shape" fill="#F16529" points="35.0877193 73.6925005 58.2282629 67.2770387 63.6726431 6.28764219 35.0877193 6.28764219"></polygon>
                    <polygon id="Shape" fill="#EBEBEB" points="22.7029111 23.7971853 35.0877193 23.7971853 35.0877193 15.0424137 13.1351456 15.0424137 13.3447079 17.3911702 15.4964334 41.5166763 35.0877193 41.5166763 35.0877193 32.7620976 23.5029882 32.7620976"></polygon>
                    <polygon id="Shape" fill="#EBEBEB" points="24.6759206 45.8941584 15.8876036 45.8941584 17.1141315 59.6402544 35.0474263 64.618662 35.0877193 64.6074803 35.0877193 55.4989397 35.0493542 55.5091576 25.2992096 52.8764219"></polygon>
                    <polygon id="Shape" fill="#FFFFFF" points="35.0574512 41.5166763 45.8378638 41.5166763 44.8216697 52.8708309 35.0574512 55.5062656 35.0574512 64.6144208 53.0050126 59.6402544 53.1366878 58.1611721 55.1939463 35.1129748 55.4075573 32.7620976 35.0574512 32.7620976"></polygon>
                    <polygon id="Shape" fill="#FFFFFF" points="35.0574512 23.7757856 35.0574512 23.7971853 56.2041642 23.7971853 56.3797958 21.829381 56.7786774 17.3911702 56.9880471 15.0424137 35.0574512 15.0424137"></polygon>
                </g>
            </g>
        </g>
    </g>
</svg>