<?xml version="1.0" encoding="UTF-8"?>
<svg width="80px" height="80px" viewBox="0 0 80 80" version="1.1" xmlns="http://www.w3.org/2000/svg" xmlns:xlink="http://www.w3.org/1999/xlink">
    <!-- Generator: Sketch 51.2 (57519) - http://www.bohemiancoding.com/sketch -->
    <title>javascript</title>
    <desc>Created with Sketch.</desc>
    <defs></defs>
    <g id="Page-1" stroke="none" stroke-width="1" fill="none" fill-rule="evenodd">
        <g id="Desktop" transform="translate(-243.000000, -2354.000000)" fill-rule="nonzero">
            <g id="Group-6" transform="translate(228.000000, 2354.000000)">
                <g id="javascript" transform="translate(15.000000, 0.000000)">
                    <polygon id="Shape" fill="#F7DF1E" points="0 0 80 0 80 80 0 80"></polygon>
                    <path d="M20.7408661,67.194013 L26.787255,63.4851992 C27.9537169,65.5814411 29.0148323,67.355067 31.5600796,67.355067 C33.9998548,67.355067 35.5380395,66.387727 35.5380395,62.6251442 L35.5380395,37.037037 L42.962963,37.037037 L42.962963,62.7315387 C42.962963,70.526187 38.455135,74.0740741 31.8783765,74.0740741 C25.9387138,74.0740741 22.4908726,70.9560875 20.7407407,67.1933773" id="Shape" fill="#000000"></path>
                    <path d="M47.4074074,66.3233995 L53.4758871,62.7461749 C55.0733857,65.4022747 57.1496299,67.3533366 60.8227432,67.3533366 C63.9108626,67.3533366 65.8801033,65.781388 65.8801033,63.6133421 C65.8801033,61.0117124 63.8572349,60.0902031 60.4499936,58.5731094 L58.5872526,57.7595154 C53.2100152,55.4293402 49.6430241,52.5025552 49.6430241,46.3235729 C49.6430241,40.6325164 53.9018868,36.2962963 60.5567452,36.2962963 C65.2948576,36.2962963 68.7019729,37.9766731 71.1505891,42.3669789 L65.3477297,46.160803 C64.0699829,43.8303714 62.6862397,42.9091185 60.5568713,42.9091185 C58.374127,42.9091185 56.9898801,44.3182969 56.9898801,46.160803 C56.9898801,48.4372767 58.374127,49.358914 61.5679909,50.7682208 L63.4311095,51.581174 C69.7663425,54.3455735 73.3333333,57.1636746 73.3333333,63.504914 C73.3333333,70.3345921 68.0629737,74.0740741 60.9826191,74.0740741 C54.0618885,74.0740741 49.5899001,70.7138334 47.4075335,66.3233995" id="Shape" fill="#000000"></path>
                </g>
            </g>
        </g>
    </g>
</svg>