<?xml version="1.0" encoding="UTF-8"?>
<svg width="80px" height="79px" viewBox="0 0 80 79" version="1.1" xmlns="http://www.w3.org/2000/svg" xmlns:xlink="http://www.w3.org/1999/xlink">
    <!-- Generator: Sketch 51.2 (57519) - http://www.bohemiancoding.com/sketch -->
    <title>jquery</title>
    <desc>Created with Sketch.</desc>
    <defs></defs>
    <g id="Page-1" stroke="none" stroke-width="1" fill="none" fill-rule="evenodd">
        <g id="Desktop" transform="translate(-414.000000, -2521.000000)" fill="#21609B" fill-rule="nonzero">
            <g id="Group-13" transform="translate(414.000000, 2520.000000)">
                <g id="jquery">
                    <g id="Group" transform="translate(0.000000, 0.727548)">
                        <path d="M77.9854187,58.5815436 L77.6318841,59.4972844 C71.6088619,71.2242854 60.9381533,78.4200076 45.717196,78.7373264 C38.6016656,78.883914 31.821562,77.0584682 27.3928946,75.0726386 C17.8345266,70.7784869 9.79549495,62.8144735 5.40476781,54.3054996 C-0.893321547,42.1076941 -2.02894363,25.1397582 11.0664949,12.4659745 C11.2682683,12.4659745 9.47817609,15.2140592 9.67994945,15.2140592 L9.31951666,16.3867593 C-0.11727001,45.9310412 28.9562073,71.2492914 57.2182797,68.3537568 C64.0104552,67.6578973 72.6720526,63.9380237 77.9854187,58.5815436" id="Shape"></path>
                        <path d="M60.8829674,46.3647678 C67.9933241,46.4139177 75.4201373,43.0906926 79.8177626,38.4248983 C75.9702716,48.1919381 64.8296206,54.470195 49.8889041,52.4731557 C37.3798156,50.7994711 25.4631131,38.211053 24.2352271,25.5976287 C23.3375942,16.4178013 26.5375133,10.9388775 31.8094901,4.29328955 C29.9771462,7.76913815 29.2924964,10.449965 29.1217649,12.1598652 C27.1186898,32.0172995 44.9842583,46.2612942 60.8829674,46.3647678" id="Shape"></path>
                        <path d="M79.1037952,21.7009878 C77.9983529,24.2360895 71.6338681,29.0243274 68.8236992,29.6227494 C57.6951202,31.9931557 50.5675181,26.7160053 46.8347102,20.711091 C46.2794022,19.8134579 45.2532895,17.3645843 45.0696241,16.7411561 C43.6218567,11.8184026 44.2875365,4.37261925 48.6066945,0.518229969 C47.3055147,4.18291777 47.1158133,8.43999158 47.8004631,11.2070464 C48.2152195,12.8807309 49.4793213,15.8012716 50.7442854,17.6387891 C53.0465714,20.9861581 54.5064107,21.7992876 57.4631669,23.5764455 C58.7945266,24.3766411 60.2233236,25.0181769 60.8407158,25.1949442 C63.6439863,26.0192833 69.5626727,28.1939522 79.1037952,21.7009878" id="Shape"></path>
                    </g>
                </g>
            </g>
        </g>
    </g>
</svg>