<?xml version="1.0" encoding="UTF-8"?>
<svg width="36px" height="80px" viewBox="0 0 36 80" version="1.1" xmlns="http://www.w3.org/2000/svg" xmlns:xlink="http://www.w3.org/1999/xlink">
    <!-- Generator: Sketch 51.2 (57519) - http://www.bohemiancoding.com/sketch -->
    <title>mongodb</title>
    <desc>Created with Sketch.</desc>
    <defs></defs>
    <g id="Page-1" stroke="none" stroke-width="1" fill="none" fill-rule="evenodd">
        <g id="Desktop" transform="translate(-282.000000, -2703.000000)" fill-rule="nonzero">
            <g id="Group-18" transform="translate(243.000000, 2703.000000)">
                <g id="mongodb" transform="translate(39.000000, 0.000000)">
                    <g id="Group">
                        <path d="M19.610314,79.6179049 L17.4937003,78.8948173 C17.4937003,78.8948173 17.7521184,68.1050143 13.8801935,67.3307262 C11.2989103,64.3364565 14.2931795,-59.6694736 23.5856061,66.9177399 C23.5856061,66.9177399 20.3850853,68.5180006 19.8170484,71.2543345 C19.1973279,73.9389852 19.610314,79.6179049 19.610314,79.6179049 Z" id="Shape" fill="#FFFFFF"></path>
                        <path d="M19.610314,79.6179049 L17.4937003,78.8948173 C17.4937003,78.8948173 17.7521184,68.1050143 13.8801935,67.3307262 C11.2989103,64.3364565 14.2931795,-59.6694736 23.5856061,66.9177399 C23.5856061,66.9177399 20.3850853,68.5180006 19.8170484,71.2543345 C19.1973279,73.9389852 19.610314,79.6179049 19.610314,79.6179049 Z" id="Shape" fill="#A6A385"></path>
                        <path d="M20.7463876,69.1894048 C20.7463876,69.1894048 39.2800402,57.0055927 34.9434456,31.6569469 C30.761902,13.2266616 20.9009555,7.18643944 19.8170484,4.86309131 C18.629774,3.2111473 17.4937003,0.320245286 17.4937003,0.320245286 L18.2684717,51.5846083 C18.2684717,51.6362919 16.6677282,67.2790422 20.7463876,69.1894048" id="Shape" fill="#FFFFFF"></path>
                        <path d="M20.7463876,69.1894048 C20.7463876,69.1894048 39.2800402,57.0055927 34.9434456,31.6569469 C30.761902,13.2266616 20.9009555,7.18643944 19.8170484,4.86309131 C18.629774,3.2111473 17.4937003,0.320245286 17.4937003,0.320245286 L18.2684717,51.5846083 C18.2684717,51.6362919 16.6677282,67.2790422 20.7463876,69.1894048" id="Shape" fill="#499D4A"></path>
                        <path d="M16.4097936,69.8603256 C16.4097936,69.8603256 -0.988268257,57.9861326 0.0444382599,37.0779315 C1.02497813,16.1692473 13.312157,5.89579782 15.6867058,4.03711931 C17.2357655,2.3851753 17.2874492,1.76545478 17.3908164,0.113510773 C18.4747235,2.43685892 18.2684721,34.8579507 18.4230399,38.678192 C18.8877095,53.3916032 17.5970679,67.072791 16.4097936,69.8603256 Z" id="Shape" fill="#FFFFFF"></path>
                        <path d="M16.4097936,69.8603256 C16.4097936,69.8603256 -0.988268257,57.9861326 0.0444382599,37.0779315 C1.02497813,16.1692473 13.312157,5.89579782 15.6867058,4.03711931 C17.2357655,2.3851753 17.2874492,1.76545478 17.3908164,0.113510773 C18.4747235,2.43685892 18.2684721,34.8579507 18.4230399,38.678192 C18.8877095,53.3916032 17.5970679,67.072791 16.4097936,69.8603256 Z" id="Shape" fill="#58AA50"></path>
                    </g>
                </g>
            </g>
        </g>
    </g>
</svg>