<?xml version="1.0" encoding="UTF-8"?>
<svg width="71px" height="80px" viewBox="0 0 71 80" version="1.1" xmlns="http://www.w3.org/2000/svg" xmlns:xlink="http://www.w3.org/1999/xlink">
    <!-- Generator: Sketch 51.2 (57519) - http://www.bohemiancoding.com/sketch -->
    <title>neo4j</title>
    <desc>Created with Sketch.</desc>
    <defs></defs>
    <g id="Page-1" stroke="none" stroke-width="1" fill="none" fill-rule="evenodd">
        <g id="Desktop" transform="translate(-426.000000, -2702.000000)" fill-rule="nonzero">
            <g id="Group-19" transform="translate(426.000000, 2702.000000)">
                <g id="neo4j">
                    <path d="M67.1142902,36.2831586 C67.1142902,54.817531 52.0915178,69.8403037 33.5571451,69.8403037 C15.0227725,69.8403037 0,54.817531 0,36.2831586 C0,17.7487859 15.0227725,2.72601337 33.5571451,2.72601337 C52.0915178,2.70986367 67.1142902,17.7487859 67.1142902,36.2831586" id="Shape" fill="#008CC1"></path>
                    <path d="M14.8763304,25.276185 C14.8763304,26.7559348 13.6733151,27.9589501 12.1938391,27.9589501 C10.7140893,27.9589501 9.51107404,26.7559348 9.51107404,25.276185 C9.51107404,23.7967089 10.7140893,22.5936937 12.1938391,22.5936937 C13.6894649,22.5936937 14.8763304,23.7967089 14.8763304,25.276185" id="Shape" fill="#FFFFFF"></path>
                    <path d="M15.3315327,32.6412659 C15.3315327,34.1207421 14.1285175,35.3240309 12.6490414,35.3240309 C11.1695654,35.3240309 9.96627639,34.1207421 9.96627639,32.6412659 C9.96627639,31.1617898 11.1695654,29.9587746 12.6490414,29.9587746 C14.1285175,29.9587746 15.3315327,31.1456403 15.3315327,32.6412659" id="Shape" fill="#FFFFFF"></path>
                    <path d="M16.9736006,40.4453997 C16.9736006,41.9248756 15.7705854,43.127891 14.2911093,43.127891 C12.8116332,43.127891 11.6083443,41.9248756 11.6083443,40.4453997 C11.6083443,38.9656499 12.8116332,37.7626345 14.2911093,37.7626345 C15.7705854,37.746485 16.9736006,38.9495001 16.9736006,40.4453997" id="Shape" fill="#FFFFFF"></path>
                    <path d="M20.6480663,47.4363004 C20.6480663,48.9157766 19.4447773,50.1190654 17.9653013,50.1190654 C16.4858252,50.1190654 15.2828099,48.9157766 15.2828099,47.4363004 C15.2828099,45.9568243 16.4858252,44.7538091 17.9653013,44.7538091 C19.4447773,44.7373857 20.6480663,45.9406748 20.6480663,47.4363004" id="Shape" fill="#FFFFFF"></path>
                    <path d="M49.3764532,57.2076855 C49.3764532,58.6871617 48.1734381,59.8901768 46.6936883,59.8901768 C45.2142121,59.8901768 44.011197,58.6871617 44.011197,57.2076855 C44.011197,55.7282097 45.2142121,54.5249206 46.6936883,54.5249206 C48.1734381,54.5249206 49.3764532,55.7282097 49.3764532,57.2076855" id="Shape" fill="#FFFFFF"></path>
                    <path d="M54.2539343,51.4359498 C54.2539343,52.9154259 53.0509189,54.1184411 51.5711691,54.1184411 C50.0916932,54.1184411 48.8886778,52.9154259 48.8886778,51.4359498 C48.8886778,49.9564737 50.0916932,48.7531848 51.5711691,48.7531848 C53.0509189,48.7531848 54.2539343,49.9564737 54.2539343,51.4359498" id="Shape" fill="#FFFFFF"></path>
                    <path d="M40.109267,10.6275926 C40.109267,12.1070687 38.9059782,13.3100839 37.4265021,13.3100839 C35.9470259,13.3100839 34.7440108,12.1070687 34.7440108,10.6275926 C34.7440108,9.14811655 35.9470259,7.9451013 37.4265021,7.9451013 C38.9059782,7.9451013 40.109267,9.14811655 40.109267,10.6275926" id="Shape" fill="#FFFFFF"></path>
                    <path d="M33.0532199,8.15641594 C33.0532199,9.635892 31.849931,10.8389073 30.3704549,10.8389073 C28.8909788,10.8389073 27.6879636,9.635892 27.6879636,8.15641594 C27.6879636,6.67693986 28.8909788,5.4736509 30.3704549,5.4736509 C31.849931,5.4736509 33.0532199,6.67693986 33.0532199,8.15641594" id="Shape" fill="#FFFFFF"></path>
                    <path d="M52.075368,10.3998546 C61.9524105,10.3998546 69.9593735,18.4070911 69.9593735,28.2841335 C69.9593735,38.1611763 61.9524105,46.168139 52.075368,46.168139 C42.1980519,46.168139 34.1910891,38.1611763 34.1910891,28.2841335 C34.1910891,18.4070911 42.1980519,10.3998546 52.075368,10.3998546" id="Shape" fill="#66B245"></path>
                    <path d="M52.075368,46.6471553 C41.9497846,46.6471553 33.7120728,38.4094436 33.7120728,28.2841335 C33.7120728,18.1585501 41.9497846,9.921112 52.075368,9.921112 C62.2006778,9.921112 70.4383898,18.1585501 70.4383898,28.2841335 C70.4383898,38.4094436 62.2006778,46.6471553 52.075368,46.6471553 Z M52.075368,10.8791446 C42.4780712,10.8791446 34.6701054,18.6871104 34.6701054,28.2841335 C34.6701054,37.8814306 42.4780712,45.6891228 52.075368,45.6891228 C61.6726651,45.6891228 69.4803572,37.8814306 69.4803572,28.2841335 C69.4803572,18.6871104 61.6726651,10.8791446 52.075368,10.8791446 Z" id="Shape" fill="#FFFFFF"></path>
                    <path d="M27.5740946,50.1190654 C35.6552367,50.1190654 42.2065374,56.6700924 42.2065374,64.7515081 C42.2065374,72.8326502 35.6552367,79.3839509 27.5740946,79.3839509 C19.492679,79.3839509 12.941652,72.8326502 12.941652,64.7515081 C12.941652,56.6700924 19.492679,50.1190654 27.5740946,50.1190654" id="Shape" fill="#66B245"></path>
                    <path d="M27.5740946,79.8629672 C19.2414007,79.8629672 12.4626357,73.0839283 12.4626357,64.7515081 C12.4626357,56.4188143 19.2414007,49.6400491 27.5740946,49.6400491 C35.9067887,49.6400491 42.6855537,56.4188143 42.6855537,64.7515081 C42.6855537,73.0839283 35.9067887,79.8629672 27.5740946,79.8629672 Z M27.5740946,50.5980819 C19.769961,50.5980819 13.4206683,56.9471007 13.4206683,64.7515081 C13.4206683,72.5556419 19.769961,78.9049346 27.5740946,78.9049346 C35.3782284,78.9049346 41.7275211,72.5556419 41.7275211,64.7515081 C41.7275211,56.9471007 35.3782284,50.5980819 27.5740946,50.5980819 Z" id="Shape" fill="#FFFFFF"></path>
                    <path d="M15.5266977,0.547447206 C20.9141256,0.547447206 25.2816594,4.91498102 25.2816594,10.302409 C25.2816594,15.6898369 20.9141256,20.0573708 15.5266977,20.0573708 C10.1392697,20.0573708 5.77173589,15.6898369 5.77173589,10.302409 C5.77173589,4.91498102 10.1392697,0.547447206 15.5266977,0.547447206" id="Shape" fill="#66B245"></path>
                    <path d="M15.5266977,20.5363871 C9.88361186,20.5363871 5.29271959,15.9454948 5.29271959,10.302409 C5.29271959,4.65932317 9.88361186,0.068430901 15.5266977,0.068430901 C21.1697835,0.068430901 25.7606758,4.65932317 25.7606758,10.302409 C25.7606758,15.9454948 21.1697835,20.5363871 15.5266977,20.5363871 Z M15.5266977,1.02646351 C10.4118984,1.02646351 6.25075219,5.18760974 6.25075219,10.302409 C6.25075219,15.4172082 10.4118984,19.5783545 15.5266977,19.5783545 C20.6414969,19.5783545 24.8026431,15.4172082 24.8026431,10.302409 C24.8026431,5.18760974 20.6414969,1.02646351 15.5266977,1.02646351 Z" id="Shape" fill="#FFFFFF"></path>
                </g>
            </g>
        </g>
    </g>
</svg>