<?xml version="1.0" encoding="UTF-8"?>
<svg width="71px" height="80px" viewBox="0 0 71 80" version="1.1" xmlns="http://www.w3.org/2000/svg" xmlns:xlink="http://www.w3.org/1999/xlink">
    <!-- Generator: Sketch 51.2 (57519) - http://www.bohemiancoding.com/sketch -->
    <title>Group</title>
    <desc>Created with Sketch.</desc>
    <defs>
        <linearGradient x1="68.1884411%" y1="17.4868311%" x2="27.8226935%" y2="89.7551419%" id="linearGradient-1">
            <stop stop-color="#41873F" offset="0%"></stop>
            <stop stop-color="#418B3D" offset="32.88%"></stop>
            <stop stop-color="#419637" offset="63.52%"></stop>
            <stop stop-color="#3FA92D" offset="93.19%"></stop>
            <stop stop-color="#3FAE2A" offset="100%"></stop>
        </linearGradient>
        <path d="M37.058167,0.543494355 C35.8746727,-0.122221219 34.4692732,-0.122221219 33.2857788,0.543494355 L2.14508352,18.5178149 C0.961589165,19.1835305 0.295873589,20.4409932 0.295873589,21.7724244 L0.295873589,57.7950339 C0.295873589,59.126465 1.03555756,60.3839277 2.14508352,61.0496433 L33.2857788,79.0239642 C34.4692732,79.6896794 35.8746727,79.6896794 37.058167,79.0239642 L68.1988621,61.0496433 C69.3823565,60.3839277 70.0480723,59.126465 70.0480723,57.7950339 L70.0480723,21.7724244 C70.0480723,20.4409932 69.3083885,19.1835305 68.1988621,18.5178149 L37.058167,0.543494355 Z" id="path-2"></path>
        <linearGradient x1="43.2765472%" y1="55.168777%" x2="159.245277%" y2="-18.3061379%" id="linearGradient-4">
            <stop stop-color="#41873F" offset="13.76%"></stop>
            <stop stop-color="#54A044" offset="40.32%"></stop>
            <stop stop-color="#66B848" offset="71.36%"></stop>
            <stop stop-color="#6CC04A" offset="90.81%"></stop>
        </linearGradient>
        <path d="M37.058167,0.543494355 C35.8746727,-0.122221219 34.4692732,-0.122221219 33.2857788,0.543494355 L2.14508352,18.5178149 C0.961589165,19.1835305 0.295873589,20.4409932 0.295873589,21.7724244 L0.295873589,57.7950339 C0.295873589,59.126465 1.03555756,60.3839277 2.14508352,61.0496433 L33.2857788,79.0239642 C34.4692732,79.6896794 35.8746727,79.6896794 37.058167,79.0239642 L68.1988621,61.0496433 C69.3823565,60.3839277 70.0480723,59.126465 70.0480723,57.7950339 L70.0480723,21.7724244 C70.0480723,20.4409932 69.3083885,19.1835305 68.1988621,18.5178149 L37.058167,0.543494355 Z" id="path-5"></path>
        <linearGradient x1="-4.38880435%" y1="49.9972065%" x2="101.499239%" y2="49.9972065%" id="linearGradient-7">
            <stop stop-color="#6CC04A" offset="9.191646%"></stop>
            <stop stop-color="#66B848" offset="28.64%"></stop>
            <stop stop-color="#54A044" offset="59.68%"></stop>
            <stop stop-color="#41873F" offset="86.24%"></stop>
        </linearGradient>
        <linearGradient x1="-103.860714%" y1="50.2754209%" x2="100.796849%" y2="50.2754209%" id="linearGradient-8">
            <stop stop-color="#6CC04A" offset="9.191646%"></stop>
            <stop stop-color="#66B848" offset="28.64%"></stop>
            <stop stop-color="#54A044" offset="59.68%"></stop>
            <stop stop-color="#41873F" offset="86.24%"></stop>
        </linearGradient>
        <linearGradient x1="130.613025%" y1="-211.06936%" x2="4.39327731%" y2="201.605387%" id="linearGradient-9">
            <stop stop-color="#41873F" offset="0%"></stop>
            <stop stop-color="#418B3D" offset="32.88%"></stop>
            <stop stop-color="#419637" offset="63.52%"></stop>
            <stop stop-color="#3FA92D" offset="93.19%"></stop>
            <stop stop-color="#3FAE2A" offset="100%"></stop>
        </linearGradient>
    </defs>
    <g id="Page-1" stroke="none" stroke-width="1" fill="none" fill-rule="evenodd">
        <g id="Desktop" transform="translate(-598.000000, -2352.000000)">
            <g id="Group-8" transform="translate(590.000000, 2352.000000)">
                <g id="Group" transform="translate(8.000000, 0.000000)">
                    <g id="path-2-link" fill="url(#linearGradient-1)" fill-rule="nonzero">
                        <path d="M37.058167,0.543494355 C35.8746727,-0.122221219 34.4692732,-0.122221219 33.2857788,0.543494355 L2.14508352,18.5178149 C0.961589165,19.1835305 0.295873589,20.4409932 0.295873589,21.7724244 L0.295873589,57.7950339 C0.295873589,59.126465 1.03555756,60.3839277 2.14508352,61.0496433 L33.2857788,79.0239642 C34.4692732,79.6896794 35.8746727,79.6896794 37.058167,79.0239642 L68.1988621,61.0496433 C69.3823565,60.3839277 70.0480723,59.126465 70.0480723,57.7950339 L70.0480723,21.7724244 C70.0480723,20.4409932 69.3083885,19.1835305 68.1988621,18.5178149 L37.058167,0.543494355 Z" id="path-2"></path>
                    </g>
                    <g id="Clipped">
                        <mask id="mask-3" fill="white">
                            <use xlink:href="#path-2"></use>
                        </mask>
                        <g id="path-2"></g>
                        <g id="Group" mask="url(#mask-3)">
                            <path d="M33.2118104,0.543494355 L1.99714673,18.5178149 C0.813652371,19.1835305 0,20.4409932 0,21.7724244 L0,57.7950339 C0,58.6826547 0.369841987,59.496307 0.961589165,60.1620226 L36.0226095,0.0996839744 C35.1349887,-0.0482528218 34.0994312,0.0257155776 33.2118104,0.543494355 Z" id="Shape"></path>
                            <path d="M36.2445147,79.3938061 C36.5403883,79.3198374 36.8362618,79.1719008 37.1321354,79.0239642 L68.3467994,61.0496433 C69.5302938,60.3839277 70.2699776,59.126465 70.2699776,57.7950339 L70.2699776,21.7724244 C70.2699776,20.8108352 69.826167,19.8492461 69.1604512,19.1835305 L36.2445147,79.3938061 Z" id="Shape"></path>
                            <path d="M68.2728307,18.5178149 L36.9841987,0.543494355 C36.6883251,0.395557562 36.3184831,0.247620768 36.0226095,0.173652371 L0.961589165,60.235991 C1.25746275,60.605833 1.62730474,60.9017066 1.99714673,61.1236117 L33.2857788,79.0979322 C34.1733996,79.6157114 35.2089571,79.763648 36.1705463,79.4677741 L69.0864832,19.2574989 C68.8645779,18.9616253 68.568704,18.7397201 68.2728307,18.5178149 Z" id="Shape" fill="url(#linearGradient-4)" fill-rule="nonzero"></path>
                        </g>
                    </g>
                    <g id="Clipped">
                        <mask id="mask-6" fill="white">
                            <use xlink:href="#path-5"></use>
                        </mask>
                        <g id="path-2"></g>
                        <g id="Group" mask="url(#mask-6)">
                            <g transform="translate(0.000000, -6.557472)" id="Shape">
                                <path d="M70.2699776,64.3525056 L70.2699776,28.3298962 C70.2699776,26.998465 69.4563251,25.7410022 68.2728307,25.0752867 L36.9841987,7.10096614 C36.6143567,6.87906093 36.2445147,6.73112416 35.8007043,6.65715578 L70.0480723,65.1661581 C70.196009,64.9442528 70.2699776,64.6483795 70.2699776,64.3525056 Z" fill="none"></path>
                                <path d="M1.99714673,25.0752867 C0.813652371,25.7410022 0,26.998465 0,28.3298962 L0,64.3525056 C0,65.6839366 0.887620768,66.9413997 1.99714673,67.6071149 L33.2857788,85.5814355 C34.0254628,86.0252461 34.8391151,86.1731827 35.7267359,86.0252461 L2.21905192,25.0013183 L1.99714673,25.0752867 Z" fill="none"></path>
                                <path d="M68.3467994,67.6071149 C69.2344198,67.0893363 69.9001357,66.2017158 70.196009,65.2401267 L35.8746727,6.65715578 C34.9870519,6.50921894 34.0254628,6.58318733 33.2118104,7.10096614 L2.14508352,25.0013183 L35.6527675,86.0992147 C36.0965779,86.0252461 36.6143567,85.8773094 37.058167,85.6554042 L68.3467994,67.6071149 Z" fill="url(#linearGradient-7)" fill-rule="evenodd"></path>
                                <path d="M68.3467994,67.6071149 L37.1321354,85.5814355 C36.6883251,85.8033408 36.2445147,85.9512774 35.7267359,86.0252461 L36.3184831,87.1347718 L70.9356928,67.0893363 L70.9356928,66.6455258 L70.0480723,65.1661581 C69.9001357,66.2017158 69.2344198,67.0893363 68.3467994,67.6071149 Z" fill="url(#linearGradient-8)" fill-rule="evenodd"></path>
                                <path d="M68.3467994,67.6071149 L37.1321354,85.5814355 C36.6883251,85.8033408 36.2445147,85.9512774 35.7267359,86.0252461 L36.3184831,87.1347718 L70.9356928,67.0893363 L70.9356928,66.6455258 L70.0480723,65.1661581 C69.9001357,66.2017158 69.2344198,67.0893363 68.3467994,67.6071149 Z" fill="url(#linearGradient-9)" fill-rule="evenodd"></path>
                            </g>
                        </g>
                    </g>
                </g>
            </g>
        </g>
    </g>
</svg>