<?xml version="1.0" encoding="UTF-8"?>
<svg width="78px" height="80px" viewBox="0 0 78 80" version="1.1" xmlns="http://www.w3.org/2000/svg" xmlns:xlink="http://www.w3.org/1999/xlink">
    <!-- Generator: Sketch 51.2 (57519) - http://www.bohemiancoding.com/sketch -->
    <title>postgresql</title>
    <desc>Created with Sketch.</desc>
    <defs></defs>
    <g id="Page-1" stroke="none" stroke-width="1" fill="none" fill-rule="evenodd">
        <g id="Desktop" transform="translate(-592.000000, -2702.000000)" fill-rule="nonzero">
            <g id="Group-20" transform="translate(565.000000, 2702.000000)">
                <g id="postgresql" transform="translate(27.000000, 0.000000)">
                    <path d="M77.2751291,47.9047324 C76.810033,46.4961858 75.5915739,45.514933 74.0156933,45.2793394 C73.2727218,45.16844 72.4217173,45.2157379 71.4148448,45.423383 C69.6598055,45.785463 68.3576794,45.9232361 67.4074212,45.95011 C70.99418,39.8940052 73.9108852,32.9877921 75.5899615,26.486836 C78.3049339,15.9752313 76.8541061,11.1864959 75.1587264,9.02028694 C70.6718733,3.28720555 64.1255903,0.207107565 56.2277333,0.112690881 C52.0149933,0.0612723073 48.31626,0.893106585 46.3870782,1.49113864 C44.590653,1.17438589 42.6589627,0.997377003 40.6321394,0.964590945 C36.8334355,0.904035273 33.4767164,1.73210722 30.6085633,3.43411576 C29.0203205,2.89735601 26.472145,2.14041011 23.5291035,1.65721884 C16.6071244,0.520814612 11.0284778,1.40639653 6.94795718,4.28906152 C2.00675765,7.77943312 -0.283966688,13.8436 0.139743859,22.3133319 C0.274112954,25.0025054 1.77850934,33.18415 4.14698861,40.9436967 C5.50823709,45.4034964 6.95978164,49.1072461 8.46131148,51.9526461 C10.5906138,55.9874812 12.8689761,58.3636642 15.4268262,59.2168185 C16.8606341,59.6946352 19.4654238,60.0289455 22.2052992,57.7475373 C22.5525089,58.1678439 23.0156344,58.5858212 23.6306865,58.9738791 C24.4114606,59.4663867 25.3663769,59.8687773 26.31986,60.1072379 C29.7566632,60.9664833 32.9757885,60.7514927 35.7221136,59.5473664 C35.7389545,60.0357533 35.752033,60.5024621 35.7631409,60.9053903 C35.7814152,61.5591406 35.7993309,62.1999915 35.8233382,62.7992779 C35.9860145,66.8522079 36.2617397,70.0034321 37.0787039,72.20816 C37.1234936,72.3296297 37.18387,72.5143424 37.2476506,72.710163 C37.6550579,73.9581833 38.336757,76.0471748 40.0704767,77.6834321 C41.8661852,79.3780952 44.0379482,79.8980139 46.0269691,79.8978348 C47.0245252,79.8978348 47.9763958,79.7670488 48.8110967,79.5880691 C51.7871033,78.950443 55.1667548,77.9786858 57.6115558,74.4976303 C59.9228833,71.2066624 61.0465673,66.2500552 61.2499124,58.439807 C61.2762488,58.2190833 61.3006145,58.0082133 61.3240842,57.8071973 C61.3398503,57.6715739 61.3559745,57.5329052 61.3722779,57.3945945 L61.9169206,57.4424297 L62.0572021,57.4519252 C65.0882106,57.5900567 68.7942894,56.9472348 71.0703227,55.8900188 C72.8688979,55.0553182 78.6320779,52.0128433 77.2751291,47.9047324" id="Shape" fill="#000000"></path>
                    <path d="M72.0926027,48.7037806 C63.080557,50.5627321 62.4610261,47.5114788 62.4610261,47.5114788 C71.9763288,33.3923324 75.9540121,15.4701827 72.5213297,11.0838379 C63.1566997,-0.881282106 46.9460536,4.77744839 46.6755239,4.92435861 L46.5884527,4.93994542 C44.8079724,4.57034082 42.8153685,4.35015467 40.5758836,4.31360627 C36.4980503,4.24678003 33.4048736,5.38264679 31.0577142,7.16258939 C31.0577142,7.16258939 2.13951431,-4.75057458 3.48445936,22.1456393 C3.77057597,27.8676128 11.6856323,65.4406158 21.1264049,54.0918021 C24.5770033,49.941947 27.9109693,46.4331221 27.9109693,46.4331221 C29.566934,47.533157 31.5493261,48.0942824 33.6275682,47.8927288 L33.78899,47.7556721 C33.7388258,48.270933 33.7617579,48.7749067 33.8536664,49.3715055 C31.4215858,52.0888067 32.1362503,52.5659067 27.2744181,53.5666876 C22.3548968,54.5805473 25.2449073,56.3855721 27.1318077,56.8572973 C29.4193072,57.4293512 34.7114788,58.2396864 38.2873091,53.2339897 L38.1446988,53.8051479 C39.0976442,54.5683645 39.7668024,58.7698173 39.6546491,62.5783748 C39.5424958,66.3871118 39.4676073,69.0019342 40.2184618,71.0443445 C40.9693164,73.0867548 41.7176624,77.6821779 48.1089733,76.3126882 C53.4495179,75.1682218 56.2169836,72.202427 56.6019961,67.2553152 C56.875213,63.7382491 57.49349,64.2581679 57.5325467,61.1137518 L58.0284582,59.6251215 C58.600333,54.8575267 58.1192918,53.3194485 61.409543,54.0348297 L62.2091288,54.1050597 C64.6308182,54.2152424 67.8003164,53.7155685 69.6605221,52.8509482 C73.6661542,50.9919967 76.0418,47.8882497 72.0922442,48.7037806 L72.0926027,48.7037806" id="Shape" fill="#336791"></path>
                    <path d="M32.7504067,24.7045644 C31.9384591,24.5915152 31.202833,24.6961439 30.83072,24.9777815 C30.6212836,25.136337 30.5566073,25.3199748 30.5392288,25.4464609 C30.4924682,25.7813087 30.7271664,26.1514508 30.87121,26.342434 C31.2789755,26.8829561 31.8748576,27.2545315 32.4646482,27.336407 C32.550107,27.3482315 32.6350285,27.3539646 32.7195912,27.3539646 C33.703173,27.3539646 34.5971755,26.5882399 34.6760055,26.0229939 C34.7745427,25.3151375 33.7468879,24.8432332 32.7504067,24.7045644" id="Shape" fill="#FFFFFF"></path>
                    <path d="M59.6546827,24.7269592 L59.6545033,24.7269592 C59.577107,24.1721044 58.5895836,24.0139072 57.652583,24.1441556 C56.7170158,24.2745832 55.8095767,24.6968605 55.8853609,25.2529694 C55.9462748,25.6854588 56.7268697,26.4237721 57.6513291,26.423593 C57.729263,26.423593 57.808093,26.4183974 57.8874603,26.4072895 C58.504483,26.3218308 58.9572176,25.9300105 59.1722079,25.7040913 C59.4998894,25.3601064 59.6892603,24.9763482 59.6546827,24.7269592" id="Shape" fill="#FFFFFF"></path>
                    <path d="M75.0915418,48.4925524 C74.7479152,47.4534312 73.6419679,47.1189418 71.8043361,47.4985794 C66.3482342,48.6245924 64.3943285,47.8445348 63.7525818,47.3720933 C67.9936288,40.9112688 71.4823879,33.1019161 73.3644509,25.8153489 C74.2561242,22.3638547 74.7486318,19.1585247 74.7887633,16.5460312 C74.8331948,13.6780572 74.344987,11.5709707 73.3375773,10.2837148 C69.2762264,5.09420112 63.3157924,2.31061096 56.1005306,2.23411015 C51.14034,2.17839177 46.9494576,3.44791097 46.1369724,3.8047953 C44.4260061,3.37929315 42.5607839,3.11807964 40.5303773,3.08475612 C36.8065618,3.02455875 33.5879739,3.91605291 30.922987,5.73308139 C29.7654419,5.30238367 26.7738484,4.27544545 23.115605,3.68619218 C16.790583,2.66767444 11.7646413,3.43931136 8.17788227,5.98032052 C3.89813703,9.01240394 1.92237385,14.4323158 2.3052362,22.0892043 C2.43405137,24.6655077 3.90172021,32.5902388 6.21824339,40.1797633 C9.26734691,50.1687621 12.5816054,55.82373 16.0691105,56.9868291 C16.4772342,57.1229897 16.9480635,57.2183021 17.4669074,57.2183021 C18.739114,57.2183021 20.2986913,56.6448148 21.9215117,54.6939548 C24.6169557,51.4511806 27.1335993,48.7338791 28.0612835,47.7465352 C29.4322066,48.4825194 30.9380364,48.8933306 32.4786227,48.934537 C32.48131,48.9748479 32.4854306,49.0151585 32.4890139,49.05529 C32.1799652,49.4218491 31.9264555,49.7430806 31.7103897,50.0173727 C30.6431409,51.3721715 30.4209839,51.6541676 26.9854349,52.3616658 C26.0083029,52.5632194 23.4124711,53.0981873 23.3746686,54.9175448 C23.3332829,56.9053118 26.4425838,57.7401918 26.7969599,57.8286961 C28.0315432,58.1377452 29.2207992,58.2902094 30.3550536,58.2902094 C33.1137406,58.29003 35.541163,57.3834867 37.4812736,55.6293427 C37.4214345,62.7159688 37.7170467,69.6990412 38.5678718,71.8267309 C39.2646203,73.5683336 40.9671664,77.8251467 46.3449758,77.8247882 C47.1338121,77.8247882 48.002553,77.7330591 48.958007,77.5282806 C54.5703352,76.3248709 57.0074324,73.8444173 57.9503452,68.3757742 C58.4548561,65.453157 59.3207306,58.473847 59.7277794,54.7303239 C60.5872042,54.9983455 61.6936888,55.1210694 62.889753,55.1208903 C65.38436,55.1208903 68.2627252,54.5909385 70.0679291,53.7530127 C72.0956485,52.8113542 75.7551461,50.5002058 75.0915418,48.4925524 Z M61.7261167,23.1953307 C61.7074839,24.3005613 61.5553782,25.3038505 61.3941355,26.3512128 C61.2207097,27.4775842 61.0411924,28.6421163 60.9960445,30.0558584 C60.9514339,31.4316188 61.1232473,32.8620224 61.2895067,34.2451285 C61.6252503,37.0389306 61.9697724,39.9153252 60.6359355,42.7535588 C60.4286485,42.3853873 60.2285282,41.9837133 60.0450697,41.5388621 C59.8793479,41.1370088 59.5194179,40.4914997 59.0211773,39.5980348 C57.0819624,36.1205627 52.5410036,27.9770789 54.8655888,24.6540416 C55.5578585,23.6647267 57.3150479,22.6480005 61.7261167,23.1953307 Z M56.3794806,4.47216179 C62.8442467,4.61495136 67.9579761,7.03341591 71.5787752,11.6600126 C74.3557367,15.20879 71.2978542,31.3563721 62.4454391,45.2868639 C62.3580097,45.1757855 62.2689679,45.0636321 62.17688,44.9486121 C62.1401524,44.9025685 62.1027085,44.8558079 62.0649058,44.80851 C64.3524055,41.0305885 63.9050458,37.2927988 63.5069552,33.9787194 C63.343383,32.6187248 63.1889482,31.3341564 63.2281839,30.127701 C63.268853,28.8485072 63.4379788,27.7518763 63.6013718,26.6912562 C63.802567,25.3841137 64.0069873,24.0318231 63.9505521,22.437489 C63.9926545,22.2703338 64.0096745,22.0727217 63.9876382,21.8382028 C63.8435942,20.3092617 62.0982294,15.7340836 58.5404939,11.5924697 C56.5946503,9.32754427 53.7565961,6.79262648 49.8817497,5.08291412 C51.5484639,4.73749597 53.8277221,4.41536845 56.3794806,4.47216179 Z M20.2042746,53.2660591 C18.416449,55.4156064 17.1816866,55.0037203 16.7757128,54.8684555 C14.1300749,53.9859191 11.0605473,48.3945524 8.35417455,39.5278045 C6.01238994,31.8556876 4.64379594,24.1409308 4.53558403,21.9775884 C4.19356988,15.1358724 5.85204282,10.3675611 9.46513821,7.805232 C15.3451298,3.63531109 25.0125383,6.13117224 28.8970593,7.39710827 C28.8411617,7.45211 28.7831143,7.50370776 28.7277542,7.5596053 C22.3534635,13.9973182 22.5046735,24.9962349 22.5202603,25.6684387 C22.5197229,25.9278606 22.5414011,26.2951361 22.5713206,26.8003639 C22.6809658,28.6501785 22.8850276,32.0932521 22.3398474,35.9924642 C21.8330072,39.6157715 22.9498831,43.16222 25.403642,45.7223991 C25.6576891,45.9873748 25.9228442,46.2362264 26.1967779,46.470387 C25.1044468,47.6401148 22.7307719,50.2266303 20.2042746,53.2660591 Z M27.0160711,44.1771545 C25.0383372,42.1137827 24.1402142,39.2434797 24.5515627,36.3016921 C25.1273791,32.1826524 24.9147176,28.5953559 24.8005935,26.6681447 C24.7846483,26.3985108 24.7704948,26.1622003 24.7620743,25.975696 C25.6933417,25.1501323 30.0087396,22.8377297 33.0861503,23.5428987 C34.4907552,23.8646679 35.3462385,24.8208384 35.7020479,26.4658745 C37.5434418,34.9818294 35.9458827,38.5313233 34.66221,41.3835315 C34.3975924,41.9711721 34.1476661,42.5265645 33.9341088,43.1013058 L33.7687452,43.5454406 C33.3498718,44.668587 32.9602015,45.7127245 32.7186955,46.7043685 C30.6164464,46.6979188 28.5711694,45.7999748 27.0160711,44.1771545 Z M27.3387361,55.6621288 C26.7249381,55.5087691 26.1727707,55.24236 25.8488516,55.021457 C26.1193813,54.8940752 26.6009602,54.7210079 27.4360193,54.5490155 C31.4776624,53.7168227 32.1016727,53.1297194 33.4647127,51.3990455 C33.7773448,51.0023879 34.1315418,50.55252 34.6220785,50.0046524 C34.6222576,50.0042942 34.622437,50.0041152 34.6226161,50.0039358 C35.3534048,49.185897 35.6875358,49.3245658 36.29363,49.5759255 C36.7848833,49.7792709 37.2632376,50.3948603 37.4572664,51.0724388 C37.5489958,51.3924167 37.6521912,51.9999439 37.3148352,52.4723858 C34.4674645,56.4590273 30.3185052,56.4077879 27.3387361,55.6621288 Z M48.4898648,75.344693 C43.5456197,76.4040591 41.7950591,73.8813242 40.6414558,70.9974048 C39.8968718,69.1354076 39.5310294,60.7394891 39.7906306,51.4678424 C39.7940345,51.3444021 39.776477,51.2252615 39.742437,51.1132873 C39.7128758,50.8970424 39.6673694,50.6782897 39.6043055,50.4581033 C39.2180391,49.1090376 38.2772764,47.9805164 37.1485758,47.5127327 C36.7001415,47.3269452 35.8769067,46.9860061 34.8877709,47.2389782 C35.09882,46.3698788 35.4646624,45.3886264 35.8611406,44.3258564 L36.0275794,43.8786758 C36.2149794,43.3747021 36.4498567,42.8526336 36.6985288,42.3001079 C38.0418615,39.3156806 39.8816433,35.2281727 37.8849185,25.993791 C37.1369306,22.5351305 34.639457,20.8462006 30.8532942,21.2383792 C28.5833522,21.4732564 26.5069018,22.3891161 25.4711848,22.9142305 C25.2484905,23.0271006 25.0447869,23.1360291 24.8545203,23.2422703 C25.1435034,19.7572734 26.2358345,13.2446721 30.3213718,9.12419903 C32.8935545,6.5299797 36.3194288,5.24881518 40.4934706,5.3177913 C48.7177548,5.45251873 53.9916524,9.67314158 56.9680173,13.1902078 C59.5326755,16.2210372 60.9215145,19.273903 61.4758318,20.9203723 C57.3077024,20.4966618 54.4728727,21.3195381 53.0356609,23.373952 C49.90934,27.8428889 54.74609,36.5170412 57.0706755,40.6857079 C57.4968942,41.44982 57.8648864,42.1100203 57.9806227,42.390583 C58.7375688,44.2251691 59.7175673,45.4498985 60.4331276,46.34408 C60.6524179,46.6180139 60.8652585,46.8837064 61.0270391,47.115717 C59.7646861,47.4797676 57.4970733,48.32056 57.7036433,52.5238042 C57.5370258,54.6330409 56.3517112,64.507557 55.7497376,67.9963161 C54.9549891,72.6053552 53.2588927,74.3222339 48.4898648,75.344693 Z M69.1275245,51.7274436 C67.8366855,52.3267297 65.6763888,52.7762391 63.6241248,52.8726264 C61.3574079,52.9788676 60.2036252,52.6187585 59.9321997,52.3973182 C59.8046385,49.7780167 60.7797997,49.5042621 61.8115755,49.2145621 C61.9737139,49.1688767 62.1319112,49.1246245 62.2845545,49.0712352 C62.3795088,49.1484527 62.4834209,49.2251327 62.5971867,49.3002003 C64.4190524,50.5027139 67.6686345,50.6324248 72.2559955,49.6855706 C72.2728364,49.6819876 72.2896773,49.6787627 72.3063391,49.6753588 C71.6877039,50.2538624 70.6288755,51.0303367 69.1275245,51.7274436 Z" id="Shape" fill="#FFFFFF"></path>
                </g>
            </g>
        </g>
    </g>
</svg>