<?xml version="1.0" encoding="UTF-8"?>
<svg width="81px" height="80px" viewBox="0 0 81 80" version="1.1" xmlns="http://www.w3.org/2000/svg" xmlns:xlink="http://www.w3.org/1999/xlink">
    <!-- Generator: Sketch 51.2 (57519) - http://www.bohemiancoding.com/sketch -->
    <title>python</title>
    <desc>Created with Sketch.</desc>
    <defs>
        <linearGradient x1="12.9593594%" y1="12.0393928%" x2="79.6388325%" y2="78.2008538%" id="linearGradient-1">
            <stop stop-color="#387EB8" offset="0%"></stop>
            <stop stop-color="#366994" offset="100%"></stop>
        </linearGradient>
        <linearGradient x1="19.127525%" y1="20.5791813%" x2="90.7415328%" y2="88.4290372%" id="linearGradient-2">
            <stop stop-color="#FFE052" offset="0%"></stop>
            <stop stop-color="#FFC331" offset="100%"></stop>
        </linearGradient>
    </defs>
    <g id="Page-1" stroke="none" stroke-width="1" fill="none" fill-rule="evenodd">
        <g id="Desktop" transform="translate(-1082.000000, -2519.000000)" fill-rule="nonzero">
            <g id="Group-17" transform="translate(1082.000000, 2519.000000)">
                <g id="python">
                    <path d="M39.8167423,0.0226746821 C19.4772025,0.0226761328 20.7473345,8.84312621 20.7473345,8.84312621 L20.7700092,17.9810232 L40.1795376,17.9810232 L40.1795376,20.7246598 L13.0606171,20.7246598 C13.0606171,20.7246598 0.0453493641,19.2486098 0.0453493641,39.7713929 C0.0453479134,60.2941719 11.4053653,59.5663909 11.4053653,59.5663909 L18.1850954,59.5663909 L18.1850954,50.0430243 C18.1850954,50.0430243 17.8196506,38.6830083 29.3637139,38.6830083 L48.6145192,38.6830083 C48.6145192,38.6830083 59.4303429,38.8578466 59.4303429,28.2299797 L59.4303429,10.6571008 C59.4303429,10.6570993 61.0724835,0.0226746821 39.8167423,0.0226746821 Z M29.1142924,6.16751363 C31.0453982,6.16751222 32.6061936,7.72830889 32.6061936,9.65941475 C32.6061948,11.5905206 31.0453982,13.1513159 29.1142924,13.1513159 C27.1831865,13.1513173 25.6223912,11.5905206 25.6223912,9.65941475 C25.6223898,7.72830889 27.1831865,6.16751363 29.1142924,6.16751363 Z" id="Shape" fill="url(#linearGradient-1)"></path>
                    <path d="M40.3943846,79.7258889 C60.7339304,79.7258889 59.4637926,70.9054372 59.4637926,70.9054372 L59.4411181,61.7675404 L40.0315896,61.7675404 L40.0315896,59.0239037 L67.1505101,59.0239037 C67.1505101,59.0239037 80.1657779,60.4999495 80.1657779,39.9771633 C80.1657851,19.4543864 68.8057619,20.1821675 68.8057619,20.1821675 L62.0260317,20.1821675 L62.0260317,29.705532 C62.0260317,29.705532 62.3914824,41.0655479 50.8474133,41.0655479 L31.5966061,41.0655479 C31.5966061,41.0655479 20.7807827,40.89071 20.7807827,51.5185838 L20.7807827,69.0914629 C20.7807827,69.0914629 19.1386424,79.7258889 40.3943846,79.7258889 Z M51.0968345,73.58105 C49.1657283,73.58105 47.6049336,72.0202554 47.6049336,70.0891489 C47.6049336,68.158042 49.1657283,66.5972477 51.0968345,66.5972477 C53.0279413,66.5972477 54.5887357,68.158042 54.5887357,70.0891489 C54.5887429,72.0202554 53.0279413,73.58105 51.0968345,73.58105 Z" id="Shape" fill="url(#linearGradient-2)"></path>
                </g>
            </g>
        </g>
    </g>
</svg>