<?xml version="1.0" encoding="UTF-8"?>
<svg width="90px" height="80px" viewBox="0 0 90 80" version="1.1" xmlns="http://www.w3.org/2000/svg" xmlns:xlink="http://www.w3.org/1999/xlink">
    <!-- Generator: Sketch 51.2 (57519) - http://www.bohemiancoding.com/sketch -->
    <title>react</title>
    <desc>Created with Sketch.</desc>
    <defs></defs>
    <g id="Page-1" stroke="none" stroke-width="1" fill="none" fill-rule="evenodd">
        <g id="Desktop" transform="translate(-920.000000, -2361.000000)" fill="#00D8FF" fill-rule="nonzero">
            <g id="Group-10" transform="translate(920.000000, 2361.000000)">
                <g id="react">
                    <path d="M73.8538179,25.9030307 C72.9219993,25.5822984 71.9564446,25.2788337 70.9622702,24.9918375 C71.1256744,24.3249508 71.2756477,23.666698 71.4089933,23.0196373 C73.5978396,12.394699 72.1666954,3.83517467 67.2797642,1.01701503 C62.5938102,-1.68522688 54.9302902,1.13229322 47.1905039,7.86799214 C46.4462319,8.51569239 45.6998814,9.20144565 44.9538516,9.92013547 C44.4567639,9.44463298 43.9604765,8.98511919 43.4654681,8.54559116 C35.3539456,1.34334338 27.2233966,-1.69178223 22.341262,1.13453163 C17.6597849,3.844608 16.273409,11.8913763 18.2436905,21.960709 C18.4339554,22.9332986 18.6563575,23.9265136 18.907859,24.9363568 C17.7571558,25.2630049 16.6462644,25.6112378 15.5833388,25.9816948 C6.07344902,29.2972614 0,34.4935729 0,39.883507 C0,45.4502761 6.51985214,51.0338326 16.4251413,54.4194291 C17.2068264,54.6865996 18.0179307,54.9392204 18.8538174,55.1790502 C18.58249,56.2712351 18.3464975,57.3415151 18.1483981,58.3854144 C16.2697316,68.2799912 17.7368502,76.136654 22.4058561,78.8296228 C27.2285129,81.6106891 35.3222877,78.7520779 43.2035737,71.8628881 C43.8264916,71.3183144 44.4516477,70.7408046 45.0779232,70.1354744 C45.8896674,70.9171593 46.7001316,71.656954 47.5062796,72.3508614 C55.1402211,78.9201186 62.6799891,81.5727961 67.3446779,78.872313 C72.1625382,76.0832519 73.728307,67.6433228 71.6955095,57.3747719 C71.5402596,56.5905284 71.3595881,55.7893368 71.1566923,54.9739161 C71.7250888,54.8058747 72.2830926,54.6323982 72.8271867,54.4520463 C83.1246775,51.0402281 89.8245614,45.5246228 89.8245614,39.883507 C89.8245614,34.4740669 83.5552512,29.2427401 73.8538179,25.9030307 Z M71.6203632,50.8096719 C71.1291919,50.9722761 70.6252295,51.1294449 70.111674,51.2818165 C68.9748811,47.6829312 67.4406102,43.8560474 65.5630628,39.902214 C67.3547512,36.0425533 68.8297039,32.2645952 69.9346796,28.6890531 C70.8535474,28.9549444 71.7453944,29.2353854 72.6047846,29.5313353 C80.9169642,32.3928241 85.9872853,36.6235811 85.9872853,39.883507 C85.9872853,43.3559225 80.5114923,47.8636028 71.6203632,50.8096719 Z M67.9311418,58.1200025 C68.8300235,62.6606196 68.9584123,66.7658656 68.3629951,69.9751077 C67.8280151,72.8588211 66.7521386,74.7814561 65.4218828,75.5514698 C62.5910919,77.1899867 56.5374695,75.0601386 50.0088232,69.4420463 C49.2603944,68.7980232 48.5065295,68.1103516 47.7502663,67.3825477 C50.2812698,64.6144326 52.8108344,61.3963972 55.2796421,57.8224537 C59.6219996,57.4371277 63.7245281,56.8071744 67.444927,55.9471449 C67.6281568,56.6863004 67.7909214,57.4112256 67.9311418,58.1200025 Z M30.6232234,75.2683109 C27.8575065,76.2450575 25.65475,76.2730375 24.3232151,75.5052625 C21.4898663,73.8710625 20.3119824,67.5629 21.9186819,59.1010663 C22.1027113,58.131994 22.3217558,57.1365411 22.5742166,56.1190232 C26.2538447,56.9326856 30.3263141,57.5181898 34.6790644,57.8710593 C37.1645004,61.3682575 39.767133,64.5827754 42.3899112,67.3974175 C41.8168779,67.9506246 41.2460828,68.4772912 40.678486,68.9735786 C37.1934396,72.0198965 33.7010388,74.1812421 30.6232234,75.2683109 Z M17.6661804,50.7884067 C13.2862493,49.2913895 9.66913677,47.3457305 7.18977663,45.2225975 C4.96191804,43.3146719 3.83711639,41.4204965 3.83711639,39.883507 C3.83711639,36.6127088 8.71349512,32.4407901 16.8464422,29.6052028 C17.8332618,29.2611271 18.8662885,28.9368772 19.9383276,28.6322934 C21.0623298,32.2885781 22.5368032,36.1113046 24.3161802,39.9768807 C22.5137795,43.8998561 21.018361,47.7835 19.8833266,51.4826337 C19.1190691,51.2629498 18.3786347,51.031754 17.6661804,50.7884067 Z M22.0094975,21.223792 C20.3214156,12.5966357 21.4425399,6.08861516 24.2637374,4.45553435 C27.2688044,2.71580921 33.9138475,5.19628849 40.9175165,11.4150744 C41.3651986,11.8125522 41.8146396,12.2285769 42.2653596,12.6589914 C39.6555323,15.4613223 37.0767228,18.6516978 34.6133514,22.12827 C30.3888297,22.5198321 26.34498,23.1488256 22.6269792,23.9911078 C22.3932251,23.0508152 22.186172,22.1269909 22.0094975,21.223792 Z M60.7557547,30.7912409 C59.866946,29.2560107 58.9544733,27.7570746 58.024254,26.2990696 C60.8902196,26.6613724 63.6361102,27.142311 66.21476,27.7308533 C65.4405891,30.2119721 64.4756747,32.8061308 63.3398407,35.4655232 C62.5250593,33.9186211 61.6632709,32.3589282 60.7557547,30.7912409 Z M44.9551302,15.4013649 C46.725074,17.3188838 48.4975758,19.4597642 50.2409786,21.7825954 C48.4841453,21.6996143 46.7055677,21.6564449 44.9122811,21.6564449 C43.1359418,21.6564449 41.3704751,21.698655 39.624514,21.7801971 C41.3696754,19.4789505 43.1575263,17.3409481 44.9551302,15.4013649 Z M29.0532977,30.8177821 C28.1654479,32.3573293 27.3196482,33.9085483 26.5176575,35.4626453 C25.4002107,32.8125262 24.4442492,30.206536 23.6633635,27.6902421 C26.2261844,27.1167292 28.9591245,26.6477821 31.8068632,26.2923544 C30.8635328,27.7637899 29.9435458,29.2737581 29.0532977,30.8174624 L29.0532977,30.8177821 Z M31.8888849,53.7483856 C28.9466534,53.4201386 26.1726224,52.9753347 23.6104411,52.4176502 C24.403798,49.8564281 25.3808644,47.1947975 26.5219744,44.4875989 C27.3260437,46.0405768 28.175201,47.5924354 29.0684869,49.1353404 L29.0686468,49.1353404 C29.9785609,50.7071846 30.9212518,52.2468912 31.8888849,53.7483856 Z M45.0612951,64.6361772 C43.242586,62.6738902 41.4285137,60.5032712 39.6568112,58.1684484 C41.3767102,58.2359204 43.1301856,58.2704561 44.9122811,58.2704561 C46.7431414,58.2704561 48.5530565,58.2292053 50.3345123,58.1499014 C48.5853533,60.5267747 46.8192474,62.7007512 45.0612951,64.6361772 Z M63.3764547,44.3496172 C64.5770425,47.0860747 65.5891242,49.7337954 66.3927137,52.2513684 C63.7883225,52.8455063 60.9763986,53.324047 58.0137014,53.6796347 C58.9461596,52.2019632 59.866626,50.6772853 60.7711039,49.1089586 C61.6861347,47.5222453 62.5549579,45.9331333 63.3764547,44.3496172 Z M57.4472232,47.1919196 C56.0431,49.6265112 54.6015632,51.9506214 53.1381221,54.1444249 C50.4726537,54.3350091 47.7189284,54.4331796 44.9122811,54.4331796 C42.1169853,54.4331796 39.3979547,54.3463611 36.7796537,54.1764018 C35.257214,51.9538196 33.7843396,49.6228344 32.3891699,47.2128646 L32.3894896,47.2128646 C30.9979973,44.8094509 29.7173064,42.3857309 28.5568501,39.9756021 C29.7169866,37.5598765 30.9943199,35.1334389 32.3778179,32.7343418 L32.3774981,32.7348214 C33.7646734,30.3293288 35.2245972,28.0096953 36.7329663,25.8010231 C39.4043502,25.5990865 42.143686,25.4937212 44.9121211,25.4937212 L44.9122811,25.4937212 C47.693187,25.4937212 50.43604,25.5998858 53.1066242,25.8035813 C54.5919698,27.996105 56.0419807,30.3082238 57.4345923,32.7140362 C58.843033,35.1468695 60.1368344,37.5571582 61.3068835,39.9210807 C60.1403519,42.3256137 58.8494284,44.760206 57.4472232,47.1919196 Z M65.3630446,4.34137537 C68.3709898,6.07598414 69.5407189,13.0716585 67.6508607,22.2451471 C67.530306,22.8304916 67.3945628,23.4267084 67.247147,24.0309195 C63.5205123,23.1710499 59.4737846,22.5311841 55.2369526,22.1337062 C52.7687842,18.618921 50.2110796,15.4235891 47.6437818,12.6572326 C48.3340119,11.993224 49.0232828,11.3600734 49.7096754,10.7625775 C56.3411284,4.99147393 62.5391291,2.71293125 65.3630446,4.34137537 Z M44.9122811,31.8624806 C49.3420965,31.8624806 52.9333074,35.4535316 52.9333074,39.883507 C52.9333074,44.3133225 49.3420965,47.904534 44.9122811,47.904534 C40.4824653,47.904534 36.8912544,44.3133225 36.8912544,39.883507 C36.8912544,35.4535316 40.4824653,31.8624806 44.9122811,31.8624806 Z" id="Shape"></path>
                </g>
            </g>
        </g>
    </g>
</svg>