<?xml version="1.0" encoding="UTF-8"?>
<svg width="89px" height="80px" viewBox="0 0 89 80" version="1.1" xmlns="http://www.w3.org/2000/svg" xmlns:xlink="http://www.w3.org/1999/xlink">
    <!-- Generator: Sketch 52.5 (67469) - http://www.bohemiancoding.com/sketch -->
    <title>sketch</title>
    <desc>Created with Sketch.</desc>
    <g id="Page-1" stroke="none" stroke-width="1" fill="none" fill-rule="evenodd">
        <g id="Desktop-HD-Copy-3" transform="translate(-600.000000, -2469.000000)">
            <g id="sketch" transform="translate(600.000000, 2469.000000)">
                <polygon id="Path" fill="#FDB300" points="44.1378621 6.89655172e-05 19.2602759 2.63041379 -6.89655172e-05 28.4852414 44.1378621 79.8835172 88.2757931 28.4852414 69.0157931 2.63041379"></polygon>
                <polygon id="Path" fill="#EB6C00" points="0 28.4853793 44.137931 79.8833103 17.877931 28.4853793"></polygon>
                <polygon id="Path" fill="#EB6C00" points="70.3976897 28.4853793 44.1380345 79.8833103 88.2756207 28.4853793"></polygon>
                <polygon id="Path" fill="#FDAD00" points="17.8780345 28.4853793 44.1380345 79.8833103 70.3980345 28.4853793"></polygon>
                <polygon id="Path" fill="#FDD231" points="19.2602759 2.63041379 17.8778621 28.4852414 44.1378621 6.89655172e-05"></polygon>
                <polygon id="Path" fill="#FDD231" points="70.3976897 28.4853793 69.0156207 2.6302069 44.1380345 0.000206896552"></polygon>
                <polygon id="Path" fill="#FDAD00" points="70.398 28.4853793 88.2755862 28.4853793 69.0155862 2.6302069"></polygon>
                <polygon id="Path" fill="#FDAD00" points="0 28.4853793 17.877931 28.4853793 19.2603448 2.6302069"></polygon>
                <polygon id="Path" fill="#FEEEB7" points="44.1378621 6.89655172e-05 17.8778621 28.4852414 70.3978621 28.4852414"></polygon>
            </g>
        </g>
    </g>
</svg>