<?xml version="1.0" encoding="UTF-8"?>
<svg width="80px" height="80px" viewBox="0 0 80 80" version="1.1" xmlns="http://www.w3.org/2000/svg" xmlns:xlink="http://www.w3.org/1999/xlink">
    <!-- Generator: Sketch 51.2 (57519) - http://www.bohemiancoding.com/sketch -->
    <title>typescript-icon</title>
    <desc>Created with Sketch.</desc>
    <defs></defs>
    <g id="Page-1" stroke="none" stroke-width="1" fill="none" fill-rule="evenodd">
        <g id="Desktop" transform="translate(-424.000000, -2353.000000)" fill-rule="nonzero">
            <g id="Group-7" transform="translate(405.000000, 2353.000000)">
                <g id="typescript-icon" transform="translate(19.000000, 0.000000)">
                    <polygon id="Shape" fill="#007ACC" transform="translate(40.000000, 40.000000) scale(-1, 1) rotate(-180.000000) translate(-40.000000, -40.000000) " points="0 40 0 0 40 0 80 0 80 40 80 80 40 80 0 80"></polygon>
                    <path d="M45.8306667,69.8240194 L45.8560633,66.5478291 L40.6497142,66.5478291 L35.4433651,66.5478291 L35.4433651,51.7541782 L35.4433651,36.9605276 L31.7608254,36.9605276 L28.0782856,36.9605276 L28.0782856,51.7541782 L28.0782856,66.5478291 L22.8719364,66.5478291 L17.6655872,66.5478291 L17.6655872,69.7605276 C17.6655872,71.5383051 17.7036824,73.0240194 17.7544761,73.0621147 C17.7925713,73.1129085 24.1290793,73.1383051 31.8116189,73.1256069 L45.7925714,73.0875116 L45.8306667,69.8240194 Z" id="Shape" fill="#FFFFFF" transform="translate(31.760825, 55.044685) rotate(-180.000000) translate(-31.760825, -55.044685) "></path>
                    <path d="M64.5520722,73.210045 C66.5838184,72.7021084 68.1330247,71.8005209 69.5552469,70.3275053 C70.291755,69.5402037 71.3838184,68.1052831 71.4727072,67.7624259 C71.4981041,67.6608384 68.0187391,65.3243306 65.9108025,64.016394 C65.8346119,63.9656003 65.52985,64.295759 65.1869928,64.8036956 C64.1584216,66.3021084 63.0790566,66.9497275 61.4282628,67.0640131 C59.0028659,67.2290925 57.4409613,65.9592512 57.4536597,63.8386162 C57.4536597,63.216394 57.5425484,62.84814 57.7965169,62.3402037 C58.32985,61.2354415 59.3203263,60.5751244 62.4314375,59.2290925 C68.1584216,56.7656003 70.6092153,55.1402037 72.1330247,52.8290925 C73.8346119,50.2513147 74.2155644,46.137029 73.0600088,43.0767115 C71.7901675,39.7497275 68.6409613,37.48941 64.2092153,36.7402037 C62.8377866,36.4989337 59.5869928,36.537029 58.1139772,36.8036956 C54.9012788,37.3751244 51.8536597,38.9624259 49.9742947,41.0449656 C49.2377866,41.857664 47.8028659,43.9782987 47.891755,44.1306797 C47.92985,44.1814734 48.2600088,44.3846481 48.6282628,44.6005209 C48.9838184,44.8036956 50.32985,45.5782987 51.5996912,46.3148069 L53.8981041,47.64814 L54.3806438,46.937029 C55.0536597,45.9084575 56.5266756,44.4989337 57.4155644,44.0290925 C59.9679453,42.6830606 63.4727072,42.8735369 65.1996913,44.4227434 C65.9361994,45.095759 66.2409613,45.7941719 66.2409613,46.8227434 C66.2409613,47.7497275 66.1266756,48.1560765 65.6441359,48.8544894 C65.0219134,49.7433781 63.7520722,50.4925847 60.1457231,52.0544894 C56.0187391,53.8322672 54.2409613,54.937029 52.6155644,56.68941 C51.6758819,57.7052831 50.7869928,59.3306797 50.4187391,60.68941 C50.1139772,61.8195687 50.0377866,64.6513147 50.2790566,65.7941719 C51.12985,69.7814734 54.1393738,72.5624259 58.4822309,73.3878228 C59.891755,73.6544894 63.1679453,73.5529019 64.5520722,73.210045 Z" id="Shape" fill="#FFFFFF" transform="translate(60.805784, 55.059450) scale(-1, 1) rotate(-180.000000) translate(-60.805784, -55.059450) "></path>
                </g>
            </g>
        </g>
    </g>
</svg>