<?xml version="1.0" encoding="UTF-8"?>
<svg width="72px" height="80px" viewBox="0 0 72 80" version="1.1" xmlns="http://www.w3.org/2000/svg" xmlns:xlink="http://www.w3.org/1999/xlink">
    <!-- Generator: Sketch 51.2 (57519) - http://www.bohemiancoding.com/sketch -->
    <title>webpack</title>
    <desc>Created with Sketch.</desc>
    <defs></defs>
    <g id="Page-1" stroke="none" stroke-width="1" fill="none" fill-rule="evenodd">
        <g id="Desktop" transform="translate(-594.000000, -2521.000000)" fill-rule="nonzero">
            <g id="Group-14" transform="translate(578.000000, 2521.000000)">
                <g id="webpack" transform="translate(16.000000, 0.000000)">
                    <path d="M68.9350015,61.2135699 L37.1233312,79.2285084 L37.1233312,65.2185818 L56.950423,54.2999759 L68.9350015,61.2135699 Z M71.1126312,59.2491347 L71.1126312,21.6050711 L59.478301,28.320699 L59.478301,52.5335068 L71.1126312,59.2491347 Z M2.50967563,61.2135699 L34.3213459,79.2132802 L34.3213459,65.2033535 L14.4942541,54.2999759 L2.50967563,61.2135699 Z M0.332045714,59.2491347 L0.332045714,21.6050711 L11.9663761,28.320699 L11.9663761,52.5335068 L0.332045714,59.2491347 Z M1.68735385,19.1685621 L34.3213459,0.712006684 L34.3213459,14.2650878 L13.4130533,25.7623645 L13.2455433,25.8537335 L1.68735385,19.1685621 Z M69.7420951,19.1685621 L37.1233312,0.712006684 L37.1233312,14.2650878 L58.0163957,25.7775927 L58.1839054,25.8689617 L69.7420951,19.1685621 Z" id="Shape" fill="#8ED6FB"></path>
                    <path d="M34.3213459,62.0206635 L14.7683614,51.2543395 L14.7683614,29.9501144 L34.3213459,41.2341965 L34.3213459,62.0206635 Z M37.1233312,62.0206635 L56.6763157,51.2695677 L56.6763157,29.9501144 L37.1233312,41.2341965 L37.1233312,62.0206635 Z M16.0779849,27.4831489 L35.7223384,16.6863686 L55.351464,27.4831489 L35.7223384,38.8129157 L16.0779849,27.4831489 Z" id="Shape" fill="#1C78C0"></path>
                </g>
            </g>
        </g>
    </g>
</svg>